<svg width="807" height="976" viewBox="0 0 807 976" fill="none" xmlns="http://www.w3.org/2000/svg">
<g clipPath="url(#clip0)">
<g filter="url(#filter0_d)">
<path d="M346.324 596.976V591.975H339.929V602.584L339.944 602.592C339.976 603.709 340.73 604.82 342.204 605.673L408.166 643.815C411.182 645.559 416.07 645.559 419.085 643.815L581.037 550.167C582.474 549.336 583.226 548.259 583.293 547.17L583.294 547.169V547.147C583.299 547.058 583.299 546.968 583.294 546.878L583.305 536.206L574.185 539.891L515.074 505.71C512.059 503.967 507.17 503.967 504.155 505.71L346.324 596.976Z" fill="url(#paint0_linear)"/>
</g>
<path d="M504.154 495.187L342.203 588.835C339.187 590.579 339.187 593.406 342.203 595.149L408.165 633.292C411.18 635.036 416.069 635.036 419.084 633.292L581.035 539.644C584.05 537.901 584.05 535.074 581.035 533.33L515.073 495.187C512.057 493.444 507.169 493.444 504.154 495.187Z" fill="#673AB7"/>
<path d="M504.154 495.187L342.203 588.835C339.187 590.579 339.187 593.406 342.203 595.149L408.165 633.292C411.18 635.036 416.069 635.036 419.084 633.292L581.035 539.644C584.05 537.901 584.05 535.074 581.035 533.33L515.073 495.187C512.057 493.444 507.169 493.444 504.154 495.187Z" fill="url(#paint1_linear)" fill-opacity="0.3"/>
<mask id="mask0" mask-type="alpha" maskUnits="userSpaceOnUse" x="339" y="493" width="245" height="142">
<path d="M504.154 495.187L342.203 588.835C339.187 590.579 339.187 593.406 342.203 595.149L408.165 633.292C411.18 635.036 416.069 635.036 419.084 633.292L581.035 539.644C584.05 537.901 584.05 535.074 581.035 533.33L515.073 495.187C512.057 493.444 507.169 493.444 504.154 495.187Z" fill="#673AB7"/>
</mask>
<g mask="url(#mask0)">
</g>
<mask id="mask1" mask-type="alpha" maskUnits="userSpaceOnUse" x="339" y="493" width="245" height="142">
<path d="M504.154 495.187L342.203 588.835C339.187 590.579 339.187 593.406 342.203 595.149L408.165 633.292C411.18 635.036 416.069 635.036 419.084 633.292L581.035 539.644C584.05 537.901 584.05 535.074 581.035 533.33L515.073 495.187C512.057 493.444 507.169 493.444 504.154 495.187Z" fill="#673AB7"/>
</mask>
<g mask="url(#mask1)">
<path d="M471.85 471.251L466.855 474.14C441.728 488.669 441.728 512.227 466.855 526.756L471.85 529.645C496.977 544.175 537.716 544.175 562.843 529.645L567.839 526.756C592.966 512.227 592.966 488.669 567.839 474.14L562.843 471.251C537.716 456.721 496.977 456.721 471.85 471.251Z" fill="#5E35B1"/>
<path opacity="0.7" d="M416.578 481.379L411.582 484.267C386.581 498.724 386.581 522.164 411.582 536.621L416.578 539.51C441.579 553.967 482.114 553.967 507.116 539.51L512.111 536.621C537.113 522.164 537.113 498.724 512.111 484.267L507.116 481.379C482.114 466.922 441.579 466.922 416.578 481.379Z" stroke="#5E35B1"/>
<path opacity="0.1" d="M505.518 502.816L499.15 506.498C496.889 507.806 496.889 509.926 499.15 511.233L505.518 514.916C507.78 516.223 511.446 516.223 513.708 514.916L520.076 511.233C522.337 509.926 522.337 507.806 520.076 506.498L513.708 502.816C511.446 501.508 507.78 501.508 505.518 502.816Z" fill="#E3F2FD"/>
<path d="M508.703 509.392C508.201 509.101 507.386 509.101 506.884 509.392C506.381 509.682 506.381 510.153 506.884 510.444C507.386 510.735 508.201 510.735 508.703 510.444C509.206 510.153 509.206 509.682 508.703 509.392Z" fill="#B39DDB"/>
<path d="M512.343 507.287C511.841 506.997 511.026 506.997 510.523 507.287C510.021 507.578 510.021 508.049 510.523 508.34C511.026 508.63 511.841 508.63 512.343 508.34C512.846 508.049 512.846 507.578 512.343 507.287Z" fill="#B39DDB"/>
<path d="M452.748 573.841L452.748 573.841C449.985 575.439 449.985 578.03 452.748 579.628L452.748 579.628C455.512 581.226 459.993 581.226 462.756 579.628L462.757 579.628C465.52 578.03 465.52 575.439 462.757 573.841L462.756 573.841C459.993 572.243 455.512 572.243 452.748 573.841Z" fill="#B39DDB"/>
<path d="M457.754 574.981V578.488" stroke="#5E35B1" stroke-width="1.5" stroke-linecap="round" stroke-linejoin="round"/>
<path d="M455.023 576.559L457.754 574.981L460.483 576.559" stroke="#5E35B1" stroke-width="1.5" stroke-linecap="round" stroke-linejoin="round"/>
<path d="M412.901 622.48L410.244 624.016L412.234 625.167L415.34 623.371L416.238 623.89L412.008 626.336L405.539 622.595L409.738 620.167L410.644 620.691L407.569 622.469L409.356 623.502L412.012 621.966L412.901 622.48ZM419.921 621.76C419.782 621.735 419.591 621.672 419.348 621.573C419.363 621.978 419.121 622.326 418.624 622.613C418.141 622.892 417.609 623.041 417.029 623.057C416.448 623.075 415.955 622.966 415.549 622.731C415.037 622.435 414.834 622.098 414.941 621.721C415.047 621.342 415.454 620.946 416.162 620.537L416.824 620.154L416.509 619.972C416.26 619.828 415.992 619.753 415.704 619.748C415.414 619.741 415.127 619.82 414.843 619.985C414.597 620.127 414.458 620.28 414.425 620.442C414.389 620.603 414.467 620.739 414.656 620.848L413.576 621.473C413.312 621.32 413.154 621.127 413.101 620.894C413.045 620.66 413.101 620.418 413.27 620.17C413.442 619.92 413.713 619.688 414.083 619.474C414.646 619.148 415.237 618.971 415.856 618.942C416.472 618.911 417.04 619.041 417.562 619.332L419.73 620.586C420.162 620.836 420.568 621.001 420.947 621.08L421.023 621.123L419.921 621.76ZM417.957 621.997C418.17 621.873 418.318 621.728 418.401 621.56C418.488 621.39 418.49 621.227 418.41 621.072L417.504 620.548L416.922 620.884C416.522 621.115 416.291 621.329 416.229 621.526C416.167 621.723 416.263 621.896 416.518 622.043C416.725 622.162 416.959 622.219 417.219 622.212C417.481 622.202 417.726 622.13 417.957 621.997ZM420.667 616.909C420.502 616.978 420.343 617.056 420.192 617.144C419.697 617.429 419.554 617.732 419.761 618.05L423.049 619.951L421.969 620.576L417.162 617.796L418.193 617.2L418.757 617.495C418.6 617.103 418.752 616.773 419.215 616.506C419.369 616.417 419.517 616.355 419.659 616.321L420.667 616.909ZM421.365 615.366L421.952 615.669C421.878 615.215 422.129 614.821 422.707 614.487C423.708 613.908 424.791 613.945 425.955 614.597L429.131 616.434L428.052 617.058L424.937 615.258C424.632 615.081 424.34 614.989 424.062 614.982C423.784 614.972 423.495 615.054 423.196 615.227C422.76 615.479 422.633 615.78 422.813 616.131L426.235 618.109L425.155 618.734L420.347 615.954L421.365 615.366ZM431.384 615.132L430.305 615.756L425.497 612.976L426.577 612.352L431.384 615.132ZM424.182 612.293C424.016 612.197 423.93 612.087 423.924 611.964C423.921 611.839 424.017 611.72 424.213 611.607C424.409 611.494 424.614 611.438 424.831 611.44C425.047 611.442 425.238 611.49 425.404 611.586C425.567 611.681 425.65 611.79 425.653 611.915C425.653 612.038 425.555 612.157 425.359 612.269C425.164 612.383 424.959 612.439 424.746 612.439C424.533 612.436 424.345 612.387 424.182 612.293ZM428.758 611.09L429.345 611.393C429.271 610.94 429.522 610.546 430.1 610.211C431.101 609.633 432.184 609.669 433.348 610.322L436.525 612.159L435.445 612.784L432.33 610.982C432.025 610.806 431.733 610.714 431.455 610.708C431.177 610.697 430.888 610.779 430.589 610.952C430.153 611.203 430.026 611.505 430.206 611.856L433.628 613.834L432.548 614.458L427.741 611.678L428.758 611.09ZM435.001 610.219C434.254 609.788 433.834 609.343 433.739 608.883C433.644 608.421 433.887 608.022 434.467 607.686C435.015 607.369 435.637 607.231 436.333 607.27L435.898 606.962L436.871 606.399L441.532 609.094C442.162 609.459 442.464 609.86 442.434 610.299C442.407 610.736 442.061 611.147 441.394 611.532C441.041 611.736 440.623 611.893 440.137 612.003C439.657 612.112 439.211 612.149 438.799 612.113L438.662 611.442C439.387 611.479 439.993 611.356 440.479 611.075C440.837 610.868 441.023 610.648 441.034 610.415C441.049 610.184 440.869 609.959 440.492 609.742L440.168 609.554C440.203 609.934 439.962 610.274 439.443 610.574C438.881 610.899 438.197 611.037 437.391 610.985C436.588 610.932 435.791 610.677 435.001 610.219ZM436.169 609.652C436.652 609.931 437.13 610.094 437.604 610.143C438.078 610.187 438.49 610.108 438.839 609.906C439.275 609.654 439.411 609.36 439.248 609.022L437.133 607.799C436.564 607.707 436.062 607.786 435.627 608.038C435.272 608.243 435.136 608.485 435.218 608.763C435.304 609.039 435.621 609.335 436.169 609.652Z" fill="#EDE7F6"/>
<path opacity="0.1" d="M398.959 612.649C398.546 612.41 398.103 612.288 397.63 612.283C397.156 612.271 396.542 612.364 395.786 612.562C395.031 612.76 394.354 612.916 393.755 613.029C393.151 613.14 392.574 613.203 392.025 613.217C391.476 613.226 390.943 613.173 390.424 613.06C389.91 612.943 389.406 612.742 388.913 612.457C388.062 611.965 387.637 611.405 387.637 610.776C387.637 610.147 388.042 609.545 388.853 608.972L387.236 608.037L388.445 607.338L390.084 608.286C391.101 607.844 392.171 607.656 393.294 607.723C394.412 607.787 395.462 608.103 396.443 608.671L394.261 609.933C393.656 609.583 393.08 609.395 392.531 609.37C391.982 609.337 391.499 609.442 391.081 609.684C390.668 609.923 390.467 610.176 390.477 610.444C390.482 610.709 390.69 610.961 391.103 611.2C391.486 611.421 391.904 611.534 392.357 611.54C392.811 611.546 393.457 611.445 394.298 611.239C395.144 611.029 395.87 610.875 396.474 610.776C397.073 610.674 397.642 610.625 398.181 610.627C398.714 610.627 399.226 610.687 399.714 610.806C400.197 610.923 400.668 611.113 401.126 611.379C401.983 611.874 402.411 612.429 402.411 613.047C402.411 613.664 401.99 614.271 401.149 614.868L402.652 615.738L401.451 616.432L399.956 615.567C398.813 616.1 397.647 616.352 396.459 616.323C395.27 616.287 394.16 615.972 393.127 615.375L395.311 614.113C395.91 614.459 396.512 614.644 397.116 614.667C397.72 614.685 398.289 614.539 398.823 614.231C399.266 613.974 399.5 613.705 399.525 613.422C399.546 613.137 399.356 612.879 398.959 612.649ZM400.432 608.889L395.477 605.29L401.64 601.726L403.46 602.778L399.087 605.307L401.179 606.832C401.421 606.372 401.834 605.973 402.418 605.635C403.466 605.029 404.611 604.743 405.855 604.775C407.098 604.807 408.304 605.161 409.473 605.836C410.183 606.247 410.668 606.702 410.931 607.203C411.192 607.698 411.2 608.197 410.953 608.701C410.701 609.202 410.195 609.672 409.435 610.112C408.77 610.496 408.02 610.776 407.184 610.95C406.343 611.122 405.512 611.163 404.692 611.073C403.876 610.98 403.146 610.758 402.501 610.409L404.661 609.16C405.165 609.398 405.681 609.514 406.21 609.505C406.738 609.49 407.224 609.355 407.667 609.099C408.161 608.813 408.365 608.491 408.279 608.134C408.189 607.773 407.819 607.404 407.169 607.029C406.545 606.668 405.913 606.48 405.273 606.465C404.633 606.45 404.032 606.606 403.468 606.932C402.949 607.232 402.665 607.554 402.615 607.897L402.599 608.134L400.432 608.889ZM417.253 600.158C418.773 601.037 419.621 601.892 419.798 602.722C419.974 603.552 419.455 604.318 418.242 605.019C417.043 605.712 415.732 606.013 414.306 605.923C412.882 605.833 411.424 605.366 409.934 604.521L407.909 603.351C406.373 602.463 405.525 601.605 405.364 600.778C405.208 599.949 405.729 599.187 406.927 598.494C408.126 597.801 409.438 597.5 410.862 597.59C412.282 597.677 413.738 598.143 415.228 598.988L417.253 600.158ZM412.849 600.136C411.938 599.609 411.15 599.299 410.485 599.206C409.82 599.107 409.223 599.21 408.695 599.516C408.181 599.813 408 600.148 408.151 600.521C408.302 600.887 408.79 601.318 409.616 601.813L412.29 603.359C413.186 603.878 413.974 604.194 414.654 604.308C415.334 604.415 415.943 604.313 416.482 604.002C417.016 603.693 417.192 603.349 417.011 602.971C416.83 602.592 416.313 602.151 415.462 601.648L412.849 600.136ZM426.135 595.022C427.655 595.901 428.504 596.756 428.68 597.585C428.857 598.415 428.338 599.181 427.124 599.883C425.926 600.576 424.614 600.877 423.189 600.787C421.764 600.697 420.306 600.23 418.816 599.385L416.792 598.215C415.256 597.326 414.407 596.469 414.246 595.642C414.09 594.812 414.611 594.051 415.81 593.358C417.008 592.665 418.32 592.363 419.745 592.454C421.165 592.541 422.62 593.007 424.111 593.851L426.135 595.022ZM421.732 595C420.82 594.473 420.032 594.163 419.367 594.07C418.702 593.97 418.106 594.074 417.577 594.38C417.063 594.677 416.882 595.012 417.033 595.384C417.184 595.751 417.673 596.182 418.499 596.677L421.173 598.223C422.069 598.741 422.857 599.058 423.537 599.171C424.216 599.279 424.826 599.177 425.364 598.865C425.898 598.557 426.075 598.213 425.893 597.835C425.712 597.456 425.196 597.015 424.345 596.511L421.732 595ZM431.294 596.057C430.946 595.856 430.78 595.626 430.795 595.367C430.815 595.105 431.002 594.872 431.354 594.668C431.711 594.461 432.114 594.353 432.562 594.345C433.016 594.333 433.416 594.428 433.763 594.629C434.106 594.827 434.269 595.055 434.255 595.314C434.234 595.571 434.043 595.804 433.68 596.013C433.323 596.22 432.922 596.329 432.479 596.341C432.031 596.349 431.636 596.255 431.294 596.057ZM439.519 587.282C441.04 588.162 441.888 589.016 442.064 589.846C442.241 590.676 441.722 591.442 440.508 592.143C439.31 592.836 437.998 593.138 436.573 593.047C435.148 592.957 433.69 592.49 432.2 591.646L430.176 590.475C428.64 589.587 427.791 588.73 427.631 587.903C427.474 587.073 427.995 586.311 429.194 585.619C430.392 584.926 431.704 584.624 433.129 584.714C434.549 584.801 436.004 585.268 437.495 586.112L439.519 587.282ZM435.116 587.26C434.204 586.734 433.416 586.424 432.752 586.33C432.087 586.231 431.49 586.335 430.961 586.641C430.447 586.937 430.266 587.272 430.418 587.645C430.568 588.012 431.057 588.443 431.883 588.938L434.557 590.484C435.453 591.002 436.241 591.318 436.921 591.432C437.6 591.539 438.21 591.437 438.748 591.126C439.282 590.817 439.459 590.474 439.277 590.095C439.096 589.717 438.58 589.276 437.729 588.772L435.116 587.26ZM448.401 582.146C449.922 583.026 450.771 583.88 450.947 584.71C451.123 585.54 450.605 586.305 449.391 587.007C448.192 587.7 446.881 588.002 445.456 587.911C444.031 587.821 442.573 587.354 441.082 586.509L439.058 585.339C437.522 584.451 436.674 583.593 436.513 582.766C436.357 581.936 436.878 581.175 438.076 580.482C439.275 579.789 440.586 579.488 442.012 579.578C443.432 579.665 444.887 580.131 446.377 580.975L448.401 582.146ZM443.998 582.124C443.087 581.597 442.299 581.287 441.634 581.194C440.969 581.095 440.373 581.199 439.844 581.504C439.33 581.801 439.149 582.136 439.3 582.509C439.451 582.876 439.939 583.307 440.765 583.802L443.439 585.348C444.335 585.866 445.123 586.182 445.803 586.295C446.483 586.403 447.092 586.301 447.631 585.99C448.165 585.681 448.341 585.338 448.16 584.959C447.978 584.58 447.462 584.139 446.612 583.635L443.998 582.124Z" fill="white"/>
<path d="M398.959 607.387C398.546 607.148 398.103 607.026 397.63 607.021C397.156 607.009 396.542 607.102 395.786 607.3C395.031 607.498 394.354 607.654 393.755 607.767C393.151 607.878 392.574 607.941 392.025 607.955C391.476 607.964 390.943 607.911 390.424 607.798C389.91 607.681 389.406 607.48 388.913 607.195C388.062 606.703 387.637 606.143 387.637 605.514C387.637 604.885 388.042 604.283 388.853 603.71L387.236 602.775L388.445 602.076L390.084 603.024C391.101 602.582 392.171 602.394 393.294 602.461C394.412 602.525 395.462 602.841 396.443 603.409L394.261 604.671C393.656 604.321 393.08 604.133 392.531 604.108C391.982 604.075 391.499 604.18 391.081 604.422C390.668 604.661 390.467 604.914 390.477 605.182C390.482 605.447 390.69 605.699 391.103 605.938C391.486 606.159 391.904 606.272 392.357 606.278C392.811 606.284 393.457 606.183 394.298 605.977C395.144 605.767 395.87 605.613 396.474 605.514C397.073 605.412 397.642 605.363 398.181 605.365C398.714 605.365 399.226 605.425 399.714 605.544C400.197 605.661 400.668 605.851 401.126 606.117C401.983 606.612 402.411 607.167 402.411 607.785C402.411 608.402 401.99 609.009 401.149 609.606L402.652 610.476L401.451 611.17L399.956 610.305C398.813 610.838 397.647 611.09 396.459 611.061C395.27 611.025 394.16 610.71 393.127 610.113L395.311 608.851C395.91 609.197 396.512 609.382 397.116 609.405C397.72 609.423 398.289 609.277 398.823 608.969C399.266 608.712 399.5 608.443 399.525 608.16C399.546 607.875 399.356 607.617 398.959 607.387ZM400.432 603.627L395.477 600.028L401.64 596.464L403.46 597.516L399.087 600.045L401.179 601.57C401.421 601.11 401.834 600.711 402.418 600.373C403.466 599.768 404.611 599.481 405.855 599.513C407.098 599.545 408.304 599.899 409.473 600.574C410.183 600.985 410.668 601.44 410.931 601.941C411.192 602.436 411.2 602.935 410.953 603.439C410.701 603.94 410.195 604.41 409.435 604.85C408.77 605.234 408.02 605.514 407.184 605.688C406.343 605.86 405.512 605.901 404.692 605.811C403.876 605.718 403.146 605.496 402.501 605.147L404.661 603.898C405.165 604.137 405.681 604.252 406.21 604.243C406.738 604.228 407.224 604.093 407.667 603.837C408.161 603.551 408.365 603.229 408.279 602.872C408.189 602.511 407.819 602.142 407.169 601.767C406.545 601.406 405.913 601.218 405.273 601.203C404.633 601.188 404.032 601.344 403.468 601.67C402.949 601.97 402.665 602.292 402.615 602.635L402.599 602.872L400.432 603.627ZM417.253 594.896C418.773 595.775 419.621 596.63 419.798 597.46C419.974 598.29 419.455 599.056 418.242 599.758C417.043 600.451 415.732 600.751 414.306 600.662C412.882 600.571 411.424 600.104 409.934 599.259L407.909 598.089C406.373 597.201 405.525 596.343 405.364 595.516C405.208 594.687 405.729 593.925 406.927 593.232C408.126 592.539 409.438 592.238 410.862 592.328C412.282 592.416 413.738 592.881 415.228 593.726L417.253 594.896ZM412.849 594.874C411.938 594.347 411.15 594.037 410.485 593.944C409.82 593.845 409.223 593.948 408.695 594.254C408.181 594.551 408 594.886 408.151 595.259C408.302 595.625 408.79 596.056 409.616 596.551L412.29 598.097C413.186 598.616 413.974 598.932 414.654 599.046C415.334 599.153 415.943 599.051 416.482 598.74C417.016 598.431 417.192 598.087 417.011 597.709C416.83 597.33 416.313 596.889 415.462 596.386L412.849 594.874ZM426.135 589.76C427.655 590.639 428.504 591.494 428.68 592.323C428.857 593.153 428.338 593.919 427.124 594.621C425.926 595.314 424.614 595.615 423.189 595.525C421.764 595.435 420.306 594.968 418.816 594.123L416.792 592.953C415.256 592.065 414.407 591.207 414.246 590.38C414.09 589.55 414.611 588.789 415.81 588.096C417.008 587.403 418.32 587.101 419.745 587.192C421.165 587.279 422.62 587.745 424.111 588.59L426.135 589.76ZM421.732 589.738C420.82 589.211 420.032 588.901 419.367 588.808C418.702 588.708 418.106 588.812 417.577 589.118C417.063 589.415 416.882 589.75 417.033 590.122C417.184 590.489 417.673 590.92 418.499 591.415L421.173 592.961C422.069 593.479 422.857 593.796 423.537 593.909C424.216 594.017 424.826 593.915 425.364 593.603C425.898 593.295 426.075 592.951 425.893 592.573C425.712 592.194 425.196 591.753 424.345 591.249L421.732 589.738ZM431.294 590.795C430.946 590.594 430.78 590.364 430.795 590.105C430.815 589.843 431.002 589.61 431.354 589.406C431.711 589.199 432.114 589.092 432.562 589.083C433.016 589.071 433.416 589.166 433.763 589.367C434.106 589.565 434.269 589.793 434.255 590.052C434.234 590.309 434.043 590.542 433.68 590.751C433.323 590.958 432.922 591.067 432.479 591.079C432.031 591.087 431.636 590.993 431.294 590.795ZM439.519 582.021C441.04 582.9 441.888 583.754 442.064 584.584C442.241 585.414 441.722 586.18 440.508 586.881C439.31 587.574 437.998 587.876 436.573 587.786C435.148 587.696 433.69 587.228 432.2 586.384L430.176 585.213C428.64 584.325 427.791 583.468 427.631 582.641C427.474 581.811 427.995 581.049 429.194 580.357C430.392 579.664 431.704 579.362 433.129 579.452C434.549 579.539 436.004 580.006 437.495 580.85L439.519 582.021ZM435.116 581.998C434.204 581.472 433.416 581.162 432.752 581.068C432.087 580.969 431.49 581.073 430.961 581.379C430.447 581.675 430.266 582.011 430.418 582.383C430.568 582.75 431.057 583.181 431.883 583.676L434.557 585.222C435.453 585.74 436.241 586.056 436.921 586.17C437.6 586.277 438.21 586.175 438.748 585.864C439.282 585.555 439.459 585.212 439.277 584.833C439.096 584.455 438.58 584.014 437.729 583.51L435.116 581.998ZM448.401 576.884C449.922 577.764 450.771 578.618 450.947 579.448C451.123 580.278 450.605 581.043 449.391 581.745C448.192 582.438 446.881 582.74 445.456 582.649C444.031 582.559 442.573 582.092 441.082 581.248L439.058 580.077C437.522 579.189 436.674 578.331 436.513 577.504C436.357 576.674 436.878 575.913 438.076 575.22C439.275 574.527 440.586 574.226 442.012 574.316C443.432 574.403 444.887 574.869 446.377 575.714L448.401 576.884ZM443.998 576.862C443.087 576.335 442.299 576.025 441.634 575.932C440.969 575.833 440.373 575.937 439.844 576.242C439.33 576.539 439.149 576.874 439.3 577.247C439.451 577.614 439.939 578.045 440.765 578.54L443.439 580.086C444.335 580.604 445.123 580.92 445.803 581.033C446.483 581.141 447.092 581.039 447.631 580.728C448.165 580.419 448.341 580.076 448.16 579.697C447.978 579.318 447.462 578.877 446.612 578.373L443.998 576.862Z" fill="white"/>
<path d="M370.407 584.101L357.67 591.466C355.66 592.628 355.66 594.513 357.67 595.675L370.407 603.04C372.417 604.203 375.676 604.203 377.686 603.04L390.424 595.675C392.434 594.513 392.434 592.628 390.424 591.466L377.686 584.101C375.676 582.938 372.417 582.938 370.407 584.101Z" fill="#5E35B1"/>
<g opacity="0.3">
<path opacity="0.3" d="M375.868 590.94L371.319 593.571C370.817 593.861 370.817 594.333 371.319 594.623L374.049 596.201C374.551 596.492 375.366 596.492 375.868 596.201L380.417 593.571C380.92 593.28 380.92 592.809 380.417 592.518L377.688 590.94C377.185 590.65 376.371 590.65 375.868 590.94Z" stroke="white" stroke-width="1.5" stroke-linecap="round" stroke-linejoin="round"/>
<path opacity="0.3" d="M376.778 594.097C377.28 593.806 377.28 593.335 376.778 593.044C376.275 592.754 375.46 592.754 374.958 593.044C374.455 593.335 374.455 593.806 374.958 594.097C375.46 594.387 376.275 594.387 376.778 594.097Z" fill="#90CAF9"/>
<path opacity="0.3" d="M374.958 591.466L374.049 590.94C373.807 590.801 373.48 590.722 373.139 590.722C372.798 590.722 372.47 590.801 372.229 590.94L367.68 593.571C367.438 593.71 367.303 593.899 367.303 594.097C367.303 594.294 367.438 594.484 367.68 594.623L370.41 596.201C370.651 596.341 370.978 596.419 371.319 596.419C371.66 596.419 371.988 596.341 372.229 596.201L373.139 595.675" stroke="white" stroke-width="1.5" stroke-linecap="round" stroke-linejoin="round"/>
</g>
<path d="M375.868 587.242L371.319 589.872C370.817 590.163 370.817 590.634 371.319 590.925L374.049 592.503C374.551 592.794 375.366 592.794 375.868 592.503L380.417 589.872C380.92 589.582 380.92 589.111 380.417 588.82L377.688 587.242C377.185 586.952 376.371 586.952 375.868 587.242Z" stroke="white" stroke-width="1.5" stroke-linecap="round" stroke-linejoin="round"/>
<path d="M376.778 590.399C377.28 590.108 377.28 589.637 376.778 589.346C376.275 589.056 375.46 589.056 374.958 589.346C374.455 589.637 374.455 590.108 374.958 590.399C375.46 590.689 376.275 590.689 376.778 590.399Z" fill="#90CAF9"/>
<path d="M374.958 587.768L374.049 587.242C373.807 587.103 373.48 587.024 373.139 587.024C372.798 587.024 372.47 587.103 372.229 587.242L367.68 589.872C367.438 590.012 367.303 590.201 367.303 590.399C367.303 590.596 367.438 590.785 367.68 590.925L370.41 592.503C370.651 592.642 370.978 592.721 371.319 592.721C371.66 592.721 371.988 592.642 372.229 592.503L373.139 591.977" stroke="white" stroke-width="1.5" stroke-linecap="round" stroke-linejoin="round"/>
</g>
</g>
<defs>
<filter id="filter0_d" x="275.929" y="504.403" width="371.377" height="268.72" filterUnits="userSpaceOnUse" color-interpolation-filters="sRGB">
<feFlood flood-opacity="0" result="BackgroundImageFix"/>
<feColorMatrix in="SourceAlpha" type="matrix" values="0 0 0 0 0 0 0 0 0 0 0 0 0 0 0 0 0 0 127 0"/>
<feOffset dy="64"/>
<feGaussianBlur stdDeviation="32"/>
<feColorMatrix type="matrix" values="0 0 0 0 0.403922 0 0 0 0 0.227451 0 0 0 0 0.717647 0 0 0 0.2 0"/>
<feBlend mode="normal" in2="BackgroundImageFix" result="effect1_dropShadow"/>
<feBlend mode="normal" in="SourceGraphic" in2="effect1_dropShadow" result="shape"/>
</filter>
<linearGradient id="paint0_linear" x1="574.669" y1="536.247" x2="351.902" y2="632.063" gradientUnits="userSpaceOnUse">
<stop stop-color="#A491C8"/>
<stop offset="1" stop-color="#D7C5F8"/>
</linearGradient>
<linearGradient id="paint1_linear" x1="348.683" y1="584.837" x2="517.793" y2="641.173" gradientUnits="userSpaceOnUse">
<stop stop-color="white"/>
<stop offset="1" stop-color="white" stop-opacity="0"/>
</linearGradient>
<clipPath id="clip0">
<rect width="311" height="231" fill="white" transform="translate(306 492)"/>
</clipPath>
</defs>
</svg>
