<svg width="807" height="976" viewBox="0 0 807 976" fill="none" xmlns="http://www.w3.org/2000/svg">
<g filter="url(#filter0_d)">
<path d="M542.12 471.867L521.904 457.789L521.762 481.499C521.746 481.738 521.745 481.978 521.758 482.218L521.757 482.235C521.901 484.747 523.632 487.242 526.952 489.18L575.96 522.063C582.932 526.131 594.275 526.199 601.296 522.215L666.256 481.085C669.932 478.999 671.694 476.216 671.538 473.453L671.668 451.721L650.648 461.178L616.658 441.345C609.686 437.277 598.342 437.209 591.322 441.193L542.12 471.867Z" fill="url(#paint0_linear)"/>
</g>
<rect x="0.865564" y="0.00519675" width="101.181" height="85.1326" rx="11.5" transform="matrix(0.868571 -0.495566 0.862557 0.505959 514.996 459.315)" fill="#61DAFB"/>
<rect x="0.865564" y="0.00519675" width="101.181" height="85.1326" rx="11.5" transform="matrix(0.868571 -0.495566 0.862557 0.505959 514.996 459.315)" fill="url(#paint1_linear)"/>
<rect x="0.865564" y="0.00519675" width="101.181" height="85.1326" rx="11.5" transform="matrix(0.868571 -0.495566 0.862557 0.505959 514.996 459.315)" stroke="#E3F2FD"/>
<path d="M598.614 462.613C598.263 462.888 597.941 463.149 597.598 463.403C597.336 463.598 597.055 463.786 596.771 463.971C595.888 464.548 595.021 465.133 594.107 465.693C593.514 466.057 592.839 466.375 592.223 466.728C591.351 467.228 590.328 467.564 589.335 467.942C588.446 468.28 587.533 468.505 586.596 468.594C585.444 468.704 584.397 468.632 583.522 468.294C582.82 468.024 582.357 467.643 581.938 467.227C580.927 466.224 580.714 465.013 580.6 463.784C580.534 463.076 580.599 462.347 580.641 461.622C580.657 461.326 580.769 461.018 580.842 460.696C580.645 460.703 580.482 460.712 580.323 460.712C578.928 460.711 577.515 460.744 576.145 460.695C575.103 460.657 574.085 460.55 573.111 460.405C572.119 460.257 571.164 460.054 570.251 459.821C569.559 459.644 569.013 459.352 568.511 459.029C567.686 458.497 567.447 457.819 567.689 457.028C567.799 456.668 568.085 456.295 568.364 455.938C568.784 455.4 569.356 454.895 570.052 454.432C570.575 454.084 571.126 453.748 571.652 453.402C572.767 452.67 574.055 452.057 575.38 451.476C576.332 451.059 577.307 450.663 578.278 450.263C578.532 450.158 578.643 450.075 578.525 449.919C577.602 448.706 577.078 447.382 576.898 445.975C576.816 445.334 576.844 444.665 576.982 443.996C577.079 443.522 577.359 443.017 577.719 442.547C578.005 442.173 578.398 441.803 578.934 441.464C580.172 440.679 581.621 440.349 583.17 440.154C584.622 439.97 585.988 440.034 587.328 440.117C588.278 440.176 589.171 440.336 590.07 440.475C590.799 440.588 591.513 440.722 592.208 440.873C592.901 441.024 593.562 441.208 594.27 441.386C594.481 441.221 594.68 441.053 594.902 440.894C595.563 440.421 596.22 439.945 596.904 439.481C597.542 439.05 598.189 438.62 598.874 438.212C599.837 437.641 600.873 437.123 601.97 436.639C603.163 436.114 604.399 435.702 605.738 435.496C606.402 435.393 607.118 435.315 607.722 435.365C608.342 435.415 608.955 435.516 609.457 435.744C610.098 436.035 610.548 436.401 610.961 436.804C611.797 437.622 612.067 438.594 612.188 439.598C612.29 440.448 612.269 441.321 612.254 442.191C612.248 442.532 612.112 442.892 612.025 443.286C612.409 443.284 612.772 443.282 613.134 443.282C614.107 443.284 615.092 443.264 616.05 443.295C617.079 443.329 618.106 443.38 619.092 443.483C620.097 443.587 621.062 443.748 621.965 443.982C622.721 444.177 623.412 444.414 623.995 444.735C625.081 445.332 625.584 446.109 625.111 447.129C624.91 447.564 624.674 448.013 624.151 448.426C623.636 448.833 623.211 449.271 622.685 449.673C622.263 449.994 621.77 450.295 621.267 450.579C620.473 451.028 619.664 451.47 618.825 451.888C618.058 452.269 617.248 452.618 616.447 452.972C615.743 453.284 615.025 453.584 614.27 453.908C614.484 454.228 614.738 454.555 614.926 454.903C615.641 456.225 616.104 457.605 616.062 459.098C616.039 459.904 615.75 460.721 615.11 461.524C614.595 462.17 613.806 462.718 612.713 463.143C611.801 463.498 610.865 463.737 609.909 463.816C608.817 463.905 607.73 463.93 606.664 463.93C605.95 463.93 605.258 463.86 604.586 463.78C603.926 463.703 603.304 463.575 602.666 463.47C602.265 463.404 601.852 463.35 601.465 463.268C600.881 463.145 600.316 463.003 599.741 462.87C599.384 462.787 599.022 462.706 598.614 462.613ZM595.417 446.848C593.856 447.207 592.277 447.588 590.689 447.925C590.181 448.033 589.944 448.229 589.759 448.46C589.31 449.021 588.89 449.587 588.483 450.154C587.949 450.899 587.434 451.646 586.922 452.393C586.781 452.599 586.681 452.81 586.56 453.018C586.36 453.363 586.153 453.706 585.964 454.051C585.93 454.113 585.935 454.194 585.985 454.238C586.206 454.431 586.431 454.624 586.688 454.8C587.198 455.15 587.725 455.491 588.255 455.829C588.893 456.236 589.542 456.637 590.186 457.041C590.292 457.107 590.386 457.181 590.503 457.24C591.005 457.493 591.533 457.73 592.007 457.999C592.161 458.087 592.296 458.098 592.514 458.059C593.848 457.816 595.188 457.604 596.514 457.329C598.464 456.927 600.406 456.483 602.349 456.05C602.511 456.014 602.736 455.941 602.804 455.862C603.17 455.441 603.5 455.013 603.835 454.586C604.212 454.106 604.611 453.627 604.945 453.143C605.397 452.484 605.799 451.821 606.219 451.159C606.289 451.048 606.332 450.936 606.398 450.825C606.579 450.522 606.77 450.22 606.942 449.917C606.968 449.872 606.933 449.811 606.888 449.776C606.587 449.545 606.284 449.314 605.964 449.092C605.417 448.71 604.857 448.335 604.302 447.958C604.112 447.829 603.936 447.691 603.728 447.573C603.181 447.26 602.621 446.956 602.063 446.65C601.663 446.43 601.267 446.208 600.85 445.999C600.763 445.956 600.586 445.935 600.456 445.957C598.784 446.247 597.113 446.546 595.417 446.848ZM613.337 452.653C613.647 452.507 613.887 452.385 614.138 452.276C614.975 451.913 615.836 451.57 616.652 451.189C617.447 450.819 618.199 450.412 618.97 450.02C619.93 449.532 620.752 448.978 621.472 448.376C621.872 448.042 622.257 447.704 622.46 447.33C622.707 446.875 622.647 446.487 622.257 446.145C621.9 445.833 621.353 445.659 620.798 445.5C620.212 445.333 619.561 445.216 618.901 445.125C617.983 444.999 617.054 444.871 616.084 444.83C614.81 444.777 613.493 444.804 612.191 444.805C611.666 444.805 611.671 444.821 611.567 445.129C611.355 445.753 611.143 446.379 610.886 447.004C610.608 447.678 610.28 448.352 609.969 449.026C609.899 449.179 609.899 449.306 610.059 449.415C610.281 449.565 610.487 449.726 610.673 449.894C611.088 450.268 611.506 450.641 611.887 451.03C612.233 451.383 612.529 451.757 612.85 452.12C613.003 452.293 613.162 452.463 613.337 452.653ZM583.386 460.587C583.362 460.754 583.33 460.905 583.319 461.054C583.265 461.825 583.159 462.604 583.181 463.364C583.202 464.056 583.332 464.731 583.71 465.352C584.093 465.981 584.349 466.659 585.427 466.982C585.636 467.044 585.874 467.107 586.124 467.107C587.507 467.104 588.745 466.649 589.917 466.126C590.698 465.777 591.414 465.368 592.143 464.976C592.584 464.739 593.019 464.493 593.416 464.232C593.925 463.898 594.393 463.545 594.876 463.199C595.425 462.805 595.971 462.409 596.531 462.005C596.299 461.908 596.115 461.82 595.91 461.748C595.381 461.561 594.828 461.394 594.311 461.198C593.821 461.013 593.358 460.806 592.895 460.6C592.348 460.357 591.828 460.095 591.268 459.861C591.125 459.801 590.88 459.779 590.677 459.801C588.976 459.987 587.273 460.193 585.572 460.382C584.854 460.462 584.138 460.517 583.386 460.587ZM596.338 442C597.249 442.333 598.095 442.64 598.933 442.953C599.118 443.022 599.272 443.114 599.45 443.189C599.971 443.409 600.529 443.606 601.011 443.85C601.47 444.082 601.912 444.28 602.691 444.147C603.267 444.048 603.848 443.973 604.424 443.914C605.895 443.763 607.365 443.627 608.835 443.484C609.046 443.464 609.257 443.445 609.492 443.423C609.532 443.101 609.593 442.803 609.601 442.512C609.625 441.682 609.716 440.839 609.608 440.034C609.525 439.417 609.206 438.841 608.941 438.261C608.732 437.803 608.373 437.4 607.749 437.11C607.103 436.81 606.3 436.825 605.417 437.02C605.009 437.11 604.603 437.248 604.221 437.394C603.515 437.664 602.789 437.927 602.144 438.247C601.391 438.62 600.72 439.053 600.006 439.456C599.036 440.004 598.193 440.608 597.382 441.227C597.047 441.483 596.698 441.734 596.338 442ZM579.527 451.353C578.876 451.634 578.279 451.883 577.695 452.146C576.805 452.547 575.905 452.942 575.047 453.368C574.341 453.718 573.687 454.107 573.017 454.482C572.767 454.622 572.504 454.761 572.299 454.92C571.855 455.262 571.458 455.62 571.018 455.964C569.924 456.817 570.046 457.867 571.317 458.261C571.818 458.417 572.324 458.577 572.877 458.678C573.765 458.841 574.678 458.981 575.613 459.085C576.342 459.165 577.112 459.195 577.882 459.211C578.643 459.226 579.427 459.194 580.199 459.187C580.504 459.185 580.804 459.196 581.121 459.202C581.21 458.988 581.291 458.809 581.358 458.63C581.593 458.005 581.804 457.38 582.064 456.755C582.317 456.144 582.626 455.533 582.896 454.921C582.934 454.834 582.933 454.725 582.866 454.661C582.615 454.422 582.314 454.205 582.06 453.967C581.556 453.494 581.058 453.018 580.585 452.532C580.222 452.159 579.9 451.77 579.527 451.353ZM592.603 442.775C592.245 442.687 591.926 442.604 591.598 442.53C590.829 442.356 590.078 442.161 589.277 442.023C588.411 441.874 587.502 441.772 586.6 441.667C586.169 441.616 585.721 441.57 585.261 441.581C584.44 441.599 583.604 441.663 582.774 441.706C581.816 441.756 581.011 442.054 580.412 442.543C580.109 442.79 579.882 443.093 579.775 443.369C579.496 444.089 579.375 444.8 579.473 445.487C579.576 446.21 579.782 446.907 580.159 447.565C580.468 448.104 580.735 448.657 581.029 449.218C581.213 449.166 581.343 449.136 581.462 449.093C581.773 448.981 582.069 448.845 582.388 448.75C584.163 448.224 585.945 447.71 587.72 447.184C588.158 447.055 588.535 446.898 588.769 446.601C589.136 446.135 589.572 445.676 590.02 445.223C590.577 444.659 591.173 444.104 591.759 443.546C592.017 443.301 592.292 443.059 592.603 442.775ZM600.261 461.21C600.904 461.37 601.492 461.519 602.085 461.662C602.212 461.693 602.363 461.702 602.495 461.729C603.104 461.853 603.698 461.995 604.323 462.101C604.763 462.175 605.239 462.209 605.708 462.247C606.549 462.315 607.381 462.405 608.245 462.427C609.138 462.449 610.067 462.336 611.001 462.135C612.057 461.91 612.639 461.435 612.97 460.886C613.456 460.082 613.434 459.3 613.379 458.539C613.343 458.028 613.134 457.543 612.95 457.059C612.751 456.536 612.502 456.025 612.254 455.515C612.133 455.267 611.962 455.032 611.804 454.776C610.709 455.143 609.676 455.511 608.62 455.837C607.583 456.158 606.526 456.45 605.469 456.732C604.838 456.901 604.2 457.034 604.034 457.5C604.025 457.527 603.988 457.554 603.962 457.581C603.398 458.161 602.832 458.741 602.27 459.321C602.148 459.447 602.056 459.579 601.924 459.701C601.386 460.196 600.838 460.688 600.261 461.21ZM598.169 460.569C598.83 460.112 600.851 458.119 600.892 457.897C598.808 458.321 596.72 458.746 594.541 459.19C595.703 459.715 596.917 460.156 598.169 460.569ZM598.345 444.772C597.095 444.302 595.914 443.857 594.657 443.384C593.699 444.305 592.794 445.174 591.889 446.043C591.917 446.052 591.945 446.061 591.973 446.07C594.056 445.646 596.138 445.222 598.345 444.772ZM610.874 453.492C610.166 452.751 609.485 452.037 608.766 451.285C607.893 452.547 607.053 453.761 606.197 454.999C607.761 454.513 609.34 454.114 610.874 453.492ZM584.09 452.702C584.958 451.454 585.799 450.244 586.641 449.034C586.615 449.023 586.59 449.011 586.564 449C585.059 449.48 583.554 449.96 581.96 450.469C582.68 451.224 583.374 451.951 584.09 452.702ZM584.798 456.198C584.438 457.163 584.094 458.084 583.746 459.02C585.395 458.99 586.988 458.746 588.607 458.573C587.331 457.778 586.088 457.002 584.798 456.198ZM604.167 445.396C604.89 445.83 605.554 446.212 606.186 446.612C606.755 446.973 607.288 447.353 607.841 447.723C607.887 447.754 607.965 447.768 608.061 447.801C608.421 446.832 608.768 445.898 609.124 444.937C607.435 445.093 605.849 445.24 604.167 445.396Z" fill="white"/>
<path d="M634.308 449.101C631.283 450.089 628.3 451.064 625.318 452.038C631.719 447.808 635.671 443.255 636.094 438.201C636.133 438.248 636.178 438.292 636.209 438.341C636.878 439.386 637.619 440.409 638.194 441.482C639.017 443.019 639.403 444.661 639.487 446.367C639.627 449.181 638.808 452.044 637.109 454.95C635.589 457.548 633.416 460.038 630.698 462.435C624.856 467.588 617.174 471.512 608.047 474.441C603.279 475.971 598.369 476.882 593.394 477.339C589.066 477.737 584.837 477.851 580.772 477.547C572.521 476.928 565.9 474.922 561.037 471.439C558.172 469.387 556.162 467.002 554.921 464.326C553.85 462.015 553.589 459.556 553.97 456.979C554.324 454.579 555.1 452.172 556.52 449.748C557.877 447.432 559.757 445.203 562.211 443.07C566.446 439.391 571.868 436.394 578.041 433.831C578.615 433.593 579.193 433.359 579.778 433.133C580.478 432.863 580.883 432.525 580.993 432.076C581.338 430.66 583.544 429.372 586.085 429.091C588.656 428.806 590.621 429.683 590.736 431.092C590.905 433.16 587.167 434.959 584.276 434.77C584.04 434.754 583.804 434.729 583.591 434.685C582.92 434.544 582.242 434.631 581.522 434.907C579.328 435.748 577.205 436.656 575.172 437.65C569.361 440.49 564.876 443.839 561.747 447.699C559.394 450.602 558.148 453.52 557.862 456.445C557.664 458.474 557.839 460.439 558.482 462.32C559.607 465.611 562.053 468.392 565.794 470.668C569.207 472.744 573.303 474.285 578.353 475.074C582.741 475.759 587.433 475.807 592.362 475.351C595.703 475.041 599.034 474.518 602.348 473.767C607.648 472.567 612.569 470.833 617.105 468.586C620.769 466.77 624.071 464.761 626.873 462.5C630.863 459.28 633.255 455.88 634.056 452.321C634.272 451.366 634.285 450.424 634.379 449.477C634.392 449.355 634.337 449.242 634.308 449.101ZM586.097 433.26C587.503 432.969 588.446 432.176 588.29 431.414C588.114 430.554 587.003 430.216 585.43 430.542C584.151 430.808 583.135 431.702 583.28 432.434C583.424 433.163 584.723 433.544 586.097 433.26Z" fill="white"/>
<path d="M591.081 453.103C590.692 451.496 592.836 449.685 595.818 449.072C598.77 448.465 601.421 449.292 601.78 450.889C602.138 452.48 599.912 454.348 597.051 454.938C594.172 455.531 591.339 454.719 591.081 453.103Z" fill="white"/>
<defs>
<filter id="filter0_d" x="457.749" y="418.249" width="277.919" height="214.91" filterUnits="userSpaceOnUse" color-interpolation-filters="sRGB">
<feFlood flood-opacity="0" result="BackgroundImageFix"/>
<feColorMatrix in="SourceAlpha" type="matrix" values="0 0 0 0 0 0 0 0 0 0 0 0 0 0 0 0 0 0 127 0"/>
<feOffset dy="44"/>
<feGaussianBlur stdDeviation="32"/>
<feColorMatrix type="matrix" values="0 0 0 0 0.380392 0 0 0 0 0.854902 0 0 0 0 0.984314 0 0 0 0.5 0"/>
<feBlend mode="normal" in2="BackgroundImageFix" result="effect1_dropShadow"/>
<feBlend mode="normal" in="SourceGraphic" in2="effect1_dropShadow" result="shape"/>
</filter>
<linearGradient id="paint0_linear" x1="845.339" y1="385.973" x2="534.879" y2="502.734" gradientUnits="userSpaceOnUse">
<stop stop-color="#58C2DE"/>
<stop offset="1" stop-color="#E3F2FD"/>
</linearGradient>
<linearGradient id="paint1_linear" x1="-49.2165" y1="-133.403" x2="152.307" y2="-39.7141" gradientUnits="userSpaceOnUse">
<stop stop-color="#E3F2FD"/>
<stop offset="1" stop-color="white" stop-opacity="0"/>
</linearGradient>
</defs>
</svg>
