<svg width="807" height="976" viewBox="0 0 807 976" fill="none" xmlns="http://www.w3.org/2000/svg">
<g clipPath="url(#clip0)">
<g filter="url(#filter0_d)">
<path d="M131.402 302.555V318.644L131.417 318.631C131.466 320.329 132.616 322.018 134.867 323.313L170.281 343.692C174.884 346.341 182.346 346.341 186.949 343.692L295.277 281.354C297.657 279.985 298.806 278.176 298.725 276.381V260.343L286.375 266.641L259.863 251.384C255.26 248.735 247.798 248.735 243.196 251.384L140.676 310.38L131.402 302.555Z" fill="url(#paint0_linear)"/>
</g>
<path d="M243.196 235.398L134.868 297.735C130.265 300.384 130.265 304.678 134.868 307.327L170.282 327.706C174.884 330.354 182.347 330.354 186.949 327.706L295.278 265.368C299.88 262.719 299.88 258.425 295.278 255.777L259.864 235.398C255.261 232.749 247.799 232.749 243.196 235.398Z" fill="#1E88E5"/>
<path d="M243.196 235.398L134.868 297.735C130.265 300.384 130.265 304.678 134.868 307.327L170.282 327.706C174.884 330.354 182.347 330.354 186.949 327.706L295.278 265.368C299.88 262.719 299.88 258.425 295.278 255.777L259.864 235.398C255.261 232.749 247.799 232.749 243.196 235.398Z" fill="url(#paint1_linear)" fill-opacity="0.5"/>
<mask id="mask0" mask-type="alpha" maskUnits="userSpaceOnUse" x="131" y="233" width="168" height="97">
<path d="M243.196 235.398L134.868 297.735C130.265 300.384 130.265 304.678 134.868 307.327L170.282 327.706C174.884 330.354 182.347 330.354 186.949 327.706L295.278 265.368C299.88 262.719 299.88 258.425 295.278 255.777L259.864 235.398C255.261 232.749 247.799 232.749 243.196 235.398Z" fill="#1E88E5"/>
<path d="M243.196 235.398L134.868 297.735C130.265 300.384 130.265 304.678 134.868 307.327L170.282 327.706C174.884 330.354 182.347 330.354 186.949 327.706L295.278 265.368C299.88 262.719 299.88 258.425 295.278 255.777L259.864 235.398C255.261 232.749 247.799 232.749 243.196 235.398Z" fill="url(#paint2_linear)"/>
</mask>
<g mask="url(#mask0)">
<path d="M159.512 152.882L151.887 157.27C113.723 179.232 113.723 214.838 151.887 236.799L159.512 241.187C197.676 263.149 259.551 263.149 297.715 241.187L305.34 236.799C343.504 214.838 343.504 179.232 305.34 157.27L297.715 152.882C259.551 130.921 197.676 130.921 159.512 152.882Z" stroke="url(#paint3_linear)"/>
<path d="M286.591 189.246L278.966 193.635C240.802 215.596 240.802 251.202 278.966 273.164L286.591 277.552C324.755 299.513 386.63 299.513 424.794 277.552L432.419 273.164C470.583 251.202 470.583 215.596 432.419 193.635L424.794 189.246C386.63 167.285 324.755 167.285 286.591 189.246Z" stroke="url(#paint4_linear)"/>
<path d="M215.209 290.396L213.362 291.459L218.456 294.391L217.435 294.978L212.34 292.046L210.509 293.101L209.679 292.623L214.379 289.918L215.209 290.396ZM217.715 292.236C217.284 291.988 216.982 291.715 216.808 291.419C216.632 291.121 216.606 290.83 216.731 290.546C216.853 290.26 217.115 290.002 217.517 289.771C218.11 289.428 218.783 289.261 219.534 289.269C220.289 289.276 220.997 289.452 221.658 289.799L221.895 289.93C222.329 290.18 222.633 290.451 222.806 290.745C222.982 291.037 223.008 291.326 222.884 291.613C222.762 291.899 222.497 292.159 222.09 292.393C221.469 292.75 220.765 292.918 219.978 292.897C219.192 292.872 218.453 292.661 217.764 292.264L217.715 292.236ZM218.79 291.716C219.243 291.978 219.692 292.128 220.136 292.169C220.579 292.208 220.967 292.131 221.301 291.939C221.634 291.746 221.763 291.523 221.687 291.267C221.614 291.01 221.326 290.736 220.824 290.448C220.379 290.191 219.93 290.044 219.477 290.005C219.027 289.964 218.638 290.038 218.31 290.227C217.986 290.413 217.859 290.635 217.927 290.892C217.992 291.148 218.28 291.423 218.79 291.716ZM220.654 286.827L221.724 287.443L222.501 286.995L223.233 287.417L222.456 287.864L224.914 289.279C225.083 289.376 225.237 289.427 225.378 289.433C225.519 289.436 225.675 289.388 225.846 289.29C225.96 289.225 226.062 289.151 226.152 289.068L226.917 289.508C226.754 289.674 226.568 289.817 226.358 289.937C225.599 290.374 224.8 290.351 223.962 289.869L221.468 288.433L220.743 288.851L220.011 288.428L220.735 288.012L219.665 287.396L220.654 286.827ZM230.293 287.579C230.166 287.556 229.991 287.498 229.769 287.408C229.783 287.778 229.561 288.094 229.106 288.357C228.663 288.611 228.176 288.746 227.645 288.761C227.113 288.777 226.662 288.678 226.289 288.464C225.82 288.193 225.634 287.887 225.732 287.544C225.83 287.197 226.203 286.837 226.851 286.464L227.457 286.115L227.168 285.949C226.941 285.818 226.695 285.75 226.432 285.745C226.166 285.739 225.903 285.811 225.642 285.961C225.417 286.09 225.289 286.23 225.26 286.377C225.228 286.524 225.298 286.648 225.472 286.747L224.483 287.317C224.241 287.178 224.096 287.002 224.047 286.79C223.996 286.576 224.047 286.356 224.202 286.13C224.359 285.901 224.608 285.69 224.947 285.495C225.462 285.198 226.003 285.036 226.57 285.01C227.135 284.982 227.655 285.101 228.133 285.366L230.119 286.508C230.515 286.736 230.887 286.887 231.234 286.959L231.303 286.998L230.293 287.579ZM228.495 287.794C228.69 287.682 228.826 287.549 228.902 287.396C228.981 287.241 228.983 287.094 228.91 286.951L228.08 286.473L227.547 286.78C227.18 286.991 226.969 287.186 226.912 287.365C226.855 287.545 226.943 287.702 227.176 287.836C227.366 287.946 227.581 287.997 227.819 287.991C228.058 287.982 228.284 287.916 228.495 287.794ZM233.224 285.893L232.235 286.462L225.984 282.865L226.973 282.296L233.224 285.893ZM237.561 283.397L236.536 283.987L230.611 280.577L231.637 279.987L237.561 283.397ZM235.246 279.662L235.783 279.938C235.715 279.524 235.946 279.165 236.475 278.861C237.392 278.333 238.383 278.367 239.45 278.961L242.359 280.636L241.37 281.205L238.518 279.563C238.238 279.402 237.971 279.319 237.716 279.313C237.461 279.303 237.196 279.377 236.923 279.535C236.523 279.765 236.407 280.039 236.572 280.359L239.706 282.163L238.717 282.732L234.314 280.198L235.246 279.662ZM244.471 278.605C244.718 278.463 244.85 278.304 244.87 278.128C244.889 277.951 244.798 277.799 244.597 277.671L245.529 277.135C245.792 277.299 245.963 277.496 246.042 277.725C246.117 277.953 246.088 278.186 245.952 278.423C245.817 278.66 245.59 278.87 245.272 279.053C244.657 279.407 243.969 279.573 243.21 279.552C242.45 279.53 241.719 279.317 241.017 278.912L240.915 278.854C240.244 278.468 239.887 278.057 239.844 277.62C239.798 277.181 240.085 276.784 240.703 276.428C241.227 276.126 241.806 275.97 242.441 275.957C243.075 275.941 243.649 276.072 244.162 276.348L243.23 276.884C242.967 276.745 242.672 276.676 242.347 276.676C242.024 276.674 241.737 276.745 241.488 276.889C241.168 277.073 241.038 277.282 241.098 277.517C241.154 277.749 241.417 278.002 241.887 278.275L242.045 278.367C242.523 278.641 242.965 278.797 243.373 278.835C243.779 278.869 244.146 278.793 244.471 278.605ZM245.305 276.36C244.874 276.112 244.571 275.839 244.397 275.543C244.222 275.244 244.195 274.953 244.32 274.669C244.442 274.383 244.704 274.125 245.105 273.894C245.7 273.552 246.372 273.385 247.124 273.393C247.878 273.399 248.587 273.576 249.248 273.922L249.485 274.053C249.919 274.303 250.222 274.575 250.396 274.868C250.572 275.16 250.598 275.45 250.473 275.737C250.351 276.023 250.087 276.283 249.68 276.517C249.058 276.874 248.355 277.042 247.567 277.02C246.781 276.995 246.043 276.784 245.354 276.388L245.305 276.36ZM246.38 275.84C246.833 276.101 247.282 276.251 247.726 276.292C248.169 276.331 248.557 276.254 248.89 276.062C249.224 275.87 249.352 275.646 249.277 275.39C249.203 275.133 248.916 274.86 248.414 274.571C247.969 274.315 247.52 274.167 247.067 274.128C246.617 274.088 246.227 274.162 245.899 274.351C245.576 274.536 245.449 274.758 245.517 275.016C245.582 275.272 245.87 275.546 246.38 275.84ZM249.004 271.744L249.493 271.993C249.441 271.607 249.684 271.26 250.221 270.951C250.809 270.612 251.437 270.51 252.105 270.644C251.975 270.2 252.2 269.812 252.781 269.478C253.266 269.198 253.761 269.068 254.266 269.087C254.773 269.104 255.291 269.261 255.82 269.56L258.713 271.225L257.724 271.794L254.86 270.145C254.58 269.984 254.315 269.901 254.062 269.897C253.81 269.892 253.542 269.971 253.261 270.133C253.036 270.263 252.912 270.404 252.89 270.557C252.869 270.707 252.927 270.855 253.065 271L256.088 272.735L255.1 273.304L252.202 271.637C251.671 271.346 251.147 271.349 250.632 271.646C250.236 271.874 250.117 272.128 250.274 272.409L253.464 274.245L252.475 274.814L248.073 272.281L249.004 271.744ZM261.749 269.571C261.122 269.932 260.417 270.111 259.633 270.11C258.849 270.105 258.128 269.914 257.472 269.536L257.35 269.466C256.91 269.213 256.602 268.939 256.427 268.644C256.25 268.346 256.219 268.053 256.333 267.766C256.447 267.479 256.692 267.227 257.069 267.01C257.669 266.665 258.323 266.508 259.031 266.541C259.742 266.572 260.447 266.789 261.147 267.192L261.545 267.422L258.669 269.077C259.062 269.269 259.47 269.365 259.893 269.365C260.319 269.364 260.694 269.27 261.017 269.084C261.469 268.824 261.655 268.506 261.574 268.131L262.616 268.117C262.703 268.37 262.671 268.624 262.522 268.878C262.373 269.13 262.116 269.361 261.749 269.571ZM257.859 267.468C257.587 267.625 257.463 267.806 257.485 268.012C257.509 268.216 257.667 268.429 257.961 268.651L259.845 267.567L259.772 267.525C259.419 267.347 259.081 267.254 258.758 267.246C258.432 267.237 258.132 267.311 257.859 267.468Z" fill="#E3F2FD"/>
<path d="M203.046 284.083C202.749 283.913 202.431 283.825 202.091 283.821C201.751 283.813 201.31 283.879 200.767 284.021C200.225 284.162 199.738 284.274 199.307 284.355C198.874 284.434 198.46 284.479 198.065 284.489C197.671 284.496 197.287 284.458 196.915 284.377C196.546 284.293 196.184 284.15 195.829 283.946C195.218 283.594 194.913 283.194 194.913 282.744C194.913 282.294 195.204 281.864 195.786 281.454L194.625 280.786L195.493 280.287L196.671 280.964C197.401 280.648 198.17 280.514 198.977 280.562C199.78 280.607 200.533 280.833 201.239 281.239L199.671 282.142C199.237 281.891 198.823 281.757 198.428 281.739C198.035 281.716 197.687 281.791 197.387 281.963C197.09 282.134 196.946 282.315 196.953 282.507C196.956 282.696 197.107 282.876 197.404 283.047C197.678 283.205 197.979 283.286 198.304 283.29C198.63 283.294 199.094 283.223 199.699 283.075C200.306 282.925 200.827 282.815 201.261 282.744C201.691 282.672 202.1 282.636 202.487 282.638C202.87 282.638 203.238 282.68 203.589 282.766C203.936 282.849 204.274 282.986 204.603 283.175C205.218 283.529 205.525 283.927 205.525 284.368C205.525 284.809 205.224 285.243 204.619 285.67L205.699 286.291L204.837 286.787L203.762 286.17C202.941 286.55 202.104 286.73 201.25 286.709C200.396 286.684 199.598 286.459 198.857 286.032L200.425 285.13C200.856 285.377 201.288 285.509 201.722 285.526C202.157 285.539 202.565 285.434 202.948 285.214C203.266 285.03 203.435 284.838 203.453 284.636C203.468 284.433 203.331 284.248 203.046 284.083ZM213.17 280.649L207.755 283.765L206.681 283.147L206.513 280.109C206.48 279.686 206.404 279.345 206.285 279.085C206.169 278.823 205.983 278.618 205.726 278.47C205.375 278.268 205.012 278.161 204.636 278.148C204.256 278.134 203.901 278.221 203.572 278.41C203.217 278.614 203.06 278.847 203.1 279.107C203.14 279.363 203.359 279.605 203.756 279.834L202.183 280.74C201.702 280.463 201.376 280.144 201.206 279.784C201.04 279.422 201.055 279.056 201.25 278.685C201.442 278.313 201.804 277.973 202.335 277.667C203.149 277.199 203.975 276.948 204.815 276.915C205.658 276.88 206.436 277.067 207.148 277.477C207.538 277.702 207.835 277.989 208.038 278.339C208.24 278.688 208.365 279.16 208.412 279.753L208.509 281.876L211.906 279.922L213.17 280.649ZM216.187 275.154C217.279 275.783 217.888 276.394 218.015 276.987C218.142 277.58 217.77 278.127 216.898 278.629C216.037 279.124 215.095 279.34 214.071 279.275C213.047 279.211 212 278.877 210.929 278.273L209.476 277.436C208.372 276.802 207.763 276.189 207.647 275.597C207.535 275.004 207.909 274.46 208.77 273.964C209.631 273.469 210.573 273.254 211.597 273.318C212.617 273.381 213.662 273.714 214.733 274.317L216.187 275.154ZM213.024 275.138C212.369 274.762 211.803 274.54 211.326 274.473C210.848 274.403 210.419 274.476 210.039 274.695C209.67 274.907 209.541 275.147 209.649 275.413C209.758 275.675 210.108 275.983 210.702 276.337L212.622 277.443C213.266 277.813 213.832 278.039 214.321 278.12C214.809 278.197 215.246 278.124 215.633 277.902C216.017 277.681 216.143 277.435 216.014 277.165C215.883 276.894 215.512 276.579 214.901 276.219L213.024 275.138ZM217.467 272.831L218.303 272.35C218.701 272.121 218.896 271.894 218.889 271.67C218.882 271.445 218.714 271.238 218.384 271.048C218.066 270.865 217.722 270.778 217.354 270.786C216.988 270.792 216.639 270.891 216.306 271.083C216.006 271.255 215.838 271.448 215.802 271.66C215.762 271.87 215.874 272.052 216.138 272.204L214.57 273.106C214.158 272.869 213.899 272.593 213.794 272.278C213.69 271.96 213.743 271.633 213.957 271.298C214.174 270.961 214.523 270.654 215.004 270.377C215.84 269.896 216.695 269.635 217.571 269.593C218.443 269.55 219.229 269.73 219.931 270.133C220.293 270.342 220.515 270.597 220.598 270.898C220.681 271.2 220.625 271.501 220.43 271.801C221.033 271.636 221.604 271.583 222.139 271.642C222.678 271.698 223.164 271.851 223.599 272.1C224.3 272.504 224.606 272.976 224.515 273.515C224.429 274.052 223.964 274.563 223.121 275.048C222.333 275.502 221.479 275.753 220.56 275.803C219.645 275.851 218.846 275.679 218.162 275.285L219.73 274.383C220.026 274.553 220.379 274.629 220.788 274.611C221.2 274.59 221.569 274.486 221.895 274.298C222.268 274.084 222.461 273.86 222.475 273.627C222.49 273.39 222.334 273.178 222.009 272.99C221.22 272.537 220.392 272.559 219.524 273.059L218.694 273.537L217.467 272.831ZM226.74 270.13V270.78L228.531 271.81L226.962 272.712L218.629 267.917L220.196 267.014L224.814 269.671L224.727 269.272L224.466 267.392L226.349 266.309L226.675 268.938L232.405 269.581L230.603 270.617L226.74 270.13Z" fill="white"/>
<path d="M172.365 288.146L154.311 298.535C150.859 300.521 150.859 303.742 154.311 305.728L172.365 316.117C175.817 318.104 181.413 318.104 184.865 316.117L202.919 305.728C206.371 303.742 206.371 300.521 202.919 298.535L184.865 288.146C181.413 286.159 175.817 286.159 172.365 288.146Z" fill="#1565C0"/>
<g opacity="0.2">
<path opacity="0.2" d="M177.921 296.137L168.199 301.732C167.815 301.952 167.815 302.31 168.199 302.531L177.921 308.126C178.304 308.346 178.926 308.346 179.309 308.126L189.031 302.531C189.415 302.31 189.415 301.952 189.031 301.732L179.309 296.137C178.926 295.917 178.304 295.917 177.921 296.137Z" stroke="white" stroke-width="1.5" stroke-linecap="round" stroke-linejoin="round"/>
<path opacity="0.2" d="M170.282 303.729L181.393 297.336" stroke="white" stroke-width="1.5" stroke-linecap="round" stroke-linejoin="round"/>
<path opacity="0.2" d="M170.282 300.533L173.06 302.131" stroke="white" stroke-width="1.5" stroke-linecap="round" stroke-linejoin="round"/>
</g>
<path d="M177.921 290.544L168.199 296.139C167.815 296.359 167.815 296.717 168.199 296.938L177.921 302.533C178.304 302.753 178.926 302.753 179.309 302.533L189.031 296.938C189.415 296.717 189.415 296.359 189.031 296.139L179.309 290.544C178.926 290.324 178.304 290.324 177.921 290.544Z" stroke="white" stroke-width="1.5" stroke-linecap="round" stroke-linejoin="round"/>
<path d="M170.282 298.137L181.393 291.743" stroke="white" stroke-width="1.5" stroke-linecap="round" stroke-linejoin="round"/>
<path d="M170.282 294.94L173.06 296.538" stroke="white" stroke-width="1.5" stroke-linecap="round" stroke-linejoin="round"/>
</g>
</g>
<defs>
<filter id="filter0_d" x="67.4023" y="239.398" width="295.326" height="224.281" filterUnits="userSpaceOnUse" color-interpolation-filters="sRGB">
<feFlood flood-opacity="0" result="BackgroundImageFix"/>
<feColorMatrix in="SourceAlpha" type="matrix" values="0 0 0 0 0 0 0 0 0 0 0 0 0 0 0 0 0 0 127 0"/>
<feOffset dy="54"/>
<feGaussianBlur stdDeviation="32"/>
<feColorMatrix type="matrix" values="0 0 0 0 0.317647 0 0 0 0 0.556863 0 0 0 0 0.972549 0 0 0 0.5 0"/>
<feBlend mode="normal" in2="BackgroundImageFix" result="effect1_dropShadow"/>
<feBlend mode="normal" in="SourceGraphic" in2="effect1_dropShadow" result="shape"/>
</filter>
<linearGradient id="paint0_linear" x1="291.702" y1="256.801" x2="159.393" y2="334.943" gradientUnits="userSpaceOnUse">
<stop stop-color="#58B4FF"/>
<stop offset="1" stop-color="#C4E5FF"/>
</linearGradient>
<linearGradient id="paint1_linear" x1="126.534" y1="296.654" x2="202.049" y2="343.077" gradientUnits="userSpaceOnUse">
<stop stop-color="white"/>
<stop offset="1" stop-color="white" stop-opacity="0"/>
</linearGradient>
<linearGradient id="paint2_linear" x1="138.046" y1="301.984" x2="217.602" y2="342.595" gradientUnits="userSpaceOnUse">
<stop stop-color="white"/>
<stop offset="1" stop-color="white" stop-opacity="0"/>
</linearGradient>
<linearGradient id="paint3_linear" x1="36.352" y1="223.755" x2="296.425" y2="270.427" gradientUnits="userSpaceOnUse">
<stop stop-color="#90CAF9"/>
<stop offset="1" stop-color="#90CAF9" stop-opacity="0"/>
</linearGradient>
<linearGradient id="paint4_linear" x1="225.929" y1="83.4937" x2="259.986" y2="304.958" gradientUnits="userSpaceOnUse">
<stop stop-color="#90CAF9"/>
<stop offset="1" stop-color="#90CAF9" stop-opacity="0"/>
</linearGradient>
<clipPath id="clip0">
<rect width="336" height="239" fill="white" transform="translate(47 201)"/>
</clipPath>
</defs>
</svg>
