<svg width="676" height="491" viewBox="0 0 676 491" fill="none" xmlns="http://www.w3.org/2000/svg">
<rect width="26.9258" height="26.7576" transform="matrix(0.866041 -0.499972 0.866041 0.499972 127.088 173.333)" fill="#EDE7F6"/>
<rect width="24.9267" height="24.7709" transform="matrix(0.866041 -0.499972 0.866041 0.499972 128.809 174.327)" fill="#B39DDB"/>
<rect width="26.9258" height="26.7576" transform="matrix(0.866041 -0.499972 0.866041 0.499972 502.744 200.299)" fill="#EDE7F6"/>
<rect width="24.9267" height="24.7709" transform="matrix(0.866041 -0.499972 0.866041 0.499972 504.465 201.292)" fill="#B39DDB"/>
<rect width="26.998" height="26.8293" transform="matrix(0.866041 -0.499972 0.866041 0.499972 361.873 309.126)" fill="#E3F2FD"/>
<rect width="24.2748" height="24.1231" transform="matrix(0.866041 -0.499972 0.866041 0.499972 364.249 310.115)" fill="#90CAF9"/>
<rect width="26.998" height="26.8293" transform="matrix(0.866041 -0.499972 0.866041 0.499972 291.67 105.491)" fill="#E3F2FD"/>
<rect width="24.2748" height="24.1231" transform="matrix(0.866041 -0.499972 0.866041 0.499972 294.046 106.48)" fill="#90CAF9"/>
<g opacity="0.09">
<line y1="-0.5" x2="390.089" y2="-0.5" transform="matrix(0.866041 -0.499972 -0.866041 -0.499972 4.49133 216.53)" stroke="black"/>
<line y1="-0.5" x2="390.089" y2="-0.5" transform="matrix(-0.866041 -0.499972 -0.866041 0.499972 342.315 406.578)" stroke="black"/>
<line y1="-0.5" x2="390.089" y2="-0.5" transform="matrix(0.866041 -0.499972 -0.866041 -0.499972 28.0057 230.105)" stroke="black"/>
<line y1="-0.5" x2="390.089" y2="-0.5" transform="matrix(-0.866041 -0.499972 -0.866041 0.499972 365.829 393.002)" stroke="black"/>
<line y1="-0.5" x2="390.089" y2="-0.5" transform="matrix(0.866041 -0.499972 -0.866041 -0.499972 51.52 243.68)" stroke="black"/>
<line y1="-0.5" x2="390.089" y2="-0.5" transform="matrix(-0.866041 -0.499972 -0.866041 0.499972 389.344 379.428)" stroke="black"/>
<line y1="-0.5" x2="390.089" y2="-0.5" transform="matrix(0.866041 -0.499972 -0.866041 -0.499972 75.0344 257.255)" stroke="black"/>
<line y1="-0.5" x2="390.089" y2="-0.5" transform="matrix(-0.866041 -0.499972 -0.866041 0.499972 412.858 365.852)" stroke="black"/>
<line y1="-0.5" x2="390.089" y2="-0.5" transform="matrix(0.866041 -0.499972 -0.866041 -0.499972 98.5488 270.83)" stroke="black"/>
<line y1="-0.5" x2="390.089" y2="-0.5" transform="matrix(-0.866041 -0.499972 -0.866041 0.499972 436.373 352.277)" stroke="black"/>
<line y1="-0.5" x2="390.089" y2="-0.5" transform="matrix(0.866041 -0.499972 -0.866041 -0.499972 122.063 284.405)" stroke="black"/>
<line y1="-0.5" x2="390.089" y2="-0.5" transform="matrix(-0.866041 -0.499972 -0.866041 0.499972 459.887 338.703)" stroke="black"/>
<line y1="-0.5" x2="390.089" y2="-0.5" transform="matrix(0.866041 -0.499972 -0.866041 -0.499972 145.578 297.979)" stroke="black"/>
<line y1="-0.5" x2="390.089" y2="-0.5" transform="matrix(-0.866041 -0.499972 -0.866041 0.499972 483.401 325.127)" stroke="black"/>
<line y1="-0.5" x2="390.089" y2="-0.5" transform="matrix(0.866041 -0.499972 -0.866041 -0.499972 169.092 311.556)" stroke="black"/>
<line y1="-0.5" x2="390.089" y2="-0.5" transform="matrix(-0.866041 -0.499972 -0.866041 0.499972 506.916 311.551)" stroke="black"/>
<line y1="-0.5" x2="390.089" y2="-0.5" transform="matrix(0.866041 -0.499972 -0.866041 -0.499972 192.597 325.127)" stroke="black"/>
<line y1="-0.5" x2="390.089" y2="-0.5" transform="matrix(-0.866041 -0.499972 -0.866041 0.499972 530.43 297.977)" stroke="black"/>
<line y1="-0.5" x2="390.089" y2="-0.5" transform="matrix(0.866041 -0.499972 -0.866041 -0.499972 216.111 338.703)" stroke="black"/>
<line y1="-0.5" x2="390.089" y2="-0.5" transform="matrix(-0.866041 -0.499972 -0.866041 0.499972 553.944 284.402)" stroke="black"/>
<line y1="-0.5" x2="390.089" y2="-0.5" transform="matrix(0.866041 -0.499972 -0.866041 -0.499972 239.626 352.277)" stroke="black"/>
<line y1="-0.5" x2="390.089" y2="-0.5" transform="matrix(-0.866041 -0.499972 -0.866041 0.499972 577.459 270.827)" stroke="black"/>
<path d="M263.231 365.905L601.064 170.871" stroke="black"/>
<line y1="-0.5" x2="390.089" y2="-0.5" transform="matrix(-0.866041 -0.499972 -0.866041 0.499972 600.973 257.252)" stroke="black"/>
<line y1="-0.5" x2="390.089" y2="-0.5" transform="matrix(0.866041 -0.499972 -0.866041 -0.499972 286.654 379.428)" stroke="black"/>
<line y1="-0.5" x2="390.089" y2="-0.5" transform="matrix(-0.866041 -0.499972 -0.866041 0.499972 624.487 243.677)" stroke="black"/>
<line y1="-0.5" x2="390.089" y2="-0.5" transform="matrix(0.866041 -0.499972 -0.866041 -0.499972 310.169 393.002)" stroke="black"/>
<line y1="-0.5" x2="390.089" y2="-0.5" transform="matrix(-0.866041 -0.499972 -0.866041 0.499972 648.002 230.102)" stroke="black"/>
<line y1="-0.5" x2="390.089" y2="-0.5" transform="matrix(0.866041 -0.499972 -0.866041 -0.499972 333.683 406.578)" stroke="black"/>
<line y1="-0.5" x2="390.089" y2="-0.5" transform="matrix(-0.866041 -0.499972 -0.866041 0.499972 671.516 216.527)" stroke="black"/>
</g>
<path d="M293.291 269.127V266.105L296.545 267.965L293.291 269.127Z" fill="#B39DDB"/>
<g filter="url(#filter0_d)">
<path d="M128.758 240.075L123.458 237.015V244.082L123.468 244.076C123.522 244.528 123.849 244.97 124.447 245.316L175.094 274.555C176.41 275.315 178.545 275.315 179.861 274.555L226.735 247.494C227.438 247.088 227.765 246.548 227.717 246.016V239.107L222.346 242.208L176.087 215.503C174.771 214.743 172.637 214.743 171.32 215.503L128.758 240.075Z" fill="url(#paint0_linear)"/>
</g>
<rect width="59.6284" height="63.9858" rx="5" transform="matrix(0.866041 -0.499972 0.866041 0.499972 122.063 237.059)" fill="#90CAF9"/>
<rect width="59.6284" height="63.9858" rx="5" transform="matrix(0.866041 -0.499972 0.866041 0.499972 122.063 237.059)" fill="url(#paint1_linear)"/>
<rect width="56.6816" height="60.8238" rx="5" transform="matrix(0.866041 -0.499972 0.866041 0.499972 124.708 237.113)" fill="url(#paint2_linear)"/>
<g filter="url(#filter1_d)">
<path d="M459.022 314.444V311.545H455.307V317.696L455.316 317.701C455.335 318.348 455.773 318.993 456.629 319.487L494.94 341.604C496.691 342.615 499.53 342.615 501.282 341.604L595.342 287.302C596.177 286.82 596.614 286.196 596.653 285.564L596.654 285.564V285.551C596.656 285.499 596.656 285.447 596.654 285.395L596.66 279.207L591.363 281.344L557.031 261.524C555.28 260.513 552.441 260.513 550.69 261.524L459.022 314.444Z" fill="url(#paint3_linear)"/>
</g>
<rect width="115.933" height="51.5596" rx="5" transform="matrix(0.866041 -0.499972 0.866041 0.499972 453.457 311.555)" fill="#673AB7"/>
<rect width="115.933" height="51.5596" rx="5" transform="matrix(0.866041 -0.499972 0.866041 0.499972 453.457 311.555)" fill="url(#paint4_linear)" fill-opacity="0.3"/>
<mask id="mask0" mask-type="alpha" maskUnits="userSpaceOnUse" x="455" y="255" width="141" height="81">
<rect width="115.933" height="51.5596" rx="5" transform="matrix(0.866041 -0.499972 0.866041 0.499972 453.457 311.555)" fill="#673AB7"/>
</mask>
<g mask="url(#mask0)">
</g>
<mask id="mask1" mask-type="alpha" maskUnits="userSpaceOnUse" x="455" y="255" width="141" height="81">
<rect width="115.933" height="51.5596" rx="5" transform="matrix(0.866041 -0.499972 0.866041 0.499972 453.457 311.555)" fill="#673AB7"/>
</mask>
<g mask="url(#mask1)">
<rect width="64.3732" height="64.3732" rx="5" transform="matrix(0.866041 -0.499972 0.866041 0.499972 502.602 258.472)" fill="#5E35B1"/>
<rect opacity="0.7" x="0.866041" width="63.3732" height="63.3732" rx="4.5" transform="matrix(0.866041 -0.499972 0.866041 0.499972 470.483 264.702)" stroke="#5E35B1"/>
</g>
<defs>
<filter id="filter0_d" x="59.4575" y="214.933" width="232.264" height="208.191" filterUnits="userSpaceOnUse" color-interpolation-filters="sRGB">
<feFlood flood-opacity="0" result="BackgroundImageFix"/>
<feColorMatrix in="SourceAlpha" type="matrix" values="0 0 0 0 0 0 0 0 0 0 0 0 0 0 0 0 0 0 127 0"/>
<feOffset dy="84"/>
<feGaussianBlur stdDeviation="32"/>
<feColorMatrix type="matrix" values="0 0 0 0 0.129412 0 0 0 0 0.588235 0 0 0 0 0.952941 0 0 0 0.2 0"/>
<feBlend mode="normal" in2="BackgroundImageFix" result="effect1_dropShadow"/>
<feBlend mode="normal" in="SourceGraphic" in2="effect1_dropShadow" result="shape"/>
</filter>
<filter id="filter1_d" x="391.307" y="260.766" width="269.353" height="229.597" filterUnits="userSpaceOnUse" color-interpolation-filters="sRGB">
<feFlood flood-opacity="0" result="BackgroundImageFix"/>
<feColorMatrix in="SourceAlpha" type="matrix" values="0 0 0 0 0 0 0 0 0 0 0 0 0 0 0 0 0 0 127 0"/>
<feOffset dy="84"/>
<feGaussianBlur stdDeviation="32"/>
<feColorMatrix type="matrix" values="0 0 0 0 0.403922 0 0 0 0 0.227451 0 0 0 0 0.717647 0 0 0 0.2 0"/>
<feBlend mode="normal" in2="BackgroundImageFix" result="effect1_dropShadow"/>
<feBlend mode="normal" in="SourceGraphic" in2="effect1_dropShadow" result="shape"/>
</filter>
<linearGradient id="paint0_linear" x1="175.59" y1="234.035" x2="123.458" y2="245.029" gradientUnits="userSpaceOnUse">
<stop stop-color="#2196F3"/>
<stop offset="1" stop-color="#B1DCFF"/>
</linearGradient>
<linearGradient id="paint1_linear" x1="0.503035" y1="2.68177" x2="20.3032" y2="42.2842" gradientUnits="userSpaceOnUse">
<stop stop-color="#FAFAFA" stop-opacity="0.74"/>
<stop offset="1" stop-color="#91CBFA"/>
</linearGradient>
<linearGradient id="paint2_linear" x1="-18.5494" y1="-44.8799" x2="14.7845" y2="40.5766" gradientUnits="userSpaceOnUse">
<stop stop-color="#FAFAFA" stop-opacity="0.74"/>
<stop offset="1" stop-color="#91CBFA"/>
</linearGradient>
<linearGradient id="paint3_linear" x1="591.644" y1="279.231" x2="462.328" y2="334.943" gradientUnits="userSpaceOnUse">
<stop stop-color="#A491C8"/>
<stop offset="1" stop-color="#D7C5F8"/>
</linearGradient>
<linearGradient id="paint4_linear" x1="8.1531" y1="-0.145767" x2="57.1962" y2="72.3003" gradientUnits="userSpaceOnUse">
<stop stop-color="white"/>
<stop offset="1" stop-color="white" stop-opacity="0"/>
</linearGradient>
</defs>
</svg>
