<svg width="807" height="976" viewBox="0 0 807 976" fill="none" xmlns="http://www.w3.org/2000/svg">
<g filter="url(#filter0_d)">
<path d="M99.4341 687.586L89.6953 681.719V695.198L89.7039 695.193C89.7705 696.108 90.3839 697.011 91.544 697.71L134.996 723.888C137.458 725.371 141.449 725.371 143.91 723.888L253.842 657.66C255.097 656.904 255.712 655.909 255.687 654.919L255.695 654.923V641.445L245.768 647.426L210.39 626.112C207.928 624.629 203.937 624.629 201.476 626.112L99.4341 687.586Z" fill="url(#paint0_linear)"/>
</g>
<rect width="143.143" height="63.0724" rx="12" transform="matrix(0.866041 -0.499972 0.866041 0.499972 83 681.568)" fill="#FFAB91"/>
<mask id="mask0" mask-type="alpha" maskUnits="userSpaceOnUse" x="93" y="613" width="163" height="94">
<rect width="137.775" height="63.0724" rx="12" transform="matrix(0.866041 -0.499972 0.866041 0.499972 87.6484 678.884)" fill="#FFAB91"/>
</mask>
<g mask="url(#mask0)">
<path d="M145.765 697.22L136.761 711.681L263.778 638.353L259.435 635.846L240.805 633.447C229.466 631.987 218.202 636.066 215.543 642.595C213.301 648.1 204.819 652.002 195.024 652.035L192.479 652.044C177.303 652.096 165.877 660.037 168.572 668.659L169.559 671.816C171.59 678.313 166.844 684.894 157.427 688.64L156.967 688.823C151.804 690.877 147.886 693.814 145.765 697.22Z" fill="url(#paint1_linear)"/>
<path d="M145.777 697.199L136.76 711.681L263.209 637.469L243.63 633.861C231.58 631.64 218.757 635.676 215.463 642.726C212.733 648.571 203.287 652.514 192.817 652.179L192.229 652.16C177.739 651.697 166.163 659.029 168.301 667.316L169.557 672.187C171.232 678.677 166.337 685.149 156.955 688.852C151.801 690.886 147.889 693.807 145.777 697.199Z" stroke="url(#paint2_linear)"/>
</g>
<path d="M183.547 638.406C183.369 638.303 183.185 638.248 182.996 638.24C182.806 638.232 182.556 638.266 182.245 638.342C181.934 638.417 181.638 638.482 181.358 638.537C181.079 638.592 180.81 638.623 180.553 638.631C180.296 638.638 180.052 638.617 179.819 638.566C179.587 638.515 179.357 638.424 179.129 638.293C178.748 638.073 178.563 637.818 178.574 637.527C178.583 637.236 178.782 636.954 179.17 636.683L178.456 636.271L178.994 635.961L179.721 636.381C180.195 636.178 180.689 636.089 181.203 636.115C181.717 636.139 182.188 636.274 182.617 636.521L181.473 637.182C181.239 637.046 181.013 636.968 180.797 636.947C180.58 636.926 180.389 636.964 180.222 637.06C180.073 637.146 180.004 637.241 180.015 637.344C180.027 637.444 180.115 637.542 180.279 637.637C180.446 637.733 180.627 637.782 180.821 637.785C181.012 637.786 181.258 637.752 181.558 637.683C181.856 637.613 182.146 637.553 182.427 637.502C182.709 637.448 182.979 637.418 183.236 637.41C183.493 637.402 183.741 637.423 183.98 637.473C184.219 637.522 184.453 637.612 184.681 637.744C185.066 637.967 185.258 638.219 185.256 638.502C185.256 638.783 185.065 639.057 184.684 639.324L185.364 639.717L184.826 640.027L184.143 639.633C183.599 639.886 183.053 640.008 182.505 639.996C181.957 639.981 181.45 639.84 180.983 639.57L182.123 638.912C182.38 639.06 182.633 639.141 182.881 639.154C183.129 639.164 183.358 639.109 183.568 638.988C183.721 638.9 183.796 638.804 183.794 638.701C183.79 638.597 183.707 638.499 183.547 638.406ZM189.122 636.695L187.979 637.355L184.339 635.254L183.544 636.092L182.678 635.592L184.092 633.912L184.197 633.852L189.122 636.695ZM190.32 631.836C190.559 631.974 190.71 632.13 190.773 632.305C190.839 632.478 190.823 632.656 190.726 632.84C191.075 632.771 191.419 632.755 191.758 632.791C192.094 632.826 192.398 632.923 192.671 633.08C193.111 633.334 193.306 633.622 193.256 633.945C193.209 634.267 192.919 634.581 192.387 634.889C191.852 635.197 191.303 635.367 190.739 635.398C190.173 635.428 189.672 635.317 189.234 635.064C188.97 634.912 188.804 634.738 188.737 634.543C188.669 634.348 188.701 634.145 188.831 633.934C188.511 633.991 188.2 634.001 187.898 633.965C187.596 633.928 187.325 633.841 187.086 633.703C186.657 633.456 186.464 633.177 186.507 632.865C186.55 632.554 186.819 632.256 187.312 631.971C187.811 631.683 188.33 631.527 188.869 631.502C189.408 631.477 189.891 631.589 190.32 631.836ZM191.436 633.688C191.233 633.57 191.025 633.511 190.81 633.51C190.596 633.506 190.403 633.553 190.232 633.652C190.061 633.751 189.977 633.863 189.982 633.988C189.984 634.112 190.087 634.232 190.29 634.35C190.486 634.463 190.694 634.522 190.915 634.527C191.136 634.53 191.334 634.481 191.507 634.381C191.677 634.283 191.757 634.172 191.748 634.047C191.739 633.922 191.635 633.802 191.436 633.688ZM188.192 632.479C188.039 632.567 187.972 632.664 187.992 632.77C188.013 632.873 188.112 632.975 188.29 633.078C188.466 633.18 188.649 633.238 188.838 633.254C189.028 633.27 189.201 633.232 189.359 633.141C189.515 633.051 189.577 632.953 189.545 632.846C189.516 632.738 189.413 632.633 189.237 632.531C189.061 632.43 188.882 632.373 188.7 632.361C188.519 632.348 188.35 632.388 188.192 632.479ZM192.722 631.223L193.26 630.912C193.686 630.666 193.691 630.423 193.273 630.182C193.111 630.088 192.928 630.041 192.725 630.041C192.52 630.04 192.325 630.093 192.14 630.199C191.989 630.287 191.901 630.388 191.876 630.504C191.854 630.619 191.908 630.714 192.039 630.789L190.898 631.447C190.639 631.298 190.48 631.123 190.421 630.922C190.363 630.722 190.405 630.515 190.547 630.303C190.689 630.088 190.913 629.892 191.22 629.715C191.768 629.399 192.324 629.222 192.888 629.186C193.451 629.149 193.952 629.257 194.39 629.51C194.602 629.632 194.737 629.786 194.796 629.971C194.854 630.153 194.818 630.35 194.687 630.561C195.044 630.464 195.393 630.429 195.736 630.455C196.077 630.48 196.389 630.574 196.673 630.739C197.113 630.992 197.296 631.293 197.221 631.641C197.147 631.988 196.834 632.321 196.284 632.639C195.962 632.825 195.601 632.963 195.202 633.053C194.802 633.14 194.424 633.162 194.065 633.119C193.704 633.075 193.385 632.973 193.108 632.813L194.254 632.151C194.405 632.238 194.597 632.278 194.829 632.272C195.062 632.265 195.267 632.21 195.445 632.108C195.646 631.992 195.751 631.867 195.76 631.735C195.767 631.6 195.683 631.483 195.509 631.383C195.261 631.24 195.023 631.174 194.796 631.186C194.568 631.197 194.345 631.266 194.126 631.393L193.571 631.713L192.722 631.223ZM198.974 628.809C198.949 629.078 198.784 629.301 198.48 629.477C198.033 629.735 197.528 629.852 196.964 629.828C196.4 629.805 195.866 629.647 195.361 629.356C195.045 629.173 194.825 628.962 194.701 628.721C194.577 628.48 194.568 628.238 194.674 627.995C194.782 627.75 194.996 627.535 195.317 627.35C195.641 627.163 196.017 627.041 196.443 626.985C196.869 626.926 197.306 626.941 197.752 627.03C198.197 627.117 198.616 627.272 199.011 627.495L199.447 627.746C199.991 628.06 200.355 628.394 200.54 628.748C200.727 629.101 200.731 629.453 200.55 629.805C200.37 630.157 200.017 630.484 199.491 630.787L199.42 630.828L198.507 630.301L198.72 630.174C199.466 629.699 199.551 629.244 198.974 628.809ZM197.965 628.825C198.214 628.681 198.285 628.517 198.179 628.33L197.705 628.057C197.389 627.875 197.103 627.771 196.846 627.745C196.589 627.718 196.37 627.758 196.189 627.862C196.029 627.954 195.981 628.081 196.044 628.243C196.107 628.404 196.26 628.555 196.504 628.696C196.761 628.844 197.022 628.931 197.286 628.955C197.547 628.979 197.774 628.935 197.965 628.825ZM202.262 627.832C202.442 627.728 202.646 627.673 202.874 627.666C203.1 627.659 203.296 627.703 203.463 627.799C203.63 627.896 203.708 628.009 203.696 628.141C203.683 628.271 203.586 628.388 203.405 628.493C203.223 628.598 203.017 628.654 202.79 628.661C202.564 628.666 202.369 628.621 202.204 628.526C202.04 628.431 201.962 628.318 201.971 628.188C201.982 628.056 202.079 627.938 202.262 627.832ZM206.149 624.542C206.814 624.926 207.177 625.308 207.238 625.69C207.301 626.07 207.061 626.417 206.518 626.731C205.97 627.047 205.364 627.187 204.701 627.151C204.038 627.114 203.376 626.905 202.715 626.524L201.815 626.004C201.15 625.62 200.786 625.238 200.723 624.858C200.662 624.476 200.904 624.128 201.45 623.813C201.996 623.498 202.6 623.359 203.263 623.395C203.926 623.432 204.589 623.641 205.252 624.024L206.149 624.542ZM203.963 624.596C203.609 624.392 203.299 624.266 203.033 624.219C202.765 624.171 202.53 624.205 202.33 624.321C202.133 624.434 202.071 624.564 202.143 624.71C202.218 624.854 202.416 625.023 202.739 625.217L203.997 625.944C204.365 626.156 204.681 626.285 204.945 626.331C205.206 626.375 205.437 626.339 205.638 626.223C205.832 626.111 205.893 625.981 205.821 625.833C205.746 625.683 205.533 625.505 205.181 625.299L203.963 624.596ZM210.161 622.225C210.826 622.609 211.19 622.992 211.25 623.374C211.314 623.754 211.073 624.101 210.53 624.415C209.982 624.731 209.376 624.871 208.713 624.835C208.05 624.798 207.388 624.589 206.727 624.208L205.828 623.688C205.162 623.304 204.798 622.922 204.735 622.542C204.674 622.16 204.916 621.812 205.462 621.497C206.008 621.182 206.612 621.042 207.275 621.079C207.938 621.115 208.602 621.325 209.265 621.708L210.161 622.225ZM207.976 622.28C207.622 622.076 207.312 621.95 207.045 621.903C206.777 621.855 206.542 621.889 206.342 622.005C206.146 622.118 206.083 622.247 206.156 622.393C206.23 622.538 206.429 622.707 206.751 622.901L208.01 623.628C208.377 623.84 208.693 623.969 208.957 624.014C209.218 624.059 209.45 624.023 209.65 623.907C209.844 623.795 209.905 623.665 209.833 623.516C209.759 623.367 209.545 623.189 209.194 622.983L207.976 622.28Z" fill="white"/>
<path d="M117.941 692.735L117.311 693.098L113.14 690.69L112.342 691.686L111.774 691.358L112.893 689.934L112.991 689.878L117.941 692.735ZM120.762 688.68C121.495 689.104 121.915 689.49 122.021 689.84C122.127 690.191 121.913 690.519 121.381 690.827C120.856 691.13 120.293 691.254 119.693 691.2C119.091 691.144 118.439 690.919 117.738 690.524L116.902 690.042C116.178 689.624 115.765 689.241 115.664 688.893C115.562 688.546 115.779 688.218 116.314 687.909C116.844 687.603 117.404 687.476 117.995 687.528C118.583 687.579 119.235 687.807 119.95 688.212L120.762 688.68ZM119.28 688.548C118.75 688.242 118.29 688.062 117.9 688.009C117.508 687.954 117.15 688.02 116.828 688.206C116.507 688.391 116.395 688.595 116.489 688.819C116.584 689.043 116.88 689.301 117.376 689.592L118.377 690.171C118.909 690.478 119.38 690.661 119.788 690.719C120.196 690.775 120.557 690.713 120.87 690.532C121.179 690.353 121.289 690.152 121.199 689.928C121.111 689.703 120.813 689.44 120.305 689.139L119.28 688.548ZM119.632 687.165C119.337 686.994 119.187 686.8 119.182 686.581C119.18 686.361 119.327 686.166 119.622 685.995C119.922 685.822 120.261 685.738 120.64 685.743C121.019 685.746 121.362 685.835 121.669 686.013L121.909 686.151C122.207 686.323 122.355 686.518 122.355 686.737C122.355 686.953 122.21 687.145 121.919 687.313C121.626 687.483 121.29 687.568 120.911 687.571C120.53 687.572 120.182 687.483 119.869 687.302L119.632 687.165ZM120.36 687.046C120.535 687.147 120.731 687.203 120.945 687.212C121.157 687.22 121.346 687.175 121.513 687.079C121.673 686.986 121.747 686.88 121.733 686.761C121.722 686.639 121.62 686.524 121.429 686.413L121.182 686.27C121.006 686.169 120.812 686.113 120.6 686.102C120.388 686.092 120.198 686.135 120.031 686.231C119.865 686.328 119.79 686.437 119.808 686.559C119.826 686.682 119.928 686.796 120.113 686.903L120.36 687.046ZM124.801 687.38C124.506 687.209 124.357 687.015 124.355 686.798C124.353 686.578 124.499 686.382 124.795 686.212C125.09 686.041 125.427 685.956 125.806 685.956C126.185 685.956 126.531 686.046 126.845 686.227L127.085 686.366C127.38 686.537 127.529 686.732 127.531 686.952C127.534 687.169 127.388 687.363 127.095 687.532C126.802 687.701 126.466 687.787 126.087 687.79C125.706 687.791 125.358 687.701 125.045 687.52L124.801 687.38ZM125.532 687.263C125.71 687.365 125.906 687.421 126.121 687.43C126.333 687.438 126.522 687.394 126.689 687.298C126.851 687.204 126.926 687.097 126.912 686.977C126.897 686.856 126.793 686.74 126.601 686.63L126.351 686.485C126.173 686.382 125.978 686.327 125.766 686.319C125.556 686.31 125.369 686.353 125.204 686.448C125.044 686.541 124.969 686.649 124.981 686.772C124.992 686.893 125.092 687.009 125.282 687.118L125.532 687.263ZM124.395 688.579L123.817 688.655L122.372 685.044L122.951 684.968L124.395 688.579ZM129.341 683.927L131.27 685.04L130.62 685.415L125.694 682.571L127.511 681.523C128.05 681.211 128.609 681.047 129.189 681.03C129.771 681.012 130.289 681.134 130.742 681.396C131.22 681.672 131.439 681.971 131.398 682.294C131.358 682.614 131.059 682.935 130.502 683.257L129.341 683.927ZM128.81 683.62L129.977 682.946C130.325 682.746 130.51 682.545 130.532 682.345C130.552 682.143 130.408 681.953 130.099 681.775C129.806 681.605 129.479 681.523 129.118 681.528C128.757 681.534 128.412 681.627 128.083 681.81L126.879 682.505L128.81 683.62ZM133.563 680.138C133.453 680.183 133.342 680.238 133.232 680.302C132.821 680.539 132.718 680.801 132.921 681.087L135.519 682.587L134.893 682.948L131.232 680.835L131.841 680.484L132.274 680.722C132.153 680.415 132.28 680.152 132.657 679.935C132.778 679.864 132.887 679.82 132.981 679.802L133.563 680.138ZM135.143 680.652C134.785 680.445 134.532 680.218 134.385 679.972C134.241 679.725 134.216 679.484 134.311 679.249C134.408 679.014 134.618 678.803 134.94 678.616C135.439 678.329 136.014 678.196 136.665 678.218C137.32 678.239 137.933 678.415 138.506 678.745L138.55 678.771C138.906 678.976 139.158 679.201 139.304 679.445C139.451 679.685 139.476 679.925 139.379 680.163C139.284 680.4 139.072 680.614 138.743 680.804C138.246 681.09 137.671 681.223 137.017 681.202C136.366 681.18 135.755 681.005 135.187 680.677L135.143 680.652ZM135.847 680.331C136.253 680.566 136.672 680.7 137.105 680.734C137.541 680.766 137.916 680.691 138.232 680.509C138.55 680.325 138.678 680.108 138.617 679.857C138.554 679.604 138.298 679.348 137.85 679.089C137.448 678.857 137.027 678.725 136.588 678.693C136.148 678.658 135.77 678.731 135.454 678.913C135.145 679.092 135.019 679.307 135.075 679.558C135.132 679.809 135.389 680.067 135.847 680.331ZM141.334 679.23L138.157 677.396L137.579 677.73L137.095 677.451L137.674 677.117L137.362 676.937C136.954 676.701 136.752 676.451 136.757 676.185C136.764 675.918 136.98 675.662 137.406 675.415C137.659 675.27 138.047 675.125 138.57 674.982L138.993 675.347C138.598 675.445 138.274 675.567 138.019 675.714C137.75 675.869 137.617 676.016 137.619 676.156C137.622 676.292 137.744 676.43 137.985 676.57L138.303 676.753L139.05 676.322L139.534 676.601L138.787 677.033L141.963 678.866L141.334 679.23ZM143.942 677.724L143.313 678.087L139.653 675.974L140.282 675.611L143.942 677.724ZM141.263 674.021L142.149 674.533L142.833 674.138L143.316 674.418L142.633 674.812L144.903 676.122C145.05 676.207 145.191 676.253 145.326 676.261C145.459 676.268 145.599 676.229 145.745 676.144C145.818 676.102 145.903 676.037 146.002 675.949L146.51 676.242C146.39 676.363 146.253 676.468 146.097 676.558C145.818 676.719 145.522 676.792 145.211 676.777C144.9 676.761 144.588 676.663 144.277 676.484L142.007 675.173L141.341 675.558L140.857 675.279L141.523 674.894L140.637 674.382L141.263 674.021Z" fill="#FBE9E7"/>
<path d="M107.156 687.778L102.23 684.935L103.918 683.96C104.475 683.638 105.011 683.458 105.525 683.419C106.039 683.38 106.517 683.488 106.959 683.743C107.185 683.873 107.327 684.026 107.386 684.2C107.444 684.375 107.406 684.558 107.271 684.751C107.609 684.639 107.951 684.599 108.296 684.632C108.641 684.662 108.953 684.758 109.233 684.919C109.695 685.186 109.902 685.477 109.852 685.792C109.805 686.106 109.505 686.422 108.952 686.741L107.156 687.778ZM105.789 686.001L107.328 686.89L108.279 686.341C108.547 686.186 108.69 686.026 108.708 685.862C108.727 685.698 108.617 685.548 108.38 685.411C107.868 685.116 107.345 685.116 106.811 685.411L105.789 686.001ZM105.16 685.638L105.999 685.153C106.265 685 106.413 684.845 106.442 684.691C106.471 684.533 106.375 684.39 106.154 684.263C105.911 684.122 105.665 684.061 105.417 684.079C105.171 684.096 104.902 684.189 104.608 684.358L103.776 684.839L105.16 685.638ZM113.634 684.038C113.528 684.019 113.383 683.971 113.198 683.896C113.209 684.204 113.025 684.468 112.646 684.687C112.279 684.899 111.874 685.011 111.432 685.024C110.99 685.037 110.614 684.955 110.305 684.776C109.915 684.551 109.761 684.295 109.842 684.009C109.923 683.72 110.233 683.42 110.772 683.109L111.276 682.818L111.036 682.679C110.847 682.57 110.642 682.513 110.424 682.509C110.203 682.504 109.984 682.564 109.767 682.689C109.58 682.797 109.474 682.913 109.449 683.036C109.422 683.159 109.481 683.262 109.625 683.345L108.803 683.819C108.602 683.704 108.482 683.557 108.441 683.38C108.398 683.202 108.441 683.018 108.57 682.829C108.701 682.639 108.907 682.463 109.189 682.3C109.617 682.053 110.067 681.918 110.539 681.896C111.008 681.872 111.441 681.971 111.838 682.193L113.489 683.146C113.818 683.336 114.127 683.461 114.416 683.521L114.473 683.554L113.634 684.038ZM112.139 684.218C112.301 684.124 112.414 684.013 112.477 683.886C112.543 683.757 112.545 683.633 112.484 683.515L111.794 683.116L111.351 683.372C111.046 683.548 110.87 683.711 110.823 683.86C110.775 684.01 110.849 684.141 111.043 684.253C111.201 684.344 111.379 684.387 111.577 684.382C111.776 684.374 111.963 684.319 112.139 684.218ZM112.393 680.529L116.378 682.829C116.752 683.045 116.944 683.264 116.953 683.485C116.966 683.707 116.794 683.921 116.435 684.128C116.284 684.215 116.119 684.288 115.941 684.347L115.292 683.972C115.398 683.934 115.505 683.884 115.613 683.821C115.886 683.664 115.877 683.497 115.586 683.321L111.57 681.003L112.393 680.529ZM110.549 680.495C110.423 680.423 110.357 680.339 110.353 680.245C110.35 680.15 110.424 680.06 110.573 679.974C110.721 679.888 110.878 679.846 111.043 679.847C111.207 679.848 111.353 679.885 111.479 679.958C111.603 680.03 111.666 680.113 111.669 680.208C111.669 680.302 111.594 680.392 111.445 680.478C111.296 680.564 111.141 680.607 110.978 680.607C110.816 680.604 110.673 680.567 110.549 680.495ZM119.121 680.87C119.015 680.851 118.87 680.803 118.685 680.728C118.696 681.036 118.512 681.3 118.133 681.519C117.766 681.731 117.361 681.844 116.919 681.857C116.477 681.87 116.101 681.787 115.792 681.609C115.402 681.383 115.248 681.128 115.329 680.841C115.41 680.552 115.72 680.252 116.259 679.941L116.763 679.65L116.523 679.511C116.334 679.402 116.13 679.345 115.911 679.341C115.69 679.336 115.471 679.396 115.255 679.521C115.067 679.629 114.961 679.745 114.937 679.869C114.909 679.991 114.968 680.094 115.112 680.177L114.29 680.652C114.09 680.536 113.969 680.389 113.928 680.212C113.886 680.034 113.928 679.85 114.057 679.661C114.188 679.471 114.394 679.295 114.676 679.132C115.105 678.885 115.554 678.75 116.026 678.728C116.495 678.705 116.928 678.803 117.325 679.025L118.976 679.978C119.305 680.168 119.614 680.293 119.903 680.353L119.96 680.386L119.121 680.87ZM117.626 681.05C117.788 680.956 117.901 680.846 117.964 680.718C118.03 680.589 118.032 680.465 117.971 680.347L117.281 679.949L116.838 680.204C116.533 680.38 116.357 680.543 116.31 680.693C116.263 680.842 116.336 680.973 116.53 681.085C116.688 681.176 116.866 681.219 117.064 681.214C117.263 681.206 117.45 681.152 117.626 681.05ZM117.88 677.361L121.865 679.661C122.239 679.878 122.431 680.096 122.44 680.318C122.454 680.539 122.281 680.753 121.922 680.96C121.771 681.047 121.607 681.12 121.428 681.179L120.779 680.804C120.885 680.766 120.992 680.716 121.1 680.654C121.373 680.496 121.364 680.329 121.073 680.154L117.058 677.835L117.88 677.361ZM116.036 677.328C115.91 677.255 115.844 677.171 115.84 677.078C115.838 676.983 115.911 676.892 116.06 676.806C116.209 676.72 116.365 676.678 116.53 676.679C116.695 676.681 116.84 676.718 116.966 676.791C117.09 676.862 117.154 676.945 117.156 677.041C117.156 677.134 117.081 677.224 116.932 677.31C116.784 677.396 116.628 677.439 116.466 677.439C116.303 677.436 116.16 677.399 116.036 677.328ZM124.977 675.08L122.995 676.224L125.082 677.429L124.226 677.923L119.301 675.08L122.43 673.273L123.12 673.672L120.847 674.984L122.311 675.83L124.294 674.685L124.977 675.08ZM128.83 675.265L128.008 675.74L124.348 673.627L125.17 673.152L128.83 675.265ZM123.347 673.107C123.22 673.034 123.155 672.951 123.15 672.857C123.148 672.762 123.221 672.672 123.37 672.586C123.519 672.5 123.676 672.457 123.841 672.459C124.005 672.46 124.151 672.497 124.277 672.57C124.401 672.642 124.464 672.725 124.466 672.82C124.466 672.914 124.392 673.004 124.243 673.09C124.094 673.176 123.939 673.218 123.776 673.218C123.614 673.216 123.471 673.179 123.347 673.107ZM126.831 672.193L127.278 672.424C127.221 672.079 127.413 671.779 127.853 671.525C128.615 671.085 129.439 671.113 130.326 671.609L132.745 673.006L131.922 673.48L129.551 672.111C129.319 671.977 129.097 671.907 128.885 671.902C128.673 671.894 128.453 671.956 128.225 672.088C127.893 672.279 127.796 672.508 127.934 672.775L130.539 674.279L129.717 674.754L126.056 672.64L126.831 672.193ZM134.642 670.762C134.496 670.677 134.323 670.648 134.125 670.674C133.929 670.698 133.661 670.775 133.323 670.902C132.985 671.03 132.677 671.122 132.399 671.178C131.791 671.3 131.298 671.252 130.921 671.035C130.605 670.853 130.475 670.624 130.529 670.348C130.583 670.072 130.815 669.815 131.226 669.578C131.663 669.325 132.124 669.184 132.609 669.154C133.096 669.123 133.512 669.207 133.858 669.406L133.035 669.881C132.878 669.79 132.688 669.748 132.467 669.756C132.244 669.762 132.035 669.822 131.841 669.934C131.661 670.038 131.555 670.147 131.523 670.262C131.494 670.375 131.549 670.472 131.689 670.553C131.815 670.626 131.966 670.652 132.142 670.631C132.318 670.61 132.604 670.527 132.998 670.383C133.391 670.237 133.728 670.14 134.01 670.092C134.292 670.041 134.545 670.03 134.771 670.058C134.999 670.086 135.211 670.156 135.407 670.269C135.736 670.46 135.867 670.693 135.799 670.969C135.729 671.243 135.473 671.508 135.031 671.763C134.731 671.937 134.41 672.06 134.067 672.133C133.724 672.206 133.393 672.225 133.073 672.191C132.752 672.157 132.483 672.077 132.264 671.951L133.063 671.49C133.268 671.596 133.491 671.64 133.732 671.623C133.971 671.605 134.203 671.531 134.426 671.402C134.642 671.277 134.766 671.159 134.798 671.047C134.827 670.933 134.775 670.838 134.642 670.762ZM138.844 669.562C138.323 669.863 137.737 670.013 137.085 670.012C136.433 670.008 135.834 669.848 135.289 669.533L135.187 669.475C134.822 669.264 134.566 669.035 134.419 668.789C134.272 668.54 134.247 668.296 134.341 668.057C134.436 667.817 134.64 667.607 134.954 667.426C135.452 667.138 135.996 667.008 136.584 667.035C137.175 667.061 137.761 667.242 138.343 667.578L138.675 667.77L136.283 669.15C136.61 669.31 136.95 669.391 137.301 669.391C137.655 669.389 137.967 669.311 138.235 669.156C138.612 668.939 138.766 668.674 138.699 668.361L139.565 668.35C139.637 668.561 139.611 668.772 139.487 668.984C139.363 669.194 139.148 669.387 138.844 669.562ZM135.61 667.809C135.384 667.939 135.281 668.09 135.299 668.262C135.319 668.432 135.451 668.61 135.694 668.795L137.261 667.891L137.2 667.855C136.907 667.707 136.626 667.63 136.358 667.623C136.087 667.615 135.838 667.677 135.61 667.809ZM139.893 665.52C139.766 665.572 139.646 665.631 139.531 665.697C139.154 665.915 139.045 666.145 139.203 666.387L141.706 667.832L140.884 668.307L137.224 666.193L138.008 665.74L138.438 665.965C138.319 665.667 138.435 665.416 138.787 665.213C138.904 665.145 139.017 665.098 139.125 665.072L139.893 665.52ZM143.631 665.518L141.787 663.559L142.636 663.069L145.028 665.914L144.314 666.326L139.375 664.951L140.228 664.459L143.631 665.518Z" fill="white"/>
<defs>
<filter id="filter0_d" x="35.6953" y="625" width="274" height="208" filterUnits="userSpaceOnUse" color-interpolation-filters="sRGB">
<feFlood flood-opacity="0" result="BackgroundImageFix"/>
<feColorMatrix in="SourceAlpha" type="matrix" values="0 0 0 0 0 0 0 0 0 0 0 0 0 0 0 0 0 0 127 0"/>
<feOffset dy="54"/>
<feGaussianBlur stdDeviation="27"/>
<feColorMatrix type="matrix" values="0 0 0 0 0.952941 0 0 0 0 0.54902 0 0 0 0 0.423529 0 0 0 0.2 0"/>
<feBlend mode="normal" in2="BackgroundImageFix" result="effect1_dropShadow"/>
<feBlend mode="normal" in="SourceGraphic" in2="effect1_dropShadow" result="shape"/>
</filter>
<linearGradient id="paint0_linear" x1="253.703" y1="652.895" x2="90.4485" y2="690.63" gradientUnits="userSpaceOnUse">
<stop stop-color="#F0C9C5"/>
<stop offset="1" stop-color="#FBE9E7"/>
</linearGradient>
<linearGradient id="paint1_linear" x1="132.018" y1="635.615" x2="166.259" y2="694.72" gradientUnits="userSpaceOnUse">
<stop stop-color="#D84315"/>
<stop offset="1" stop-color="#FFAB91"/>
</linearGradient>
<linearGradient id="paint2_linear" x1="172.02" y1="658.709" x2="186.298" y2="683.172" gradientUnits="userSpaceOnUse">
<stop stop-color="#D84315"/>
<stop offset="1" stop-color="#FFAB91"/>
</linearGradient>
</defs>
</svg>
