<svg width="807" height="976" viewBox="0 0 807 976" fill="none" xmlns="http://www.w3.org/2000/svg">
<g filter="url(#filter0_d)">
<path d="M326.923 432.777L314.345 424.101V438.84C314.336 438.989 314.336 439.138 314.345 439.287V439.297C314.443 440.859 315.525 442.403 317.589 443.595L348.078 463.853C352.413 466.355 359.442 466.355 363.777 463.853L403.875 438.044C406.145 436.733 407.226 434.997 407.119 433.28V419.77L394.129 425.727L372.995 413.526C368.659 411.023 361.631 411.023 357.295 413.526L326.923 432.777Z" fill="url(#paint0_linear)"/>
</g>
<rect x="0.864882" width="62.3654" height="52.4135" rx="11.5" transform="matrix(0.864882 -0.501975 0.864882 0.501975 310.117 425.242)" fill="#61DAFB"/>
<rect x="0.864882" width="62.3654" height="52.4135" rx="11.5" transform="matrix(0.864882 -0.501975 0.864882 0.501975 310.117 425.242)" fill="url(#paint1_linear)"/>
<rect x="0.864882" width="62.3654" height="52.4135" rx="11.5" transform="matrix(0.864882 -0.501975 0.864882 0.501975 310.117 425.242)" stroke="#E3F2FD"/>
<path d="M361.889 426.808C361.673 426.98 361.474 427.144 361.263 427.303C361.101 427.425 360.927 427.543 360.752 427.659C360.207 428.021 359.671 428.388 359.107 428.74C358.741 428.968 358.323 429.168 357.943 429.39C357.404 429.704 356.771 429.917 356.157 430.156C355.607 430.37 355.042 430.513 354.461 430.572C353.748 430.645 353.099 430.604 352.556 430.398C352.12 430.233 351.831 429.999 351.57 429.742C350.94 429.123 350.804 428.372 350.73 427.609C350.687 427.17 350.724 426.716 350.748 426.266C350.757 426.082 350.825 425.89 350.87 425.69C350.747 425.695 350.646 425.701 350.548 425.702C349.683 425.707 348.808 425.734 347.959 425.708C347.312 425.689 346.681 425.627 346.078 425.541C345.462 425.453 344.87 425.331 344.303 425.19C343.873 425.083 343.534 424.904 343.222 424.705C342.709 424.378 342.558 423.958 342.706 423.465C342.773 423.242 342.949 423.008 343.12 422.785C343.379 422.45 343.732 422.134 344.161 421.843C344.484 421.625 344.825 421.414 345.15 421.197C345.838 420.737 346.634 420.352 347.453 419.985C348.042 419.722 348.645 419.472 349.245 419.22C349.402 419.154 349.471 419.101 349.397 419.005C348.821 418.256 348.492 417.435 348.376 416.562C348.323 416.165 348.338 415.749 348.421 415.333C348.48 415.038 348.651 414.723 348.873 414.429C349.049 414.196 349.291 413.965 349.622 413.752C350.387 413.259 351.284 413.048 352.243 412.921C353.142 412.801 353.989 412.835 354.82 412.881C355.409 412.913 355.963 413.009 356.52 413.092C356.973 413.159 357.415 413.24 357.847 413.331C358.276 413.422 358.687 413.533 359.126 413.641C359.256 413.537 359.379 413.432 359.516 413.333C359.924 413.036 360.329 412.737 360.752 412.447C361.146 412.176 361.546 411.906 361.969 411.651C362.563 411.291 363.204 410.966 363.882 410.661C364.619 410.33 365.384 410.068 366.213 409.935C366.624 409.869 367.068 409.817 367.442 409.845C367.826 409.875 368.206 409.935 368.519 410.074C368.917 410.252 369.197 410.478 369.454 410.726C369.975 411.231 370.146 411.834 370.224 412.456C370.29 412.984 370.28 413.527 370.273 414.067C370.271 414.279 370.188 414.503 370.135 414.748C370.374 414.746 370.598 414.743 370.822 414.741C371.426 414.738 372.036 414.722 372.63 414.738C373.268 414.754 373.904 414.782 374.516 414.841C375.139 414.902 375.737 414.998 376.298 415.14C376.767 415.258 377.196 415.402 377.558 415.599C378.233 415.966 378.547 416.446 378.258 417.082C378.135 417.353 377.99 417.632 377.667 417.891C377.35 418.146 377.088 418.42 376.763 418.671C376.502 418.873 376.198 419.061 375.887 419.24C375.397 419.522 374.897 419.8 374.378 420.063C373.904 420.303 373.403 420.523 372.908 420.746C372.473 420.943 372.029 421.132 371.562 421.337C371.696 421.535 371.855 421.737 371.972 421.952C372.42 422.77 372.711 423.625 372.69 424.553C372.679 425.054 372.502 425.562 372.108 426.064C371.792 426.467 371.304 426.811 370.628 427.079C370.064 427.303 369.485 427.456 368.893 427.509C368.217 427.568 367.543 427.588 366.882 427.593C366.44 427.596 366.011 427.555 365.594 427.508C365.185 427.463 364.799 427.386 364.403 427.323C364.154 427.284 363.898 427.252 363.659 427.203C363.296 427.129 362.945 427.043 362.589 426.963C362.367 426.913 362.142 426.864 361.889 426.808ZM359.855 417.029C358.889 417.258 357.912 417.501 356.928 417.717C356.614 417.786 356.468 417.909 356.354 418.053C356.078 418.404 355.819 418.757 355.569 419.111C355.241 419.575 354.924 420.041 354.609 420.508C354.523 420.636 354.461 420.767 354.387 420.898C354.264 421.112 354.137 421.327 354.021 421.541C354.001 421.58 354.004 421.63 354.035 421.657C354.172 421.777 354.313 421.896 354.472 422.004C354.79 422.219 355.117 422.428 355.447 422.637C355.843 422.887 356.247 423.133 356.647 423.381C356.713 423.422 356.772 423.467 356.845 423.504C357.157 423.659 357.485 423.804 357.779 423.969C357.875 424.023 357.959 424.029 358.094 424.004C358.92 423.848 359.749 423.71 360.57 423.535C361.777 423.277 362.979 422.993 364.182 422.716C364.282 422.693 364.421 422.646 364.463 422.598C364.689 422.334 364.892 422.067 365.098 421.801C365.33 421.501 365.576 421.202 365.781 420.9C366.059 420.489 366.306 420.075 366.564 419.662C366.607 419.593 366.633 419.523 366.674 419.454C366.784 419.265 366.902 419.077 367.008 418.888C367.024 418.859 367.002 418.822 366.974 418.8C366.786 418.658 366.598 418.516 366.399 418.379C366.058 418.144 365.71 417.914 365.365 417.682C365.247 417.602 365.137 417.517 365.008 417.445C364.668 417.253 364.32 417.066 363.973 416.878C363.725 416.744 363.478 416.607 363.219 416.479C363.165 416.452 363.055 416.44 362.975 416.455C361.94 416.641 360.905 416.834 359.855 417.029ZM370.98 420.561C371.172 420.469 371.32 420.393 371.475 420.324C371.993 420.095 372.525 419.878 373.029 419.638C373.521 419.405 373.986 419.149 374.462 418.903C375.055 418.596 375.563 418.248 376.007 417.871C376.254 417.662 376.491 417.45 376.615 417.217C376.767 416.934 376.729 416.693 376.486 416.482C376.264 416.29 375.924 416.184 375.58 416.088C375.216 415.986 374.812 415.916 374.403 415.862C373.833 415.788 373.257 415.712 372.656 415.69C371.866 415.663 371.05 415.685 370.244 415.691C369.918 415.693 369.921 415.703 369.858 415.895C369.728 416.283 369.599 416.673 369.442 417.062C369.272 417.482 369.071 417.902 368.881 418.322C368.838 418.417 368.838 418.496 368.937 418.563C369.076 418.655 369.204 418.754 369.32 418.858C369.578 419.089 369.839 419.319 370.076 419.559C370.291 419.777 370.476 420.008 370.676 420.232C370.771 420.339 370.871 420.444 370.98 420.561ZM352.446 425.612C352.431 425.716 352.412 425.81 352.406 425.902C352.374 426.381 352.312 426.866 352.328 427.338C352.343 427.767 352.426 428.186 352.662 428.57C352.902 428.959 353.063 429.379 353.732 429.575C353.862 429.613 354.009 429.651 354.164 429.65C355.021 429.642 355.787 429.355 356.511 429.025C356.994 428.806 357.436 428.549 357.887 428.302C358.16 428.153 358.428 427.999 358.674 427.835C358.988 427.625 359.277 427.404 359.575 427.187C359.914 426.94 360.251 426.692 360.597 426.439C360.452 426.379 360.338 426.325 360.211 426.281C359.882 426.168 359.539 426.066 359.218 425.947C358.914 425.833 358.626 425.707 358.338 425.581C357.999 425.432 357.675 425.271 357.327 425.128C357.239 425.092 357.087 425.079 356.961 425.094C355.908 425.216 354.853 425.351 353.799 425.475C353.355 425.528 352.911 425.565 352.446 425.612ZM360.409 414.013C360.975 414.217 361.5 414.404 362.021 414.595C362.136 414.637 362.232 414.694 362.342 414.739C362.666 414.874 363.012 414.994 363.312 415.143C363.597 415.286 363.872 415.407 364.354 415.321C364.71 415.258 365.07 415.208 365.427 415.169C366.338 415.069 367.249 414.979 368.159 414.884C368.29 414.871 368.421 414.858 368.566 414.843C368.59 414.643 368.627 414.458 368.631 414.277C368.643 413.762 368.696 413.238 368.626 412.738C368.573 412.355 368.374 411.999 368.207 411.64C368.076 411.356 367.852 411.107 367.465 410.93C367.064 410.746 366.566 410.758 366.019 410.883C365.767 410.941 365.516 411.028 365.28 411.12C364.843 411.291 364.394 411.457 363.995 411.659C363.53 411.893 363.115 412.165 362.674 412.418C362.075 412.763 361.554 413.141 361.054 413.529C360.847 413.69 360.632 413.847 360.409 414.013ZM350.023 419.892C349.62 420.069 349.251 420.227 348.891 420.392C348.34 420.645 347.784 420.894 347.253 421.162C346.817 421.382 346.413 421.627 345.999 421.862C345.845 421.95 345.682 422.038 345.555 422.137C345.282 422.351 345.037 422.576 344.765 422.791C344.09 423.325 344.169 423.977 344.958 424.216C345.269 424.311 345.583 424.408 345.927 424.469C346.477 424.567 347.043 424.65 347.623 424.71C348.076 424.758 348.553 424.773 349.03 424.78C349.502 424.786 349.987 424.762 350.466 424.755C350.655 424.753 350.84 424.758 351.037 424.761C351.092 424.627 351.141 424.516 351.182 424.404C351.326 424.015 351.454 423.626 351.613 423.237C351.768 422.856 351.958 422.475 352.122 422.095C352.146 422.04 352.145 421.972 352.104 421.933C351.947 421.786 351.759 421.652 351.602 421.505C351.288 421.213 350.978 420.92 350.682 420.62C350.456 420.39 350.255 420.149 350.023 419.892ZM358.098 414.51C357.875 414.457 357.677 414.407 357.474 414.362C356.997 414.258 356.53 414.139 356.034 414.057C355.496 413.968 354.933 413.908 354.374 413.846C354.106 413.817 353.829 413.79 353.544 413.799C353.035 413.813 352.517 413.856 352.003 413.887C351.409 413.922 350.911 414.11 350.542 414.416C350.355 414.571 350.215 414.76 350.15 414.932C349.979 415.38 349.907 415.822 349.97 416.249C350.036 416.697 350.166 417.129 350.402 417.536C350.595 417.87 350.763 418.212 350.946 418.56C351.06 418.526 351.141 418.508 351.215 418.48C351.407 418.409 351.59 418.324 351.787 418.264C352.885 417.929 353.988 417.603 355.086 417.269C355.357 417.187 355.591 417.088 355.735 416.903C355.961 416.611 356.229 416.325 356.505 416.041C356.849 415.689 357.216 415.341 357.577 414.993C357.736 414.839 357.906 414.688 358.098 414.51ZM362.905 425.929C363.304 426.026 363.669 426.116 364.037 426.203C364.116 426.222 364.209 426.226 364.291 426.242C364.669 426.317 365.038 426.403 365.426 426.466C365.698 426.511 365.994 426.529 366.284 426.551C366.806 426.59 367.321 426.642 367.857 426.653C368.41 426.663 368.986 426.588 369.564 426.46C370.218 426.316 370.577 426.018 370.78 425.676C371.079 425.175 371.062 424.689 371.026 424.216C371.001 423.899 370.871 423.599 370.755 423.3C370.63 422.975 370.474 422.659 370.318 422.343C370.242 422.189 370.136 422.044 370.037 421.886C369.36 422.118 368.721 422.351 368.067 422.558C367.426 422.762 366.772 422.947 366.118 423.127C365.727 423.234 365.332 423.32 365.231 423.61C365.225 423.626 365.203 423.644 365.187 423.66C364.839 424.023 364.49 424.385 364.144 424.748C364.069 424.827 364.012 424.909 363.931 424.986C363.599 425.295 363.261 425.603 362.905 425.929ZM361.607 425.54C362.015 425.253 363.26 424.007 363.285 423.869C361.995 424.141 360.702 424.414 359.354 424.698C360.075 425.02 360.829 425.289 361.607 425.54ZM361.663 415.727C360.886 415.44 360.153 415.169 359.372 414.88C358.782 415.456 358.224 415.999 357.666 416.543C357.684 416.548 357.701 416.554 357.718 416.559C359.008 416.287 360.297 416.016 361.663 415.727ZM369.456 421.092C369.015 420.635 368.59 420.194 368.142 419.73C367.606 420.517 367.089 421.275 366.563 422.047C367.531 421.739 368.508 421.485 369.456 421.092ZM352.855 420.711C353.389 419.932 353.906 419.177 354.424 418.422C354.408 418.415 354.392 418.408 354.376 418.401C353.445 418.706 352.514 419.01 351.528 419.333C351.976 419.799 352.409 420.248 352.855 420.711ZM353.306 422.88C353.086 423.481 352.876 424.054 352.663 424.637C353.685 424.612 354.671 424.453 355.674 424.339C354.881 423.851 354.108 423.374 353.306 422.88ZM365.273 416.091C365.722 416.358 366.135 416.592 366.528 416.838C366.882 417.06 367.213 417.294 367.558 417.521C367.586 417.54 367.634 417.549 367.694 417.569C367.914 416.966 368.126 416.384 368.343 415.785C367.297 415.889 366.314 415.987 365.273 416.091Z" fill="white"/>
<path d="M383.966 418.268C382.094 418.895 380.249 419.512 378.404 420.13C382.357 417.476 384.79 414.632 385.036 411.49C385.06 411.519 385.088 411.547 385.108 411.577C385.525 412.223 385.989 412.856 386.348 413.52C386.863 414.471 387.108 415.49 387.166 416.549C387.262 418.297 386.764 420.079 385.721 421.89C384.788 423.511 383.449 425.066 381.773 426.566C378.17 429.791 373.422 432.26 367.775 434.117C364.826 435.087 361.786 435.673 358.704 435.977C356.023 436.242 353.403 436.331 350.883 436.158C345.767 435.808 341.657 434.589 338.632 432.445C336.849 431.182 335.595 429.709 334.818 428.051C334.146 426.621 333.976 425.094 334.203 423.492C334.415 421.999 334.888 420.501 335.76 418.989C336.593 417.545 337.75 416.153 339.264 414.818C341.876 412.515 345.226 410.631 349.044 409.013C349.398 408.863 349.756 408.715 350.118 408.573C350.55 408.402 350.8 408.191 350.867 407.911C351.076 407.03 352.439 406.221 354.013 406.036C355.605 405.849 356.826 406.385 356.902 407.26C357.014 408.544 354.703 409.677 352.911 409.571C352.764 409.562 352.618 409.548 352.486 409.521C352.069 409.437 351.649 409.494 351.205 409.668C349.848 410.199 348.535 410.772 347.278 411.397C343.686 413.186 340.918 415.284 338.992 417.695C337.544 419.508 336.781 421.326 336.614 423.144C336.498 424.405 336.613 425.625 337.018 426.79C337.726 428.83 339.251 430.548 341.577 431.947C343.699 433.222 346.243 434.163 349.375 434.632C352.097 435.04 355.005 435.05 358.058 434.747C360.128 434.541 362.19 434.202 364.241 433.722C367.522 432.955 370.566 431.858 373.37 430.443C375.634 429.3 377.674 428.038 379.403 426.622C381.864 424.606 383.336 422.484 383.82 420.27C383.951 419.676 383.955 419.09 384.011 418.502C384.018 418.426 383.984 418.356 383.966 418.268ZM354.034 408.626C354.905 408.439 355.486 407.943 355.387 407.47C355.275 406.937 354.585 406.731 353.612 406.94C352.82 407.111 352.193 407.67 352.285 408.124C352.377 408.577 353.183 408.808 354.034 408.626Z" fill="white"/>
<path d="M357.189 420.932C356.942 419.935 358.265 418.801 360.111 418.408C361.939 418.019 363.585 418.522 363.812 419.512C364.039 420.5 362.666 421.669 360.895 422.047C359.113 422.427 357.355 421.934 357.189 420.932Z" fill="white"/>
<defs>
<filter id="filter0_d" x="250.338" y="391.649" width="220.788" height="182.081" filterUnits="userSpaceOnUse" color-interpolation-filters="sRGB">
<feFlood flood-opacity="0" result="BackgroundImageFix"/>
<feColorMatrix in="SourceAlpha" type="matrix" values="0 0 0 0 0 0 0 0 0 0 0 0 0 0 0 0 0 0 127 0"/>
<feOffset dy="44"/>
<feGaussianBlur stdDeviation="32"/>
<feColorMatrix type="matrix" values="0 0 0 0 0.380392 0 0 0 0 0.854902 0 0 0 0 0.984314 0 0 0 0.5 0"/>
<feBlend mode="normal" in2="BackgroundImageFix" result="effect1_dropShadow"/>
<feBlend mode="normal" in="SourceGraphic" in2="effect1_dropShadow" result="shape"/>
</filter>
<linearGradient id="paint0_linear" x1="514.484" y1="378.252" x2="322.394" y2="451.58" gradientUnits="userSpaceOnUse">
<stop stop-color="#58C2DE"/>
<stop offset="1" stop-color="#E3F2FD"/>
</linearGradient>
<linearGradient id="paint1_linear" x1="-30.5207" y1="-82.7272" x2="94.4506" y2="-24.628" gradientUnits="userSpaceOnUse">
<stop stop-color="#E3F2FD"/>
<stop offset="1" stop-color="white" stop-opacity="0"/>
</linearGradient>
</defs>
</svg>
