<svg width="643" height="478" viewBox="0 0 643 478" fill="none" xmlns="http://www.w3.org/2000/svg">
<g filter="url(#filter0_d)">
<path d="M69.0239 234.64C65.8753 232.822 64.2072 230.473 64.0195 228.093C64.0195 228.093 64.0192 228.093 64.019 228.093C64.0187 228.093 64.0184 228.093 64.0184 228.092L64.0184 228.079C63.9961 227.786 63.9961 227.494 64.0184 227.202L64.0184 200.69L76.8084 208.069C81.1393 210.567 86.4739 210.567 90.8041 208.067L391.158 34.67C397.854 30.8042 408.711 30.8043 415.407 34.67L551.878 113.456C556.208 115.955 561.543 115.956 565.874 113.458L578.924 105.928V133.315C578.924 133.322 578.916 133.327 578.909 133.323C578.903 133.32 578.895 133.324 578.895 133.331C578.819 135.805 577.146 138.266 573.875 140.154L251.741 326.125C245.045 329.99 234.188 329.99 227.492 326.125L69.0239 234.64Z" fill="url(#paint0_linear)"/>
<rect width="399.962" height="210.98" rx="14" transform="matrix(0.866041 -0.499972 0.866041 0.499972 56.8994 200.867)" fill="url(#paint1_linear)"/>
<rect width="399.962" height="210.98" rx="14" transform="matrix(0.866041 -0.499972 0.866041 0.499972 56.8994 200.867)" fill="url(#paint2_linear)" fill-opacity="0.4"/>
</g>
<defs>
<filter id="filter0_d" x="0.00170898" y="4.99771" width="642.922" height="472.026" filterUnits="userSpaceOnUse" color-interpolation-filters="sRGB">
<feFlood flood-opacity="0" result="BackgroundImageFix"/>
<feColorMatrix in="SourceAlpha" type="matrix" values="0 0 0 0 0 0 0 0 0 0 0 0 0 0 0 0 0 0 127 0"/>
<feOffset dy="84"/>
<feGaussianBlur stdDeviation="32"/>
<feColorMatrix type="matrix" values="0 0 0 0 0.129412 0 0 0 0 0.588235 0 0 0 0 0.952941 0 0 0 0.2 0"/>
<feBlend mode="normal" in2="BackgroundImageFix" result="effect1_dropShadow"/>
<feBlend mode="normal" in="SourceGraphic" in2="effect1_dropShadow" result="shape"/>
</filter>
<linearGradient id="paint0_linear" x1="571.468" y1="292.939" x2="146.408" y2="289.925" gradientUnits="userSpaceOnUse">
<stop stop-color="#673AB7"/>
<stop offset="0.382651" stop-color="#673AB7"/>
<stop offset="0.383849" stop-color="#90CAF9"/>
<stop offset="0.713542" stop-color="#90CAF9"/>
<stop offset="0.713642" stop-color="#2196F3"/>
<stop offset="1" stop-color="#2196F3"/>
</linearGradient>
<linearGradient id="paint1_linear" x1="386.963" y1="210.98" x2="8.4992" y2="-5.3208e-05" gradientUnits="userSpaceOnUse">
<stop stop-color="#673AB7"/>
<stop offset="0.385317" stop-color="#673AB7"/>
<stop offset="0.385417" stop-color="#90CAF9"/>
<stop offset="0.713542" stop-color="#90CAF9"/>
<stop offset="0.713642" stop-color="#2196F3"/>
<stop offset="1" stop-color="#2196F3"/>
</linearGradient>
<linearGradient id="paint2_linear" x1="6.29614" y1="-88.1949" x2="200.095" y2="268.219" gradientUnits="userSpaceOnUse">
<stop stop-color="white"/>
<stop offset="1" stop-color="white" stop-opacity="0"/>
</linearGradient>
</defs>
</svg>
