<svg width="400" height="258" viewBox="0 0 400 258" fill="none" xmlns="http://www.w3.org/2000/svg">
<path d="M29.2905 173.88L6.58301 160.77V190.886L6.60303 190.875C6.7583 192.92 8.18848 194.939 10.8936 196.5L112.208 254.99C117.948 258.304 127.254 258.304 132.994 254.99L389.315 107.014C392.241 105.325 393.675 103.101 393.618 100.888L393.637 100.899V70.7825L370.49 84.1463L288 36.5243C282.261 33.2108 272.955 33.2108 267.215 36.5243L29.2905 173.88Z" fill="url(#paint0_linear)"/>
<rect width="319.969" height="140.986" rx="12" transform="matrix(0.866041 -0.499972 0.866041 0.499972 0.500977 160.501)" fill="#FFAB91"/>
<mask id="mask0" mask-type="alpha" maskUnits="userSpaceOnUse" x="16" y="4" width="378" height="218">
<rect width="307.97" height="140.986" rx="12" transform="matrix(0.866041 -0.499972 0.866041 0.499972 10.8926 154.501)" fill="#FFAB91"/>
</mask>
<g mask="url(#mask0)">
<path d="M143.961 190.413L120.674 227.813L404.596 63.9022L394.889 58.2982L344.138 51.7632C323.838 49.1493 303.673 56.451 298.913 68.1396L295.076 77.5597C291.062 87.4152 275.878 94.4013 258.341 94.4613L225.402 94.574C201.826 94.6547 184.076 106.991 188.263 120.386L197.095 148.638C199.744 157.112 193.554 165.695 181.273 170.581L158.149 179.779C151.609 182.38 146.647 186.099 143.961 190.413Z" fill="url(#paint1_linear)"/>
<path d="M143.935 190.455L120.674 227.813L403.325 61.9267L347.972 51.7248C327.349 47.924 305.405 54.8312 299.767 66.8975L294.145 78.9312C289.471 88.9335 273.306 95.6812 255.389 95.1086L228.434 94.2472C204.422 93.4799 185.239 105.63 188.782 119.362L196.602 149.673C198.744 157.978 192.482 166.259 180.476 170.997L158.236 179.775C151.642 182.378 146.637 186.115 143.935 190.455Z" stroke="url(#paint2_linear)"/>
</g>
<path d="M242.587 52.1001C242.275 51.9201 241.953 51.8233 241.622 51.8096C241.29 51.7959 240.852 51.8552 240.308 51.9873C239.763 52.1195 239.246 52.2334 238.757 52.3291C238.267 52.4248 237.798 52.4795 237.348 52.4932C236.898 52.5068 236.469 52.4692 236.063 52.3804C235.656 52.2915 235.254 52.132 234.855 51.9019C234.188 51.5168 233.865 51.0702 233.884 50.5621C233.9 50.0517 234.247 49.5596 234.926 49.0856L233.677 48.3645L234.618 47.821L235.891 48.5559C236.72 48.2004 237.584 48.0455 238.484 48.0911C239.384 48.1321 240.209 48.369 240.959 48.8019L238.958 49.9572C238.547 49.7202 238.153 49.5835 237.774 49.547C237.395 49.5106 237.059 49.5766 236.767 49.7453C236.507 49.8956 236.387 50.0608 236.406 50.2408C236.426 50.4163 236.58 50.5872 236.868 50.7535C237.16 50.9221 237.476 51.0087 237.815 51.0133C238.151 51.0155 238.581 50.9563 239.106 50.8355C239.627 50.7125 240.134 50.6065 240.627 50.5177C241.121 50.4243 241.592 50.3707 242.042 50.357C242.492 50.3434 242.926 50.3798 243.345 50.4664C243.763 50.553 244.172 50.7113 244.57 50.9415C245.245 51.3311 245.581 51.7731 245.577 52.2676C245.577 52.7597 245.243 53.2394 244.576 53.7065L245.766 54.3934L244.825 54.9369L243.629 54.2465C242.678 54.6908 241.723 54.9027 240.764 54.8822C239.804 54.8571 238.916 54.6088 238.099 54.1371L240.095 52.9853C240.544 53.2451 240.987 53.3863 241.421 53.4091C241.855 53.4273 242.255 53.3305 242.622 53.1186C242.891 52.9637 243.023 52.7962 243.019 52.6162C243.011 52.4339 242.867 52.2619 242.587 52.1001ZM252.343 49.1061L250.342 50.2613L243.972 46.5838L242.581 48.05L241.065 47.1751L243.54 44.2358L243.724 44.1298L252.343 49.1061ZM254.439 40.6027C254.858 40.8442 255.122 41.1176 255.233 41.423C255.347 41.726 255.319 42.0382 255.15 42.3594C255.761 42.2387 256.363 42.2102 256.955 42.274C257.543 42.3355 258.076 42.5041 258.554 42.7798C259.323 43.2241 259.665 43.7288 259.578 44.2939C259.495 44.8567 258.988 45.407 258.056 45.9447C257.121 46.4847 256.16 46.782 255.173 46.8367C254.183 46.8891 253.304 46.6943 252.539 46.2523C252.077 45.9857 251.787 45.6815 251.669 45.3397C251.55 44.998 251.605 44.6425 251.834 44.2734C251.274 44.3736 250.729 44.3919 250.2 44.3281C249.671 44.2643 249.198 44.1116 248.779 43.8701C248.03 43.4372 247.692 42.9484 247.767 42.4039C247.842 41.8593 248.312 41.3375 249.176 40.8385C250.048 40.335 250.956 40.0615 251.899 40.0183C252.843 39.975 253.689 40.1698 254.439 40.6027ZM256.393 43.8428C256.038 43.6377 255.673 43.534 255.298 43.5317C254.923 43.5249 254.585 43.6081 254.285 43.7812C253.985 43.9544 253.839 44.1504 253.847 44.3691C253.851 44.5855 254.031 44.7963 254.386 45.0014C254.729 45.1996 255.094 45.3033 255.481 45.3124C255.868 45.317 256.213 45.2315 256.517 45.0561C256.813 44.8852 256.953 44.6904 256.938 44.4716C256.922 44.2529 256.74 44.0433 256.393 43.8428ZM250.715 41.7271C250.447 41.8821 250.331 42.0518 250.366 42.2364C250.402 42.4164 250.575 42.5964 250.887 42.7764C251.195 42.9541 251.515 43.0567 251.846 43.084C252.178 43.1113 252.482 43.0453 252.758 42.8858C253.03 42.7286 253.139 42.5565 253.083 42.3697C253.032 42.1806 252.853 41.9971 252.545 41.8194C252.237 41.6417 251.923 41.5426 251.603 41.5221C251.288 41.4993 250.992 41.5676 250.715 41.7271ZM258.643 39.5295L259.584 38.9861C260.33 38.5554 260.338 38.1294 259.608 37.7078C259.323 37.5438 259.004 37.4618 258.648 37.4618C258.289 37.4595 257.948 37.5518 257.624 37.7386C257.36 37.8913 257.206 38.069 257.162 38.2718C257.123 38.4723 257.218 38.6386 257.447 38.7708L255.452 39.9226C254.998 39.6605 254.719 39.3541 254.617 39.0032C254.514 38.6523 254.587 38.2911 254.836 37.9197C255.085 37.5438 255.477 37.2009 256.014 36.891C256.973 36.3373 257.946 36.0286 258.933 35.9648C259.919 35.901 260.796 36.0901 261.561 36.5321C261.932 36.7463 262.169 37.0152 262.272 37.3387C262.374 37.6577 262.311 38.0018 262.082 38.3709C262.706 38.2023 263.318 38.1408 263.917 38.1863C264.513 38.2296 265.06 38.3948 265.557 38.6819C266.327 39.1262 266.647 39.6526 266.516 40.2609C266.386 40.8693 265.84 41.4514 264.877 42.0074C264.312 42.3332 263.681 42.5748 262.982 42.732C262.283 42.8846 261.62 42.9234 260.993 42.8482C260.361 42.7707 259.803 42.5918 259.317 42.3116L261.324 41.153C261.589 41.3056 261.924 41.3763 262.331 41.3649C262.737 41.3535 263.097 41.2578 263.408 41.0778C263.76 40.875 263.943 40.6574 263.959 40.425C263.971 40.1903 263.825 39.9852 263.521 39.8098C263.087 39.5591 262.67 39.4441 262.272 39.4646C261.873 39.4851 261.482 39.6058 261.099 39.8269L260.129 40.3874L258.643 39.5295ZM269.583 35.3051C269.54 35.7768 269.252 36.1664 268.719 36.474C267.937 36.9252 267.053 37.1302 266.066 37.0892C265.08 37.0482 264.144 36.7725 263.26 36.2621C262.708 35.9431 262.323 35.5729 262.106 35.1513C261.889 34.7298 261.873 34.306 262.059 33.8799C262.248 33.4516 262.623 33.0756 263.183 32.7521C263.752 32.4239 264.409 32.2109 265.155 32.1129C265.901 32.0104 266.664 32.0366 267.446 32.1915C268.223 32.3442 268.958 32.6153 269.648 33.005L270.412 33.4459C271.363 33.995 272.001 34.5794 272.324 35.1992C272.652 35.8167 272.658 36.433 272.342 37.0482C272.026 37.6634 271.408 38.2365 270.489 38.7673L270.365 38.8391L268.766 37.9163L269.139 37.6942C270.445 36.8625 270.593 36.0662 269.583 35.3051ZM267.819 35.3325C268.253 35.0818 268.377 34.7936 268.192 34.4678L267.363 33.9893C266.81 33.6703 266.309 33.488 265.859 33.4424C265.409 33.3969 265.027 33.4652 264.711 33.6475C264.431 33.8093 264.346 34.0314 264.456 34.314C264.567 34.5965 264.835 34.8608 265.261 35.1069C265.711 35.3667 266.167 35.5182 266.629 35.5615C267.087 35.6025 267.483 35.5262 267.819 35.3325ZM275.338 33.5962C275.653 33.414 276.01 33.3171 276.409 33.3057C276.804 33.2921 277.147 33.3695 277.439 33.5381C277.731 33.7068 277.867 33.9061 277.848 34.1363C277.824 34.3641 277.654 34.5692 277.339 34.7515C277.019 34.936 276.66 35.034 276.261 35.0454C275.866 35.0545 275.525 34.9759 275.237 34.8096C274.949 34.6432 274.813 34.4461 274.828 34.2183C274.848 33.9881 275.018 33.7808 275.338 33.5962ZM282.14 27.8373C283.304 28.5094 283.94 29.1793 284.046 29.8469C284.157 30.5123 283.736 31.1195 282.785 31.6686C281.826 32.2223 280.766 32.4672 279.606 32.4034C278.446 32.3396 277.287 31.9739 276.131 31.3063L274.556 30.3972C273.392 29.725 272.754 29.0563 272.644 28.391C272.537 27.7234 272.962 27.1139 273.917 26.5625C274.872 26.0111 275.93 25.7672 277.09 25.831C278.25 25.8948 279.411 26.2617 280.571 26.9316L282.14 27.8373ZM278.315 27.933C277.696 27.5753 277.153 27.3554 276.687 27.2734C276.218 27.189 275.807 27.2483 275.456 27.4511C275.113 27.6493 275.004 27.876 275.13 28.1312C275.261 28.3841 275.608 28.6803 276.172 29.0198L278.375 30.2913C279.018 30.6626 279.57 30.8882 280.032 30.968C280.49 31.0454 280.895 30.9828 281.246 30.78C281.585 30.584 281.692 30.3562 281.566 30.0964C281.435 29.8344 281.062 29.5234 280.447 29.1634L278.315 27.933ZM289.161 23.7838C290.326 24.456 290.961 25.1258 291.068 25.7935C291.178 26.4588 290.758 27.066 289.807 27.6151C288.847 28.1688 287.788 28.4137 286.627 28.35C285.467 28.2862 284.309 27.9205 283.152 27.2528L281.577 26.3437C280.413 25.6716 279.776 25.0028 279.665 24.3375C279.559 23.6699 279.983 23.0604 280.938 22.509C281.893 21.9576 282.951 21.7138 284.111 21.7776C285.272 21.8414 286.432 22.2082 287.592 22.8781L289.161 23.7838ZM285.337 23.8795C284.717 23.5218 284.174 23.3019 283.709 23.2199C283.239 23.1356 282.829 23.1948 282.477 23.3976C282.134 23.5958 282.025 23.8225 282.152 24.0777C282.282 24.3306 282.629 24.6268 283.194 24.9663L285.396 26.2378C286.039 26.6092 286.592 26.8347 287.054 26.9145C287.511 26.992 287.916 26.9293 288.267 26.7265C288.607 26.5306 288.713 26.3027 288.587 26.0429C288.457 25.7809 288.084 25.4699 287.468 25.1099L285.337 23.8795Z" fill="white"/>
<path d="M64.8187 177.363L63.8748 177.908L57.618 174.295L56.4204 175.789L55.5679 175.297L57.2476 173.162L57.3947 173.077L64.8187 177.363ZM69.0508 171.281C70.1502 171.916 70.7795 172.496 70.9385 173.021C71.0975 173.546 70.7778 174.04 69.9794 174.5C69.1912 174.956 68.3471 175.142 67.4472 175.06C66.544 174.976 65.5663 174.638 64.5142 174.046L63.2608 173.323C62.1749 172.696 61.5558 172.122 61.4035 171.6C61.2513 171.079 61.5761 170.587 62.3778 170.124C63.1728 169.665 64.0135 169.474 64.8999 169.552C65.7828 169.629 66.7605 169.97 67.8329 170.578L69.0508 171.281ZM66.8281 171.082C66.0331 170.623 65.343 170.353 64.7578 170.273C64.1691 170.191 63.6329 170.29 63.1492 170.569C62.6688 170.846 62.4996 171.153 62.6417 171.489C62.7838 171.825 63.227 172.212 63.9712 172.649L65.4733 173.516C66.2716 173.977 66.977 174.251 67.5893 174.339C68.2016 174.423 68.7429 174.33 69.2131 174.058C69.6766 173.791 69.8407 173.489 69.7054 173.153C69.5734 172.815 69.1269 172.421 68.3657 171.969L66.8281 171.082ZM67.3559 169.008C66.9127 168.752 66.6878 168.46 66.681 168.132C66.6776 167.802 66.8975 167.509 67.3407 167.253C67.7906 166.993 68.2997 166.867 68.8681 166.875C69.4364 166.879 69.9506 167.014 70.4107 167.279L70.771 167.487C71.2176 167.745 71.4408 168.038 71.4408 168.366C71.4408 168.69 71.2226 168.978 70.7862 169.23C70.3464 169.484 69.8424 169.613 69.274 169.617C68.7023 169.619 68.1813 169.484 67.7111 169.213L67.3559 169.008ZM68.4469 168.829C68.7108 168.981 69.0034 169.064 69.3248 169.078C69.6428 169.09 69.927 169.023 70.1773 168.879C70.4175 168.74 70.5274 168.581 70.5071 168.401C70.4902 168.22 70.338 168.046 70.0504 167.88L69.68 167.666C69.4161 167.514 69.1252 167.43 68.8072 167.414C68.4892 167.398 68.205 167.463 67.9547 167.607C67.7043 167.752 67.5927 167.916 67.6198 168.099C67.6468 168.283 67.7991 168.455 68.0765 168.615L68.4469 168.829ZM75.1097 169.33C74.6665 169.074 74.4432 168.783 74.4398 168.457C74.4365 168.127 74.6563 167.834 75.0995 167.578C75.5427 167.322 76.0484 167.194 76.6168 167.194C77.1851 167.194 77.7044 167.33 78.1746 167.601L78.5349 167.809C78.9781 168.065 79.2014 168.358 79.2048 168.688C79.2081 169.014 78.9899 169.304 78.5502 169.558C78.1104 169.812 77.6063 169.941 77.038 169.945C76.4662 169.947 75.9453 169.812 75.475 169.541L75.1097 169.33ZM76.2058 169.154C76.473 169.308 76.7673 169.392 77.0887 169.406C77.4067 169.418 77.6909 169.351 77.9412 169.207C78.1848 169.066 78.2964 168.906 78.2761 168.726C78.2524 168.545 78.0968 168.371 77.8093 168.205L77.4338 167.988C77.1665 167.834 76.8739 167.751 76.5559 167.739C76.2413 167.725 75.9605 167.79 75.7135 167.932C75.4733 168.071 75.3617 168.233 75.3786 168.419C75.3955 168.6 75.5461 168.773 75.8302 168.937L76.2058 169.154ZM74.5007 171.129L73.633 171.243L71.4662 165.826L72.3339 165.712L74.5007 171.129ZM81.9196 164.15L84.812 165.82L83.8377 166.383L76.4493 162.117L79.1743 160.544C79.9828 160.077 80.8218 159.831 81.6912 159.806C82.5641 159.779 83.3404 159.961 84.0204 160.354C84.7376 160.768 85.0658 161.217 85.0049 161.701C84.944 162.182 84.4957 162.663 83.6601 163.146L81.9196 164.15ZM81.1229 163.691L82.8736 162.68C83.3946 162.379 83.672 162.078 83.7058 161.778C83.7363 161.475 83.5197 161.19 83.0563 160.922C82.6165 160.668 82.126 160.545 81.5847 160.553C81.0434 160.561 80.5258 160.701 80.0319 160.975L78.2254 162.018L81.1229 163.691ZM88.2525 158.467C88.0868 158.536 87.921 158.618 87.7552 158.713C87.1395 159.069 86.9839 159.461 87.2884 159.891L91.1856 162.141L90.2468 162.683L84.7562 159.513L85.6696 158.986L86.3192 159.343C86.1365 158.882 86.3276 158.489 86.8926 158.162C87.0752 158.057 87.2376 157.991 87.3797 157.963L88.2525 158.467ZM90.6223 159.238C90.0844 158.927 89.7055 158.587 89.4856 158.218C89.2691 157.847 89.2319 157.486 89.374 157.134C89.5194 156.781 89.8341 156.464 90.3178 156.185C91.0655 155.753 91.9281 155.554 92.9058 155.587C93.8869 155.619 94.807 155.882 95.6663 156.378L95.7323 156.417C96.2668 156.725 96.644 157.062 96.8639 157.427C97.0838 157.788 97.121 158.148 96.9755 158.505C96.8334 158.861 96.5154 159.181 96.0215 159.466C95.2773 159.896 94.4146 160.095 93.4335 160.064C92.4559 160.031 91.5408 159.768 90.6883 159.276L90.6223 159.238ZM91.6778 158.757C92.2867 159.109 92.916 159.31 93.5655 159.361C94.2184 159.41 94.7817 159.297 95.2553 159.024C95.7323 158.748 95.9251 158.422 95.8338 158.045C95.739 157.666 95.3551 157.283 94.6819 156.894C94.0797 156.546 93.4488 156.348 92.7891 156.299C92.1294 156.247 91.5628 156.357 91.0891 156.63C90.6257 156.898 90.4362 157.22 90.5208 157.597C90.6054 157.974 90.991 158.361 91.6778 158.757ZM99.9086 157.105L95.1436 154.354L94.2759 154.855L93.5503 154.436L94.418 153.935L93.9511 153.666C93.3388 153.312 93.036 152.936 93.0428 152.538C93.053 152.137 93.3777 151.753 94.0171 151.384C94.396 151.165 94.9779 150.948 95.7627 150.733L96.397 151.281C95.805 151.428 95.3179 151.611 94.9356 151.832C94.533 152.064 94.3334 152.285 94.3368 152.494C94.3402 152.699 94.5229 152.906 94.8848 153.115L95.3618 153.39L96.4833 152.743L97.2089 153.162L96.0875 153.809L100.852 156.56L99.9086 157.105ZM103.821 154.846L102.877 155.391L97.3866 152.221L98.3304 151.677L103.821 154.846ZM99.802 149.292L101.132 150.059L102.157 149.468L102.882 149.887L101.857 150.478L105.262 152.444C105.482 152.571 105.693 152.64 105.896 152.652C106.096 152.662 106.306 152.603 106.526 152.476C106.634 152.414 106.762 152.316 106.911 152.183L107.672 152.623C107.493 152.804 107.287 152.963 107.053 153.097C106.634 153.34 106.191 153.449 105.724 153.425C105.257 153.402 104.79 153.256 104.323 152.986L100.918 151.02L99.9187 151.597L99.1931 151.179L100.193 150.601L98.8632 149.834L99.802 149.292Z" fill="#FBE9E7"/>
<path d="M42.0787 167.494L33.4589 162.518L36.4131 160.813C37.3879 160.25 38.3253 159.934 39.2252 159.866C40.1251 159.797 40.9618 159.987 41.7354 160.433C42.13 160.661 42.3787 160.928 42.4813 161.233C42.5839 161.538 42.5168 161.859 42.28 162.197C42.872 162.001 43.47 161.931 44.0738 161.988C44.6777 162.041 45.2243 162.208 45.7137 162.491C46.5228 162.958 46.884 163.467 46.7971 164.018C46.7142 164.568 46.1893 165.121 45.2224 165.679L42.0787 167.494ZM39.687 164.384L42.3807 165.939L44.0442 164.979C44.5139 164.708 44.7645 164.429 44.7961 164.141C44.8277 163.854 44.6363 163.591 44.2218 163.352C43.3259 162.835 42.4103 162.835 41.4749 163.352L39.687 164.384ZM38.5858 163.748L40.054 162.901C40.5197 162.632 40.7783 162.362 40.8296 162.091C40.8809 161.815 40.7131 161.566 40.3263 161.342C39.9001 161.096 39.4699 160.989 39.0357 161.021C38.6055 161.051 38.1339 161.214 37.6208 161.51L36.1644 162.351L38.5858 163.748ZM53.4159 160.949C53.2304 160.915 52.9758 160.832 52.6522 160.7C52.6719 161.24 52.3503 161.701 51.6872 162.084C51.0439 162.455 50.3354 162.652 49.5619 162.675C48.7883 162.698 48.1311 162.553 47.5904 162.241C46.9076 161.847 46.6373 161.399 46.7794 160.898C46.9215 160.392 47.4641 159.867 48.4074 159.322L49.2895 158.813L48.8692 158.57C48.5377 158.379 48.1805 158.28 47.7976 158.273C47.4109 158.264 47.028 158.369 46.6491 158.588C46.3215 158.777 46.136 158.979 46.0926 159.196C46.0453 159.41 46.1479 159.59 46.4005 159.736L44.9619 160.566C44.6106 160.364 44.3994 160.107 44.3284 159.797C44.2534 159.485 44.3284 159.164 44.5534 158.834C44.7823 158.501 45.1434 158.192 45.6368 157.907C46.3867 157.474 47.174 157.239 47.9989 157.2C48.8199 157.159 49.5777 157.332 50.2723 157.719L53.1613 159.387C53.7376 159.72 54.2783 159.939 54.7835 160.044L54.8841 160.102L53.4159 160.949ZM50.7992 161.264C51.0834 161.1 51.2807 160.906 51.3912 160.683C51.5057 160.457 51.5096 160.241 51.403 160.033L50.1953 159.336L49.4198 159.784C48.887 160.091 48.5791 160.376 48.4962 160.638C48.4133 160.9 48.5416 161.129 48.881 161.325C49.1573 161.485 49.4691 161.56 49.8164 161.551C50.1638 161.537 50.4913 161.441 50.7992 161.264ZM51.2432 154.807L58.2172 158.834C58.8724 159.212 59.2079 159.595 59.2236 159.982C59.2473 160.369 58.9454 160.744 58.3178 161.106C58.0534 161.259 57.7653 161.387 57.4535 161.489L56.3168 160.833C56.5023 160.767 56.6898 160.679 56.8792 160.57C57.3568 160.294 57.341 160.002 56.8319 159.695L49.8046 155.638L51.2432 154.807ZM48.0167 154.749C47.7957 154.622 47.6812 154.476 47.6733 154.312C47.6694 154.146 47.7976 153.987 48.0581 153.837C48.3186 153.686 48.5929 153.612 48.881 153.615C49.1692 153.617 49.4237 153.682 49.6447 153.809C49.8618 153.935 49.9723 154.081 49.9763 154.247C49.9763 154.411 49.846 154.568 49.5855 154.719C49.3251 154.869 49.0527 154.944 48.7686 154.944C48.4844 154.94 48.2338 154.875 48.0167 154.749ZM63.0185 155.406C62.833 155.371 62.5784 155.288 62.2548 155.156C62.2745 155.696 61.9529 156.157 61.2898 156.54C60.6465 156.912 59.938 157.109 59.1644 157.132C58.3909 157.154 57.7337 157.01 57.193 156.698C56.5102 156.303 56.2399 155.856 56.3819 155.354C56.524 154.848 57.0667 154.323 58.01 153.779L58.8921 153.269L58.4718 153.027C58.1402 152.835 57.7831 152.736 57.4002 152.729C57.0134 152.72 56.6306 152.825 56.2517 153.044C55.9241 153.233 55.7386 153.436 55.6952 153.652C55.6478 153.866 55.7505 154.046 56.003 154.192L54.5644 155.023C54.2132 154.82 54.002 154.564 53.931 154.254C53.856 153.942 53.931 153.62 54.1559 153.29C54.3849 152.957 54.746 152.649 55.2393 152.364C55.9892 151.931 56.7766 151.695 57.6015 151.656C58.4224 151.615 59.1802 151.788 59.8749 152.176L62.7639 153.844C63.3402 154.176 63.8809 154.395 64.3861 154.5L64.4867 154.558L63.0185 155.406ZM60.4018 155.72C60.6859 155.556 60.8833 155.362 60.9938 155.139C61.1082 154.913 61.1122 154.697 61.0056 154.49L59.7979 153.792L59.0224 154.24C58.4895 154.548 58.1817 154.833 58.0988 155.095C58.0159 155.357 58.1442 155.586 58.4836 155.782C58.7599 155.941 59.0717 156.016 59.419 156.007C59.7663 155.993 60.0939 155.898 60.4018 155.72ZM60.8458 149.264L67.8198 153.29C68.4749 153.668 68.8104 154.051 68.8262 154.438C68.8499 154.826 68.548 155.201 67.9204 155.563C67.656 155.715 67.3679 155.843 67.0561 155.946L65.9194 155.289C66.1049 155.223 66.2924 155.136 66.4818 155.026C66.9594 154.751 66.9436 154.459 66.4344 154.151L59.4072 150.094L60.8458 149.264ZM57.6193 149.206C57.3982 149.078 57.2838 148.932 57.2759 148.768C57.2719 148.602 57.4002 148.444 57.6607 148.293C57.9212 148.143 58.1955 148.069 58.4836 148.071C58.7717 148.073 59.0263 148.138 59.2473 148.266C59.4644 148.391 59.5749 148.537 59.5788 148.703C59.5788 148.867 59.4486 149.025 59.1881 149.175C58.9276 149.325 58.6553 149.401 58.3711 149.401C58.087 149.396 57.8363 149.331 57.6193 149.206ZM73.2664 145.272L69.7971 147.275L73.4499 149.383L71.9521 150.248L63.3323 145.272L68.8084 142.11L70.0162 142.808L66.0378 145.104L68.6012 146.584L72.0705 144.581L73.2664 145.272ZM80.0095 145.597L78.5709 146.427L72.1652 142.729L73.6038 141.899L80.0095 145.597ZM70.4128 141.82C70.1918 141.692 70.0773 141.546 70.0695 141.382C70.0655 141.216 70.1938 141.058 70.4543 140.907C70.7148 140.757 70.9891 140.683 71.2772 140.685C71.5653 140.687 71.8199 140.752 72.0409 140.88C72.258 141.005 72.3685 141.151 72.3724 141.317C72.3724 141.482 72.2422 141.639 71.9817 141.789C71.7212 141.94 71.4489 142.015 71.1647 142.015C70.8805 142.01 70.6299 141.945 70.4128 141.82ZM76.5106 140.22L77.2921 140.624C77.1934 140.02 77.5289 139.496 78.2985 139.052C79.6326 138.281 81.0751 138.33 82.6262 139.198L86.8592 141.642L85.4205 142.473L81.2705 140.077C80.864 139.842 80.4752 139.72 80.1042 139.711C79.7332 139.697 79.3484 139.806 78.9498 140.036C78.3696 140.371 78.1999 140.772 78.4406 141.239L82.9992 143.871L81.5606 144.701L75.1549 141.003L76.5106 140.22ZM90.1804 137.715C89.9238 137.567 89.6219 137.516 89.2746 137.561C88.9312 137.605 88.4635 137.738 87.8715 137.961C87.2795 138.185 86.7407 138.345 86.2553 138.443C85.1897 138.657 84.3273 138.574 83.6682 138.194C83.1156 137.875 82.8867 137.474 82.9814 136.991C83.0761 136.508 83.4827 136.059 84.201 135.644C84.9667 135.202 85.7738 134.955 86.6223 134.902C87.4749 134.848 88.203 134.995 88.8069 135.343L87.3683 136.174C87.092 136.014 86.7605 135.941 86.3737 135.955C85.983 135.966 85.6179 136.07 85.2785 136.266C84.9627 136.448 84.7772 136.64 84.722 136.84C84.6707 137.038 84.7673 137.208 85.012 137.349C85.2331 137.477 85.4975 137.523 85.8054 137.486C86.1132 137.45 86.6125 137.305 87.3032 137.052C87.9899 136.797 88.58 136.627 89.0733 136.543C89.5667 136.454 90.0107 136.435 90.4054 136.485C90.804 136.533 91.175 136.656 91.5184 136.854C92.0946 137.187 92.3235 137.594 92.2051 138.077C92.0827 138.558 91.6348 139.022 90.8612 139.468C90.3363 139.772 89.7739 139.987 89.174 140.114C88.574 140.242 87.9939 140.276 87.4334 140.217C86.873 140.158 86.4013 140.018 86.0185 139.797L87.4157 138.99C87.7748 139.175 88.1655 139.252 88.5879 139.222C89.0062 139.19 89.4108 139.062 89.8015 138.836C90.1804 138.617 90.3975 138.41 90.4527 138.214C90.504 138.016 90.4132 137.85 90.1804 137.715ZM97.5333 135.617C96.6216 136.143 95.5954 136.405 94.4548 136.403C93.3141 136.396 92.2663 136.117 91.3111 135.565L91.1335 135.463C90.4942 135.094 90.0462 134.694 89.7897 134.263C89.5331 133.828 89.4877 133.401 89.6535 132.982C89.8193 132.562 90.1764 132.194 90.725 131.878C91.5973 131.374 92.5485 131.146 93.5786 131.194C94.6126 131.24 95.6388 131.556 96.6571 132.144L97.2373 132.479L93.0517 134.895C93.624 135.176 94.218 135.316 94.8337 135.316C95.4533 135.314 95.998 135.177 96.4676 134.906C97.1268 134.525 97.3971 134.062 97.2787 133.515L98.7943 133.494C98.9206 133.863 98.8752 134.234 98.6581 134.605C98.441 134.972 98.0661 135.309 97.5333 135.617ZM91.8736 132.547C91.4789 132.775 91.2973 133.04 91.3289 133.34C91.3644 133.639 91.5953 133.95 92.0216 134.273L94.7626 132.691L94.6561 132.629C94.143 132.37 93.6516 132.234 93.1819 132.223C92.7083 132.209 92.2722 132.317 91.8736 132.547ZM99.3685 128.542C99.1475 128.633 98.9364 128.737 98.7351 128.853C98.076 129.233 97.8845 129.636 98.1608 130.059L102.542 132.588L101.103 133.419L94.6975 129.721L96.071 128.928L96.8229 129.321C96.6137 128.799 96.8169 128.361 97.4326 128.005C97.6379 127.887 97.8352 127.805 98.0247 127.759L99.3685 128.542ZM105.91 128.538L102.684 125.11L104.17 124.253L108.355 129.232L107.106 129.953L98.4628 127.547L99.9546 126.686L105.91 128.538Z" fill="white"/>
<defs>
<linearGradient id="paint0_linear" x1="388.992" y1="96.3678" x2="10.0492" y2="187.771" gradientUnits="userSpaceOnUse">
<stop stop-color="#F0C9C5"/>
<stop offset="1" stop-color="#FBE9E7"/>
</linearGradient>
<linearGradient id="paint1_linear" x1="110.073" y1="57.7822" x2="186.611" y2="189.901" gradientUnits="userSpaceOnUse">
<stop stop-color="#D84315"/>
<stop offset="1" stop-color="#FFAB91"/>
</linearGradient>
<linearGradient id="paint2_linear" x1="199.49" y1="109.403" x2="231.406" y2="164.088" gradientUnits="userSpaceOnUse">
<stop stop-color="#D84315"/>
<stop offset="1" stop-color="#FFAB91"/>
</linearGradient>
</defs>
</svg>
