<svg width="556" height="405" viewBox="0 0 556 405" fill="none" xmlns="http://www.w3.org/2000/svg">
<g filter="url(#filter0_d)">
<path d="M107.082 173.405L84.374 160.294V190.411L84.394 190.399C84.5493 192.444 85.9795 194.463 88.6846 196.025L190 254.515C195.739 257.828 205.045 257.828 210.785 254.515L467.106 106.538C470.032 104.85 471.466 102.626 471.409 100.413L471.428 100.423V70.3071L448.281 83.6709L365.791 36.049C360.052 32.7355 350.746 32.7355 345.006 36.049L107.082 173.405Z" fill="url(#paint0_linear)"/>
</g>
<rect width="319.969" height="140.986" rx="12" transform="matrix(0.866041 -0.499972 0.866041 0.499972 78.292 160.025)" fill="#B39DDB"/>
<rect width="319.969" height="140.986" rx="12" transform="matrix(0.866041 -0.499972 0.866041 0.499972 78.292 160.025)" fill="url(#paint1_linear)"/>
<mask id="mask0" mask-type="alpha" maskUnits="userSpaceOnUse" x="94" y="3" width="378" height="219">
<rect width="307.97" height="140.986" rx="12" transform="matrix(0.866041 -0.499972 0.866041 0.499972 88.6836 154.026)" fill="#FFAB91"/>
</mask>
<g mask="url(#mask0)">
<path d="M221.752 189.938L198.465 227.338L482.387 63.4269L472.68 57.8229L421.929 51.2879C401.629 48.6739 381.464 55.9756 376.704 67.6642L372.867 77.0843C368.853 86.9398 353.669 93.9259 336.132 93.9859L303.193 94.0986C279.617 94.1793 261.867 106.515 266.054 119.91L274.886 148.163C277.535 156.636 271.345 165.22 259.064 170.105L235.94 179.303C229.4 181.904 224.438 185.624 221.752 189.938Z" fill="url(#paint2_linear)"/>
<path d="M221.726 189.979L198.465 227.338L481.116 61.4513L425.763 51.2495C405.14 47.4487 383.196 54.3559 377.558 66.4221L371.936 78.4558C367.263 88.4581 351.097 95.2058 333.18 94.6332L306.225 93.7718C282.213 93.0045 263.03 105.154 266.573 118.886L274.393 149.198C276.535 157.502 270.273 165.783 258.267 170.522L236.027 179.299C229.433 181.902 224.428 185.639 221.726 189.979Z" stroke="url(#paint3_linear)"/>
</g>
<path d="M320.378 51.6247C320.066 51.4447 319.745 51.3479 319.413 51.3342C319.081 51.3206 318.643 51.3798 318.099 51.5119C317.554 51.6441 317.037 51.758 316.548 51.8537C316.058 51.9494 315.589 52.0041 315.139 52.0178C314.689 52.0315 314.26 51.9939 313.854 51.905C313.447 51.8161 313.045 51.6566 312.646 51.4265C311.979 51.0414 311.656 50.5948 311.675 50.0867C311.691 49.5763 312.038 49.0842 312.717 48.6103L311.468 47.8891L312.409 47.3457L313.682 48.0805C314.511 47.725 315.375 47.5701 316.275 47.6157C317.175 47.6567 318 47.8937 318.75 48.3266L316.749 49.4818C316.338 49.2448 315.944 49.1081 315.565 49.0717C315.186 49.0352 314.85 49.1013 314.558 49.2699C314.298 49.4203 314.178 49.5855 314.197 49.7655C314.217 49.9409 314.371 50.1118 314.659 50.2781C314.951 50.4467 315.267 50.5333 315.606 50.5379C315.942 50.5402 316.372 50.4809 316.897 50.3602C317.418 50.2371 317.925 50.1312 318.418 50.0423C318.912 49.9489 319.383 49.8953 319.833 49.8817C320.283 49.868 320.717 49.9045 321.136 49.991C321.554 50.0776 321.963 50.236 322.361 50.4661C323.036 50.8557 323.372 51.2978 323.368 51.7922C323.368 52.2844 323.034 52.764 322.367 53.2311L323.557 53.9181L322.616 54.4615L321.42 53.7711C320.469 54.2154 319.514 54.4273 318.555 54.4068C317.595 54.3817 316.707 54.1334 315.89 53.6617L317.886 52.5099C318.335 52.7697 318.778 52.911 319.212 52.9337C319.646 52.952 320.046 52.8551 320.413 52.6432C320.682 52.4883 320.814 52.3208 320.81 52.1408C320.802 51.9585 320.658 51.7865 320.378 51.6247ZM330.134 48.6308L328.133 49.786L321.763 46.1084L320.372 47.5747L318.856 46.6997L321.331 43.7604L321.515 43.6545L330.134 48.6308ZM332.23 40.1273C332.649 40.3688 332.913 40.6423 333.024 40.9476C333.138 41.2506 333.11 41.5628 332.941 41.8841C333.552 41.7633 334.154 41.7348 334.746 41.7986C335.334 41.8601 335.867 42.0287 336.345 42.3044C337.114 42.7488 337.456 43.2535 337.369 43.8185C337.286 44.3813 336.779 44.9316 335.847 45.4693C334.912 46.0093 333.951 46.3067 332.964 46.3614C331.974 46.4138 331.096 46.2189 330.33 45.7769C329.868 45.5103 329.578 45.2061 329.46 44.8644C329.341 44.5226 329.396 44.1671 329.625 43.798C329.065 43.8983 328.52 43.9165 327.991 43.8527C327.462 43.7889 326.989 43.6362 326.571 43.3947C325.821 42.9618 325.483 42.4731 325.558 41.9285C325.633 41.3839 326.103 40.8621 326.967 40.3631C327.839 39.8596 328.747 39.5862 329.69 39.5429C330.634 39.4996 331.48 39.6944 332.23 40.1273ZM334.184 43.3674C333.829 43.1623 333.464 43.0586 333.089 43.0564C332.714 43.0495 332.376 43.1327 332.076 43.3059C331.776 43.479 331.63 43.675 331.638 43.8937C331.642 44.1102 331.822 44.3209 332.177 44.526C332.52 44.7242 332.885 44.8279 333.272 44.837C333.659 44.8416 334.004 44.7561 334.308 44.5807C334.604 44.4098 334.744 44.215 334.729 43.9962C334.713 43.7775 334.531 43.5679 334.184 43.3674ZM328.506 41.2518C328.238 41.4067 328.122 41.5765 328.157 41.761C328.193 41.941 328.366 42.121 328.678 42.301C328.986 42.4788 329.306 42.5813 329.637 42.6086C329.969 42.636 330.273 42.5699 330.549 42.4104C330.821 42.2532 330.93 42.0812 330.874 41.8943C330.823 41.7052 330.644 41.5218 330.336 41.3441C330.028 41.1663 329.714 41.0672 329.394 41.0467C329.079 41.0239 328.783 41.0923 328.506 41.2518ZM336.434 39.0541L337.375 38.5107C338.121 38.0801 338.129 37.654 337.399 37.2325C337.114 37.0684 336.795 36.9864 336.439 36.9864C336.08 36.9841 335.739 37.0764 335.415 37.2632C335.151 37.4159 334.997 37.5936 334.954 37.7964C334.914 37.9969 335.009 38.1632 335.238 38.2954L333.243 39.4472C332.789 39.1852 332.51 38.8787 332.408 38.5278C332.305 38.1769 332.378 37.8158 332.627 37.4444C332.876 37.0684 333.268 36.7255 333.805 36.4156C334.764 35.8619 335.737 35.5532 336.724 35.4894C337.71 35.4256 338.587 35.6147 339.352 36.0567C339.723 36.2709 339.96 36.5398 340.063 36.8633C340.165 37.1823 340.102 37.5264 339.873 37.8955C340.497 37.7269 341.109 37.6654 341.708 37.711C342.304 37.7542 342.851 37.9194 343.348 38.2065C344.118 38.6508 344.438 39.1772 344.307 39.7855C344.177 40.3939 343.631 40.9761 342.668 41.532C342.103 41.8579 341.472 42.0994 340.773 42.2566C340.074 42.4093 339.411 42.448 338.784 42.3728C338.152 42.2953 337.594 42.1165 337.108 41.8362L339.115 40.6776C339.38 40.8302 339.715 40.9009 340.122 40.8895C340.528 40.8781 340.888 40.7824 341.199 40.6024C341.551 40.3996 341.734 40.182 341.75 39.9496C341.762 39.7149 341.616 39.5098 341.312 39.3344C340.878 39.0838 340.461 38.9687 340.063 38.9892C339.664 39.0097 339.273 39.1305 338.89 39.3515L337.92 39.912L336.434 39.0541ZM347.374 34.8298C347.331 35.3014 347.043 35.691 346.51 35.9986C345.728 36.4498 344.844 36.6549 343.857 36.6138C342.871 36.5728 341.935 36.2971 341.051 35.7867C340.499 35.4677 340.114 35.0975 339.897 34.676C339.68 34.2544 339.664 33.8306 339.85 33.4045C340.039 32.9762 340.414 32.6002 340.974 32.2767C341.543 31.9486 342.2 31.7355 342.946 31.6376C343.692 31.535 344.455 31.5612 345.237 31.7162C346.014 31.8688 346.749 32.14 347.439 32.5296L348.203 32.9705C349.154 33.5196 349.792 34.1041 350.115 34.7238C350.443 35.3413 350.449 35.9576 350.133 36.5728C349.817 37.188 349.199 37.7611 348.28 38.292L348.156 38.3637L346.557 37.4409L346.93 37.2188C348.236 36.3871 348.384 35.5908 347.374 34.8298ZM345.61 34.8571C346.044 34.6065 346.168 34.3182 345.983 33.9924L345.154 33.5139C344.601 33.1949 344.1 33.0126 343.65 32.9671C343.2 32.9215 342.818 32.9899 342.502 33.1721C342.222 33.3339 342.137 33.5561 342.247 33.8386C342.358 34.1211 342.626 34.3855 343.052 34.6315C343.502 34.8913 343.958 35.0428 344.42 35.0861C344.878 35.1271 345.274 35.0508 345.61 34.8571ZM353.129 33.1209C353.444 32.9386 353.801 32.8418 354.2 32.8304C354.595 32.8167 354.938 32.8942 355.23 33.0628C355.522 33.2314 355.658 33.4308 355.639 33.6609C355.615 33.8887 355.445 34.0938 355.13 34.2761C354.81 34.4606 354.451 34.5586 354.052 34.57C353.657 34.5791 353.316 34.5005 353.028 34.3342C352.74 34.1679 352.604 33.9708 352.619 33.7429C352.639 33.5128 352.809 33.3054 353.129 33.1209ZM359.931 27.3619C361.095 28.0341 361.731 28.704 361.837 29.3716C361.948 30.0369 361.527 30.6441 360.576 31.1932C359.617 31.7469 358.557 31.9919 357.397 31.9281C356.237 31.8643 355.078 31.4986 353.922 30.831L352.347 29.9218C351.183 29.2497 350.545 28.5809 350.435 27.9156C350.328 27.248 350.753 26.6385 351.708 26.0871C352.663 25.5357 353.721 25.2919 354.881 25.3557C356.041 25.4195 357.202 25.7863 358.362 26.4562L359.931 27.3619ZM356.106 27.4576C355.487 27.0999 354.944 26.88 354.478 26.798C354.009 26.7137 353.598 26.7729 353.247 26.9757C352.904 27.1739 352.795 27.4006 352.921 27.6558C353.052 27.9088 353.399 28.205 353.963 28.5445L356.166 29.8159C356.809 30.1873 357.361 30.4129 357.823 30.4926C358.281 30.5701 358.686 30.5074 359.037 30.3046C359.376 30.1087 359.483 29.8808 359.357 29.6211C359.226 29.359 358.853 29.048 358.238 28.688L356.106 27.4576ZM366.952 23.3084C368.117 23.9806 368.752 24.6505 368.859 25.3181C368.969 25.9834 368.549 26.5906 367.598 27.1398C366.638 27.6934 365.579 27.9384 364.418 27.8746C363.258 27.8108 362.1 27.4451 360.943 26.7775L359.368 25.8683C358.204 25.1962 357.567 24.5274 357.456 23.8621C357.35 23.1945 357.774 22.585 358.729 22.0336C359.684 21.4822 360.742 21.2384 361.902 21.3022C363.063 21.366 364.223 21.7328 365.383 22.4027L366.952 23.3084ZM363.128 23.4041C362.508 23.0464 361.965 22.8265 361.5 22.7445C361.03 22.6602 360.62 22.7194 360.268 22.9222C359.925 23.1204 359.816 23.3472 359.943 23.6024C360.073 23.8553 360.42 24.1515 360.985 24.491L363.187 25.7624C363.83 26.1338 364.383 26.3594 364.845 26.4391C365.302 26.5166 365.707 26.4539 366.058 26.2511C366.398 26.0552 366.504 25.8273 366.378 25.5676C366.248 25.3055 365.875 24.9945 365.259 24.6345L363.128 23.4041Z" fill="white"/>
<path d="M142.61 176.887L141.666 177.432L135.409 173.82L134.211 175.314L133.359 174.822L135.039 172.686L135.186 172.601L142.61 176.887ZM146.842 170.806C147.941 171.44 148.57 172.02 148.729 172.546C148.888 173.071 148.569 173.564 147.77 174.025C146.982 174.48 146.138 174.667 145.238 174.585C144.335 174.501 143.357 174.163 142.305 173.571L141.052 172.847C139.966 172.221 139.347 171.646 139.195 171.125C139.042 170.603 139.367 170.111 140.169 169.648C140.964 169.189 141.805 168.999 142.691 169.077C143.574 169.153 144.552 169.495 145.624 170.102L146.842 170.806ZM144.619 170.606C143.824 170.147 143.134 169.878 142.549 169.798C141.96 169.716 141.424 169.814 140.94 170.094C140.46 170.371 140.291 170.678 140.433 171.014C140.575 171.349 141.018 171.736 141.762 172.174L143.264 173.041C144.063 173.502 144.768 173.776 145.38 173.864C145.993 173.948 146.534 173.854 147.004 173.583C147.468 173.315 147.632 173.013 147.496 172.678C147.364 172.34 146.918 171.945 146.157 171.494L144.619 170.606ZM145.147 168.532C144.704 168.276 144.479 167.984 144.472 167.656C144.469 167.326 144.689 167.033 145.132 166.777C145.582 166.518 146.091 166.392 146.659 166.4C147.227 166.403 147.742 166.538 148.202 166.804L148.562 167.012C149.009 167.27 149.232 167.563 149.232 167.891C149.232 168.215 149.014 168.503 148.577 168.755C148.137 169.009 147.633 169.138 147.065 169.142C146.493 169.144 145.972 169.009 145.502 168.737L145.147 168.532ZM146.238 168.354C146.502 168.506 146.794 168.589 147.116 168.603C147.434 168.614 147.718 168.548 147.968 168.403C148.208 168.265 148.318 168.105 148.298 167.926C148.281 167.744 148.129 167.57 147.841 167.404L147.471 167.191C147.207 167.038 146.916 166.954 146.598 166.939C146.28 166.923 145.996 166.987 145.746 167.132C145.495 167.276 145.384 167.44 145.411 167.624C145.438 167.808 145.59 167.98 145.867 168.14L146.238 168.354ZM152.901 168.854C152.458 168.599 152.234 168.308 152.231 167.981C152.227 167.651 152.447 167.358 152.891 167.103C153.334 166.847 153.839 166.719 154.408 166.719C154.976 166.719 155.495 166.855 155.966 167.126L156.326 167.334C156.769 167.59 156.992 167.883 156.996 168.213C156.999 168.539 156.781 168.829 156.341 169.083C155.901 169.337 155.397 169.466 154.829 169.47C154.257 169.472 153.736 169.337 153.266 169.065L152.901 168.854ZM153.997 168.679C154.264 168.833 154.558 168.917 154.88 168.931C155.198 168.942 155.482 168.876 155.732 168.731C155.976 168.591 156.087 168.431 156.067 168.251C156.043 168.069 155.888 167.896 155.6 167.73L155.225 167.513C154.958 167.358 154.665 167.275 154.347 167.264C154.032 167.25 153.752 167.315 153.505 167.457C153.264 167.596 153.153 167.758 153.17 167.943C153.187 168.125 153.337 168.298 153.621 168.462L153.997 168.679ZM152.292 170.653L151.424 170.767L149.257 165.351L150.125 165.237L152.292 170.653ZM159.711 163.675L162.603 165.345L161.629 165.907L154.24 161.642L156.965 160.069C157.774 159.602 158.613 159.356 159.482 159.331C160.355 159.303 161.131 159.486 161.811 159.878C162.529 160.292 162.857 160.742 162.796 161.226C162.735 161.706 162.287 162.188 161.451 162.67L159.711 163.675ZM158.914 163.215L160.665 162.204C161.186 161.904 161.463 161.603 161.497 161.302C161.527 160.999 161.311 160.714 160.847 160.447C160.408 160.193 159.917 160.07 159.376 160.078C158.834 160.085 158.317 160.226 157.823 160.499L156.016 161.542L158.914 163.215ZM166.044 157.992C165.878 158.06 165.712 158.142 165.546 158.238C164.931 158.593 164.775 158.986 165.079 159.416L168.977 161.665L168.038 162.207L162.547 159.038L163.461 158.51L164.11 158.868C163.927 158.407 164.119 158.013 164.684 157.687C164.866 157.582 165.029 157.515 165.171 157.488L166.044 157.992ZM168.413 158.762C167.875 158.452 167.497 158.112 167.277 157.743C167.06 157.372 167.023 157.01 167.165 156.659C167.31 156.305 167.625 155.989 168.109 155.71C168.856 155.278 169.719 155.079 170.697 155.112C171.678 155.143 172.598 155.407 173.457 155.903L173.523 155.941C174.058 156.25 174.435 156.587 174.655 156.952C174.875 157.313 174.912 157.672 174.767 158.03C174.624 158.385 174.306 158.706 173.813 158.991C173.068 159.42 172.206 159.62 171.225 159.588C170.247 159.555 169.332 159.293 168.479 158.8L168.413 158.762ZM169.469 158.282C170.078 158.633 170.707 158.835 171.356 158.885C172.009 158.934 172.573 158.822 173.046 158.548C173.523 158.273 173.716 157.947 173.625 157.57C173.53 157.191 173.146 156.807 172.473 156.419C171.871 156.071 171.24 155.873 170.58 155.824C169.92 155.771 169.354 155.882 168.88 156.155C168.417 156.423 168.227 156.745 168.312 157.122C168.396 157.499 168.782 157.885 169.469 158.282ZM177.7 156.63L172.935 153.879L172.067 154.38L171.341 153.961L172.209 153.46L171.742 153.19C171.13 152.837 170.827 152.461 170.834 152.062C170.844 151.662 171.169 151.277 171.808 150.908C172.187 150.689 172.769 150.473 173.554 150.258L174.188 150.806C173.596 150.952 173.109 151.136 172.727 151.356C172.324 151.589 172.124 151.81 172.128 152.018C172.131 152.224 172.314 152.431 172.676 152.64L173.153 152.915L174.274 152.268L175 152.686L173.879 153.334L178.643 156.085L177.7 156.63ZM181.612 154.371L180.668 154.916L175.178 151.746L176.121 151.201L181.612 154.371ZM177.593 148.817L178.923 149.584L179.948 148.992L180.673 149.411L179.648 150.003L183.053 151.969C183.273 152.096 183.484 152.165 183.687 152.177C183.887 152.186 184.097 152.128 184.317 152.001C184.425 151.938 184.553 151.841 184.702 151.708L185.463 152.147C185.284 152.329 185.078 152.487 184.844 152.622C184.425 152.864 183.982 152.974 183.515 152.95C183.048 152.927 182.581 152.78 182.114 152.511L178.709 150.545L177.71 151.122L176.984 150.703L177.984 150.126L176.654 149.358L177.593 148.817Z" fill="#FBE9E7"/>
<path d="M119.87 167.019L111.25 162.043L114.204 160.337C115.179 159.774 116.116 159.459 117.016 159.39C117.916 159.322 118.753 159.511 119.526 159.958C119.921 160.186 120.17 160.452 120.272 160.758C120.375 161.063 120.308 161.384 120.071 161.721C120.663 161.525 121.261 161.456 121.865 161.513C122.469 161.565 123.015 161.733 123.505 162.015C124.314 162.482 124.675 162.992 124.588 163.543C124.505 164.092 123.98 164.646 123.013 165.204L119.87 167.019ZM117.478 163.909L120.172 165.464L121.835 164.503C122.305 164.232 122.556 163.953 122.587 163.666C122.619 163.379 122.427 163.116 122.013 162.877C121.117 162.359 120.201 162.359 119.266 162.877L117.478 163.909ZM116.377 163.273L117.845 162.425C118.311 162.157 118.569 161.887 118.621 161.615C118.672 161.34 118.504 161.09 118.117 160.867C117.691 160.621 117.261 160.514 116.827 160.546C116.397 160.575 115.925 160.738 115.412 161.034L113.955 161.875L116.377 163.273ZM131.207 160.474C131.021 160.44 130.767 160.357 130.443 160.224C130.463 160.764 130.141 161.226 129.478 161.609C128.835 161.98 128.126 162.177 127.353 162.2C126.579 162.223 125.922 162.078 125.381 161.766C124.699 161.372 124.428 160.924 124.57 160.423C124.712 159.917 125.255 159.392 126.198 158.847L127.081 158.338L126.66 158.095C126.329 157.904 125.971 157.805 125.589 157.798C125.202 157.789 124.819 157.893 124.44 158.112C124.113 158.301 123.927 158.504 123.884 158.721C123.836 158.935 123.939 159.115 124.191 159.261L122.753 160.091C122.402 159.888 122.19 159.632 122.119 159.322C122.044 159.01 122.119 158.689 122.344 158.358C122.573 158.026 122.934 157.717 123.428 157.432C124.178 156.999 124.965 156.763 125.79 156.725C126.611 156.684 127.369 156.857 128.063 157.244L130.952 158.912C131.529 159.245 132.069 159.463 132.574 159.568L132.675 159.626L131.207 160.474ZM128.59 160.788C128.874 160.624 129.072 160.431 129.182 160.207C129.297 159.982 129.301 159.765 129.194 159.558L127.986 158.861L127.211 159.308C126.678 159.616 126.37 159.901 126.287 160.163C126.204 160.425 126.333 160.654 126.672 160.85C126.948 161.009 127.26 161.085 127.607 161.075C127.955 161.062 128.282 160.966 128.59 160.788ZM129.034 154.332L136.008 158.358C136.663 158.736 136.999 159.119 137.015 159.507C137.038 159.894 136.736 160.269 136.109 160.631C135.844 160.784 135.556 160.911 135.245 161.014L134.108 160.358C134.293 160.292 134.481 160.204 134.67 160.094C135.148 159.819 135.132 159.527 134.623 159.22L127.596 155.163L129.034 154.332ZM125.808 154.274C125.587 154.146 125.472 154.001 125.464 153.837C125.46 153.67 125.589 153.512 125.849 153.361C126.11 153.211 126.384 153.137 126.672 153.139C126.96 153.142 127.215 153.207 127.436 153.334C127.653 153.459 127.763 153.605 127.767 153.772C127.767 153.936 127.637 154.093 127.377 154.243C127.116 154.394 126.844 154.469 126.56 154.469C126.275 154.464 126.025 154.399 125.808 154.274ZM140.81 154.93C140.624 154.896 140.369 154.813 140.046 154.681C140.066 155.221 139.744 155.682 139.081 156.065C138.437 156.436 137.729 156.633 136.955 156.656C136.182 156.679 135.525 156.534 134.984 156.222C134.301 155.828 134.031 155.38 134.173 154.879C134.315 154.373 134.858 153.848 135.801 153.303L136.683 152.794L136.263 152.551C135.931 152.36 135.574 152.261 135.191 152.254C134.804 152.245 134.422 152.35 134.043 152.569C133.715 152.758 133.53 152.96 133.486 153.177C133.439 153.391 133.541 153.571 133.794 153.717L132.355 154.547C132.004 154.345 131.793 154.088 131.722 153.778C131.647 153.466 131.722 153.145 131.947 152.815C132.176 152.482 132.537 152.173 133.03 151.888C133.78 151.455 134.568 151.22 135.393 151.181C136.213 151.14 136.971 151.313 137.666 151.7L140.555 153.368C141.131 153.701 141.672 153.92 142.177 154.025L142.278 154.083L140.81 154.93ZM138.193 155.245C138.477 155.081 138.674 154.887 138.785 154.664C138.899 154.438 138.903 154.222 138.797 154.014L137.589 153.317L136.813 153.765C136.281 154.072 135.973 154.357 135.89 154.619C135.807 154.881 135.935 155.11 136.275 155.306C136.551 155.466 136.863 155.541 137.21 155.532C137.557 155.518 137.885 155.422 138.193 155.245ZM138.637 148.788L145.611 152.815C146.266 153.193 146.601 153.576 146.617 153.963C146.641 154.35 146.339 154.725 145.711 155.087C145.447 155.24 145.159 155.368 144.847 155.47L143.71 154.814C143.896 154.748 144.083 154.66 144.273 154.551C144.75 154.275 144.735 153.983 144.225 153.676L137.198 149.619L138.637 148.788ZM135.41 148.73C135.189 148.603 135.075 148.457 135.067 148.293C135.063 148.127 135.191 147.968 135.452 147.818C135.712 147.667 135.987 147.593 136.275 147.596C136.563 147.598 136.817 147.663 137.038 147.79C137.255 147.916 137.366 148.062 137.37 148.228C137.37 148.392 137.24 148.549 136.979 148.7C136.719 148.85 136.446 148.925 136.162 148.925C135.878 148.921 135.627 148.856 135.41 148.73ZM151.057 144.797L147.588 146.799L151.241 148.908L149.743 149.773L141.123 144.797L146.599 141.635L147.807 142.332L143.829 144.629L146.392 146.109L149.861 144.106L151.057 144.797ZM157.8 145.121L156.362 145.952L149.956 142.254L151.395 141.423L157.8 145.121ZM148.204 141.345C147.983 141.217 147.868 141.071 147.86 140.907C147.857 140.741 147.985 140.582 148.245 140.432C148.506 140.282 148.78 140.208 149.068 140.21C149.356 140.212 149.611 140.277 149.832 140.405C150.049 140.53 150.159 140.676 150.163 140.842C150.163 141.006 150.033 141.163 149.773 141.314C149.512 141.464 149.24 141.539 148.956 141.539C148.672 141.535 148.421 141.47 148.204 141.345ZM154.302 139.745L155.083 140.148C154.984 139.545 155.32 139.02 156.09 138.576C157.424 137.806 158.866 137.855 160.417 138.723L164.65 141.167L163.212 141.997L159.061 139.601C158.655 139.367 158.266 139.245 157.895 139.236C157.524 139.222 157.139 139.33 156.741 139.56C156.161 139.895 155.991 140.296 156.232 140.764L160.79 143.395L159.352 144.226L152.946 140.528L154.302 139.745ZM167.971 137.24C167.715 137.092 167.413 137.04 167.066 137.086C166.722 137.129 166.255 137.263 165.663 137.486C165.071 137.709 164.532 137.87 164.046 137.968C162.981 138.182 162.118 138.099 161.459 137.718C160.907 137.399 160.678 136.998 160.772 136.515C160.867 136.032 161.274 135.583 161.992 135.169C162.758 134.727 163.565 134.479 164.413 134.427C165.266 134.372 165.994 134.519 166.598 134.868L165.159 135.698C164.883 135.539 164.551 135.466 164.165 135.48C163.774 135.491 163.409 135.595 163.069 135.791C162.754 135.973 162.568 136.164 162.513 136.365C162.462 136.563 162.558 136.733 162.803 136.874C163.024 137.002 163.289 137.047 163.596 137.011C163.904 136.974 164.403 136.83 165.094 136.577C165.781 136.322 166.371 136.152 166.864 136.067C167.358 135.979 167.802 135.959 168.196 136.009C168.595 136.057 168.966 136.18 169.309 136.379C169.886 136.711 170.115 137.119 169.996 137.602C169.874 138.083 169.426 138.547 168.652 138.993C168.127 139.296 167.565 139.511 166.965 139.639C166.365 139.767 165.785 139.801 165.224 139.742C164.664 139.682 164.192 139.542 163.809 139.321L165.207 138.515C165.566 138.699 165.957 138.777 166.379 138.747C166.797 138.715 167.202 138.586 167.593 138.361C167.971 138.142 168.188 137.935 168.244 137.739C168.295 137.541 168.204 137.374 167.971 137.24ZM175.324 135.141C174.413 135.668 173.386 135.93 172.246 135.927C171.105 135.921 170.057 135.641 169.102 135.09L168.925 134.987C168.285 134.618 167.837 134.218 167.581 133.788C167.324 133.353 167.279 132.925 167.445 132.506C167.61 132.087 167.967 131.719 168.516 131.402C169.388 130.899 170.339 130.671 171.37 130.719C172.404 130.764 173.43 131.081 174.448 131.669L175.028 132.004L170.843 134.42C171.415 134.7 172.009 134.841 172.625 134.841C173.244 134.838 173.789 134.702 174.259 134.43C174.918 134.05 175.188 133.586 175.07 133.039L176.585 133.019C176.712 133.388 176.666 133.758 176.449 134.13C176.232 134.496 175.857 134.834 175.324 135.141ZM169.665 132.072C169.27 132.3 169.088 132.564 169.12 132.865C169.155 133.164 169.386 133.475 169.813 133.798L172.554 132.216L172.447 132.154C171.934 131.894 171.443 131.759 170.973 131.747C170.499 131.734 170.063 131.842 169.665 132.072ZM177.16 128.066C176.939 128.158 176.727 128.261 176.526 128.377C175.867 128.758 175.676 129.16 175.952 129.584L180.333 132.113L178.894 132.944L172.489 129.246L173.862 128.453L174.614 128.846C174.405 128.324 174.608 127.885 175.224 127.53C175.429 127.411 175.626 127.329 175.816 127.284L177.16 128.066ZM183.701 128.063L180.475 124.635L181.961 123.777L186.146 128.757L184.897 129.478L176.254 127.072L177.746 126.211L183.701 128.063Z" fill="white"/>
<defs>
<filter id="filter0_d" x="0.374023" y="13.5638" width="555.054" height="391.436" filterUnits="userSpaceOnUse" color-interpolation-filters="sRGB">
<feFlood flood-opacity="0" result="BackgroundImageFix"/>
<feColorMatrix in="SourceAlpha" type="matrix" values="0 0 0 0 0 0 0 0 0 0 0 0 0 0 0 0 0 0 127 0"/>
<feOffset dy="64"/>
<feGaussianBlur stdDeviation="42"/>
<feColorMatrix type="matrix" values="0 0 0 0 0.701961 0 0 0 0 0.615686 0 0 0 0 0.858824 0 0 0 0.5 0"/>
<feBlend mode="normal" in2="BackgroundImageFix" result="effect1_dropShadow"/>
<feBlend mode="normal" in="SourceGraphic" in2="effect1_dropShadow" result="shape"/>
</filter>
<linearGradient id="paint0_linear" x1="450.287" y1="103.549" x2="72.3448" y2="178.159" gradientUnits="userSpaceOnUse">
<stop stop-color="#673AB7"/>
<stop offset="1" stop-color="#B39DDB"/>
</linearGradient>
<linearGradient id="paint1_linear" x1="11.2218" y1="-11.2218" x2="97.2851" y2="160.914" gradientUnits="userSpaceOnUse">
<stop stop-color="#BEABE0"/>
<stop offset="1" stop-color="white" stop-opacity="0"/>
</linearGradient>
<linearGradient id="paint2_linear" x1="187.864" y1="57.3068" x2="264.402" y2="189.425" gradientUnits="userSpaceOnUse">
<stop stop-color="#673AB7"/>
<stop offset="1" stop-color="#673AB7" stop-opacity="0"/>
</linearGradient>
<linearGradient id="paint3_linear" x1="277.281" y1="108.928" x2="309.197" y2="163.613" gradientUnits="userSpaceOnUse">
<stop stop-color="#673AB7"/>
<stop offset="1" stop-color="#673AB7" stop-opacity="0"/>
</linearGradient>
</defs>
</svg>
