<svg width="555" height="443" viewBox="0 0 555 443" fill="none" xmlns="http://www.w3.org/2000/svg">
<g filter="url(#filter0_d)">
<path d="M271.726 31.0647L89.3751 137.886L64.6582 146.57V185.96C64.4037 191.448 67.9144 196.991 75.1546 201.171L226.963 288.95C240.89 296.99 263.68 296.989 277.606 288.949L480.178 171.994C487.645 167.683 491.108 161.902 490.569 156.227L490.625 156.26V116L462.228 132.395L342.94 31.0647C329.013 23.0249 285.653 23.024 271.726 31.0647Z" fill="#90CAF9"/>
</g>
<path d="M277.599 15.0514L75.0271 132.006C61.1002 140.047 61.2273 153.131 75.1546 161.17L226.963 248.95C240.89 256.99 263.68 256.989 277.607 248.949L480.179 131.994C494.105 123.953 494.105 110.796 480.178 102.756L328.243 15.0498C314.316 7.01006 291.526 7.01079 277.599 15.0514ZM328.244 44.287L290.264 139.309L125.672 161.242L100.349 146.624L264.942 124.691L302.922 29.6692L328.244 44.287Z" fill="#2196F3"/>
<path d="M277.599 15.0514L75.0271 132.006C61.1002 140.047 61.2273 153.131 75.1546 161.17L226.963 248.95C240.89 256.99 263.68 256.989 277.607 248.949L480.179 131.994C494.105 123.953 494.105 110.796 480.178 102.756L328.243 15.0498C314.316 7.01006 291.526 7.01079 277.599 15.0514ZM328.244 44.287L290.264 139.309L125.672 161.242L100.349 146.624L264.942 124.691L302.922 29.6692L328.244 44.287Z" fill="url(#paint0_linear)"/>
<path d="M295.342 141.581L333.322 46.5592L308 31.9414L270.02 126.963L105.428 148.896L130.75 163.514L295.342 141.581Z" fill="#E3F2FD"/>
<defs>
<filter id="filter0_d" x="0.645264" y="25.0345" width="553.98" height="417.945" filterUnits="userSpaceOnUse" color-interpolation-filters="sRGB">
<feFlood flood-opacity="0" result="BackgroundImageFix"/>
<feColorMatrix in="SourceAlpha" type="matrix" values="0 0 0 0 0 0 0 0 0 0 0 0 0 0 0 0 0 0 127 0"/>
<feOffset dy="84"/>
<feGaussianBlur stdDeviation="32"/>
<feColorMatrix type="matrix" values="0 0 0 0 0.890196 0 0 0 0 0.94902 0 0 0 0 0.992157 0 0 0 0.5 0"/>
<feBlend mode="normal" in2="BackgroundImageFix" result="effect1_dropShadow"/>
<feBlend mode="normal" in="SourceGraphic" in2="effect1_dropShadow" result="shape"/>
</filter>
<linearGradient id="paint0_linear" x1="62.729" y1="132" x2="330.159" y2="310.964" gradientUnits="userSpaceOnUse">
<stop stop-color="#6DBAF7"/>
<stop offset="1" stop-color="white" stop-opacity="0"/>
</linearGradient>
</defs>
</svg>
