<svg width="421" height="478" viewBox="0 0 421 478" fill="none" xmlns="http://www.w3.org/2000/svg">
<g clipPath="url(#clip0)">
<g opacity="0.5">
<path opacity="0.0238095" d="M296.011 463.149L156.018 383.07C146.258 377.392 147.423 367.491 158.786 360.939L206.276 333.858C217.638 327.306 234.828 326.578 244.588 332.256L384.582 412.335C394.342 418.014 393.176 427.914 381.814 434.466L334.324 461.548C322.961 468.1 305.771 468.827 296.011 463.149Z" fill="#A7ADDA"/>
<path opacity="0.047619" d="M295.866 462.712L156.601 383.07C146.84 377.391 148.006 367.636 159.368 361.084L206.13 334.44C217.347 327.888 234.391 327.306 244.151 332.838L383.416 412.481C393.176 418.159 392.011 427.914 380.648 434.466L333.887 461.111C322.67 467.663 305.626 468.39 295.866 462.712Z" fill="#9EA5CF"/>
<path opacity="0.0714286" d="M295.866 462.275L157.329 383.07C147.714 377.537 148.88 367.782 160.097 361.376L206.13 335.022C217.347 328.616 234.1 327.888 243.86 333.421L382.396 412.626C392.011 418.159 390.846 427.914 379.629 434.321L333.595 460.674C322.378 467.226 305.626 467.808 295.866 462.275Z" fill="#969CC4"/>
<path opacity="0.0952381" d="M295.866 461.839L158.057 383.07C148.443 377.537 149.754 367.928 160.68 361.521L206.13 335.605C217.201 329.198 233.954 328.47 243.423 334.003L381.231 412.772C390.846 418.305 389.535 427.914 378.609 434.32L333.158 460.237C322.233 466.643 305.48 467.371 295.866 461.839Z" fill="#8E93B9"/>
<path opacity="0.119" d="M295.865 461.402L158.786 383.07C149.317 377.537 150.482 368.073 161.408 361.667L206.13 336.187C217.055 329.926 233.662 329.198 243.131 334.586L380.211 412.918C389.68 418.45 388.515 427.914 377.589 434.321L332.867 459.8C321.941 466.207 305.334 466.935 295.865 461.402Z" fill="#858BAE"/>
<path opacity="0.1429" d="M295.866 460.965L159.514 383.07C150.045 377.683 151.356 368.219 162.136 361.958L206.13 336.769C216.91 330.509 233.371 329.781 242.84 335.313L379.192 413.209C388.66 418.596 387.349 428.06 376.569 434.32L332.576 459.509C321.65 465.77 305.189 466.498 295.866 460.965Z" fill="#7D82A4"/>
<path opacity="0.1667" d="M295.866 460.528L160.242 383.07C150.919 377.683 152.085 368.365 162.865 362.104L206.276 337.352C217.056 331.091 233.225 330.509 242.549 335.896L378.172 413.354C387.495 418.742 386.33 428.06 375.55 434.321L332.139 459.072C321.359 465.333 305.189 465.916 295.866 460.528Z" fill="#757999"/>
<path opacity="0.1905" d="M295.866 460.237L160.971 383.216C151.793 377.828 152.959 368.656 163.593 362.395L206.276 338.08C216.91 331.965 233.08 331.237 242.257 336.624L377.152 413.646C386.33 419.033 385.164 428.205 374.53 434.466L331.847 458.636C321.213 464.896 305.043 465.479 295.866 460.237Z" fill="#6C718E"/>
<path opacity="0.2143" d="M295.72 459.8L161.554 383.215C152.376 377.974 153.541 368.801 164.176 362.686L206.276 338.662C216.764 332.547 232.789 331.965 241.966 337.206L376.132 413.791C385.31 419.033 384.145 428.205 373.51 434.32L331.41 458.344C320.922 464.314 304.898 465.042 295.72 459.8Z" fill="#646883"/>
<path opacity="0.2381" d="M295.72 459.363L162.282 383.07C153.25 377.828 154.415 368.656 164.758 362.686L206.13 339.099C216.618 333.129 232.351 332.401 241.383 337.643L374.821 413.937C383.853 419.178 382.688 428.351 372.345 434.32L330.973 457.907C320.63 463.877 304.752 464.605 295.72 459.363Z" fill="#5C5F78"/>
<path opacity="0.2619" d="M295.72 458.927L163.01 383.07C153.978 377.828 155.144 368.801 165.487 362.832L206.13 339.682C216.473 333.712 232.206 333.13 241.092 338.226L373.802 414.082C382.833 419.324 381.668 428.351 371.325 434.321L330.682 457.471C320.339 463.44 304.752 464.023 295.72 458.927Z" fill="#53576D"/>
<path opacity="0.2857" d="M295.72 458.49L163.739 383.07C154.853 377.974 156.018 368.947 166.215 363.123L206.276 340.264C216.473 334.294 232.06 333.712 240.946 338.808L372.928 414.228C381.814 419.324 380.648 428.351 370.451 434.175L330.391 457.034C320.048 463.003 304.606 463.586 295.72 458.49Z" fill="#4B4E62"/>
<path opacity="0.3095" d="M295.72 458.053L164.467 383.07C155.727 377.974 156.746 369.092 166.944 363.268L206.276 340.846C216.473 335.022 231.769 334.294 240.509 339.39L371.762 414.374C380.503 419.469 379.483 428.351 369.286 434.175L329.954 456.597C319.902 462.421 304.46 463.149 295.72 458.053Z" fill="#434557"/>
<path opacity="0.3333" d="M295.72 457.616L165.195 383.07C156.455 378.119 157.62 369.238 167.672 363.414L206.276 341.429C216.327 335.605 231.477 335.022 240.218 339.973L370.742 414.519C379.483 419.469 378.317 428.351 368.266 434.175L329.662 456.16C319.611 461.984 304.46 462.567 295.72 457.616Z" fill="#3A3D4C"/>
<path opacity="0.3571" d="M295.72 457.179L165.924 383.07C157.329 378.119 158.349 369.384 168.4 363.705L206.421 342.011C216.327 336.333 231.477 335.605 240.072 340.555L369.868 414.665C378.463 419.615 377.443 428.351 367.392 434.029L329.225 455.723C319.319 461.547 304.315 462.13 295.72 457.179Z" fill="#323441"/>
<path opacity="0.381" d="M295.72 456.743L166.652 383.07C158.057 378.119 159.223 369.529 168.983 363.851L206.276 342.593C216.182 336.915 231.04 336.333 239.489 341.283L368.557 414.956C377.152 419.906 375.987 428.497 366.226 434.175L328.934 455.432C319.028 461.111 304.169 461.693 295.72 456.743Z" fill="#2A2B37"/>
<path opacity="0.4048" d="M295.574 456.306L167.235 383.07C158.786 378.265 159.806 369.675 169.566 363.996L206.13 343.176C215.89 337.497 230.604 336.915 239.053 341.865L367.392 415.101C375.841 419.906 374.821 428.497 365.061 434.175L328.497 454.995C318.882 460.528 304.024 461.256 295.574 456.306Z" fill="#21232C"/>
<path opacity="0.4286" d="M295.574 455.869L167.963 383.07C159.66 378.265 160.679 369.82 170.294 364.288L206.276 343.904C215.89 338.371 230.458 337.789 238.907 342.593L366.518 415.393C374.821 420.197 373.801 428.642 364.187 434.175L328.205 454.559C318.591 460.091 304.023 460.674 295.574 455.869Z" fill="#191A21"/>
<path opacity="0.4524" d="M295.574 455.432L168.692 383.07C160.388 378.265 161.408 369.966 171.022 364.433L206.276 344.341C215.89 338.808 230.312 338.225 238.47 343.03L365.352 415.393C373.656 420.197 372.636 428.496 363.022 434.029L327.768 454.122C318.3 459.655 303.878 460.237 295.574 455.432Z" fill="#111116"/>
<path opacity="0.4762" d="M295.574 454.996L169.42 382.924C161.262 378.265 162.282 369.966 171.751 364.433L206.276 344.777C215.745 339.39 230.021 338.662 238.178 343.467L364.333 415.538C372.491 420.198 371.471 428.497 362.002 434.029L327.477 453.685C318.008 459.218 303.732 459.8 295.574 454.996Z" fill="#08090B"/>
<path opacity="0.5" d="M295.574 454.559L170.149 382.924C161.991 378.265 163.01 370.112 172.479 364.724L206.422 345.505C215.745 340.118 229.875 339.536 238.033 344.195L363.459 415.83C371.617 420.489 370.597 428.642 361.128 434.029L327.186 453.248C317.863 458.635 303.587 459.363 295.574 454.559Z" fill="black"/>
</g>
<path d="M373.947 336.915H372.053C371.034 335.75 369.723 334.586 368.12 333.566L238.033 259.311C229.438 254.361 214.288 254.943 204.236 260.767L165.924 282.607C163.302 284.208 161.262 285.956 159.951 287.703H157.766V375.062C158.057 377.974 159.951 380.74 163.593 382.779L293.68 457.034C302.275 461.984 317.425 461.402 327.477 455.578L365.789 433.738C370.597 430.972 373.219 427.623 373.947 424.274H374.093V336.915H373.947Z" fill="url(#paint0_linear)"/>
<path d="M293.535 370.985L163.447 296.73C154.853 291.78 155.872 283.044 165.924 277.22L204.236 255.38C214.288 249.556 229.292 248.974 238.033 253.924L368.12 328.179C376.715 333.13 375.695 341.865 365.644 347.689L327.331 369.529C317.426 375.353 302.275 375.935 293.535 370.985Z" fill="url(#paint1_linear)"/>
<path d="M365.644 346.233L327.331 368.073C317.28 373.897 302.275 374.479 293.535 369.529L163.447 295.274C159.951 293.236 158.057 290.615 157.766 287.848C157.183 291.488 159.077 294.983 163.447 297.458L293.535 371.713C302.13 376.663 317.28 376.081 327.331 370.257L365.644 348.417C371.616 344.923 374.384 340.409 373.802 336.333C373.219 339.827 370.597 343.467 365.644 346.233Z" fill="url(#paint2_radial)"/>
<path d="M308.248 347.107L217.638 294.837C207.441 289.013 199.137 273.143 199.137 259.457V18.4911C199.137 11.5023 193.456 10.0463 196.952 7.57117C197.098 7.42558 210.791 1.31044 210.937 1.31044C214.579 -0.145549 218.658 -0.727943 223.465 2.03843L314.075 54.3083C324.272 60.1323 332.576 76.0025 332.576 89.6888V330.8C332.576 338.08 330.245 343.176 326.457 345.505C326.166 345.651 310.87 352.785 310.724 352.785C307.374 353.805 312.764 349.728 308.248 347.107Z" fill="#E1DAEF"/>
<path d="M308.248 347.107L217.638 294.837C207.441 289.013 199.137 273.143 199.137 259.457V18.4911C199.137 11.5023 193.456 10.0463 196.952 7.57117C197.098 7.42558 210.5 1.45603 210.646 1.31044C214.288 -0.145549 218.367 -0.727943 223.174 2.03843L313.783 54.3083C323.981 60.1323 332.284 76.0025 332.284 89.6888V330.8C332.284 338.08 329.953 343.176 326.166 345.505C325.874 345.651 310.87 352.64 310.579 352.785C307.374 353.805 312.764 349.728 308.248 347.107Z" fill="url(#paint3_linear)"/>
<path d="M308.248 347.107L217.638 294.837C207.441 289.013 199.137 273.143 199.137 259.457V18.4912C199.137 11.5025 193.456 10.0465 196.952 7.57133C197.098 7.42573 210.354 1.45619 210.5 1.45619C214.142 0.00020276 218.221 -0.582191 223.028 2.18418L313.638 54.4541C323.835 60.278 332.139 76.1482 332.139 89.8345V330.946C332.139 338.226 329.808 343.322 326.02 345.651C325.729 345.797 310.87 352.64 310.724 352.785C307.374 353.805 312.764 349.728 308.248 347.107Z" fill="url(#paint4_linear)"/>
<path d="M308.248 347.107L217.638 294.837C207.441 289.013 199.137 273.143 199.137 259.456V18.4909C199.137 11.5022 193.456 10.0462 196.952 7.57099C197.098 7.42539 210.063 1.60145 210.209 1.60145C213.851 0.145466 217.93 -0.436928 222.737 2.32944L313.347 54.5993C323.544 60.4233 331.847 76.2935 331.847 89.9798V331.091C331.847 338.371 329.516 343.467 325.729 345.796C325.438 345.942 310.87 352.785 310.579 352.785C307.374 353.804 312.764 349.728 308.248 347.107Z" fill="url(#paint5_linear)"/>
<path d="M308.248 347.107L217.638 294.837C207.441 289.013 199.137 273.143 199.137 259.456V18.4909C199.137 11.5022 193.456 10.0462 196.952 7.57099C197.098 7.42539 209.917 1.60145 210.063 1.60145C213.705 0.145466 217.784 -0.436928 222.591 2.32944L313.201 54.5993C323.398 60.4233 331.701 76.2935 331.701 89.9798V331.091C331.701 338.371 329.371 343.467 325.583 345.796C325.292 345.942 310.87 352.64 310.724 352.785C307.374 353.804 312.764 349.728 308.248 347.107Z" fill="url(#paint6_linear)"/>
<path d="M308.248 347.107L217.638 294.837C207.441 289.013 199.137 273.143 199.137 259.457V18.491C199.137 11.5023 193.456 10.0463 196.952 7.57115C197.098 7.42555 209.626 1.7472 209.772 1.7472C213.414 0.291218 217.493 -0.291176 222.3 2.4752L312.909 54.7451C323.107 60.569 331.41 76.4393 331.41 90.1255V331.237C331.41 338.517 329.079 343.613 325.292 345.942C325 346.088 310.87 352.785 310.579 352.785C307.374 353.804 312.764 349.728 308.248 347.107Z" fill="url(#paint7_linear)"/>
<path d="M308.248 347.107L217.638 294.837C207.441 289.013 199.137 273.143 199.137 259.457V18.491C199.137 11.5023 193.456 10.0463 196.952 7.57115C197.098 7.42555 209.48 1.8928 209.626 1.7472C213.268 0.291218 217.347 -0.291176 222.154 2.4752L312.764 54.7451C322.961 60.569 331.264 76.4393 331.264 90.1255V331.237C331.264 338.517 328.934 343.613 325.146 345.942C324.855 346.088 311.016 352.64 310.724 352.785C307.374 353.804 312.764 349.728 308.248 347.107Z" fill="url(#paint8_linear)"/>
<path d="M308.248 347.107L217.638 294.837C207.441 289.013 199.137 273.143 199.137 259.457V18.4912C199.137 11.5025 193.456 10.0465 196.952 7.5713C197.098 7.4257 209.189 1.89296 209.335 1.89296C212.977 0.43697 217.055 -0.145424 221.863 2.62095L312.472 54.8908C322.67 60.7148 330.973 76.585 330.973 90.2713V331.383C330.973 338.662 328.642 343.758 324.855 346.088C324.563 346.234 310.87 352.785 310.579 352.785C307.374 353.805 312.764 349.728 308.248 347.107Z" fill="url(#paint9_linear)"/>
<path d="M308.248 347.107L217.638 294.837C207.441 289.013 199.137 273.143 199.137 259.457V18.4912C199.137 11.5025 193.456 10.0465 196.952 7.5713C197.098 7.4257 209.043 2.03855 209.189 1.89296C212.831 0.43697 216.91 -0.145424 221.717 2.62095L312.327 54.8908C322.524 60.7148 330.827 76.585 330.827 90.2713V331.383C330.827 338.662 328.497 343.758 324.709 346.088C324.418 346.234 311.016 352.64 310.724 352.785C307.374 353.805 312.764 349.728 308.248 347.107Z" fill="url(#paint10_linear)"/>
<path d="M308.248 347.107L217.638 294.837C207.441 289.013 199.137 273.143 199.137 259.457V18.4911C199.137 11.5024 193.456 10.0464 196.952 7.57121C197.098 7.42561 208.752 2.03846 208.898 2.03846C212.54 0.582478 216.618 8.40425e-05 221.426 2.76646L312.035 55.0363C322.233 60.8603 330.536 76.7305 330.536 90.4168V331.528C330.536 338.808 328.205 343.904 324.418 346.233C324.126 346.379 310.87 352.64 310.579 352.785C307.374 353.805 312.764 349.728 308.248 347.107Z" fill="url(#paint11_linear)"/>
<path d="M308.248 347.107L217.638 294.837C207.441 289.013 199.137 273.143 199.137 259.457V18.4913C199.137 11.5025 193.456 10.0465 196.952 7.57136C197.098 7.42576 208.606 2.18422 208.752 2.18422C212.394 0.72823 216.473 0.145836 221.28 2.91221L311.744 55.0365C321.941 60.8604 330.245 76.7307 330.245 90.4169V331.528C330.245 338.808 327.914 343.904 324.126 346.234C323.835 346.379 310.87 352.64 310.579 352.64C307.374 353.805 312.764 349.728 308.248 347.107Z" fill="url(#paint12_linear)"/>
<path d="M308.248 347.107L217.638 294.837C207.441 289.013 199.137 273.143 199.137 259.457V18.4913C199.137 11.5025 193.456 10.0465 196.952 7.57136C197.098 7.42576 208.315 2.18422 208.461 2.18422C212.103 0.72823 216.181 0.145836 220.989 2.91221L311.598 55.1821C321.796 61.006 330.099 76.8763 330.099 90.5625V331.674C330.099 338.954 327.768 344.05 323.981 346.379C323.689 346.525 310.87 352.64 310.579 352.785C307.374 353.805 312.764 349.728 308.248 347.107Z" fill="url(#paint13_linear)"/>
<path d="M308.248 347.107L217.638 294.837C207.441 289.013 199.137 273.143 199.137 259.456V18.4909C199.137 11.5022 193.456 10.0462 196.952 7.57103C197.098 7.42543 208.024 2.32948 208.315 2.32948C211.957 0.873494 216.036 0.2911 220.843 3.05747L311.453 55.3273C321.65 61.1513 329.953 77.0215 329.953 90.7078V331.819C329.953 339.099 327.623 344.195 323.835 346.524C323.544 346.67 311.016 352.785 310.724 352.785C307.374 353.804 312.764 349.728 308.248 347.107Z" fill="url(#paint14_linear)"/>
<path d="M308.248 347.107L217.638 294.837C207.441 289.013 199.137 273.143 199.137 259.456V18.4909C199.137 11.5022 193.456 10.0462 196.952 7.57103C197.098 7.42543 207.878 2.47508 208.024 2.32948C211.666 0.873494 215.744 0.2911 220.552 3.05747L311.016 55.3273C321.213 61.1513 329.516 77.0215 329.516 90.7078V331.819C329.516 339.099 327.186 344.195 323.398 346.524C323.107 346.67 310.724 352.64 310.579 352.785C307.374 353.804 312.764 349.728 308.248 347.107Z" fill="url(#paint15_linear)"/>
<path d="M308.248 347.107L217.638 294.837C207.441 289.013 199.137 273.143 199.137 259.457V18.4911C199.137 11.5023 193.456 10.0464 196.952 7.57118C197.098 7.42558 207.587 2.47523 207.732 2.47523C211.374 1.01925 215.453 0.436852 220.26 3.20322L310.87 55.3275C321.067 61.1515 329.371 77.0217 329.371 90.708V331.819C329.371 339.099 327.04 344.195 323.252 346.525C322.961 346.67 310.87 352.64 310.579 352.64C307.374 353.805 312.764 349.728 308.248 347.107Z" fill="url(#paint16_linear)"/>
<path d="M308.248 347.107L217.638 294.837C207.441 289.013 199.137 273.143 199.137 259.457V18.4911C199.137 11.5023 193.456 10.0464 196.952 7.57118C197.098 7.42558 207.441 2.62083 207.587 2.47523C211.228 1.01925 215.307 0.436852 220.115 3.20322L310.724 55.4731C320.922 61.297 329.225 77.1673 329.225 90.8535V331.965C329.225 339.245 326.894 344.341 323.107 346.67C322.815 346.816 310.87 352.64 310.724 352.785C307.374 353.804 312.764 349.728 308.248 347.107Z" fill="url(#paint17_linear)"/>
<path d="M308.248 347.107L217.638 294.837C207.441 289.013 199.137 273.143 199.137 259.457V18.491C199.137 11.5023 193.456 10.0463 196.952 7.57109C197.098 7.42549 207.15 2.62074 207.295 2.62074C210.937 1.16475 215.016 0.582359 219.823 3.34873L310.433 55.6186C320.63 61.4426 328.934 77.3128 328.934 90.9991V331.965C328.934 339.245 326.603 344.341 322.815 346.67C322.524 346.816 310.87 352.494 310.579 352.64C307.374 353.804 312.764 349.728 308.248 347.107Z" fill="url(#paint18_linear)"/>
<path d="M308.248 347.107L217.638 294.837C207.441 289.013 199.137 273.143 199.137 259.457V18.491C199.137 11.5022 193.456 10.0463 196.952 7.57109C197.098 7.42549 207.004 2.76634 207.15 2.62074C210.791 1.16475 214.87 0.582359 219.678 3.34873L310.287 55.6186C320.485 61.4425 328.788 77.3128 328.788 90.999V331.965C328.788 339.245 326.457 344.341 322.67 346.67C322.378 346.816 310.87 352.494 310.724 352.494C307.374 353.804 312.764 349.728 308.248 347.107Z" fill="url(#paint19_linear)"/>
<path d="M308.248 347.107L217.638 294.837C207.441 289.013 199.137 273.143 199.137 259.456V18.4909C199.137 11.5022 193.456 10.0462 196.952 7.571C197.098 7.4254 206.713 2.76625 206.858 2.76625C210.5 1.31026 214.579 0.727867 219.386 3.49424L309.996 55.7641C320.193 61.5881 328.497 77.4583 328.497 91.1446V332.256C328.497 339.536 326.166 344.632 322.378 346.961C322.087 347.107 310.87 352.64 310.579 352.785C307.374 353.804 312.764 349.728 308.248 347.107Z" fill="url(#paint20_linear)"/>
<path d="M308.248 347.107L217.638 294.837C207.441 289.013 199.137 273.143 199.137 259.457V18.491C199.137 11.5023 193.456 10.0463 196.952 7.57115C197.098 7.42555 206.567 2.912 206.713 2.912C210.354 1.45601 214.433 0.873619 219.241 3.63999L309.85 55.9099C320.048 61.7338 328.351 77.604 328.351 91.2903V332.401C328.351 339.681 326.02 344.777 322.233 347.107C321.941 347.253 310.87 352.785 310.724 352.785C307.374 353.804 312.764 349.728 308.248 347.107Z" fill="url(#paint21_linear)"/>
<path d="M308.248 347.107L217.638 294.837C207.441 289.013 199.137 273.143 199.137 259.457V18.491C199.137 11.5023 193.456 10.0463 196.952 7.57115C197.098 7.42555 206.276 3.0576 206.421 2.912C210.063 1.45601 214.142 0.873619 218.949 3.63999L309.559 55.9099C319.756 61.7338 328.06 77.604 328.06 91.2903V332.401C328.06 339.681 325.729 344.777 321.941 347.107C321.65 347.253 310.87 352.64 310.579 352.785C307.374 353.804 312.764 349.728 308.248 347.107Z" fill="url(#paint22_linear)"/>
<path d="M308.248 347.107L217.638 294.837C207.441 289.013 199.137 273.143 199.137 259.457V18.4912C199.137 11.5025 193.456 10.0465 196.952 7.5713C197.098 7.42571 206.13 3.05775 206.276 3.05775C209.917 1.60177 213.996 1.01937 218.804 3.78574L309.413 56.0556C319.61 61.8796 327.914 77.7498 327.914 91.4361V332.547C327.914 339.827 325.583 344.923 321.796 347.253C321.504 347.398 311.016 352.785 310.724 352.785C307.374 353.805 312.764 349.728 308.248 347.107Z" fill="url(#paint23_linear)"/>
<path d="M299.653 351.184L209.043 298.914C198.846 293.09 190.543 277.22 190.543 263.533V22.5678C190.543 8.88155 198.846 2.76641 209.043 8.59035L299.653 60.8602C309.85 66.6842 318.154 82.5544 318.154 96.2407V337.352C318.008 350.893 309.85 357.153 299.653 351.184Z" fill="white"/>
<path d="M306.937 351.621C304.897 351.621 302.712 350.893 300.527 349.582L209.917 297.312C200.303 291.78 192.291 276.637 192.291 263.533V22.5678C192.291 13.8319 195.933 8.15356 201.614 8.15356C203.653 8.15356 205.839 8.88156 208.024 10.1919L298.633 62.4618C308.394 67.9946 316.26 83.1368 316.26 96.2407V337.352C316.26 345.942 312.618 351.621 306.937 351.621Z" fill="url(#paint24_linear)"/>
<path d="M196.661 266.736V26.4987C196.661 16.4524 202.779 11.9389 210.209 16.3068L298.342 67.1207C305.771 71.4887 311.89 82.991 311.89 93.0373V333.129C311.89 343.176 305.771 347.689 298.342 343.321L210.209 292.653C202.779 288.285 196.661 276.637 196.661 266.736Z" fill="#AFB6E5"/>
<path d="M211.229 18.9278C204.091 14.851 198.409 18.0542 198.409 26.2077V269.066C198.409 277.22 204.091 286.975 211.229 291.052L297.322 340.701C304.315 344.777 310.142 341.574 310.142 333.421V90.7079C310.142 82.5544 304.46 72.7993 297.322 68.7225L211.229 18.9278Z" fill="#D4ECFF"/>
<path d="M325 175.301C322.378 176.757 320.339 175.155 320.339 171.806V152.151C320.339 148.656 322.378 144.725 325 143.123C327.623 141.667 329.662 143.269 329.662 146.618V166.274C329.662 169.914 327.623 173.845 325 175.301Z" fill="url(#paint25_linear)"/>
<path d="M264.254 123.613C264.254 123.759 265.565 124.778 267.605 126.088C267.605 125.943 267.605 125.652 267.605 125.506C265.565 124.341 264.254 123.613 264.254 123.613Z" fill="#E6E7E8"/>
<path d="M297.468 135.261C297.468 135.115 297.468 110.364 297.468 98.4246C297.176 96.3862 297.031 95.2215 297.031 95.2215C296.739 86.4855 290.184 82.9912 282.318 87.5047C274.451 92.0183 267.896 102.938 267.604 112.111C267.604 112.256 267.604 117.935 267.604 125.36C275.908 130.165 302.275 145.162 302.275 145.162V145.016C299.362 143.706 297.468 140.357 297.468 135.261Z" fill="#AFB6E5"/>
<g opacity="0.3">
<path opacity="0.047619" d="M242.111 60.1325C230.603 53.435 191.562 61.0061 191.562 74.2556V192.773C191.562 206.022 185.444 249.702 196.952 256.399L248.376 287.266C259.884 293.964 289.019 270.959 289.019 257.855V128.418C289.019 115.169 302.421 93.7658 290.913 87.2139L242.111 60.1325Z" fill="#ABB2E2"/>
<path opacity="0.0952381" d="M239.781 59.9867C228.273 53.2892 190.689 60.7147 190.689 73.9642V192.045C190.689 205.148 185.299 247.518 196.807 254.215L248.084 284.936C259.593 291.634 287.708 269.503 287.708 256.399V127.981C287.708 114.877 299.945 93.62 288.436 87.068L239.781 59.9867Z" fill="#A7ADDF"/>
<path opacity="0.1429" d="M237.596 59.6956C226.087 53.1436 190.106 60.4236 190.106 73.5274V191.025C190.106 204.129 185.444 245.188 196.952 251.74L247.938 282.316C259.447 288.868 286.542 267.756 286.542 254.652V127.544C286.542 114.441 297.614 93.4744 286.251 86.9225L237.596 59.6956Z" fill="#A3A9DC"/>
<path opacity="0.1905" d="M235.411 59.4043C223.902 52.8523 189.377 59.9867 189.377 73.0905V190.152C189.377 203.256 185.59 242.858 196.953 249.556L247.793 280.132C259.301 286.684 285.523 266.445 285.523 253.341V127.108C285.523 114.004 295.574 93.3287 284.066 86.7768L235.411 59.4043Z" fill="#9FA4D8"/>
<path opacity="0.2381" d="M233.225 59.1131C221.717 52.5612 188.649 59.5499 188.649 72.6538V189.278C188.649 202.382 185.59 240.529 197.098 247.227L247.793 277.657C259.301 284.209 284.357 264.844 284.357 251.74V126.671C284.357 113.567 293.243 93.1832 281.735 86.6313L233.225 59.1131Z" fill="#9BA0D5"/>
<path opacity="0.2857" d="M231.04 58.9675C219.532 52.4156 188.066 59.2587 188.066 72.5082V188.696C188.066 201.8 185.735 238.636 197.244 245.188L247.793 275.473C259.301 282.024 283.338 263.533 283.338 250.43V126.234C283.338 113.13 291.058 93.0375 279.696 86.4856L231.04 58.9675Z" fill="#979BD2"/>
<path opacity="0.3333" d="M228.856 58.6762C217.347 52.1242 187.338 58.9674 187.338 72.0712V187.822C187.338 200.926 185.736 236.306 197.244 243.004L247.502 273.288C259.01 279.84 282.172 262.223 282.172 249.119V125.652C282.172 112.548 288.728 92.7462 277.365 86.1943L228.856 58.6762Z" fill="#9397CF"/>
<path opacity="0.381" d="M226.524 58.3854C215.016 51.8335 186.464 58.531 186.464 71.6349V186.949C186.464 200.053 185.735 234.123 197.098 240.675L247.21 270.814C258.718 277.366 280.861 260.767 280.861 247.518V125.215C280.861 112.111 286.397 92.601 274.888 86.0491L226.524 58.3854Z" fill="#8F92CC"/>
<path opacity="0.4286" d="M224.339 58.2395C212.977 51.6876 185.736 58.2395 185.736 71.3434V186.221C185.736 199.325 185.736 231.939 197.098 238.491L247.065 268.484C258.427 275.036 279.696 259.311 279.696 246.207V124.778C279.696 111.674 284.066 92.4552 272.703 85.9033L224.339 58.2395Z" fill="#8B8EC9"/>
<path opacity="0.4762" d="M222.154 57.9484C210.792 51.3964 185.153 57.8028 185.153 70.9067V185.201C185.153 198.305 185.881 229.463 197.39 236.015L247.21 265.863C258.573 272.415 278.822 257.564 278.822 244.46V124.341C278.822 111.237 282.027 92.3096 270.664 85.7577L222.154 57.9484Z" fill="#8789C6"/>
<path opacity="0.5238" d="M219.969 57.6574C208.606 51.1054 184.424 57.5118 184.424 70.6156V184.474C184.424 197.578 186.027 227.425 197.389 233.977L246.919 263.825C258.281 270.377 277.51 256.399 277.51 243.295V123.905C277.51 110.801 279.55 92.1642 268.187 85.6123L219.969 57.6574Z" fill="#8385C2"/>
<path opacity="0.5714" d="M217.784 57.5117C206.421 50.9597 183.696 57.2205 183.696 70.3243V183.746C183.696 196.849 186.027 225.241 197.389 231.793L246.773 261.495C258.136 268.047 276.345 254.943 276.345 241.839V123.468C276.345 110.364 277.365 92.0185 265.857 85.4666L217.784 57.5117Z" fill="#7F80BF"/>
<path opacity="0.619" d="M215.599 57.2204C204.236 50.6685 183.113 56.7836 183.113 69.8875V182.872C183.113 195.976 186.172 222.912 197.535 229.464L246.773 259.02C258.136 265.572 275.325 253.342 275.325 240.238V123.031C275.325 109.927 275.18 91.8729 263.817 85.3209L215.599 57.2204Z" fill="#7B7CBC"/>
<path opacity="0.6667" d="M213.414 56.9291C202.051 50.3772 182.385 56.3467 182.385 69.4506V181.998C182.385 195.102 186.173 220.727 197.535 227.279L246.628 256.836C257.99 263.388 274.16 252.031 274.16 238.927V122.594C274.16 109.49 272.849 91.7272 261.486 85.1752L213.414 56.9291Z" fill="#7777B9"/>
<path opacity="0.7143" d="M211.083 56.6381C199.72 50.0861 181.511 56.0557 181.511 69.014V181.125C181.511 194.229 186.172 218.398 197.535 224.95L246.482 254.361C257.844 260.913 272.994 250.43 272.994 237.326V122.157C272.994 109.054 270.518 91.5817 259.155 85.0298L211.083 56.6381Z" fill="#7373B6"/>
<path opacity="0.7619" d="M208.898 56.4924C197.535 49.9404 180.928 55.7644 180.928 68.7227V180.251C180.928 193.355 186.318 216.068 197.681 222.62L246.336 251.886C257.699 258.438 271.829 248.828 271.829 235.724V121.575C271.829 108.471 268.333 91.2904 256.97 84.7385L208.898 56.4924Z" fill="#6F6EB3"/>
<path opacity="0.8095" d="M206.713 56.2012C195.35 49.6493 180.2 55.3276 180.2 68.4315V179.523C180.2 192.627 186.318 214.03 197.681 220.582L246.191 249.847C257.553 256.399 270.81 247.663 270.81 234.559V121.138C270.81 108.034 266.148 91.1449 254.785 84.593L206.713 56.2012Z" fill="#6B6AB0"/>
<path opacity="0.8571" d="M204.527 55.9099C193.165 49.358 179.471 54.8907 179.471 67.9946V178.649C179.471 191.608 186.318 211.7 197.681 218.252L246.045 247.372C257.407 253.924 269.644 246.062 269.644 232.958V120.701C269.644 107.743 263.817 90.9992 252.455 84.4472L204.527 55.9099Z" fill="#6765AC"/>
<path opacity="0.9048" d="M202.342 55.7644C190.98 49.2125 178.743 54.7452 178.743 67.7035V177.922C178.743 190.88 186.464 209.516 197.827 216.068L246.045 245.043C257.408 251.594 268.624 244.606 268.624 231.502V120.265C268.624 107.306 261.632 90.8537 250.269 84.3017L202.342 55.7644Z" fill="#6361A9"/>
<path opacity="0.9524" d="M200.158 55.4732C188.795 48.9213 178.161 54.3084 178.161 67.2667V177.048C178.161 190.006 186.61 207.332 197.972 213.884L245.899 242.713C257.262 249.265 267.459 243.15 267.459 230.191V119.828C267.459 106.869 259.447 90.708 248.085 84.1561L200.158 55.4732Z" fill="#5F5CA6"/>
<path opacity="0.3" d="M197.827 55.182C186.464 48.6301 177.286 53.8716 177.286 66.8299V176.174C177.286 189.133 186.464 205.003 197.827 211.555L245.608 240.383C256.97 246.935 266.148 241.694 266.148 228.735V119.391C266.148 106.433 256.97 90.5624 245.608 84.0105L197.827 55.182Z" fill="#5B58A3"/>
</g>
<path d="M197.098 32.1773C194.476 29.5565 190.106 29.4109 185.298 32.1773C177.432 36.6908 170.877 47.6107 170.585 56.7834C170.585 56.7834 170.585 61.0058 170.585 62.1706C170.585 63.9178 170.44 214.758 170.44 214.903C170.44 223.348 165.05 233.394 157.912 238.782C170.003 245.77 197.972 261.786 218.658 273.725C218.658 273.725 222.008 276.928 223.611 277.22C223.757 277.22 232.934 281.733 238.324 284.354C238.324 286.829 238.324 288.431 238.324 288.431C238.324 294.255 240.946 297.895 244.734 298.623C245.025 298.623 245.462 298.768 245.753 298.768C246.045 298.768 246.19 298.768 246.482 298.768C246.628 298.768 246.773 298.768 246.919 298.768C248.667 298.623 250.706 298.04 252.746 296.73C254.931 295.419 257.116 293.672 259.01 291.488C261.341 289.304 263.089 286.684 264.254 283.626C266.294 279.549 267.459 275.327 267.459 271.25C267.459 271.104 267.605 269.648 267.605 267.901C267.605 267.028 267.605 152.15 267.605 114.586V114.44C267.605 112.984 267.605 112.111 267.605 112.111C267.896 102.938 274.451 92.0183 282.318 87.5047C285.523 85.6119 288.582 85.1752 290.913 85.7575L197.098 32.1773Z" fill="url(#paint26_linear)"/>
<path d="M239.489 289.45C239.489 286.538 240.218 283.48 241.383 280.423L141.742 223.348L139.556 222.183C138.391 225.241 137.808 228.298 137.808 231.065C137.808 236.015 140.576 239.364 143.053 240.674L243.568 298.477L243.277 298.186C240.8 296.584 239.489 293.672 239.489 289.45Z" fill="url(#paint27_linear)"/>
<path d="M304.897 458.199V448.152H282.172L274.306 443.639C272.557 442.62 269.353 442.765 267.313 443.93L260.029 448.152H237.304V458.49C237.304 459.218 237.596 459.8 238.47 460.383L267.75 477.272C269.498 478.291 272.703 478.146 274.743 476.981L303.004 460.674C304.46 459.946 305.043 459.072 304.897 458.199Z" fill="#2196F3"/>
<path d="M271.246 442.911C269.935 442.911 268.624 443.202 267.459 443.93L260.175 448.152H237.45V458.49C237.45 459.218 237.741 459.8 238.615 460.383L267.896 477.272C268.77 477.709 269.935 478 271.101 478V442.911H271.246Z" fill="#2196F3"/>
<path d="M240.072 448.152H237.45V458.49C237.45 459.218 237.741 459.8 238.615 460.383L239.926 461.111V448.152H240.072Z" fill="#0984C9"/>
<path d="M268.479 477.563C270.081 478.291 272.266 478.146 274.014 477.563V465.77H268.479V477.563Z" fill="#0984C9"/>
<path d="M267.896 466.935L238.615 450.045C236.867 449.026 237.013 447.133 239.052 445.968L267.313 429.661C269.353 428.497 272.557 428.351 274.306 429.37L303.586 446.26C305.334 447.279 305.189 449.172 303.149 450.336L274.888 466.643C272.849 467.808 269.79 467.954 267.896 466.935Z" fill="url(#paint28_linear)"/>
<path d="M303.295 448.298L275.034 464.605C272.994 465.77 269.79 465.915 268.041 464.896L238.761 448.007C238.324 447.716 238.032 447.57 237.887 447.279C237.304 448.298 237.595 449.317 238.761 450.045L268.041 466.935C269.79 467.954 272.994 467.808 275.034 466.643L303.295 450.336C304.897 449.463 305.334 448.152 304.752 447.133C304.314 447.57 303.877 448.007 303.295 448.298Z" fill="white"/>
<path d="M294.117 460.965C294.117 461.693 293.534 462.567 292.952 463.003C292.369 463.44 291.786 463.003 291.786 462.275C291.786 461.547 292.369 460.674 292.952 460.237C293.68 459.946 294.117 460.237 294.117 460.965Z" fill="#D4ECFF"/>
<path d="M298.05 458.781C298.05 459.509 297.468 460.382 296.885 460.819C296.302 461.256 295.719 460.819 295.719 460.091C295.719 459.363 296.302 458.49 296.885 458.053C297.468 457.616 298.05 458.053 298.05 458.781Z" fill="#4E0C82"/>
<path d="M301.838 456.597C301.838 457.325 301.255 458.199 300.673 458.635C300.09 459.072 299.507 458.635 299.507 457.907C299.507 457.179 300.09 456.306 300.673 455.869C301.255 455.432 301.838 455.723 301.838 456.597Z" fill="#D4ECFF"/>
<path d="M269.644 456.451L255.951 448.589C255.077 448.152 255.222 447.279 256.242 446.696L269.498 439.125C270.518 438.543 271.975 438.543 272.849 438.98L286.542 446.842C287.416 447.279 287.271 448.152 286.251 448.735L272.995 456.306C271.975 456.888 270.518 456.888 269.644 456.451Z" fill="#2196F3"/>
<path d="M270.955 449.899L269.062 448.735C268.916 448.735 268.916 448.589 269.062 448.443L270.955 447.424C271.101 447.279 271.247 447.279 271.392 447.424L273.286 448.589C273.432 448.589 273.432 448.735 273.286 448.88L271.392 449.899C271.392 449.899 271.101 449.899 270.955 449.899Z" fill="#D4ECFF"/>
<path d="M255.951 448.589C256.096 448.589 256.096 448.589 256.242 448.444L269.498 440.872C270.518 440.29 271.975 440.29 272.849 440.727L286.542 448.589C287.271 448.007 287.416 447.279 286.542 446.842L272.849 438.98C271.975 438.543 270.518 438.543 269.498 439.125L256.242 446.696C255.222 447.279 255.077 448.007 255.951 448.589Z" fill="#396CAA"/>
<path d="M192.436 449.026C193.165 448.88 193.165 450.773 192.728 451.647C191.417 454.268 187.629 457.034 182.093 458.199C176.558 459.364 165.778 457.908 162.427 457.908C159.077 457.762 153.541 459.509 150.191 459.946C144.218 460.965 140.139 459.218 138.245 457.325C137.517 456.597 137.371 455.432 137.371 454.559C137.371 452.229 137.663 451.792 137.808 451.792L192.436 449.026Z" fill="#2B454E"/>
<path d="M138.537 445.386C138.1 447.57 137.663 451.356 137.954 453.54C138.683 455.287 140.431 456.16 142.033 456.597C145.966 457.762 149.754 457.616 153.978 456.597C156.601 456.015 159.368 455.432 162.428 455.578C165.778 455.724 173.353 456.452 176.704 456.597C179.617 456.597 183.259 456.015 185.881 454.85C188.066 453.831 191.563 451.501 192.291 449.754C193.019 445.677 192.582 443.202 190.251 441.892C187.775 440.436 184.279 440.145 179.326 439.708C177.869 439.562 175.975 439.562 175.247 439.417C172.333 439.125 169.566 438.834 167.235 438.689C165.341 438.543 163.447 438.397 161.699 437.524C160.825 437.087 160.242 436.65 159.805 435.777C159.368 434.757 159.368 433.156 158.494 433.156C158.494 433.156 141.742 436.068 140.431 436.213C138.974 436.359 139.994 438.689 138.537 445.386Z" fill="#375A64"/>
<path d="M176.704 439.417C177.141 439.708 177.723 440.436 177.869 440.873C178.16 441.455 178.452 442.183 178.597 442.765C178.889 443.639 177.723 443.785 177.286 442.765C176.995 442.037 176.704 441.309 176.121 440.436C175.829 439.999 175.101 439.417 174.664 439.417C174.227 439.417 173.79 439.271 173.79 439.271C174.227 438.689 175.975 438.98 176.704 439.417Z" fill="#FAFAFA"/>
<path d="M169.128 438.543C169.711 438.543 170.148 438.689 170.731 438.98C171.313 439.417 171.605 440.145 171.896 440.727C172.042 441.309 172.479 442.62 172.624 443.202C172.624 443.785 171.459 443.785 171.313 443.202C171.168 442.62 170.876 441.455 170.585 440.873C170.439 440.436 169.711 438.98 168.837 438.834H168.4C168.4 438.689 168.691 438.543 168.837 438.397C168.983 438.543 168.983 438.543 169.128 438.543Z" fill="#FAFAFA"/>
<path d="M164.612 438.398C165.049 438.543 165.341 438.543 165.632 438.98C165.924 439.271 166.215 439.854 166.361 440.29C166.652 441.455 166.798 442.037 166.798 443.057C166.798 443.785 165.486 443.639 165.486 443.057C165.341 441.601 165.341 440.581 164.612 439.562C164.03 438.689 163.447 438.398 163.447 438.398C163.447 438.252 163.738 438.252 163.738 438.252C164.03 438.252 164.467 438.252 164.612 438.398Z" fill="#FAFAFA"/>
<path d="M138.682 418.159C138.682 418.159 140.139 433.593 140.43 437.087C140.576 438.252 142.761 438.689 143.781 439.125C144.946 439.562 146.694 440.436 147.569 441.309C150.336 444.076 152.521 444.804 154.27 439.853C154.561 438.834 155.289 438.397 156.6 438.689C157.62 438.834 158.494 439.271 159.514 439.125C159.66 438.98 159.514 438.834 159.514 438.689C158.785 437.524 158.348 436.796 158.494 434.757C158.931 428.497 159.223 422.09 159.66 415.83L138.682 418.159Z" fill="#FFBEA7"/>
<path d="M84.783 406.948C86.8224 403.745 87.4051 397.921 88.8619 386.855L106.926 396.174L99.0591 415.101C98.4764 415.975 98.4764 417.431 98.3307 417.577C96.1456 420.78 84.783 406.948 84.783 406.948Z" fill="#FFBEA7"/>
<path d="M78.6645 413.646C78.6645 413.5 78.6645 411.898 78.6645 411.753C79.1015 410.151 80.1212 409.714 81.4323 408.841C83.0347 407.676 84.6371 406.366 84.9285 405.783C85.3655 405.201 85.5112 404.91 86.0939 404.618C87.2593 404.182 89.0074 404.182 91.3382 405.346C94.98 407.239 96.1454 409.569 95.9998 412.19C95.8541 414.082 95.7084 416.703 97.3108 417.868C98.0392 418.305 99.2046 415.247 99.2046 415.247C100.224 416.994 98.7676 419.469 98.0392 422.964C97.4565 425.439 97.6022 426.458 97.8935 428.933C98.3305 431.991 98.7676 431.991 100.37 432.282C101.827 432.428 105.906 432.137 108.382 433.884C111.733 436.213 110.859 439.416 110.859 439.416C110.422 440.581 106.78 446.405 93.2319 444.221C89.2987 443.639 81.1409 437.378 81.2866 436.796C81.4323 436.213 81.2866 435.631 81.2866 435.048C81.2866 433.738 81.1409 432.282 81.1409 430.972C81.1409 429.661 81.2866 428.205 80.8496 427.041C80.5582 426.021 80.4126 424.857 80.4126 423.837C80.1212 421.071 79.8299 418.305 79.6842 415.538C79.2472 414.665 78.5188 414.519 78.6645 413.646Z" fill="#375A64"/>
<path d="M77.0621 413.063C75.751 414.373 76.4794 418.013 78.3732 422.527C79.1016 424.565 80.704 427.914 80.2669 431.554C79.8299 435.194 79.8299 436.941 80.704 438.688C82.1607 441.309 90.0272 444.804 94.6888 445.823C94.6888 445.823 90.4642 440.436 90.0272 432.428C89.5901 424.42 89.0074 419.178 85.2199 415.684C80.4126 411.316 77.0621 413.063 77.0621 413.063Z" fill="black"/>
<path d="M110.713 439.416C110.713 439.416 107.945 444.512 97.6021 444.367C93.5233 444.367 91.3381 442.328 91.1925 436.068C91.0468 428.497 90.4641 420.925 87.9876 417.14C85.5111 413.354 81.7236 411.607 78.6644 411.898C78.0817 412.044 77.499 412.481 77.062 413.209C77.062 413.209 80.1212 412.19 84.7828 416.121C88.279 419.033 89.153 425.002 89.153 432.428C89.153 435.631 89.0073 439.271 89.8814 441.746C90.7554 443.93 92.6492 445.532 94.8343 446.114C100.516 447.716 108.236 445.095 110.276 442.62C111.296 441.018 110.713 439.416 110.713 439.416Z" fill="#2B454E"/>
<path d="M98.1848 430.826C98.1848 430.826 98.9132 431.409 99.0588 432.137C99.2045 432.865 98.9132 434.466 97.4564 435.34C96.8737 435.776 96.291 435.631 97.3107 434.32C98.1848 433.01 98.1848 430.826 98.1848 430.826Z" fill="#FAFAFA"/>
<path d="M97.6024 426.895C97.6024 426.895 97.8938 427.041 98.0394 428.205C98.0394 428.788 97.1654 430.972 96.1457 431.554C94.9803 432.137 95.7086 430.826 96.1457 430.244C96.5827 429.516 97.4567 427.914 97.6024 426.895Z" fill="#FAFAFA"/>
<path d="M98.0392 422.673C98.0392 422.673 98.3305 422.818 98.0392 424.274C97.8935 424.711 96.4368 426.167 95.7084 426.313C94.98 426.458 94.6887 426.021 95.5627 425.439C96.1454 424.711 97.8935 423.401 98.0392 422.673Z" fill="#FAFAFA"/>
<path d="M104.74 403.454C104.74 403.454 108.091 395.737 119.891 369.238C123.532 361.23 124.407 355.26 125.281 351.329C126.155 347.253 130.233 327.16 130.233 327.16L135.332 360.648C134.604 364.288 133.584 369.675 133.438 373.897C133.438 379.43 134.167 387.875 135.769 399.231C138.1 416.703 138.828 425.73 138.828 425.73C139.994 426.604 143.927 428.351 150.628 427.914C154.853 427.623 159.368 425.439 159.368 425.439C159.368 425.439 160.825 407.385 161.554 394.718C162.136 383.07 163.156 369.966 163.593 362.832C164.467 349.582 164.758 343.904 164.904 323.083C165.05 301.535 163.447 269.794 163.447 269.794L102.264 268.338C102.264 268.338 98.185 277.365 99.4961 295.856C99.0591 314.056 96.2913 348.563 96.2913 348.563C93.6691 354.678 90.9013 363.414 89.8816 374.188C89.0075 382.779 87.5508 394.135 87.5508 394.135C93.9605 393.844 101.099 398.066 104.74 403.454Z" fill="#673AB7"/>
<path opacity="0.2" d="M130.379 327.306L127.029 303.282C127.029 303.282 119.016 302.699 109.548 294.692C109.548 294.692 110.859 301.826 124.406 306.631L127.903 331.528L125.28 351.912C125.28 351.912 130.233 327.742 130.379 327.306Z" fill="black"/>
<path d="M178.015 246.207L180.2 246.498L181.511 248.245C181.511 248.245 180.928 249.41 181.511 250.721C182.239 252.031 183.113 251.594 183.113 251.594L184.133 249.265L184.57 245.916L181.948 243.586L179.326 243.004L178.015 246.207Z" fill="#C76668"/>
<path d="M185.736 245.042C186.027 246.644 186.027 247.081 185.881 247.954C185.59 248.682 185.444 249.556 185.007 250.429C184.716 251.012 183.696 251.012 182.968 249.556C182.385 248.391 183.259 245.77 183.259 245.77L185.736 245.042Z" fill="#FF9A79"/>
<path d="M189.814 241.839C190.106 243.295 190.98 246.207 191.125 247.226C191.271 248.245 189.96 248.245 189.96 248.245L186.755 243.586L189.814 241.839Z" fill="#FF9A79"/>
<path d="M177.723 230.628C179.18 230.046 179.18 230.046 181.074 231.065C183.113 232.084 187.338 234.996 188.795 236.161C190.106 237.326 189.814 239.655 189.814 241.694C189.814 243.732 190.106 245.916 189.814 246.353C189.523 246.935 188.94 246.498 188.94 246.498L177.723 230.628Z" fill="#FFBEA7"/>
<path d="M190.252 248.682L192 254.652C192 254.798 191.854 254.943 191.708 254.798L186.61 251.012L190.252 248.682Z" fill="#FFAAA8"/>
<path d="M191.708 254.943L186.61 251.157L188.504 249.847L188.941 250.429L191.708 254.652V254.943Z" fill="#FF9090"/>
<path d="M191.708 254.943C191.854 255.089 192 254.943 192 254.797L191.708 253.633C191.563 253.924 191.126 254.215 190.834 254.215H190.689L191.708 254.943Z" fill="#1A2E35"/>
<path d="M169.275 226.114L169.566 226.551L170.003 227.134L186.756 251.157C187.484 251.303 188.212 251.157 188.795 250.866C189.669 250.284 190.398 249.41 190.398 248.682L173.645 224.658L172.917 223.494C173.354 224.222 169.712 226.842 169.275 226.114Z" fill="#375A64"/>
<path d="M169.275 226.114L169.566 226.551L170.003 227.134L186.756 251.157C187.63 251.303 188.504 251.157 189.232 250.575L171.897 225.241V225.095C170.731 225.823 169.566 226.406 169.275 226.114Z" fill="#2B454E"/>
<path d="M170.44 227.862L171.168 228.881C171.314 229.172 172.188 228.881 172.916 228.444C173.936 227.862 174.956 226.697 174.665 226.26L174.082 225.532L173.936 225.241C174.228 225.678 173.208 226.697 172.188 227.425C171.46 227.862 170.731 228.153 170.44 227.862Z" fill="#ECECEC"/>
<path d="M170.731 228.153C171.168 228.881 174.81 226.406 174.373 225.678L173.645 224.659C174.082 225.387 170.586 227.862 170.003 227.134L170.731 228.153Z" fill="#2B454E"/>
<path d="M169.275 226.114L170.003 227.134C170.44 227.862 173.936 225.386 173.645 224.658L172.917 223.639C173.354 224.222 169.712 226.842 169.275 226.114Z" fill="#ECECEC"/>
<path d="M167.672 223.931L169.275 226.114C169.42 226.406 170.294 226.114 171.023 225.678C172.042 225.095 173.062 223.93 172.771 223.494L171.168 221.31C170.586 220.436 168.546 221.455 167.818 222.62C167.526 223.057 167.526 223.494 167.672 223.931Z" fill="#FF9090"/>
<path opacity="0.1" d="M169.129 224.076C170.149 223.785 171.168 222.766 171.314 222.038C171.314 221.747 171.314 221.455 171.168 221.31C170.44 220.727 168.692 221.601 167.963 222.766C167.672 223.203 167.526 223.639 167.818 223.931C167.963 224.222 168.546 224.222 169.129 224.076Z" fill="black"/>
<path d="M178.161 238.927C179.617 240.529 181.365 240.82 184.279 241.694C185.153 241.985 186.755 242.858 188.067 243.732C189.232 244.46 189.815 245.916 187.629 246.935C186.173 247.663 184.279 246.79 182.677 246.498C181.802 246.353 180.928 246.207 180.346 246.353C178.015 246.498 177.724 247.226 175.101 247.809C172.479 248.391 170.44 247.809 168.983 247.954C167.526 248.245 134.167 258.146 134.167 258.146L133.875 239.51C133.875 239.51 161.845 237.471 166.215 236.598C169.857 236.015 174.227 232.958 174.227 232.958L178.161 238.927Z" fill="#FFBEA7"/>
<path d="M168.983 235.87C168.109 236.306 167.089 236.598 166.07 236.743C161.554 237.471 133.73 239.655 133.73 239.655L134.021 258.292C134.021 258.292 167.381 248.245 168.837 248.1C169.129 248.1 169.42 248.1 169.711 248.1L168.983 235.87Z" fill="#FF9A79"/>
<path d="M185.59 236.743C184.861 237.471 184.133 237.617 183.55 237.326C182.968 237.034 181.074 235.433 181.074 235.433L185.881 242.422C185.881 242.422 185.59 241.402 186.027 240.529C186.318 240.092 186.61 239.801 187.338 239.655C186.464 239.51 185.736 239.946 185.736 239.946C185.736 239.946 184.57 239.364 184.424 238.054C185.59 237.18 185.59 236.743 185.59 236.743Z" fill="#FF9A79"/>
<path d="M101.827 192.044C97.7479 199.761 98.0392 208.497 99.2046 219.417C100.224 229.463 101.098 235.578 101.972 247.954C102.992 262.077 101.098 270.959 101.098 270.959C101.098 270.959 109.256 282.316 127.028 286.829C158.057 294.691 164.613 284.5 164.613 284.5C164.613 284.5 164.321 273.725 164.321 265.426C164.321 257.855 164.176 248.974 163.884 241.548C163.301 224.513 163.156 210.244 161.116 204.275C159.66 200.926 158.057 199.616 154.415 197.868C151.356 196.412 145.529 193.646 141.159 191.899C130.962 187.968 116.54 184.473 116.54 184.473C109.402 183.454 103.866 187.968 101.827 192.044Z" fill="#FAFAFA"/>
<path d="M143.344 184.473L141.159 191.899C135.915 192.045 123.969 190.006 121.493 187.531L123.824 178.649L143.344 184.473Z" fill="#FFBEA7"/>
<path d="M160.97 163.07C160.97 163.07 163.01 165.254 163.593 171.806L159.659 173.699C159.222 169.185 158.785 164.526 160.97 163.07Z" fill="#FF9A79"/>
<path d="M155.144 144.288C161.553 145.89 164.03 152.442 160.242 165.691C160.679 180.251 155.435 185.056 153.395 186.512C148.88 187.968 144.655 187.531 139.411 185.056C135.332 183.163 124.989 177.921 121.784 170.35C117.851 161.469 118.725 149.093 125.28 145.598C134.312 140.794 151.647 143.414 155.144 144.288Z" fill="#FFBEA7"/>
<path d="M154.561 177.048L154.707 177.193C154.707 177.193 154.707 177.339 154.852 177.339C154.852 177.485 154.998 177.63 154.998 177.63C155.144 177.921 155.289 178.067 155.581 178.213C156.018 178.504 156.455 178.795 156.892 179.086C156.892 179.086 156.892 179.086 156.892 179.232V179.377C156.746 179.523 156.6 179.377 156.455 179.377C156.309 179.377 156.163 179.232 156.018 179.232C155.726 179.086 155.435 178.941 155.289 178.795C154.998 178.649 154.852 178.358 154.707 178.213C154.561 178.067 154.561 177.921 154.415 177.921C154.415 177.921 154.415 177.776 154.27 177.776C154.27 177.63 154.27 177.63 154.27 177.485C154.415 177.193 154.561 177.048 154.561 177.048Z" fill="#FF9A79"/>
<path d="M153.396 186.512C152.23 187.385 146.112 188.113 142.616 187.094L143.344 184.473C143.344 184.473 148.151 186.22 153.396 186.512Z" fill="#FF9A79"/>
<path d="M153.687 153.898C153.687 153.898 153.541 155.645 152.23 156.81C151.065 157.974 149.754 158.557 148.151 158.702C148.734 160.595 148.88 162.634 148.588 164.526C148.443 165.109 148.297 165.837 147.86 166.274C147.132 167.002 146.112 166.856 145.821 165.837C145.383 164.672 145.238 163.653 144.655 162.634C143.927 161.469 142.761 160.45 141.45 160.013C136.352 158.557 134.749 166.71 136.352 169.768C138.974 174.864 142.324 172.534 142.324 172.534C142.324 172.534 142.761 179.814 137.226 181.853C137.226 181.853 128.485 183.163 123.532 179.377C119.599 173.262 115.957 166.419 115.229 160.886C113.626 148.947 117.123 142.104 122.513 141.231C123.969 137.008 128.485 135.115 132.71 134.387C138.391 133.514 143.198 136.135 148.734 137.008C151.502 137.445 154.415 137.299 157.183 136.571C158.349 136.28 159.805 135.843 160.825 136.717C161.116 137.008 161.408 137.591 161.408 138.027C161.699 139.775 161.262 141.522 160.097 142.832C161.699 142.104 164.176 142.978 165.341 144.434C167.089 146.472 167.089 148.365 165.924 150.986C164.904 152.587 160.534 157.392 153.687 153.898Z" fill="#1A2E35"/>
<path d="M122.513 142.541L117.997 138.755C119.016 137.591 120.91 137.445 122.075 138.464C123.387 139.483 123.532 141.231 122.513 142.541Z" fill="#1A2E35"/>
<path d="M211.228 276.783C210.063 275.618 208.898 274.599 208.024 273.725C207.295 272.997 206.13 271.978 204.382 269.94C203.653 269.066 202.779 269.503 201.322 269.066C199.72 268.629 200.303 267.319 199.283 266.882C198.118 266.3 197.826 266.737 196.661 266.154C195.35 265.572 194.621 264.116 193.019 264.698C189.96 265.863 189.086 267.173 185.007 263.388C174.81 253.924 168.546 247.954 168.546 247.954C168.546 247.954 166.652 222.183 165.778 216.214C164.612 208.206 164.904 202.528 154.27 199.033C154.27 199.033 145.82 202.964 146.403 218.252C146.986 231.502 148.588 244.606 149.317 250.866C150.045 256.253 150.919 256.981 157.62 261.641C174.227 273.143 176.703 274.89 178.889 276.2C181.656 277.948 184.57 280.132 187.629 280.277C190.543 280.423 194.621 278.53 196.661 277.511C199.866 275.764 202.488 274.89 203.508 275.036C204.527 275.327 206.421 277.365 208.461 277.802C210.209 278.53 211.811 277.365 211.228 276.783Z" fill="#FFBEA7"/>
<path d="M154.415 197.868C159.223 200.052 161.262 201.217 163.884 205.44C165.632 208.206 165.924 211.264 166.652 218.543C167.235 224.95 168.109 237.18 168.109 237.18C168.109 237.18 167.089 240.092 159.951 242.422C152.813 244.751 147.277 242.276 147.277 242.276C147.277 242.276 145.82 229.463 145.383 224.222C144.509 216.942 144.072 203.256 154.415 197.868Z" fill="#BDAAE8"/>
<path d="M56.2305 44.4074L89.0074 63.3352C89.5901 63.772 90.1728 64.6456 90.1728 66.3928V106.432C90.1728 106.141 89.5901 107.015 89.0074 107.452L84.3458 110.072C83.7631 110.509 82.5977 110.364 82.015 110.072L49.2382 91.1446C48.6555 90.7078 48.0728 89.8342 48.0728 89.1062V49.0666C48.0728 48.3386 48.6555 47.465 49.2382 47.0282L53.8997 44.4074C54.4824 43.9706 55.5022 43.9706 56.2305 44.4074Z" fill="#D268CC"/>
<path d="M82.0149 110.218C82.5976 110.509 83.763 110.655 84.3457 110.218L89.0073 107.597C89.59 107.306 90.1727 106.287 90.1727 106.578V66.3927C90.1727 64.9367 90.027 64.4999 89.7356 64.2087L82.7433 68.2855C82.8889 68.5767 83.0346 69.0135 83.0346 68.4311V108.471C83.1803 110.218 82.7433 110.655 82.0149 110.218Z" fill="#2190DB"/>
<path d="M47.927 48.921C48.0727 48.3386 48.5097 48.0474 49.0924 48.4842L81.8692 67.412C82.1606 67.5576 82.4519 67.8488 82.7433 68.2856L89.7357 64.2088C89.59 63.9176 89.2986 63.6264 88.8616 63.3352L56.0848 44.4074C55.5021 43.9706 54.3367 43.9706 53.754 44.4074L49.0924 47.0282C48.5097 47.3194 48.0727 48.193 47.927 48.921Z" fill="#2196F3"/>
<path d="M93.3775 95.2213C94.1059 94.7845 99.7872 91.5813 99.9328 91.5813C100.516 91.2901 100.661 90.4165 100.224 89.9797L90.3183 78.623L83.3259 82.6998L93.8145 93.7653C94.1059 94.0565 93.8145 94.7845 93.3775 95.2213Z" fill="#D268CC"/>
<path d="M93.3775 95.2213C94.1059 94.7845 99.7872 91.5813 99.9328 91.5813C100.516 91.2901 100.661 90.4165 100.224 89.9797L90.3183 78.623L83.3259 82.6998L93.8145 93.7653C94.1059 94.0565 93.8145 94.7845 93.3775 95.2213Z" fill="#2196F3"/>
<path d="M49.0924 48.3386L81.8692 67.2664C82.4519 67.7032 83.0346 68.5768 83.0346 69.3048V82.2631L93.5232 93.3286C94.2516 94.0566 93.6689 95.0758 92.7948 95.0758L83.1803 94.639V109.49C83.1803 110.218 82.5976 110.509 82.0149 110.218L49.2381 91.2902C48.6554 90.8534 48.0727 89.9798 48.0727 89.2518V49.0666C47.927 48.3386 48.5097 48.0474 49.0924 48.3386Z" fill="white"/>
<path d="M61.7661 81.6806C61.7661 80.9527 61.9117 80.2247 62.2031 79.7879C62.4944 79.2055 62.9315 79.0599 63.3685 79.0599C64.0968 79.0599 64.8252 78.9143 65.4079 78.4775C65.9906 78.0407 66.5733 77.4583 66.8647 76.7303C67.156 75.8567 67.4474 74.8375 67.4474 73.3815C67.4474 72.3623 67.3017 71.4887 67.0103 70.7608C66.719 70.0328 66.282 69.4504 65.6993 69.0136C65.1166 68.5768 64.5339 68.4312 63.9512 68.4312C63.3685 68.4312 62.9315 68.5768 62.4944 68.868C62.0574 69.1592 61.6204 69.596 61.329 70.0328C61.0377 70.4696 60.7463 70.7608 60.3093 70.9064C59.8723 71.052 59.4353 70.9064 59.1439 70.4696C58.7069 69.8872 58.5612 69.3048 58.4155 68.5768C58.4155 67.8488 58.5612 67.1208 58.8526 66.5384C59.4353 65.3736 60.3093 64.5 61.0377 63.9176C61.9117 63.3352 62.7858 62.8984 63.8055 62.8984C65.1166 62.8984 66.282 63.3352 67.3017 64.2088C68.3214 65.0824 69.1955 66.3928 69.7782 67.9944C70.3609 69.596 70.6522 71.3432 70.6522 73.3815C70.6522 74.8375 70.5065 76.2935 70.2152 77.4583C69.9238 78.6231 69.4868 79.6423 69.0498 80.3703C68.4671 81.2439 67.8844 81.8262 67.3017 82.263C66.5733 82.6998 65.8449 83.1366 65.1166 83.2822C65.1166 83.2822 65.1166 83.2822 64.9709 83.4278V83.5734V85.175C64.9709 85.903 64.8252 86.631 64.5339 87.0678C64.2425 87.5046 63.8055 87.7958 63.3685 87.7958C62.9315 87.7958 62.4944 87.5046 62.2031 86.9222C61.9117 86.3398 61.7661 85.7574 61.7661 85.0294V81.6806ZM63.2228 95.6581C62.6401 95.6581 62.3487 95.3669 62.0574 94.9301C61.766 94.4933 61.6204 93.7653 61.6204 92.8917V92.1637C61.6204 91.2902 61.766 90.7078 62.0574 90.271C62.3487 89.8342 62.7858 89.543 63.2228 89.6886H63.5141C64.0968 89.6886 64.3882 89.9798 64.6796 90.4166C64.9709 90.8534 65.1166 91.5813 65.1166 92.4549V93.1829C65.1166 94.0565 64.9709 94.6389 64.6796 95.0757C64.3882 95.5125 63.9512 95.6581 63.5141 95.6581H63.2228Z" fill="#2196F3"/>
<path d="M257.407 126.816L183.696 83.5735C183.696 90.5622 183.696 96.095 183.696 100.463L257.407 142.978V126.816Z" fill="white"/>
<path d="M257.407 140.794L184.716 98.8615C184.716 94.9303 184.716 90.1256 184.716 84.3016L183.696 83.7192C183.696 90.708 183.696 96.2407 183.696 100.609L257.407 143.123V140.794Z" fill="#AFB6E5"/>
<path d="M257.407 171.661L183.696 128.418C183.696 135.407 183.696 140.939 183.696 145.307L257.407 187.822V171.661Z" fill="white"/>
<path d="M252.6 211.555L178.889 168.312C178.889 175.301 178.889 180.833 178.889 185.201L252.6 227.716V211.555Z" fill="#C2B8D8"/>
<path d="M252.6 208.06L178.889 164.818C178.889 171.806 178.889 177.339 178.889 181.707L252.6 224.222V208.06Z" fill="#673AB7"/>
<path d="M257.407 185.493L184.716 143.56C184.716 139.629 184.716 134.824 184.716 129L183.696 128.418C183.696 135.407 183.696 140.939 183.696 145.307L257.407 187.822V185.493Z" fill="#AFB6E5"/>
<path d="M183.696 77.3129C183.696 78.0409 183.696 77.8953 183.696 77.3129V77.3129ZM223.028 96.0951L183.696 73.5273C183.696 75.2745 183.696 76.5849 183.696 77.3129L223.028 99.8807C223.028 100.754 223.028 98.4247 223.028 96.0951ZM236.576 148.802L183.696 118.226C183.696 119.973 183.696 121.284 183.696 122.012L236.576 152.587C236.576 153.461 236.576 151.277 236.576 148.802ZM183.696 122.012C183.696 122.74 183.696 122.74 183.696 122.012V122.012Z" fill="#673AB7"/>
<path d="M91.9282 331.044L55.5095 352.01V310.078L91.9282 288.966V331.044Z" fill="#1E93E2"/>
<path d="M55.5095 310.078L19.0908 288.966L55.5095 268L91.9282 288.966L55.5095 310.078Z" fill="#E5F5FF"/>
<path d="M55.5095 352.01L19.0908 331.044V288.966L55.5095 310.078V352.01Z" fill="#2196F3"/>
<path d="M60.4626 309.204L82.4595 336.722L55.5097 352.01L47.9346 346.914L60.4626 309.204Z" fill="url(#paint29_linear)"/>
<path opacity="0.0272727" d="M61.7737 306.292C53.0332 303.963 45.3124 297.12 38.7571 286.637L38.9027 287.219C37.7373 306.875 26.5204 354.922 32.9301 378.218L33.2214 378.364C48.0803 362.639 57.6948 345.75 61.0453 315.174L62.065 306.438L61.7737 306.292Z" fill="black"/>
<path opacity="0.0545455" d="M60.8995 307.02C52.4504 304.691 45.458 298.285 39.0483 288.093L39.4853 289.112C37.8829 307.312 26.9573 355.505 32.93 376.762L33.2213 376.908C47.6431 361.62 56.9663 345.313 60.3168 315.611L61.1909 307.166L60.8995 307.02Z" fill="black"/>
<path opacity="0.0818182" d="M60.1712 307.894C52.0134 305.564 45.6037 299.595 39.3397 289.694L40.2138 291.296C38.1743 308.04 27.3944 356.233 33.0757 375.597L33.3671 375.743C47.3518 360.892 56.3837 345.022 59.5885 316.193L60.4626 308.04L60.1712 307.894Z" fill="black"/>
<path opacity="0.1091" d="M59.297 308.622C51.4305 306.438 45.7492 300.76 39.6309 291.15L40.7963 293.334C38.3198 308.476 27.8312 356.961 32.9298 374.287L33.2212 374.432C46.7689 360.018 55.5094 344.73 58.5686 316.775L59.4426 308.768L59.297 308.622Z" fill="black"/>
<path opacity="0.1364" d="M58.5686 309.35C50.8479 307.166 46.0406 301.779 40.068 292.606L41.5247 295.227C38.6112 308.913 28.2683 357.543 33.0756 372.831L33.3669 372.976C46.4776 358.999 55.0724 344.148 57.9859 317.067L58.86 309.35H58.5686Z" fill="black"/>
<path opacity="0.1636" d="M57.6946 310.078C50.2652 308.04 46.0406 302.944 40.3593 294.062L42.1074 297.265C38.7569 309.35 28.7053 358.271 33.0756 371.521L33.3669 371.666C46.0406 358.126 54.3441 343.857 57.1119 317.649L57.9859 310.224L57.6946 310.078Z" fill="black"/>
<path opacity="0.1909" d="M56.9662 310.952C49.8281 308.913 46.3319 304.254 40.7963 295.664L42.8357 299.449C39.1938 310.078 29.1423 359.145 33.2212 370.356L33.5125 370.501C45.7492 357.543 53.7613 343.566 56.5291 318.377L57.2575 311.243L56.9662 310.952Z" fill="black"/>
<path opacity="0.2182" d="M56.0922 311.68C49.2455 309.787 46.4777 305.419 41.0877 296.974L43.4185 301.196C39.3396 310.224 29.5794 359.581 33.0756 368.9L33.367 369.045C45.1666 356.524 52.8874 343.129 55.5095 318.668L56.2379 311.68H56.0922Z" fill="black"/>
<path opacity="0.2455" d="M55.3637 312.408C48.6626 310.515 46.6232 306.584 41.5246 298.43L44.1467 303.235C39.6308 310.806 30.0162 360.309 33.2211 367.589L33.5124 367.735C44.8751 355.65 52.3045 342.692 54.9266 319.251L55.655 312.553L55.3637 312.408Z" fill="black"/>
<path opacity="0.2727" d="M54.4899 313.135C48.0802 311.388 46.7692 307.748 41.8162 299.886L44.7297 305.273C39.7768 311.243 30.3079 361.037 33.2214 366.279H33.5128C44.4384 354.631 51.5764 342.11 54.0529 319.542L54.7813 313.135H54.4899Z" fill="black"/>
<path opacity="0.3" d="M53.7613 314.009C47.643 312.262 47.0603 309.059 42.253 301.488L45.4578 307.457C40.0679 311.971 30.8904 361.911 33.2212 365.114H33.5125C44.0011 353.903 50.8478 341.964 53.3243 320.27L54.0526 314.155L53.7613 314.009Z" fill="black"/>
<path d="M12.6812 299.013L15.3033 304.4L27.103 296.683L24.4808 291.296L12.6812 299.013Z" fill="url(#paint30_linear)"/>
<path d="M30.1624 360.455C30.1624 360.455 30.1624 360.31 30.7451 361.329V355.796L28.5599 349.972L31.3277 335.995L29.434 329.006L32.9302 315.028L31.0364 304.254L27.9772 305.71L26.8118 295.664C22.4416 298.285 20.2565 304.545 15.8862 305.273C17.343 335.121 20.5478 343.566 30.1624 360.455Z" fill="url(#paint31_linear)"/>
<path d="M26.666 346.623L28.4141 349.972L30.5992 355.796L28.9968 352.447L26.666 346.623Z" fill="url(#paint32_linear)"/>
<path d="M24.918 292.315L26.6661 295.664L27.6858 305.565L26.0834 302.216L24.918 292.315Z" fill="url(#paint33_linear)"/>
<path d="M29.1426 300.905L30.745 304.254L32.6388 315.028L31.0364 311.68L29.1426 300.905Z" fill="url(#paint34_linear)"/>
<path d="M29.5797 332.646L31.1822 335.995L29.1427 329.006L27.5403 325.657L29.5797 332.646Z" fill="url(#paint35_linear)"/>
<path d="M28.9969 358.126C28.9969 358.126 28.9969 357.98 28.9969 358.126V352.447L26.8118 346.623L29.5796 332.646L27.6858 325.657L31.182 311.68L29.2882 300.905L26.2291 302.361L25.0637 292.315C21.1305 295.809 16.9059 297.993 12.5356 298.721C14.2837 328.715 19.528 341.236 28.9969 358.126Z" fill="#673AB7"/>
<path d="M12.5357 298.576C16.7602 297.848 21.1305 295.664 25.0637 292.315L24.6267 291.296C20.6934 294.79 16.4689 296.974 12.0986 297.702C13.5554 321.58 17.0516 334.393 23.3156 347.206C17.3429 334.684 13.8467 322.017 12.5357 298.576Z" fill="url(#paint36_linear)"/>
<path d="M28.5599 357.106C19.091 340.217 13.8467 327.695 12.0986 297.702C16.4689 296.974 20.6934 294.79 24.6266 291.296L23.6069 281.686C18.654 286.637 12.9727 288.966 7.29135 288.529H7L7.43702 297.411C9.47647 334.247 16.4689 348.37 28.5599 369.337H28.8512L28.5599 357.106Z" fill="url(#paint37_linear)"/>
<path d="M23.4614 281.686L26.0836 287.073L27.1033 296.683L24.4812 291.296L23.4614 281.686Z" fill="url(#paint38_linear)"/>
<path d="M28.7054 369.337H28.414C25.7919 364.969 23.4611 360.746 21.4216 356.67C24.3351 362.93 27.1029 367.881 31.0362 374.578H31.3275L28.7054 369.337Z" fill="url(#paint39_linear)"/>
<path d="M28.5596 356.961L31.1817 362.348V374.724L28.7052 369.482L28.5596 356.961Z" fill="url(#paint40_linear)"/>
<path d="M34.2412 303.235L35.8436 306.438L39.0485 306.584L37.5917 303.38L34.2412 303.235Z" fill="url(#paint41_linear)"/>
<path d="M37.5918 303.38L38.1745 314.591L33.0759 326.239L34.0956 333.956L29.7253 346.041L31.1821 352.738L30.5994 357.98C41.3793 347.351 47.6433 338.324 52.3049 310.369C47.0606 306.147 42.1077 299.74 38.0288 291.587C36.8634 292.169 35.698 292.752 34.5326 293.189L34.3869 303.235L37.5918 303.38Z" fill="#673AB7"/>
<path d="M34.5325 293.189C35.6979 292.752 36.8633 292.315 38.0287 291.587C41.9619 299.595 46.7692 305.856 51.8678 310.078C51.8678 309.932 51.8678 309.787 51.8678 309.641C46.6235 305.419 41.6705 299.013 37.5917 290.859C36.4263 291.441 35.2609 292.024 34.0955 292.461L34.5325 293.189Z" fill="url(#paint42_linear)"/>
<path d="M56.5294 312.262L57.8405 303.963L57.5492 303.817C50.4111 299.886 43.8557 291.733 38.9028 280.23H38.7571C37.3004 281.249 35.698 282.123 34.0955 282.851L33.9499 292.606C35.1153 292.169 36.2807 291.733 37.4461 291.005C41.5249 299.158 46.3322 305.564 51.7222 309.787C47.0606 337.742 40.7966 346.914 30.0166 357.397L28.7056 369.337C42.836 356.233 50.8481 346.769 56.5294 312.262Z" fill="url(#paint43_linear)"/>
<path d="M56.5293 312.262C50.9937 346.769 42.8359 356.233 28.9968 369.337L31.4733 374.433V374.578C45.3124 361.474 53.4702 352.01 59.0058 317.504L60.3169 309.204L57.8404 303.963L56.5293 312.262Z" fill="url(#paint44_linear)"/>
<path d="M312.618 343.904L269.353 297.021C265.274 292.653 260.758 292.653 259.155 296.875L254.931 307.067C253.328 311.29 255.222 318.278 259.301 322.646L302.566 369.384C306.645 373.752 311.161 373.752 312.764 369.529L316.988 359.337C318.445 355.115 316.551 348.126 312.618 343.904ZM290.33 330.509C288.873 329.635 287.708 327.742 287.708 325.995C287.708 324.248 288.873 323.666 290.33 324.539C291.786 325.413 292.952 327.306 292.952 329.053C292.952 330.654 291.786 331.237 290.33 330.509Z" fill="#673AB7"/>
<path d="M312.618 343.904L269.353 297.021C266.585 294.109 263.671 293.09 261.486 294.109C263.526 293.672 266.148 294.692 268.478 297.312L311.744 344.049C315.823 348.417 317.717 355.406 316.114 359.628L311.89 369.82C311.307 371.131 310.578 372.15 309.559 372.587C311.015 372.296 312.181 371.276 312.764 369.529L316.988 359.337C318.445 355.115 316.551 348.126 312.618 343.904Z" fill="#BDAAE8"/>
<path d="M261.778 313.619L265.128 313.474L261.923 308.96L263.38 307.65L266.002 312.746L267.022 308.378L269.061 310.562L267.167 313.911L270.955 315.803L270.809 318.57L267.022 315.658L268.333 320.899L266.293 320.463L265.711 315.367L262.797 316.677L261.778 313.619Z" fill="#BDAAE8"/>
<path d="M271.247 323.957L274.597 323.811L271.392 319.298L272.849 317.987L275.471 323.083L276.491 318.715L278.53 320.899L276.637 324.248L280.424 326.141L280.278 328.907L276.491 325.995L277.802 331.237L275.763 330.8L275.18 325.704L272.266 327.014L271.247 323.957Z" fill="#BDAAE8"/>
<path d="M280.861 334.294L284.212 334.149L281.007 329.635L282.463 328.325L285.086 333.421L286.105 329.053L288.145 331.237L286.251 334.586L290.039 336.478L289.893 339.245L286.105 336.333L287.416 341.574L285.377 341.138L284.794 336.042L281.881 337.352L280.861 334.294Z" fill="#BDAAE8"/>
<path d="M290.33 344.632L293.68 344.486L290.475 339.973L291.932 338.662L294.554 343.758L295.574 339.39L297.614 341.574L295.72 344.923L299.507 346.816L299.362 349.582L295.574 346.67L296.885 351.912L294.846 351.475L294.263 346.379L291.35 347.689L290.33 344.632Z" fill="#BDAAE8"/>
<path d="M299.944 354.824L303.295 354.678L300.09 350.165L301.547 348.854L304.169 353.95L305.189 349.582L307.228 351.766L305.334 355.115L309.122 357.008L308.976 359.774L305.189 356.862L306.5 362.104L304.46 361.667L303.878 356.571L300.964 357.881L299.944 354.824Z" fill="#BDAAE8"/>
<path d="M354.572 428.497C344.375 434.321 344.375 443.784 354.572 449.608C364.77 455.432 381.085 455.432 391.283 449.608C401.48 443.784 401.48 434.321 391.283 428.497C381.085 422.673 364.624 422.673 354.572 428.497Z" fill="#E1E1E1"/>
<path d="M357.632 441.746C349.474 433.301 344.667 413.937 352.679 407.385H393.031C400.897 414.082 396.235 433.447 388.078 441.746C388.078 441.892 387.932 441.892 387.786 442.037C387.641 442.183 387.641 442.183 387.495 442.328C387.204 442.62 387.058 442.765 386.767 443.056L386.621 443.202C386.475 443.348 386.184 443.493 386.038 443.639C385.747 443.93 385.31 444.076 385.019 444.367C378.317 448.298 367.538 448.298 360.837 444.367C360.545 444.221 360.108 443.93 359.817 443.639C359.671 443.493 359.38 443.348 359.234 443.202C359.088 443.202 359.088 443.056 358.943 443.056C358.651 442.911 358.506 442.62 358.214 442.474C358.069 442.328 358.069 442.328 357.923 442.183C357.777 441.892 357.777 441.892 357.632 441.746Z" fill="#2B454E"/>
<path d="M389.535 404.764C398.712 410.151 398.712 418.887 389.535 424.274C380.357 429.661 365.353 429.661 356.175 424.274C346.998 418.887 346.998 410.151 356.175 404.764C365.353 399.377 380.357 399.377 389.535 404.764Z" fill="#375A64"/>
<path d="M385.164 407.385C391.865 411.316 391.865 417.722 385.164 421.654C378.463 425.585 367.392 425.585 360.691 421.654C353.99 417.722 353.99 411.316 360.691 407.385C367.392 403.308 378.317 403.308 385.164 407.385Z" fill="#1A2E35"/>
<path d="M360.691 414.082C367.392 410.151 378.463 410.151 385.164 414.082C387.058 415.247 388.369 416.412 389.243 417.868C388.369 419.178 387.058 420.489 385.164 421.654C378.463 425.585 367.392 425.585 360.691 421.654C358.797 420.489 357.486 419.324 356.612 417.868C357.486 416.412 358.797 415.247 360.691 414.082Z" fill="#FAFAFA"/>
<path d="M421 340.846C421 340.846 370.305 380.449 376.132 422.527L374.238 421.799C368.703 419.47 361.419 346.961 421 340.846Z" fill="#4AD3AF"/>
<path d="M398.712 378.702C398.712 378.702 371.471 399.959 374.676 422.527L373.656 422.09C370.597 420.926 366.809 382.051 398.712 378.702Z" fill="#6AEFCF"/>
<path d="M353.99 327.451C353.99 327.451 387.495 382.342 367.246 419.761H369.14C375.113 419.469 407.452 354.241 353.99 327.451Z" fill="#6AEFCF"/>
<path d="M326.457 340.409C326.457 340.409 377.152 380.012 371.325 422.09L373.219 421.362C378.609 419.033 385.893 346.67 326.457 340.409Z" fill="#6AEFCF"/>
<path d="M362.147 377.683C364.333 377.683 366.518 378.847 368.12 380.158C370.451 382.051 372.199 384.526 373.219 387.292C374.53 390.495 375.258 393.99 375.695 397.338C376.132 400.833 376.424 404.473 376.278 408.113C376.132 412.19 375.55 416.266 373.947 419.906C373.801 420.197 373.51 420.052 373.656 419.761C374.384 416.557 375.113 413.354 375.404 410.006C375.695 406.657 375.55 403.308 375.258 399.959C374.675 393.99 373.51 387.147 369.431 382.487C367.537 380.158 365.061 378.702 362.147 377.683Z" fill="#1A2E35"/>
<path d="M363.458 388.603C367.829 391.66 370.451 396.61 371.908 401.706C372.636 404.764 373.073 407.822 373.073 410.879C373.219 414.082 373.073 417.14 372.49 420.197C372.49 420.343 371.908 420.343 372.053 420.052C372.49 416.849 372.782 414.082 372.49 411.025C372.345 407.967 372.053 405.055 371.325 402.143C370.014 397.047 367.392 392.388 363.458 388.603C363.458 388.748 363.458 388.603 363.458 388.603Z" fill="#1A2E35"/>
<path d="M368.266 398.358C368.266 398.212 368.411 398.358 368.411 398.358C368.411 401.852 368.557 405.346 368.994 408.841C369.14 410.588 369.431 412.189 369.723 413.937C370.014 415.684 370.597 417.431 370.888 419.033C370.888 419.178 370.597 419.615 370.451 419.324C369.14 416.121 368.703 412.481 368.266 409.132C367.974 405.638 367.829 401.998 368.266 398.358Z" fill="#1A2E35"/>
<path d="M374.239 361.958C371.325 364.87 369.286 368.51 367.829 372.441C367.246 374.188 366.663 376.081 366.372 377.974C366.081 379.721 365.644 381.905 365.789 383.652C365.789 383.943 366.226 384.089 366.226 383.798C366.372 382.924 366.372 381.905 366.518 380.886C366.663 379.867 366.809 378.993 366.955 377.974C367.392 375.935 367.829 374.043 368.557 372.15C370.16 368.51 372.053 365.161 374.239 361.958C374.384 361.958 374.384 361.812 374.239 361.958Z" fill="#1A2E35"/>
<path d="M347.58 378.702C347.58 378.702 374.821 399.959 371.616 422.527L372.636 422.09C375.55 420.926 379.483 382.051 347.58 378.702Z" fill="#4AD3AF"/>
<path opacity="0.2" d="M369.431 464.314L356.757 457.325C354.572 456.16 354.863 453.976 357.34 452.52C359.816 451.064 367.974 451.064 370.014 452.375L380.502 458.053C383.707 459.946 380.502 462.567 377.88 464.023C375.404 465.333 371.616 465.479 369.431 464.314Z" fill="#2196F3"/>
<path d="M367.974 450.482C362.001 446.988 357.194 438.834 357.194 431.991C357.194 429.516 357.922 427.477 358.942 426.167C355.737 426.458 353.552 429.079 353.552 433.738C353.552 440.581 358.36 448.88 364.332 452.229C368.12 454.413 371.325 454.122 373.218 451.938C371.762 452.084 370.014 451.647 367.974 450.482Z" fill="#72B5E8"/>
<path d="M367.1 450.919C361.128 447.424 356.32 439.271 356.32 432.428C356.32 425.585 361.128 422.818 367.1 426.313C373.073 429.807 377.88 437.96 377.88 444.804C377.88 451.647 373.073 454.413 367.1 450.919Z" fill="#2196F3"/>
<path d="M378.463 448.298C378.463 447.425 378.317 446.551 378.317 445.677L382.687 445.095C382.25 442.911 381.522 440.727 380.648 438.543L375.695 437.087C374.821 435.194 373.801 433.447 372.636 431.845L373.801 426.895C372.345 425.002 370.742 423.401 368.994 421.945L366.372 425.439C365.643 424.857 364.915 424.42 364.187 423.983C363.458 423.546 362.73 423.255 362.002 422.964L359.379 416.412C357.631 415.975 356.175 415.83 354.572 415.975L355.738 422.382C354.572 422.673 353.552 423.255 352.678 424.129L347.725 419.906C346.851 421.071 346.269 422.527 345.686 424.274L350.056 429.807C349.911 430.535 349.911 431.409 349.911 432.137C349.911 433.01 350.056 433.884 350.056 434.757L345.686 435.34C346.123 437.524 346.851 439.708 347.725 441.892L352.678 443.348C353.552 445.241 354.572 446.988 355.738 448.589L354.572 453.54C356.029 455.432 357.631 457.034 359.379 458.49L362.002 454.996C362.73 455.578 363.458 456.015 364.187 456.452C364.915 456.888 365.643 457.18 366.372 457.471L368.994 464.023C370.742 464.46 372.199 464.605 373.801 464.46L372.636 458.053C373.801 457.762 374.821 457.18 375.695 456.306L380.648 460.528C381.522 459.364 382.105 457.908 382.687 456.16L378.317 450.628C378.463 449.9 378.463 449.172 378.463 448.298ZM364.332 452.229C358.36 448.735 353.552 440.581 353.552 433.738C353.552 426.895 358.36 424.129 364.332 427.623C370.305 431.118 375.112 439.271 375.112 446.114C375.112 452.957 370.305 455.724 364.332 452.229Z" fill="#A8CFF0"/>
<path d="M366.226 420.343L363.604 413.791L359.379 416.121L362.002 422.673L366.226 420.343Z" fill="#72B5E8"/>
<path d="M362.001 422.673C362.73 422.964 363.458 423.255 364.187 423.692C364.915 424.129 365.643 424.565 366.372 425.148L368.994 421.654C368.994 421.654 368.557 421.362 368.266 421.217C367.537 420.78 366.809 420.489 366.08 420.198L362.001 422.673Z" fill="#D1EBFF"/>
<path d="M363.604 413.791C361.856 413.354 360.399 413.209 358.797 413.354L354.572 415.684C356.029 415.538 357.631 415.684 359.38 416.121L363.604 413.791Z" fill="#D1EBFF"/>
<path d="M378.026 424.274C376.569 422.381 374.967 420.78 373.219 419.324L368.994 421.653C370.742 423.109 372.199 424.857 373.801 426.604L378.026 424.274Z" fill="#D1EBFF"/>
<path d="M373.801 426.749L372.636 431.7L376.86 429.37L378.026 424.274L373.801 426.749Z" fill="#72B5E8"/>
<path d="M372.636 431.7C373.801 433.301 374.821 435.194 375.695 436.941L379.919 434.612C379.045 432.719 378.026 430.972 376.86 429.37L372.636 431.7Z" fill="#72B5E8"/>
<path d="M375.695 437.087L380.648 438.543L384.873 436.213L379.92 434.612L375.695 437.087Z" fill="#D1EBFF"/>
<path d="M380.648 438.543C381.522 440.727 382.105 442.911 382.687 445.095L386.912 442.765C386.475 440.581 385.747 438.397 384.873 436.213L380.648 438.543Z" fill="#72B5E8"/>
<path d="M355.883 422.09L355.592 420.197L352.096 417.14L347.871 419.469L352.824 423.692C353.552 422.964 354.718 422.381 355.883 422.09Z" fill="#72B5E8"/>
<path d="M382.687 456.16C382.25 457.907 381.522 459.218 380.648 460.528L384.873 458.199C385.747 457.034 386.329 455.578 386.912 453.831L382.687 456.16Z" fill="#72B5E8"/>
<path d="M382.396 448.298C382.542 447.57 382.542 446.696 382.542 445.968C382.542 445.677 382.542 445.532 382.542 445.24L378.171 445.823C378.317 446.696 378.317 447.57 378.317 448.444C378.317 449.317 378.171 450.045 378.171 450.773L382.396 448.298Z" fill="#72B5E8"/>
<path d="M378.317 450.628L382.687 456.16L386.766 453.831L382.396 448.298L378.317 450.628Z" fill="#D1EBFF"/>
<path d="M375.695 456.306C374.821 457.179 373.801 457.762 372.636 458.053L373.801 464.459L378.026 462.13L377.152 457.616L375.695 456.306Z" fill="#72B5E8"/>
<path d="M350.056 432.573L345.832 435.049L350.202 434.466C350.056 433.738 350.056 433.156 350.056 432.573Z" fill="#D1EBFF"/>
<path d="M362.002 454.85L359.379 458.344L363.604 456.015C363.021 455.578 362.584 455.287 362.002 454.85Z" fill="#72B5E8"/>
<path d="M355.301 422.382C355.155 422.382 354.864 422.527 354.718 422.527C355.009 422.382 355.155 422.382 355.301 422.382Z" fill="white"/>
<path d="M349.619 434.466L345.978 434.903V435.048L349.619 434.612C349.619 434.612 349.619 434.612 349.619 434.466Z" fill="white"/>
<path d="M373.656 427.041L372.49 431.991C373.656 433.593 374.675 435.485 375.549 437.232L380.502 438.688C381.377 440.727 381.959 442.911 382.396 445.095L382.833 444.949C382.396 442.765 381.668 440.581 380.794 438.397L375.841 436.941C374.967 435.049 373.947 433.301 372.782 431.7L373.947 426.749C372.49 424.857 370.888 423.255 369.14 421.799L368.994 422.381C370.742 423.692 372.199 425.293 373.656 427.041Z" fill="white"/>
<path d="M364.478 452.229C358.506 448.735 353.698 440.581 353.698 433.738C353.698 430.681 354.572 428.497 356.175 427.332C354.427 428.497 353.261 430.826 353.261 434.029C353.261 440.872 358.068 449.172 364.041 452.52C367.1 454.268 369.722 454.413 371.762 453.248C371.616 453.248 371.471 453.394 371.325 453.394C369.285 453.976 366.955 453.685 364.478 452.229Z" fill="white"/>
<path d="M373.364 457.762C374.093 457.471 374.675 457.179 375.258 456.597L375.112 456.451C374.675 457.034 374.093 457.471 373.364 457.762Z" fill="white"/>
<path d="M352.533 423.837C352.387 423.837 352.533 423.692 352.679 423.546L347.871 419.469C347.726 419.615 347.58 419.906 347.871 419.906L352.533 423.837Z" fill="white"/>
<path d="M372.49 458.344L373.656 464.459C373.51 464.459 373.801 464.459 374.093 464.459L372.927 458.199C372.636 458.199 372.345 458.199 372.49 458.344Z" fill="white"/>
<path d="M378.609 448.298C378.609 447.57 378.609 446.697 378.463 445.969H378.026C378.172 446.842 378.172 447.716 378.172 448.589C378.172 449.463 378.026 450.191 378.026 450.919L382.396 456.452C381.959 457.908 381.522 459.072 380.794 460.092V460.383C381.668 459.218 382.25 457.762 382.833 456.015L378.463 450.482C378.609 449.9 378.609 449.026 378.609 448.298Z" fill="white"/>
<path d="M359.234 416.266L361.856 422.818C362.585 423.109 363.313 423.401 364.041 423.837C364.77 424.274 365.498 424.711 366.226 425.293L366.372 424.857C365.789 424.42 365.207 423.983 364.478 423.546C363.75 423.109 363.022 422.818 362.293 422.527L359.671 415.975C357.923 415.538 356.466 415.393 354.864 415.538V415.83C356.175 415.83 357.777 415.975 359.234 416.266Z" fill="white"/>
<path d="M361.565 455.141L359.38 458.053C359.525 458.199 359.525 458.199 359.671 458.344L361.856 455.432C361.71 455.287 361.71 455.287 361.565 455.141Z" fill="white"/>
<path d="M367.537 433.593C366.226 432.865 365.207 432.719 364.333 433.301C364.333 433.301 361.856 434.757 361.71 434.903C362.584 434.321 363.75 434.321 365.207 435.049C367.683 436.505 369.868 440.144 369.868 443.056C369.868 444.512 369.285 445.532 368.411 446.114C368.411 446.114 368.557 446.114 368.703 445.968L370.888 444.658C371.616 444.221 372.199 443.202 372.199 441.746C372.199 438.543 370.16 435.049 367.537 433.593Z" fill="#4F9FDB"/>
<path d="M365.352 434.903C362.876 433.447 360.691 434.612 360.691 437.524C360.691 440.436 362.73 443.93 365.352 445.532C367.829 446.988 370.014 445.823 370.014 442.911C369.868 439.999 367.829 436.359 365.352 434.903Z" fill="#A8CFF0"/>
<path d="M365.352 434.903C364.041 434.175 362.876 434.029 362.001 434.612C362.876 434.32 363.895 434.466 364.915 435.048C367.391 436.504 369.577 440.144 369.577 443.056C369.577 444.512 369.14 445.531 368.266 445.968C369.285 445.531 369.868 444.512 369.868 442.911C369.868 439.999 367.829 436.359 365.352 434.903Z" fill="white"/>
</g>
<defs>
<linearGradient id="paint0_linear" x1="157.612" y1="358.113" x2="463.984" y2="358.113" gradientUnits="userSpaceOnUse">
<stop stop-color="#B7BEE9"/>
<stop offset="0.1771" stop-color="#BAC1EB"/>
<stop offset="0.3303" stop-color="#C5CBEF"/>
<stop offset="0.4343" stop-color="#D1D6F5"/>
<stop offset="0.462" stop-color="#DBE0FA"/>
<stop offset="0.5" stop-color="#E5E9FF"/>
<stop offset="0.5251" stop-color="#D1D6F6"/>
<stop offset="0.5606" stop-color="#AFB6E5"/>
<stop offset="1" stop-color="#AFB6E5"/>
</linearGradient>
<linearGradient id="paint1_linear" x1="301.253" y1="220.857" x2="246.927" y2="361.166" gradientUnits="userSpaceOnUse">
<stop stop-color="#AFB6E5"/>
<stop offset="0.1449" stop-color="#B6BCE8"/>
<stop offset="0.3485" stop-color="#C8CDF1"/>
<stop offset="0.5808" stop-color="#E5E9FF"/>
<stop offset="0.8551" stop-color="#F5F6FF"/>
<stop offset="1" stop-color="white"/>
</linearGradient>
<radialGradient id="paint2_radial" cx="0" cy="0" r="1" gradientUnits="userSpaceOnUse" gradientTransform="translate(265.744 331.414) scale(82.4558 82.4127)">
<stop stop-color="white"/>
<stop offset="1"/>
</radialGradient>
<linearGradient id="paint3_linear" x1="209.846" y1="2.23586" x2="322.307" y2="349.579" gradientUnits="userSpaceOnUse">
<stop stop-color="#E0DAEF"/>
<stop offset="0.1919" stop-color="#E1DBF0"/>
<stop offset="0.2828" stop-color="#E2DCF0"/>
<stop offset="0.4091" stop-color="#DFD8EF"/>
<stop offset="0.9091" stop-color="#DFD8EF"/>
<stop offset="1" stop-color="#E0DAEF"/>
</linearGradient>
<linearGradient id="paint4_linear" x1="209.736" y1="2.28202" x2="322.194" y2="349.616" gradientUnits="userSpaceOnUse">
<stop stop-color="#DFD9EF"/>
<stop offset="0.1919" stop-color="#E1DBF1"/>
<stop offset="0.2828" stop-color="#E4DEF1"/>
<stop offset="0.4091" stop-color="#DCD7EE"/>
<stop offset="0.9091" stop-color="#DCD7EE"/>
<stop offset="1" stop-color="#DFD9EF"/>
</linearGradient>
<linearGradient id="paint5_linear" x1="209.626" y1="2.3277" x2="322.081" y2="349.652" gradientUnits="userSpaceOnUse">
<stop stop-color="#DED9F0"/>
<stop offset="0.1919" stop-color="#E2DCF1"/>
<stop offset="0.2828" stop-color="#E5DFF1"/>
<stop offset="0.4091" stop-color="#DAD5EE"/>
<stop offset="0.9091" stop-color="#DAD5EE"/>
<stop offset="1" stop-color="#DED9F0"/>
</linearGradient>
<linearGradient id="paint6_linear" x1="209.516" y1="2.37385" x2="321.968" y2="349.689" gradientUnits="userSpaceOnUse">
<stop stop-color="#DDD8F0"/>
<stop offset="0.1919" stop-color="#E2DDF2"/>
<stop offset="0.2828" stop-color="#E7E1F2"/>
<stop offset="0.4091" stop-color="#D7D3ED"/>
<stop offset="0.9091" stop-color="#D7D3ED"/>
<stop offset="1" stop-color="#DDD8F0"/>
</linearGradient>
<linearGradient id="paint7_linear" x1="209.406" y1="2.42001" x2="321.855" y2="349.726" gradientUnits="userSpaceOnUse">
<stop stop-color="#DCD8F0"/>
<stop offset="0.1919" stop-color="#E2DEF3"/>
<stop offset="0.2828" stop-color="#E8E3F3"/>
<stop offset="0.4091" stop-color="#D5D1ED"/>
<stop offset="0.9091" stop-color="#D5D1ED"/>
<stop offset="1" stop-color="#DCD8F0"/>
</linearGradient>
<linearGradient id="paint8_linear" x1="209.296" y1="2.46603" x2="321.741" y2="349.762" gradientUnits="userSpaceOnUse">
<stop stop-color="#DBD8F0"/>
<stop offset="0.1919" stop-color="#E2DEF4"/>
<stop offset="0.2828" stop-color="#EAE5F4"/>
<stop offset="0.3927" stop-color="#D6D3ED"/>
<stop offset="0.4091" stop-color="#D3D0EC"/>
<stop offset="0.9091" stop-color="#D3D0EC"/>
<stop offset="1" stop-color="#DBD8F0"/>
</linearGradient>
<linearGradient id="paint9_linear" x1="209.186" y1="2.51233" x2="321.628" y2="349.799" gradientUnits="userSpaceOnUse">
<stop stop-color="#DAD7F0"/>
<stop offset="0.1919" stop-color="#E2DFF4"/>
<stop offset="0.2828" stop-color="#EBE6F4"/>
<stop offset="0.3784" stop-color="#D7D5EE"/>
<stop offset="0.4091" stop-color="#D0CEEC"/>
<stop offset="0.9091" stop-color="#D0CEEC"/>
<stop offset="1" stop-color="#DAD7F0"/>
</linearGradient>
<linearGradient id="paint10_linear" x1="209.076" y1="2.55834" x2="321.515" y2="349.836" gradientUnits="userSpaceOnUse">
<stop stop-color="#D9D7F1"/>
<stop offset="0.1919" stop-color="#E3E0F5"/>
<stop offset="0.2828" stop-color="#ECE8F5"/>
<stop offset="0.37" stop-color="#D8D6EE"/>
<stop offset="0.4091" stop-color="#CECCEB"/>
<stop offset="0.9091" stop-color="#CECCEB"/>
<stop offset="0.999" stop-color="#D9D7F1"/>
<stop offset="1" stop-color="#D9D7F1"/>
</linearGradient>
<linearGradient id="paint11_linear" x1="208.966" y1="2.60426" x2="321.402" y2="349.872" gradientUnits="userSpaceOnUse">
<stop stop-color="#D8D7F1"/>
<stop offset="0.1919" stop-color="#E3E0F6"/>
<stop offset="0.277" stop-color="#EDE9F6"/>
<stop offset="0.2828" stop-color="#EEEAF6"/>
<stop offset="0.361" stop-color="#DAD8F0"/>
<stop offset="0.4091" stop-color="#CCCBEB"/>
<stop offset="0.9091" stop-color="#CCCBEB"/>
<stop offset="0.9931" stop-color="#D7D6F0"/>
<stop offset="1" stop-color="#D8D7F1"/>
</linearGradient>
<linearGradient id="paint12_linear" x1="208.856" y1="2.65057" x2="321.289" y2="349.909" gradientUnits="userSpaceOnUse">
<stop stop-color="#D7D6F1"/>
<stop offset="0.1919" stop-color="#E3E1F7"/>
<stop offset="0.2716" stop-color="#EDEAF7"/>
<stop offset="0.2828" stop-color="#EFECF7"/>
<stop offset="0.3538" stop-color="#DBDAF0"/>
<stop offset="0.4091" stop-color="#C9C9EA"/>
<stop offset="0.9091" stop-color="#C9C9EA"/>
<stop offset="0.9836" stop-color="#D4D3EF"/>
<stop offset="1" stop-color="#D7D6F1"/>
</linearGradient>
<linearGradient id="paint13_linear" x1="208.745" y1="2.69658" x2="321.176" y2="349.945" gradientUnits="userSpaceOnUse">
<stop stop-color="#D7D6F1"/>
<stop offset="0.1919" stop-color="#E3E2F7"/>
<stop offset="0.2627" stop-color="#EDEAF7"/>
<stop offset="0.2828" stop-color="#F1EDF7"/>
<stop offset="0.3478" stop-color="#DDDBF1"/>
<stop offset="0.4091" stop-color="#C7C7EA"/>
<stop offset="0.9091" stop-color="#C7C7EA"/>
<stop offset="0.9763" stop-color="#D2D1EF"/>
<stop offset="1" stop-color="#D7D6F1"/>
</linearGradient>
<linearGradient id="paint14_linear" x1="208.635" y1="2.74239" x2="321.062" y2="349.982" gradientUnits="userSpaceOnUse">
<stop stop-color="#D6D5F1"/>
<stop offset="0.1919" stop-color="#E3E3F8"/>
<stop offset="0.2591" stop-color="#EDEBF8"/>
<stop offset="0.2828" stop-color="#F2EFF8"/>
<stop offset="0.3431" stop-color="#DEDDF2"/>
<stop offset="0.4091" stop-color="#C4C5E9"/>
<stop offset="0.9091" stop-color="#C4C5E9"/>
<stop offset="0.9704" stop-color="#CFCFEE"/>
<stop offset="1" stop-color="#D6D5F1"/>
</linearGradient>
<linearGradient id="paint15_linear" x1="208.525" y1="2.7884" x2="320.949" y2="350.018" gradientUnits="userSpaceOnUse">
<stop stop-color="#D5D5F1"/>
<stop offset="0.1919" stop-color="#E3E3F9"/>
<stop offset="0.253" stop-color="#EDEBF9"/>
<stop offset="0.2828" stop-color="#F4F1F9"/>
<stop offset="0.3388" stop-color="#E0DFF3"/>
<stop offset="0.4091" stop-color="#C2C4E9"/>
<stop offset="0.9091" stop-color="#C2C4E9"/>
<stop offset="0.9679" stop-color="#CDCEEE"/>
<stop offset="1" stop-color="#D5D5F1"/>
</linearGradient>
<linearGradient id="paint16_linear" x1="208.415" y1="2.83457" x2="320.836" y2="350.055" gradientUnits="userSpaceOnUse">
<stop stop-color="#D4D5F2"/>
<stop offset="0.1919" stop-color="#E4E4FA"/>
<stop offset="0.253" stop-color="#EEEDFA"/>
<stop offset="0.2828" stop-color="#F5F3FA"/>
<stop offset="0.3361" stop-color="#E1E1F3"/>
<stop offset="0.4091" stop-color="#C0C2E8"/>
<stop offset="0.9091" stop-color="#C0C2E8"/>
<stop offset="0.9656" stop-color="#CBCCED"/>
<stop offset="1" stop-color="#D4D5F2"/>
</linearGradient>
<linearGradient id="paint17_linear" x1="208.305" y1="2.88072" x2="320.723" y2="350.092" gradientUnits="userSpaceOnUse">
<stop stop-color="#D3D4F2"/>
<stop offset="0.1919" stop-color="#E4E5FA"/>
<stop offset="0.2504" stop-color="#EEEDFA"/>
<stop offset="0.2828" stop-color="#F6F4FA"/>
<stop offset="0.3328" stop-color="#E2E2F4"/>
<stop offset="0.4091" stop-color="#BDC0E8"/>
<stop offset="0.9091" stop-color="#BDC0E8"/>
<stop offset="0.9615" stop-color="#C8CAED"/>
<stop offset="1" stop-color="#D3D4F2"/>
</linearGradient>
<linearGradient id="paint18_linear" x1="208.195" y1="2.92665" x2="320.61" y2="350.128" gradientUnits="userSpaceOnUse">
<stop stop-color="#D2D4F2"/>
<stop offset="0.1919" stop-color="#E4E5FB"/>
<stop offset="0.2458" stop-color="#EEEEFB"/>
<stop offset="0.2828" stop-color="#F8F6FB"/>
<stop offset="0.3299" stop-color="#E4E4F5"/>
<stop offset="0.4091" stop-color="#BBBFE7"/>
<stop offset="0.9091" stop-color="#BBBFE7"/>
<stop offset="0.9597" stop-color="#C6C9EC"/>
<stop offset="1" stop-color="#D2D4F2"/>
</linearGradient>
<linearGradient id="paint19_linear" x1="208.085" y1="2.97265" x2="320.497" y2="350.165" gradientUnits="userSpaceOnUse">
<stop stop-color="#D1D4F2"/>
<stop offset="0.1919" stop-color="#E4E6FC"/>
<stop offset="0.2439" stop-color="#EEEFFC"/>
<stop offset="0.2828" stop-color="#F9F8FC"/>
<stop offset="0.328" stop-color="#E5E6F6"/>
<stop offset="0.4091" stop-color="#B9BDE7"/>
<stop offset="0.9091" stop-color="#B9BDE7"/>
<stop offset="0.9581" stop-color="#C4C7EC"/>
<stop offset="1" stop-color="#D1D4F2"/>
</linearGradient>
<linearGradient id="paint20_linear" x1="207.975" y1="3.01872" x2="320.384" y2="350.201" gradientUnits="userSpaceOnUse">
<stop stop-color="#D0D3F2"/>
<stop offset="0.1919" stop-color="#E4E7FD"/>
<stop offset="0.2404" stop-color="#EEEFFD"/>
<stop offset="0.2828" stop-color="#FBFAFD"/>
<stop offset="0.3252" stop-color="#E7E8F6"/>
<stop offset="0.4091" stop-color="#B6BBE6"/>
<stop offset="0.9091" stop-color="#B6BBE6"/>
<stop offset="0.9551" stop-color="#C1C5EB"/>
<stop offset="1" stop-color="#D0D3F2"/>
</linearGradient>
<linearGradient id="paint21_linear" x1="207.865" y1="3.06488" x2="320.27" y2="350.238" gradientUnits="userSpaceOnUse">
<stop stop-color="#CFD3F3"/>
<stop offset="0.1919" stop-color="#E5E8FD"/>
<stop offset="0.2404" stop-color="#EFF0FD"/>
<stop offset="0.2828" stop-color="#FCFBFD"/>
<stop offset="0.3236" stop-color="#E8E9F7"/>
<stop offset="0.4066" stop-color="#B6BBE7"/>
<stop offset="0.4091" stop-color="#B4B9E6"/>
<stop offset="0.9091" stop-color="#B4B9E6"/>
<stop offset="0.9539" stop-color="#BFC3EB"/>
<stop offset="1" stop-color="#CFD3F3"/>
</linearGradient>
<linearGradient id="paint22_linear" x1="207.755" y1="3.11089" x2="320.157" y2="350.275" gradientUnits="userSpaceOnUse">
<stop stop-color="#CED2F3"/>
<stop offset="0.1919" stop-color="#E5E8FE"/>
<stop offset="0.2374" stop-color="#EFF0FE"/>
<stop offset="0.2828" stop-color="#FEFDFE"/>
<stop offset="0.3213" stop-color="#EAEBF8"/>
<stop offset="0.3996" stop-color="#B8BEE7"/>
<stop offset="0.4091" stop-color="#B1B8E5"/>
<stop offset="0.9091" stop-color="#B1B8E5"/>
<stop offset="0.9514" stop-color="#BCC2EA"/>
<stop offset="1" stop-color="#CED2F3"/>
</linearGradient>
<linearGradient id="paint23_linear" x1="207.645" y1="3.15719" x2="320.044" y2="350.312" gradientUnits="userSpaceOnUse">
<stop stop-color="#CDD2F3"/>
<stop offset="0.1919" stop-color="#E5E9FF"/>
<stop offset="0.2361" stop-color="#EFF2FF"/>
<stop offset="0.2828" stop-color="white"/>
<stop offset="0.3201" stop-color="#EBEDF9"/>
<stop offset="0.3957" stop-color="#B9BFE8"/>
<stop offset="0.4091" stop-color="#AFB6E5"/>
<stop offset="0.9091" stop-color="#AFB6E5"/>
<stop offset="0.9503" stop-color="#BAC0EA"/>
<stop offset="1" stop-color="#CDD2F3"/>
</linearGradient>
<linearGradient id="paint24_linear" x1="29.081" y1="271.986" x2="425.999" y2="109.47" gradientUnits="userSpaceOnUse">
<stop stop-color="#AFB6E5"/>
<stop offset="0.1449" stop-color="#B6BCE8"/>
<stop offset="0.3485" stop-color="#C8CDF1"/>
<stop offset="0.5808" stop-color="#E5E9FF"/>
<stop offset="0.8551" stop-color="#F5F6FF"/>
<stop offset="1" stop-color="white"/>
</linearGradient>
<linearGradient id="paint25_linear" x1="344.61" y1="169.771" x2="287.498" y2="139.159" gradientUnits="userSpaceOnUse">
<stop stop-color="#AFB6E5"/>
<stop offset="0.1449" stop-color="#B6BCE8"/>
<stop offset="0.3485" stop-color="#C8CDF1"/>
<stop offset="0.5808" stop-color="#E5E9FF"/>
<stop offset="0.8551" stop-color="#F5F6FF"/>
<stop offset="1" stop-color="white"/>
</linearGradient>
<linearGradient id="paint26_linear" x1="175.834" y1="239.364" x2="270.26" y2="75.7286" gradientUnits="userSpaceOnUse">
<stop stop-color="#CED3F4"/>
<stop offset="0.0127482" stop-color="#D3D8F7"/>
<stop offset="0.0562747" stop-color="#E1E5FD"/>
<stop offset="0.0959596" stop-color="#E5E9FF"/>
<stop offset="0.4484" stop-color="#E8ECFF"/>
<stop offset="0.7192" stop-color="#F2F4FF"/>
<stop offset="0.9242" stop-color="white"/>
<stop offset="1" stop-color="#F5F7FF"/>
</linearGradient>
<linearGradient id="paint27_linear" x1="168.505" y1="299.236" x2="194.707" y2="254.574" gradientUnits="userSpaceOnUse">
<stop stop-color="#CED3F4"/>
<stop offset="0.0221417" stop-color="#D3D8F7"/>
<stop offset="0.0977404" stop-color="#E1E5FD"/>
<stop offset="0.1667" stop-color="#E5E9FF"/>
<stop offset="0.5212" stop-color="#E8ECFF"/>
<stop offset="0.7937" stop-color="#F2F4FF"/>
<stop offset="1" stop-color="white"/>
</linearGradient>
<linearGradient id="paint28_linear" x1="237.453" y1="448.168" x2="304.97" y2="448.168" gradientUnits="userSpaceOnUse">
<stop stop-color="#E9F6FF"/>
<stop offset="1" stop-color="#D4ECFF"/>
</linearGradient>
<linearGradient id="paint29_linear" x1="62.3584" y1="332.548" x2="-9.09159" y2="300.965" gradientUnits="userSpaceOnUse">
<stop stop-color="#231F20" stop-opacity="0"/>
<stop offset="0.9697" stop-color="#231F20"/>
</linearGradient>
<linearGradient id="paint30_linear" x1="-9.94317" y1="275.202" x2="72.9232" y2="266.822" gradientUnits="userSpaceOnUse">
<stop stop-color="#9F79C8"/>
<stop offset="0.1409" stop-color="#A27DCA"/>
<stop offset="0.2725" stop-color="#AC88CF"/>
<stop offset="0.4" stop-color="#BC9BD7"/>
<stop offset="0.5202" stop-color="#D1B4E3"/>
<stop offset="0.6493" stop-color="#DBC4E9"/>
<stop offset="0.8997" stop-color="#F4EDF8"/>
<stop offset="1" stop-color="white"/>
</linearGradient>
<linearGradient id="paint31_linear" x1="13.2393" y1="313.989" x2="36.0146" y2="313.009" gradientUnits="userSpaceOnUse">
<stop stop-color="#703ED1"/>
<stop offset="0.6209" stop-color="#5A78E0"/>
<stop offset="1" stop-color="#4C9DE9"/>
</linearGradient>
<linearGradient id="paint32_linear" x1="27.059" y1="349.759" x2="31.8361" y2="349.554" gradientUnits="userSpaceOnUse">
<stop stop-color="#703ED1"/>
<stop offset="0.6209" stop-color="#5A78E0"/>
<stop offset="1" stop-color="#4C9DE9"/>
</linearGradient>
<linearGradient id="paint33_linear" x1="23.0828" y1="298.188" x2="31.5511" y2="296.205" gradientUnits="userSpaceOnUse">
<stop stop-color="#703ED1"/>
<stop offset="0.6209" stop-color="#5A78E0"/>
<stop offset="1" stop-color="#4C9DE9"/>
</linearGradient>
<linearGradient id="paint34_linear" x1="27.8241" y1="305.862" x2="33.5986" y2="305.134" gradientUnits="userSpaceOnUse">
<stop stop-color="#703ED1"/>
<stop offset="0.6209" stop-color="#5A78E0"/>
<stop offset="1" stop-color="#4C9DE9"/>
</linearGradient>
<linearGradient id="paint35_linear" x1="28.7586" y1="331.553" x2="34.3534" y2="329.067" gradientUnits="userSpaceOnUse">
<stop stop-color="#703ED1"/>
<stop offset="0.6209" stop-color="#5A78E0"/>
<stop offset="1" stop-color="#4C9DE9"/>
</linearGradient>
<linearGradient id="paint36_linear" x1="17.2438" y1="307.38" x2="36.5296" y2="314.694" gradientUnits="userSpaceOnUse">
<stop stop-color="#9F79C8"/>
<stop offset="0.1409" stop-color="#A27DCA"/>
<stop offset="0.2725" stop-color="#AC88CF"/>
<stop offset="0.4" stop-color="#BC9BD7"/>
<stop offset="0.5202" stop-color="#D1B4E3"/>
<stop offset="0.6493" stop-color="#DBC4E9"/>
<stop offset="0.8997" stop-color="#F4EDF8"/>
<stop offset="1" stop-color="white"/>
</linearGradient>
<linearGradient id="paint37_linear" x1="33.236" y1="202.94" x2="-74.5006" y2="282.451" gradientUnits="userSpaceOnUse">
<stop stop-color="#9F79C8"/>
<stop offset="0.1409" stop-color="#A27DCA"/>
<stop offset="0.2725" stop-color="#AC88CF"/>
<stop offset="0.4" stop-color="#BC9BD7"/>
<stop offset="0.5202" stop-color="#D1B4E3"/>
<stop offset="0.6493" stop-color="#DBC4E9"/>
<stop offset="0.8997" stop-color="#F4EDF8"/>
<stop offset="1" stop-color="white"/>
</linearGradient>
<linearGradient id="paint38_linear" x1="24.648" y1="288.658" x2="36.7704" y2="287.432" gradientUnits="userSpaceOnUse">
<stop stop-color="#9F79C8"/>
<stop offset="0.1409" stop-color="#A27DCA"/>
<stop offset="0.2725" stop-color="#AC88CF"/>
<stop offset="0.4" stop-color="#BC9BD7"/>
<stop offset="0.5202" stop-color="#D1B4E3"/>
<stop offset="0.6493" stop-color="#DBC4E9"/>
<stop offset="0.8997" stop-color="#F4EDF8"/>
<stop offset="1" stop-color="white"/>
</linearGradient>
<linearGradient id="paint39_linear" x1="26.1166" y1="363.601" x2="20.866" y2="371.438" gradientUnits="userSpaceOnUse">
<stop stop-color="#9F79C8"/>
<stop offset="0.1409" stop-color="#A27DCA"/>
<stop offset="0.2725" stop-color="#AC88CF"/>
<stop offset="0.4" stop-color="#BC9BD7"/>
<stop offset="0.5202" stop-color="#D1B4E3"/>
<stop offset="0.6493" stop-color="#DBC4E9"/>
<stop offset="0.8997" stop-color="#F4EDF8"/>
<stop offset="1" stop-color="white"/>
</linearGradient>
<linearGradient id="paint40_linear" x1="29.2733" y1="365.125" x2="39.4073" y2="365.698" gradientUnits="userSpaceOnUse">
<stop stop-color="#9F79C8"/>
<stop offset="0.1409" stop-color="#A27DCA"/>
<stop offset="0.2725" stop-color="#AC88CF"/>
<stop offset="0.4" stop-color="#BC9BD7"/>
<stop offset="0.5202" stop-color="#D1B4E3"/>
<stop offset="0.6493" stop-color="#DBC4E9"/>
<stop offset="0.8997" stop-color="#F4EDF8"/>
<stop offset="1" stop-color="white"/>
</linearGradient>
<linearGradient id="paint41_linear" x1="35.3795" y1="304.2" x2="42.6942" y2="303.032" gradientUnits="userSpaceOnUse">
<stop stop-color="#703ED1"/>
<stop offset="0.6209" stop-color="#5A78E0"/>
<stop offset="1" stop-color="#4C9DE9"/>
</linearGradient>
<linearGradient id="paint42_linear" x1="42.9831" y1="302.231" x2="52.6084" y2="293.323" gradientUnits="userSpaceOnUse">
<stop stop-color="#9F79C8"/>
<stop offset="0.1409" stop-color="#A27DCA"/>
<stop offset="0.2725" stop-color="#AC88CF"/>
<stop offset="0.4" stop-color="#BC9BD7"/>
<stop offset="0.5202" stop-color="#D1B4E3"/>
<stop offset="0.6493" stop-color="#DBC4E9"/>
<stop offset="0.8997" stop-color="#F4EDF8"/>
<stop offset="1" stop-color="white"/>
</linearGradient>
<linearGradient id="paint43_linear" x1="56.0519" y1="211.618" x2="-51.6849" y2="291.129" gradientUnits="userSpaceOnUse">
<stop stop-color="#9F79C8"/>
<stop offset="0.1409" stop-color="#A27DCA"/>
<stop offset="0.2725" stop-color="#AC88CF"/>
<stop offset="0.4" stop-color="#BC9BD7"/>
<stop offset="0.5202" stop-color="#D1B4E3"/>
<stop offset="0.6493" stop-color="#DBC4E9"/>
<stop offset="0.8997" stop-color="#F4EDF8"/>
<stop offset="1" stop-color="white"/>
</linearGradient>
<linearGradient id="paint44_linear" x1="54.4396" y1="350.906" x2="66.4334" y2="351.528" gradientUnits="userSpaceOnUse">
<stop stop-color="#9F79C8"/>
<stop offset="0.1409" stop-color="#A27DCA"/>
<stop offset="0.2725" stop-color="#AC88CF"/>
<stop offset="0.4" stop-color="#BC9BD7"/>
<stop offset="0.5202" stop-color="#D1B4E3"/>
<stop offset="0.6493" stop-color="#DBC4E9"/>
<stop offset="0.8997" stop-color="#F4EDF8"/>
<stop offset="1" stop-color="white"/>
</linearGradient>
<clipPath id="clip0">
<rect width="421" height="478" fill="white"/>
</clipPath>
</defs>
</svg>
