<svg xmlns="http://www.w3.org/2000/svg" xmlns:xlink="http://www.w3.org/1999/xlink" width="363" height="579" fill="none" xmlns:v="https://vecta.io/nano"><style><![CDATA[.B{fill:#fff}.C{fill:#2196f3}.D{fill:#72b5e8}.E{fill:#673ab7}.F{fill:#a8cff0}.G{fill:#d1ebff}.H{opacity:.2}.I{fill:#bdaae8}.J{fill:#d268cc}.K{fill:#1a2e35}.L{fill:#d4ecff}.M{fill:#001a46}.N{fill:#ffbea7}.O{fill:#ff9a79}.P{fill:#4f9fdb}.Q{fill:#92b4d1}]]></style><g clipPath="url(#d)"><use xlink:href="#e" class="J"/><use xlink:href="#e" fill="#6aefcf"/><path d="M64.031 389.409c-.637-.148-.956-.444-.796-.889 6.849-33.352-5.734-71.004-21.184-86.568a.86.86 0 0 1 0-1.186c.319-.297.956-.297 1.274 0 15.769 15.861 28.67 54.105 21.662 88.05-.159.445-.478.742-.956.593z" class="B"/><path d="M27.556 420.39c-1.911.889-6.849-3.113-8.123-4.002-2.389-1.631-4.141-3.854-5.416-6.374-1.434-2.965-1.593-5.93-.956-9.043.319-1.63.956-3.112 1.434-4.743l1.752-4.595c.478-1.483 1.115-3.113.956-4.595-.319-3.262-3.186-5.633-5.893-7.709-2.867-2.223-5.893-5.188-5.734-9.042.159-2.964 1.911-5.633 4.141-7.856 2.071-2.224 4.619-4.151 6.531-6.522 1.433-1.779 2.548-3.706 2.389-5.93 0-1.334-.637-2.668-1.115-3.854-1.274-2.52-3.186-4.892-3.982-7.708-.796-2.668-.478-6.078 1.752-7.856 1.911-1.483 4.619-1.631 7.168-1.334 2.23.296 4.46 1.334 6.531 2.519 6.371 3.706 9.716 11.118 16.565 14.083 2.548 1.186 5.575 1.482 8.282 2.371s5.575 2.224 6.69 4.744c2.23 4.892-2.708 10.524-1.274 15.564 1.274 4.596 5.893 6.523 8.282 10.525 1.115 1.779 1.274 3.854.956 5.929-.478 3.41-1.115 5.93-3.186 9.784-1.593 3.113-6.212 9.042-6.212 9.042L27.556 420.39z" fill="#4ad3af"/><g class="K"><path d="M45.554 411.644c-.478 0-.796-.444-.796-.889 3.026-30.091-10.512-64.037-21.025-74.265a.68.68 0 0 1 0-1.038.81.81 0 0 1 1.115 0c10.831 10.377 24.529 44.915 21.503 75.451 0 .445-.319.741-.796.741z"/><path d="M42.369 374.586h-.159c-10.194-3.409-23.096-4.595-23.255-4.595-.478 0-.796-.445-.796-.89s.478-.741.956-.741c.159 0 13.22 1.186 23.733 4.744.478.148.637.593.478 1.037-.319.297-.637.445-.956.445z"/></g><path d="M126.15 95.759l-21.184-10.821c-3.504-1.927-3.026-5.188.956-7.412 4.141-2.224 17.68-2.224 21.184-.297l17.362 8.746c5.415 2.965 0 7.115-4.46 9.191-4.142 2.224-10.354 2.52-13.858.593z" class="C H"/><path d="M123.761 74.265c-9.876-5.336-17.84-18.085-17.84-28.757 0-3.854 1.115-6.967 3.027-8.894-5.416.296-9.079 4.595-9.079 11.71 0 10.525 7.964 23.421 17.839 28.757 6.212 3.261 11.628 2.816 14.813-.593-2.548.296-5.575-.445-8.76-2.224z" class="D"/><path d="M122.327 75.006c-9.875-5.337-17.839-18.084-17.839-28.757 0-10.525 7.964-14.823 17.839-9.487 9.876 5.485 17.84 18.233 17.84 28.757s-7.964 14.823-17.84 9.487z" class="C"/><path d="M141.122 70.856c0-1.334-.159-2.668-.318-4.002l7.168-.889c-.797-3.409-1.912-6.819-3.345-10.228l-8.283-2.372c-1.433-2.816-3.186-5.633-5.097-8.301l1.911-7.708c-2.389-2.816-5.097-5.485-7.964-7.708l-4.141 5.485c-1.115-.889-2.389-1.631-3.663-2.224s-2.39-1.186-3.664-1.631l-4.46-10.08c-2.867-.741-5.415-.889-7.964-.741l1.912 9.783c-1.912.445-3.664 1.334-5.097 2.668l-8.282-6.522c-1.434 1.779-2.548 4.002-3.345 6.67l7.168 8.598c-.159 1.186-.319 2.372-.319 3.706s.159 2.668.319 4.002l-7.168.889c.796 3.409 1.911 6.819 3.345 10.228l8.282 2.372c1.434 2.816 3.185 5.633 5.097 8.153l-1.912 7.708c2.39 2.817 5.097 5.485 7.964 7.708l4.46-5.336c1.115.889 2.389 1.631 3.664 2.224s2.389 1.186 3.663 1.631l4.46 10.08c2.867.741 5.416.889 7.964.741l-2.071-9.783c1.912-.445 3.664-1.334 5.097-2.668l8.283 6.522c1.433-1.779 2.548-4.002 3.345-6.67l-7.168-8.598c0-1.186.159-2.372.159-3.706zm-23.414 6.226c-9.875-5.336-17.839-18.085-17.839-28.757 0-10.525 7.964-14.823 17.839-9.487s17.84 18.085 17.84 28.757-7.964 14.823-17.84 9.487z" class="F"/><path d="M120.735 27.423l-4.46-10.08-6.849 3.706 4.3 10.08 7.009-3.706z" class="D"/><g class="G"><path d="M113.726 31.129c1.115.445 2.389.889 3.664 1.631 1.274.593 2.389 1.482 3.663 2.224l4.46-5.337-1.115-.593-3.664-1.631-7.008 3.706zm2.548-13.786c-2.867-.741-5.415-.889-7.964-.741l-6.849 3.706c2.39-.148 5.097 0 7.964.741l6.849-3.706zm24.052 16.454c-2.389-2.817-5.097-5.485-7.964-7.708l-6.849 3.706c2.867 2.224 5.415 4.892 7.964 7.708l6.849-3.706z"/></g><g class="D"><path d="M133.318 37.503l-1.912 7.708 6.849-3.706 2.071-7.708-7.008 3.706z"/><path d="M131.406 45.211c1.912 2.52 3.664 5.336 5.097 8.301l6.849-3.706c-1.433-2.816-3.185-5.633-5.097-8.301l-6.849 3.706z"/></g><path d="M136.503 53.513l8.283 2.223 6.849-3.706-8.123-2.223-7.009 3.706z" class="G"/><g class="D"><path d="M144.786 55.736c1.434 3.409 2.549 6.819 3.345 10.228l6.849-3.706c-.796-3.409-1.911-6.819-3.345-10.228l-6.849 3.706zM103.373 30.24l-.637-2.816-5.893-4.595-6.849 3.706 8.282 6.522c1.434-1.482 3.186-2.372 5.097-2.816z"/><path d="M147.971 83.159c-.796 2.668-1.911 4.892-3.345 6.67l6.849-3.706c1.434-1.779 2.549-4.002 3.345-6.67l-6.849 3.706zm-.318-12.303l.319-3.706v-1.186l-7.168.889.319 4.002c0 1.334-.16 2.52-.319 3.706l6.849-3.706z"/></g><path d="M140.804 74.562l7.168 8.597 7.008-3.706-7.327-8.598-6.849 3.706z" class="G"/><path d="M136.503 83.307c-1.433 1.334-3.185 2.224-5.097 2.668l1.912 9.783 6.849-3.706-1.434-6.967-2.23-1.779z" class="D"/><path d="M93.816 46.397l-7.008 3.854 7.168-.889c0-.889-.159-1.927-.159-2.965z" class="G"/><path d="M113.726 81.084l-4.46 5.336 7.008-3.706c-.796-.445-1.592-1.038-2.548-1.631z" class="D"/><g class="B"><path d="M102.576 30.684c-.318 0-.637.148-.955.296.318-.148.637-.296.955-.296zM93.179 49.51l-6.053.741v.296l5.893-.741c.159 0 .159-.148.159-.297zm39.82-11.562l-1.912 7.708c1.912 2.52 3.664 5.336 5.097 8.301l8.283 2.372c1.433 3.261 2.389 6.522 3.185 9.784l.797-.148c-.797-3.409-1.912-6.819-3.345-10.228l-8.283-2.372c-1.433-2.816-3.185-5.633-5.097-8.301l1.912-7.708c-2.39-2.816-5.097-5.485-7.964-7.708l-.319.889c2.867 2.223 5.256 4.744 7.646 7.412zm-15.291 38.985c-9.875-5.336-17.839-18.084-17.839-28.757 0-4.595 1.592-8.005 4.141-9.932-3.026 1.779-4.779 5.336-4.779 10.376 0 10.525 7.964 23.421 17.84 28.757 4.938 2.668 9.557 2.965 12.742 1.186-.318 0-.478.148-.796.148-3.026 1.038-7.008.593-11.309-1.779zm14.972 8.746c1.115-.445 2.23-1.038 3.186-1.631l-.319-.296c-.796.741-1.752 1.482-2.867 1.927zM98.117 33.056c-.319 0 0-.148.319-.445l-7.964-6.226c-.159.296-.478.593 0 .593l7.645 6.078zm33.13 53.364l1.911 9.487c-.159 0 .159 0 .637 0l-1.911-9.783c-.478.148-.956.148-.637.296zm10.194-15.564c0-1.186-.16-2.52-.319-3.706h-.796l.318 4.002c0 1.334-.159 2.52-.318 3.706l7.167 8.597a19.97 19.97 0 0 1-2.707 5.781v.593c1.433-1.779 2.548-4.002 3.344-6.671l-7.167-8.598c.318-1.186.478-2.372.478-3.706zm-32.334-49.51l4.46 10.08c1.115.445 2.389.889 3.663 1.631 1.274.593 2.389 1.482 3.663 2.224l.16-.593c-.956-.741-2.071-1.334-3.186-1.927l-3.663-1.631-4.46-10.08c-2.867-.741-5.416-.889-7.964-.741l.159.445c2.071 0 4.778 0 7.168.593zm3.823 60.183l-3.664 4.447.478.445 3.823-4.447a2.18 2.18 0 0 1-.637-.445z"/></g><path d="M122.964 48.028c-2.071-1.186-3.982-1.186-5.415-.593l-4.301 2.372c1.434-1.038 3.504-1.038 5.734.296 4.301 2.224 7.646 7.856 7.646 12.303 0 2.372-.956 3.854-2.39 4.595.16 0 .16-.148.319-.148l3.663-2.075c1.275-.741 2.071-2.372 2.071-4.595.319-4.299-3.026-9.783-7.327-12.155z" class="P"/><path d="M119.142 50.251c-4.301-2.223-7.646-.445-7.646 4.002s3.504 10.08 7.646 12.303c4.3 2.224 7.645.445 7.645-4.002 0-4.595-3.345-10.08-7.645-12.303z" class="F"/><path d="M119.142 50.251c-2.23-1.186-4.142-1.186-5.575-.445 1.274-.445 3.026-.296 4.938.741 4.3 2.223 7.645 7.856 7.645 12.303 0 2.224-.796 3.706-2.23 4.595 1.593-.593 2.708-2.224 2.708-4.743.159-4.743-3.186-10.228-7.486-12.452z" class="B"/><g opacity=".5"><path opacity=".024" d="M211.365 517.779L58.297 436.251c-10.672-5.781-9.397-15.861 3.026-22.531l51.766-27.572c12.424-6.67 31.219-7.411 41.891-1.63l153.069 81.528c10.671 5.781 9.397 15.861-3.027 22.532l-51.766 27.571c-12.424 6.67-31.219 7.412-41.891 1.63z" fill="#a7adda"/><path opacity=".048" d="M211.365 517.335L58.934 436.399c-10.672-5.781-9.397-15.712 3.026-22.383l51.128-27.275c12.265-6.67 30.901-7.263 41.573-1.63l152.272 81.083c10.671 5.782 9.397 15.713-3.027 22.384l-50.969 27.275c-12.424 6.522-30.901 7.263-41.573 1.482z" fill="#9ea5cf"/><path opacity=".071" d="M211.365 516.89L59.889 436.251c-10.513-5.633-9.238-15.564 3.026-22.087l50.173-26.83c12.265-6.522 30.582-7.263 41.254-1.63l151.475 80.639c10.513 5.633 9.239 15.564-3.026 22.086l-50.333 26.831c-12.105 6.67-30.581 7.411-41.094 1.63z" fill="#969cc4"/><path opacity=".095" d="M211.206 516.594L60.527 436.399c-10.512-5.633-9.079-15.416 2.867-21.938l49.695-26.534c12.106-6.522 30.423-7.263 40.776-1.631l150.679 80.195c10.513 5.633 9.079 15.416-2.867 21.938l-49.695 26.386c-11.946 6.67-30.263 7.263-40.776 1.779z" fill="#8e93b9"/><path opacity=".119" d="M211.206 516.149l-149.883-79.75c-10.353-5.632-9.079-15.268 2.867-21.79l48.899-26.089c11.946-6.374 30.104-7.115 40.457-1.631l149.883 79.75c10.353 5.633 9.079 15.268-2.867 21.79l-48.899 26.089c-11.946 6.375-30.104 7.116-40.457 1.631z" fill="#858bae"/><path opacity=".143" d="M211.206 515.704L62.12 436.251c-10.353-5.484-8.92-15.12 2.867-21.494l48.102-25.644c11.787-6.374 29.786-7.115 40.139-1.482l149.086 79.305c10.354 5.484 8.92 15.119-2.867 21.493l-48.102 25.645c-11.946 6.374-29.786 7.115-40.139 1.63z" fill="#7d82a4"/><path opacity=".167" d="M211.206 515.26l-148.29-78.861c-10.194-5.484-8.92-14.971 2.867-21.345l47.466-25.2c11.786-6.374 29.466-6.967 39.66-1.482l148.29 78.86c10.194 5.485 8.92 14.972-2.867 21.346l-47.465 25.199c-11.628 6.226-29.467 6.967-39.661 1.483z" fill="#757999"/><path opacity=".191" d="M211.206 514.815L63.712 436.251c-10.035-5.484-8.76-14.823 2.867-21.197l46.669-24.755c11.628-6.226 29.308-6.967 39.343-1.483l147.493 78.416c10.035 5.485 8.761 14.823-2.867 21.197l-46.669 24.755c-11.627 6.375-29.307 6.967-39.342 1.631z" fill="#6c718e"/><path opacity=".214" d="M211.206 514.37L64.509 436.399c-10.035-5.336-8.76-14.675 2.867-20.901l46.032-24.458c11.468-6.226 28.989-6.819 39.023-1.482l146.698 77.97c10.034 5.337 8.76 14.676-2.868 20.901l-46.032 24.459c-11.627 6.226-28.989 6.819-39.023 1.482z" fill="#646883"/><path opacity=".238" d="M211.206 513.926L65.305 436.251c-9.875-5.336-8.601-14.675 2.708-20.753l45.236-24.013c11.468-6.078 28.67-6.819 38.546-1.483l145.9 77.675c9.876 5.336 8.602 14.675-2.707 20.752l-45.236 24.014c-11.468 6.078-28.67 6.819-38.546 1.483z" fill="#5c5f78"/><path opacity=".262" d="M211.206 513.481l-145.104-77.23c-9.875-5.336-8.601-14.527 2.708-20.604l44.439-23.569c11.309-6.078 28.511-6.671 38.227-1.483l145.104 77.23c9.876 5.336 8.602 14.527-2.707 20.604l-44.44 23.57c-11.308 6.077-28.511 6.818-38.227 1.482z" fill="#53576d"/><path opacity=".286" d="M211.047 513.036L66.739 436.251c-9.716-5.188-8.442-14.378 2.708-20.308l43.803-23.272c11.149-6.078 28.192-6.671 37.908-1.483l144.308 76.785c9.716 5.188 8.442 14.379-2.707 20.308l-43.803 23.273c-11.149 6.077-28.192 6.67-37.908 1.482z" fill="#4b4e62"/><path opacity=".31" d="M211.047 512.591l-143.512-76.34c-9.557-5.188-8.442-14.23 2.708-20.16l43.006-22.828c11.149-5.929 27.874-6.67 37.431-1.482l143.511 76.34c9.557 5.188 8.442 14.231-2.707 20.16l-43.006 22.828c-10.991 6.077-27.715 6.67-37.431 1.482z" fill="#434557"/><path opacity=".333" d="M211.046 512.147L68.331 436.251c-9.557-5.04-8.282-14.082 2.708-20.011l42.209-22.383c10.991-5.93 27.556-6.523 37.113-1.483l142.715 76.044c9.557 5.04 8.282 14.082-2.708 20.011l-42.209 22.384c-10.991 5.781-27.556 6.522-37.113 1.334z" fill="#3a3d4c"/><path opacity=".357" d="M211.047 511.702L69.128 436.251c-9.398-5.04-8.283-13.934 2.708-19.715l41.573-22.087c10.831-5.781 27.396-6.522 36.793-1.482l141.919 75.451c9.398 5.04 8.283 13.934-2.708 19.715L247.84 510.22c-10.99 5.929-27.396 6.522-36.793 1.482z" fill="#323441"/><path opacity=".381" d="M211.047 511.257L69.924 436.251c-9.398-5.04-8.123-13.786 2.548-19.567l40.776-21.642c10.831-5.781 27.077-6.374 36.316-1.334l141.122 75.006c9.398 5.04 8.123 13.786-2.548 19.567l-40.776 21.642c-10.672 5.781-27.078 6.374-36.316 1.334z" fill="#2a2b37"/><path opacity=".405" d="M211.047 510.813L70.721 436.251c-9.238-4.891-8.123-13.637 2.548-19.418l39.98-21.198c10.672-5.781 26.759-6.374 35.997-1.334l140.326 74.562c9.239 4.891 8.124 13.637-2.548 19.418l-39.98 21.198c-10.671 5.781-26.759 6.374-35.997 1.334z" fill="#21232c"/><path opacity=".429" d="M211.047 510.368l-139.53-74.117c-9.079-4.892-7.964-13.489 2.549-19.122l39.342-20.753c10.512-5.633 26.44-6.226 35.679-1.334l139.529 74.117c9.079 4.892 7.964 13.489-2.548 19.122l-39.343 20.753c-10.671 5.633-26.599 6.374-35.678 1.334z" fill="#191a21"/><path opacity=".452" d="M210.888 510.071L72.154 436.399c-9.079-4.891-7.964-13.341 2.548-18.974l38.546-20.456c10.512-5.633 26.281-6.226 35.201-1.334l138.733 73.672c9.079 4.892 7.964 13.341-2.549 18.974l-38.545 20.456c-10.354 5.485-26.123 6.078-35.201 1.334z" fill="#111116"/><path opacity=".476" d="M210.887 509.627L72.95 436.251c-8.92-4.743-7.805-13.193 2.549-18.825l37.749-20.012c10.354-5.485 25.963-6.226 34.883-1.334l137.937 73.375c8.919 4.744 7.804 13.193-2.549 18.826l-37.749 20.012c-10.194 5.484-25.804 6.077-34.883 1.334z" fill="#08090b"/><path opacity=".5" d="M210.887 509.182l-137.14-72.931c-8.92-4.743-7.805-13.044 2.549-18.529l37.113-19.567c10.194-5.484 25.644-6.077 34.563-1.334l137.141 72.931c8.92 4.743 7.805 13.045-2.549 18.529l-37.112 19.567c-10.194 5.485-25.644 6.078-34.564 1.334z" fill="#000"/></g><path d="M296.58 389.261h-2.071c-1.114-1.186-2.548-2.372-4.3-3.409l-142.237-75.599c-9.398-5.04-25.963-4.447-36.954 1.482l-41.89 22.235c-2.867 1.631-5.097 3.409-6.531 5.188h-2.389v88.94c.319 2.965 2.389 5.781 6.371 7.857l142.238 75.599c9.397 5.04 25.962 4.447 36.953-1.483l41.89-22.235c5.257-2.816 8.124-6.225 8.92-9.635h.159v-88.94h-.159z" fill="url(#A)"/><path d="M208.817 423.948L66.579 348.349c-9.398-5.04-8.283-13.934 2.708-19.864l41.891-22.235c10.99-5.929 27.396-6.522 36.953-1.482l142.237 75.599c9.398 5.04 8.283 13.934-2.707 19.863l-41.891 22.235c-10.99 5.93-27.556 6.523-36.953 1.483z" fill="url(#B)"/><path d="M287.501 398.748l-41.89 22.235c-10.991 5.929-27.397 6.522-36.954 1.482L66.42 346.866c-3.823-2.075-5.893-4.743-6.212-7.56-.637 3.706 1.434 7.264 6.212 9.784l142.237 75.599c9.398 5.04 25.963 4.447 36.954-1.483l41.89-22.235c6.531-3.557 9.557-8.152 8.92-12.303-.478 3.706-3.504 7.264-8.92 10.08z" fill="url(#C)"/><g class="H"><path opacity=".048" d="M106.4 329.523l10.512-8.746c.159-.148 12.424-10.376 12.583-10.376 2.867-1.482 6.212-2.372 9.716-2.817 1.434-.148 3.027-.296 4.62-.296 4.3 0 8.601 1.038 11.786 2.668l62.757 32.908 3.185 1.631 66.102 34.538c2.867 1.482 5.097 3.854 6.052 6.226.478 1.186.797 2.372.797 3.706.159 4.447-2.867 8.597-7.964 11.414l-12.424 5.632c-.319.149-22.777 10.229-23.096 10.08-3.982 2.076-9.238 2.965-14.176 2.965-4.3 0-8.601-1.038-11.786-2.816l-52.244-28.609-7.646-4.151-59.889-32.908c-2.867-1.482-5.097-3.854-6.212-6.374-.478-1.186-.637-2.223-.796-3.558 0-4.15 3.027-8.301 8.124-11.117z" fill="#abb2e2"/><path opacity=".095" d="M106.559 329.819l10.353-8.449c.318-.148 12.105-9.931 12.583-9.931 2.867-1.335 6.212-2.224 9.557-2.669 1.433-.148 3.026-.148 4.46-.148 4.141 0 8.601 1.186 11.468 2.817l61.96 32.463 3.185 1.63 65.146 34.094c2.708 1.482 5.097 3.706 6.053 6.078.478 1.185.796 2.371.955 3.557.16 4.299-2.707 8.449-7.804 11.266l-12.265 5.633c-.478.296-22.299 9.931-22.777 9.635-3.663 1.927-9.238 2.668-14.017 2.668-4.141 0-8.601-1.186-11.468-2.816l-51.607-28.313-7.486-4.15-59.093-32.315c-2.708-1.483-5.256-3.854-6.212-6.226-.478-1.038-.796-2.224-.796-3.41-.159-4.447 2.708-8.597 7.805-11.414z" fill="#a7addf"/><path opacity=".143" d="M106.718 330.264l10.353-8.301c.478-.296 11.946-9.635 12.424-9.487 2.867-1.334 6.053-2.075 9.398-2.372 1.274-.148 3.026 0 4.46 0 3.822 0 8.601 1.335 11.308 2.817l61.005 32.018 3.185 1.631 64.19 33.649c2.549 1.334 5.097 3.706 6.053 5.929.478 1.186.796 2.224.956 3.558.318 4.299-2.389 8.301-7.646 11.117l-12.105 5.485c-.796.445-21.981 9.635-22.618 9.19-3.504 1.928-9.238 2.224-13.698 2.224-3.823 0-8.601-1.334-11.309-2.816l-50.651-28.165-7.486-4.002-58.297-31.87c-2.548-1.334-5.256-3.854-6.212-6.078a12.65 12.65 0 0 1-.955-3.261c-.159-4.447 2.548-8.598 7.645-11.266z" fill="#a3a9dc"/><path opacity=".191" d="M106.877 330.561l10.194-8.005c.637-.296 11.628-9.19 12.424-9.19 2.867-1.186 6.053-1.779 9.238-2.224 1.275-.148 3.027 0 4.301 0 3.663 0 8.442 1.482 11.149 2.965l60.208 31.573 3.027 1.631 63.393 33.204c2.39 1.334 5.097 3.706 6.053 5.781.478 1.038.956 2.224.956 3.41.318 4.15-2.23 8.153-7.327 10.969l-11.946 5.485c-1.115.593-21.503 9.19-22.459 8.746-3.345 1.778-9.238 1.778-13.539 1.778-3.663 0-8.441-1.482-11.149-2.964l-50.174-27.424-7.326-4.002-57.501-31.425c-2.389-1.334-5.256-3.854-6.212-5.93a11.15 11.15 0 0 1-.955-3.261c-.159-4.299 2.548-8.301 7.645-11.117z" fill="#9fa4d8"/><path opacity=".238" d="M107.037 331.005l10.194-7.856c.796-.445 11.468-8.746 12.423-8.746 2.867-1.186 6.053-1.63 9.079-1.927 1.115-.148 3.027.148 4.301.148 3.504 0 8.442 1.631 10.831 2.965l59.412 31.129 3.026 1.631 62.438 32.611c2.23 1.186 5.097 3.706 6.052 5.633.478 1.037.956 2.075 1.115 3.261.478 4.002-2.07 8.005-7.167 10.821l-11.628 5.336c-1.274.742-21.025 8.894-22.14 8.302-3.185 1.63-9.238 1.334-13.22 1.334-3.504 0-8.442-1.631-10.99-2.965l-49.536-26.979-7.168-4.002-56.704-30.981c-2.389-1.186-5.256-3.854-6.212-5.781-.478-1.037-.955-2.075-.955-3.113-.797-4.15 1.752-8.153 6.849-10.821z" fill="#9ba0d5"/><path opacity=".286" d="M107.196 331.302l10.194-7.56c.956-.445 11.15-8.45 12.424-8.45 2.867-1.037 5.893-1.482 9.079-1.778 1.115-.149 3.026.148 4.141.148 3.186 0 8.442 1.779 10.672 3.113l58.456 30.684 3.026 1.631 61.482 32.315c2.071 1.185 5.097 3.705 6.053 5.484.478 1.038.956 2.076 1.115 3.261.637 4.003-1.911 7.857-6.849 10.673l-11.468 5.337c-1.593.889-20.547 8.597-21.981 7.856-2.867 1.631-9.398 1.038-13.061 1.038-3.186 0-8.442-1.779-10.672-3.113l-48.899-26.682-7.167-3.854-56.067-30.536c-2.23-1.186-5.256-3.706-6.053-5.633-.478-1.038-.955-1.927-1.115-2.965-.796-4.299 1.593-8.153 6.69-10.969z" fill="#979bd2"/><path opacity=".333" d="M107.355 331.747l10.035-7.412c1.115-.593 10.99-8.005 12.264-8.005 2.867-1.037 5.894-.889 8.92-1.482.956-.148 3.026.296 4.141.296 3.027 0 8.283 1.927 10.513 3.113l57.659 30.24 2.867 1.482 60.686 31.722c1.911 1.038 5.097 3.706 6.053 5.337.478 1.037 1.115 2.075 1.274 3.113.637 3.854-1.752 7.856-6.69 10.524l-11.309 5.188c-1.911 1.038-20.228 8.153-21.821 7.264-2.708 1.482-9.398.593-12.902.593-3.026 0-8.442-1.927-10.512-3.113l-48.103-26.238-7.008-3.854-55.271-30.091c-2.07-1.038-5.256-3.706-6.052-5.485-.478-1.037-.956-1.927-1.115-2.964-1.115-3.558 1.274-7.56 6.371-10.228z" fill="#9397cf"/><path opacity=".381" d="M107.355 332.043l10.034-7.115c1.275-.741 10.832-7.708 12.265-7.56 2.867-.89 5.893-.593 8.76-1.186.956-.148 3.027.445 3.982.445 2.868 0 8.283 2.075 10.354 3.261l56.704 29.795 2.867 1.482 59.73 31.277c1.911 1.038 5.097 3.558 6.052 5.189.478 1.037 1.115 1.927 1.275 2.964.796 3.854-1.593 7.708-6.531 10.377l-11.149 5.188c-2.071 1.186-19.751 7.856-21.663 6.818-2.548 1.335-9.397.149-12.583.149-2.867 0-8.282-2.224-10.353-3.261l-47.466-25.941-6.849-3.706-54.474-29.647c-1.911-1.037-5.256-3.706-6.052-5.336-.478-.89-.956-1.927-1.274-2.817-.797-3.706 1.433-7.708 6.371-10.376z" fill="#8f92cc"/><path opacity=".429" d="M107.514 332.488l9.875-6.967c1.434-.741 10.513-7.264 12.265-7.264 2.867-.889 5.893-.296 8.601-1.037.797-.149 3.027.444 3.982.444 2.549 0 8.283 2.224 10.035 3.261l55.907 29.351 2.867 1.482 58.775 30.833c1.752.889 5.256 3.557 6.052 4.891.638 1.038 1.115 1.927 1.434 2.965.796 3.706-1.274 7.56-6.212 10.228l-10.99 5.04c-2.389 1.334-19.273 7.56-21.344 6.374-2.389 1.334-9.397-.148-12.424-.148-2.548 0-8.282-2.372-10.194-3.261l-46.828-25.348-6.849-3.706-53.678-29.054c-1.752-.889-5.256-3.706-6.052-5.188-.478-.889-1.115-1.779-1.275-2.816-1.115-3.558 1.115-7.412 6.053-10.08z" fill="#8b8ec9"/><path opacity=".476" d="M107.674 332.784l9.875-6.67c1.593-.89 10.353-6.819 12.265-6.819 2.707-.741 5.893-.148 8.601-.741.796-.149 3.026.593 3.822.593 2.39 0 8.124 2.371 9.876 3.409l54.952 28.757 2.867 1.483 57.978 30.388c1.593.889 5.256 3.557 5.893 4.743.637.889 1.274 1.779 1.434 2.816.955 3.558-1.115 7.412-6.053 10.08l-10.831 5.04c-2.708 1.483-18.954 7.115-21.184 5.93-2.23 1.185-9.398-.593-12.106-.593-2.389 0-8.282-2.52-10.034-3.41l-46.192-25.051-6.689-3.706-52.882-28.609c-1.592-.89-5.415-3.706-6.052-4.892-.478-.889-1.115-1.779-1.434-2.668-1.115-3.558.956-7.412 5.894-10.08z" fill="#8789c6"/><path opacity=".524" d="M107.833 333.229l9.716-6.374c1.752-.89 10.034-6.522 12.105-6.374 2.708-.741 5.734.148 8.442-.593.637-.148 3.026.593 3.823.593 2.23 0 8.123 2.52 9.716 3.409l54.155 28.461 2.708 1.482 57.022 29.944c1.434.741 5.257 3.557 5.894 4.595.637.889 1.274 1.779 1.592 2.668 1.115 3.558-.955 7.263-5.893 9.932l-10.672 4.891c-2.867 1.631-18.476 6.819-21.025 5.485-1.911 1.038-9.397-1.038-11.946-1.038-2.23 0-8.282-2.668-9.716-3.409l-45.395-24.607-6.69-3.557-52.084-28.165c-1.434-.741-5.416-3.706-6.053-4.743-.478-.89-1.115-1.631-1.433-2.52-1.115-3.706.796-7.412 5.734-10.08z" fill="#8385c2"/><path opacity=".571" d="M107.992 333.525l9.716-6.225c1.912-1.038 9.876-6.078 12.106-6.078 2.707-.593 5.734.445 8.282-.297.637-.148 3.027.742 3.664.742 1.911 0 8.123 2.668 9.557 3.409l53.199 28.016 2.708 1.482 56.067 29.499c1.274.741 5.415 3.409 5.893 4.447.796.741 1.274 1.631 1.593 2.668 1.115 3.41-.797 7.115-5.575 9.784l-10.513 4.891c-3.185 1.779-17.998 6.523-20.706 4.892-1.752.889-9.397-1.482-11.627-1.482-1.912 0-8.124-2.817-9.557-3.558l-44.758-24.162-6.53-3.558-51.289-27.719c-1.274-.741-5.734-3.558-6.052-4.596-.797-.741-1.275-1.63-1.593-2.519-1.434-3.262.637-6.967 5.415-9.636z" fill="#7f80bf"/><path opacity=".619" d="M108.151 333.97l9.717-5.929c2.07-1.186 9.556-5.781 12.105-5.633 2.708-.445 5.734.593 8.123-.148.637-.149 3.027.889 3.504.889 1.752 0 8.124 2.816 9.239 3.558l52.403 27.571 2.708 1.334 55.111 29.054c1.115.593 5.574 3.409 5.893 4.299.796.741 1.274 1.63 1.752 2.52 1.274 3.409-.637 6.967-5.415 9.635l-10.354 4.743c-3.504 1.927-17.52 6.078-20.547 4.447-1.593.89-9.397-1.778-11.468-1.778-1.752 0-8.123-2.965-9.398-3.558l-44.12-23.717-6.371-3.41-50.652-27.275c-1.115-.593-5.734-3.409-6.052-4.447-.797-.741-1.275-1.63-1.593-2.372-1.274-3.557.637-7.263 5.415-9.783z" fill="#7b7cbc"/><path opacity=".667" d="M108.311 334.266l9.557-5.781c2.229-1.185 9.397-5.336 12.105-5.188 2.708-.444 5.575-.444 7.964.148.478 0 3.026.89 3.504.89 1.593 0 7.964 2.965 9.079 3.557l51.607 27.127 2.548 1.334 54.315 28.609c.956.593 5.575 3.261 5.893 4.151.797.741 1.434 1.63 1.752 2.372 1.434 3.261-.477 6.818-5.097 9.487l-10.193 4.743c-3.664 2.075-17.203 5.781-20.388 4.002-1.434.741-9.398-2.223-11.15-2.223-1.593 0-8.123-3.113-9.238-3.706l-43.484-23.421-6.371-3.409-49.855-26.831c-.955-.592-5.734-3.409-6.052-4.298-.797-.741-1.275-1.483-1.753-2.372-1.433-2.816.478-6.522 5.257-9.191z" fill="#7777b9"/><path opacity=".714" d="M108.311 334.711l9.557-5.484c2.389-1.335 9.079-4.892 12.105-4.892 2.708-.297 5.575-.297 7.964.296.478 0 3.026 1.038 3.345 1.038 1.274 0 7.964 3.113 8.92 3.706l50.651 26.682 2.548 1.334 53.359 28.164c.797.445 5.575 3.261 5.894 4.003.796.741 1.433 1.482 1.752 2.371 1.433 3.113-.319 6.819-4.938 9.339l-10.035 4.595c-3.982 2.224-16.724 5.485-20.228 3.558-1.115.593-9.398-2.668-10.991-2.668-1.274 0-8.123-3.261-8.919-3.706l-42.687-22.976-6.212-3.261-49.059-26.386c-.796-.445-5.734-3.409-6.052-4.151-.797-.741-1.434-1.482-1.752-2.223-1.593-3.113.159-6.819 4.778-9.339z" fill="#7373b6"/><path opacity=".762" d="M108.47 335.008l9.397-5.337c2.549-1.334 8.92-4.595 11.946-4.447 2.708-.296 5.416-.148 7.805.593.319 0 2.867 1.038 3.345 1.038 1.115 0 7.964 3.261 8.761 3.706l49.854 26.237 2.549 1.334 52.403 27.72c.637.444 5.575 3.261 5.893 3.854.797.741 1.434 1.482 1.912 2.223 1.593 3.113 0 6.671-4.779 9.191l-9.875 4.595c-4.301 2.224-16.247 5.04-19.91 3.113-.956.593-9.398-2.965-10.672-2.965-1.115 0-7.964-3.409-8.76-3.854l-42.21-22.531-6.052-3.261-48.262-25.793c-.797-.445-5.894-3.409-6.053-4.002-.796-.593-1.433-1.334-1.752-2.076-1.752-3.113-.159-6.818 4.46-9.338z" fill="#6f6eb3"/><path opacity=".81" d="M108.629 335.452l9.398-5.04c2.707-1.482 8.76-4.15 11.946-4.002 2.707-.148 5.415 0 7.645.889.319 0 2.867 1.186 3.186 1.186.796 0 7.804 3.41 8.442 3.854l48.899 25.793 2.389 1.334 51.607 27.275c.637.297 5.734 3.261 5.893 3.706.956.593 1.593 1.334 1.911 2.224 1.753 2.964.16 6.522-4.459 9.042l-9.716 4.447c-4.46 2.372-15.769 4.743-19.751 2.668-.797.445-9.398-3.409-10.513-3.409-.796 0-7.964-3.558-8.601-3.854l-41.413-22.087-6.052-3.261-47.466-25.348c-.637-.297-5.893-3.262-6.053-3.854-.796-.593-1.433-1.335-1.911-2.076-1.593-3.409 0-6.967 4.619-9.487z" fill="#6b6ab0"/><path opacity=".857" d="M108.788 335.749l9.398-4.892c2.867-1.482 8.442-3.854 11.946-3.706 2.708-.148 5.416.297 7.486 1.038.159 0 2.867 1.334 3.186 1.334.637 0 7.805 3.558 8.282 3.854l48.103 25.348 2.389 1.334 50.492 26.83c.478.297 5.734 3.113 5.893 3.558.956.593 1.593 1.334 2.071 2.075 1.752 2.817.319 6.374-4.3 8.894l-9.557 4.447c-4.779 2.52-15.45 4.447-19.592 2.076-.637.296-9.557-3.854-10.194-3.854s-7.964-3.706-8.442-4.003l-40.775-21.642-5.894-3.113-46.669-24.903c-.478-.296-5.893-3.261-6.053-3.706-.796-.593-1.433-1.186-1.911-1.927-1.911-2.965-.478-6.522 4.141-9.042z" fill="#6765ac"/><path opacity=".905" d="M108.948 336.194l9.238-4.596c3.026-1.63 8.282-3.409 11.946-3.261 2.708 0 5.256.445 7.327 1.334.159 0 2.867 1.334 3.026 1.334.478 0 7.805 3.706 8.123 4.003l47.147 24.903 2.39 1.186 49.695 26.237c.319.148 5.734 3.113 5.894 3.41.955.592 1.592 1.185 2.07 1.927 1.912 2.816.478 6.225-4.141 8.745l-9.398 4.299c-5.097 2.668-14.972 4.002-19.273 1.631-.318.148-9.556-4.299-10.034-4.299s-7.964-3.854-8.283-4.002l-39.979-21.346-5.734-3.113-45.873-24.31c-.319-.148-5.893-3.261-6.053-3.558-.955-.593-1.593-1.186-2.07-1.927-2.071-2.668-.638-6.077 3.982-8.597z" fill="#6361a9"/><path opacity=".952" d="M109.107 336.49l9.238-4.447c3.186-1.779 7.964-2.965 11.787-2.816 2.708 0 5.256.593 7.327 1.482 0 0 2.867 1.482 3.026 1.482s7.805 3.854 7.805 4.003l46.351 24.458 2.389 1.186 48.899 25.793c.159.148 5.734 3.112 5.893 3.261.956.593 1.752 1.186 2.23 1.927 2.071 2.668.637 6.077-3.822 8.597l-9.239 4.299c-5.415 2.816-14.494 3.706-19.113 1.186-.16.148-9.557-4.595-9.716-4.595s-7.805-4.003-7.964-4.003l-39.343-20.901-5.734-2.964-45.235-24.014c-.16-.148-6.053-3.261-6.053-3.409-.956-.593-1.593-1.186-2.071-1.779-2.548-2.817-1.274-6.226 3.345-8.746z" fill="#5f5ca6"/><path d="M219.966 406.456l-56.067-29.646-56.066-29.647c-4.779-2.668-4.301-7.115 1.433-10.228l9.079-4.151c5.575-2.964 14.017-3.409 18.955-.741l56.066 29.647 56.067 29.646c4.778 2.669 4.301 7.116-1.434 10.228l-9.079 4.151c-5.734 2.965-14.175 3.409-18.954.741z" fill="#5b58a3" class="H"/></g><path d="M224.745 399.637l-99.073-53.216c-11.149-5.929-20.228-22.086-20.228-36.02V65.074c0-7.115-6.212-8.597-2.39-11.117.16-.148 15.132-6.374 15.291-6.374 3.982-1.482 8.442-2.075 13.698.741l99.073 53.216c11.15 5.929 20.228 22.087 20.228 36.02v245.475c0 7.412-2.548 12.6-6.689 14.972-.319.148-17.043 7.411-17.203 7.411-3.663 1.038 2.23-3.113-2.707-5.781z" fill="#e1daef"/><path d="M224.745 399.637l-99.073-53.216c-11.149-5.929-20.228-22.086-20.228-36.02V65.074c0-7.115-6.212-8.597-2.39-11.117.16-.148 14.813-6.226 14.973-6.374 3.982-1.482 8.442-2.075 13.698.741l99.072 53.216c11.15 5.929 20.229 22.087 20.229 36.02v245.475c0 7.412-2.549 12.6-6.69 14.972-.318.148-16.724 7.263-17.043 7.411-3.504 1.038 2.389-3.113-2.548-5.781z" fill="url(#D)"/><path d="M224.745 399.638l-99.073-53.216c-11.149-5.929-20.228-22.086-20.228-36.02V65.075c0-7.115-6.212-8.597-2.39-11.117.16-.148 14.654-6.226 14.813-6.226 3.982-1.482 8.442-2.075 13.699.741l99.072 53.216c11.15 5.929 20.229 22.087 20.229 36.021v245.474c0 7.412-2.549 12.6-6.69 14.972-.319.148-16.565 7.115-16.725 7.263-3.663 1.038 2.23-3.113-2.707-5.781z" fill="url(#E)"/><path d="M224.745 399.637l-99.073-53.216c-11.149-5.929-20.228-22.087-20.228-36.02V65.074c0-7.115-6.212-8.598-2.39-11.118.16-.148 14.336-6.078 14.495-6.078 3.982-1.482 8.442-2.075 13.698.741l99.072 53.216c11.15 5.929 20.229 22.087 20.229 36.021v245.474c0 7.412-2.548 12.6-6.69 14.972-.318.148-16.246 7.115-16.565 7.115-3.504 1.038 2.389-3.113-2.548-5.781z" fill="url(#F)"/><path d="M224.745 399.637l-99.073-53.216c-11.149-5.929-20.228-22.087-20.228-36.02V65.074c0-7.115-6.212-8.598-2.39-11.118.16-.148 14.176-6.078 14.336-6.078 3.982-1.482 8.442-2.075 13.698.741l99.072 53.216c11.15 5.929 20.229 22.087 20.229 36.021v245.474c0 7.412-2.549 12.6-6.69 14.972-.319.148-16.087 6.967-16.247 7.115-3.663 1.038 2.23-3.113-2.707-5.781z" fill="url(#G)"/><path d="M224.745 399.637l-99.073-53.216c-11.149-5.929-20.228-22.086-20.228-36.02V65.074c0-7.115-6.212-8.597-2.39-11.117.16-.148 13.858-5.929 14.017-5.929 3.982-1.482 8.442-2.075 13.698.741l99.073 53.216c11.149 5.929 20.228 22.086 20.228 36.02V383.48c0 7.412-2.548 12.6-6.69 14.971-.318.149-15.768 6.967-16.087 6.967-3.504 1.038 2.389-3.112-2.548-5.781z" fill="url(#H)"/><path d="M224.745 399.637l-99.073-53.216c-11.149-5.929-20.228-22.086-20.228-36.02V65.074c0-7.115-6.212-8.597-2.39-11.117.16-.148 13.699-5.781 13.858-5.929 3.982-1.482 8.442-2.075 13.698.741l99.072 53.216c11.15 5.929 20.229 22.086 20.229 36.02V383.48c0 7.412-2.549 12.6-6.69 14.971-.318.149-15.45 6.819-15.769 6.967-3.663 1.038 2.23-3.112-2.707-5.781z" fill="url(#I)"/><path d="M224.745 399.637l-99.073-53.215c-11.149-5.93-20.228-22.087-20.228-36.021V65.074c0-7.115-6.212-8.597-2.39-11.117.16-.148 13.38-5.781 13.539-5.781 3.982-1.482 8.442-2.075 13.698.741l99.073 53.068c11.149 5.929 20.228 22.086 20.228 36.02V383.48c0 7.412-2.548 12.6-6.689 14.971-.319.149-15.291 6.819-15.61 6.819-3.504 1.186 2.389-2.964-2.548-5.633z" fill="url(#J)"/><path d="M224.745 399.637l-99.073-53.215c-11.149-5.93-20.228-22.087-20.228-36.021V65.074c0-7.115-6.212-8.597-2.39-11.117.16-.148 13.221-5.633 13.38-5.781 3.982-1.482 8.442-2.075 13.698.741l99.072 53.216c11.15 5.929 20.229 22.087 20.229 36.021v245.474c0 7.412-2.548 12.6-6.69 14.972-.318.148-14.972 6.67-15.291 6.819-3.663 1.037 2.23-3.113-2.707-5.782z" fill="url(#K)"/><path d="M224.745 399.637l-99.073-53.216c-11.149-5.929-20.228-22.086-20.228-36.02V65.074c0-7.115-6.212-8.598-2.39-11.118.16-.148 12.902-5.633 13.061-5.633 3.982-1.482 8.442-2.075 13.699.741l99.072 53.216c11.15 5.929 20.229 22.087 20.229 36.021v245.474c0 7.412-2.549 12.6-6.69 14.972-.319.148-14.813 6.522-15.132 6.67-3.504 1.038 2.389-3.112-2.548-5.781z" fill="url(#L)"/><path d="M224.745 399.637l-99.073-53.216c-11.149-5.929-20.228-22.086-20.228-36.02V65.074c0-7.115-6.212-8.597-2.39-11.117.16-.148 12.743-5.485 12.902-5.485 3.982-1.482 8.442-2.075 13.698.741l98.913 53.068c11.15 5.929 20.229 22.087 20.229 36.021v245.474c0 7.412-2.549 12.6-6.69 14.972-.318.148-14.494 6.522-14.813 6.522-3.504 1.186 2.389-2.965-2.548-5.633z" fill="url(#M)"/><path d="M224.745 399.637l-99.073-53.216c-11.149-5.929-20.228-22.086-20.228-36.02V65.074c0-7.115-6.212-8.597-2.39-11.117.16-.148 12.424-5.485 12.584-5.485 3.982-1.482 8.441-2.075 13.698.741l99.072 53.216c11.15 5.929 20.229 22.087 20.229 36.021v245.475c0 7.411-2.549 12.599-6.69 14.971-.319.148-14.335 6.374-14.654 6.522-3.504 1.038 2.389-3.112-2.548-5.781z" fill="url(#N)"/><path d="M224.745 399.637l-99.073-53.216c-11.149-5.929-20.228-22.086-20.228-36.02V65.074c0-7.115-6.212-8.598-2.39-11.117.16-.148 12.106-5.336 12.424-5.336 3.982-1.482 8.442-2.075 13.698.741l99.073 53.216c11.149 5.93 20.228 22.087 20.228 36.021v245.326c0 7.412-2.548 12.6-6.689 14.972-.319.148-14.017 6.374-14.336 6.374-3.663 1.186 2.23-2.965-2.707-5.633z" fill="url(#O)"/><path d="M224.745 399.637l-99.073-53.216c-11.149-5.929-20.228-22.086-20.228-36.02V65.074c0-7.115-6.212-8.598-2.39-11.117.16-.148 11.946-5.188 12.106-5.336 3.982-1.482 8.442-2.075 13.698.741l99.072 53.216c11.15 5.93 20.229 22.087 20.229 36.021v245.326c0 7.412-2.549 12.6-6.69 14.972l-14.017 6.374c-3.663 1.186 2.23-2.965-2.707-5.633z" fill="url(#P)"/><path d="M224.745 399.637l-99.073-53.216c-11.149-5.929-20.228-22.086-20.228-36.02V65.074c0-7.115-6.212-8.598-2.39-11.118.16-.148 11.628-5.188 11.787-5.188 3.982-1.482 8.442-2.075 13.698.741l99.073 53.216c11.149 5.929 20.228 22.086 20.228 36.02v245.475c0 7.412-2.548 12.6-6.689 14.971l-13.858 6.226c-3.504 1.038 2.389-3.113-2.548-5.781z" fill="url(#Q)"/><path d="M224.745 399.637l-99.073-53.216c-11.149-5.929-20.228-22.086-20.228-36.02V65.074c0-7.115-6.212-8.598-2.39-11.118.16-.148 11.469-5.04 11.628-5.188 3.982-1.482 8.442-2.075 13.698.741l99.072 53.216c11.15 5.929 20.229 22.086 20.229 36.02v245.475c0 7.412-2.549 12.6-6.69 14.971l-13.539 6.226c-3.663 1.038 2.23-3.113-2.707-5.781z" fill="url(#R)"/><path d="M224.745 399.637l-99.073-53.215c-11.149-5.93-20.228-22.087-20.228-36.021V65.074c0-7.115-6.212-8.597-2.39-11.117.16-.148 11.15-5.04 11.309-5.04 3.982-1.482 8.442-2.075 13.698.741l99.073 53.216c11.149 5.929 20.228 22.087 20.228 36.021v245.474c0 7.412-2.548 12.6-6.689 14.972l-13.38 6.078c-3.504 1.037 2.389-3.113-2.548-5.782z" fill="url(#S)"/><path d="M224.745 399.637l-99.073-53.215c-11.149-5.93-20.228-22.087-20.228-36.021V65.074c0-7.115-6.212-8.597-2.39-11.117.16-.148 10.991-4.892 11.15-5.04 3.982-1.482 8.442-2.075 13.698.741l99.073 53.216c11.149 5.929 20.228 22.087 20.228 36.021v245.474c0 7.412-2.548 12.6-6.69 14.972l-13.061 5.929c-3.663 1.186 2.23-2.964-2.707-5.633z" fill="url(#T)"/><path d="M224.745 399.637l-99.073-53.215c-11.149-5.93-20.228-22.087-20.228-36.021V65.074c0-7.115-6.212-8.597-2.39-11.117.16-.148 10.672-4.892 10.831-4.892 3.982-1.482 8.442-2.075 13.699.741l99.072 53.216c11.15 5.93 20.229 22.087 20.229 36.021v245.475c0 7.411-2.549 12.599-6.69 14.971l-12.902 5.929c-3.504 1.038 2.389-3.112-2.548-5.781z" fill="url(#U)"/><path d="M224.745 399.637l-99.073-53.215c-11.149-5.93-20.228-22.087-20.228-36.021V65.074c0-7.115-6.212-8.598-2.39-11.118.16-.148 10.513-4.743 10.672-4.743 3.982-1.482 8.442-2.075 13.698.741l99.073 53.216c11.149 5.93 20.228 22.087 20.228 36.021v245.475c0 7.411-2.548 12.6-6.689 14.971l-12.584 5.781c-3.663 1.038 2.23-3.112-2.707-5.781z" fill="url(#V)"/><path d="M224.745 399.637l-99.073-53.215c-11.149-5.93-20.228-22.087-20.228-36.021V65.074c0-7.115-6.212-8.598-2.39-11.118.16-.148 10.194-4.595 10.354-4.743 3.982-1.482 8.442-2.075 13.698.741l99.072 53.216c11.15 5.93 20.229 22.087 20.229 36.021v245.475c0 7.411-2.549 12.6-6.69 14.971l-12.424 5.781c-3.504 1.038 2.389-3.112-2.548-5.781z" fill="url(#W)"/><path d="M224.745 399.637l-99.073-53.216c-11.149-5.929-20.228-22.086-20.228-36.02V65.074c0-7.115-6.212-8.597-2.39-11.117.16-.148 10.035-4.595 10.194-4.595 3.982-1.482 8.442-2.075 13.698.741l99.073 53.216c11.15 5.929 20.229 22.086 20.229 36.02v245.475c0 7.412-2.549 12.6-6.69 14.971l-12.106 5.633c-3.663 1.038 2.23-3.113-2.707-5.781z" fill="url(#X)"/><path d="M215.347 403.788l-99.072-53.216c-11.15-5.929-20.229-22.087-20.229-36.021V69.225c0-13.934 9.079-20.16 20.229-14.23l99.072 53.216c11.15 5.93 20.229 22.087 20.229 36.021v245.475c0 13.785-9.079 20.159-20.229 14.082z" class="B"/><path d="M223.311 404.233c-2.23 0-4.619-.742-7.008-2.076l-99.073-53.215c-10.671-5.633-19.273-21.05-19.273-34.391V69.225c0-8.894 3.983-14.675 10.194-14.675 2.23 0 4.62.741 7.009 2.075l99.072 53.216c10.672 5.633 19.273 21.049 19.273 34.39v245.475c0 8.746-3.982 14.527-10.194 14.527z" fill="url(#Y)"/><path d="M102.736 317.812V73.227c0-10.228 6.69-14.823 14.813-10.376l96.365 51.733c8.123 4.447 14.813 16.158 14.813 26.386v244.437c0 10.228-6.69 14.823-14.813 10.376l-96.365-51.733c-8.123-4.299-14.813-16.158-14.813-26.238z" fill="#afb6e5"/><path d="M118.664 65.519c-7.646-4.151-14.017-.889-14.017 7.412v247.254c0 8.301 6.212 18.233 14.017 22.383l94.134 50.548c7.646 4.15 14.017.889 14.017-7.412V138.598c0-8.301-6.212-18.233-14.017-22.383l-94.134-50.696z" class="L"/><path d="M243.221 224.87c-2.867 1.482-5.097-.148-5.097-3.557v-20.012c0-3.558 2.23-7.56 5.097-9.191 2.867-1.482 5.097.149 5.097 3.558v20.012c0 3.557-2.389 7.56-5.097 9.19z" fill="url(#Z)"/><path d="M149.087 349.979c0 .149 1.433 1.186 3.663 2.52v-.593l-3.663-1.927z" fill="#e6e7e8"/><path d="M203.242 202.042l-80.596-44.025v17.195l80.596 43.284v-16.454z" class="B"/><path d="M203.242 216.273l-79.481-42.691v-14.824l-1.115-.593v17.195l80.596 43.285v-2.372z" fill="#afb6e5"/><path d="M197.826 288.314l-80.596-44.025v17.195l80.596 43.284v-16.454z" fill="#c2b8d8"/><g class="E"><path d="M197.826 284.905L117.23 240.88v17.195l80.596 43.284v-16.454zm-75.18-133.262c0 .741 0 .593 0 0h0zm43.006 19.122l-43.006-22.976v3.854l43.006 22.976c0 .89 0-1.334 0-3.854zm-43.006 26.386c0 .741 0 .741 0 0h0z"/></g><path opacity=".95" d="M120.734 149.568c-.159 0-.318 0-.318-.149l-4.141-2.223c-.319-.148-.478-.593-.319-1.038.159-.296.637-.444 1.115-.296l3.982 2.371c.319.149.478.593.319 1.038-.16.148-.478.297-.638.297zm-8.282-4.447c-.159 0-.319 0-.478-.149l-4.141-2.223c-.319-.148-.478-.593-.319-1.038.159-.296.637-.444 1.115-.296l4.141 2.223c.319.148.478.593.319 1.038-.159.296-.478.445-.637.445zm-8.283-4.447c-.159 0-.318 0-.318-.149l-4.142-2.223c-.319-.148-.478-.593-.319-1.038.159-.296.637-.444 1.115-.296l4.141 2.223c.319.148.478.593.319 1.038-.319.296-.637.445-.797.445zm-8.282-4.299c-.159 0-.319 0-.319-.148l-4.141-2.224c-.319-.148-.478-.593-.319-1.038.159-.296.637-.444 1.115-.296l4.141 2.223c.319.149.478.593.319 1.038-.319.297-.478.445-.796.445zm-8.283-4.447c-.159 0-.319 0-.319-.148l-4.141-2.224c-.319-.148-.478-.593-.319-1.038.159-.296.637-.444 1.115-.296l4.141 2.223c.319.149.478.593.319 1.038-.319.297-.478.445-.796.445z" fill="#a4a4a5"/><path d="M61.005 172.84c-1.752-2.668-2.867-5.633-3.186-8.746v-1.63-2.52c.159-1.779.637-3.113 1.593-4.151.796-1.037 2.071-1.482 3.504-1.63 1.434 0 3.345.445 5.416 1.63 6.849 3.706 10.513 9.784 10.831 15.565v1.63 1.928c0 1.482-.478 2.371-1.274 2.816s-1.752.296-2.867-.297c-.796-.444-1.593-1.037-2.071-1.63-.637-.593-.956-1.334-1.274-1.779-.319.445-.796.593-1.274.741s-1.433-.148-2.389-.741c-1.433-.741-2.549-1.927-3.504-3.557-.796-1.631-1.274-3.41-1.274-5.337s.478-3.261 1.274-4.002 1.911-.593 3.345.148c.637.445 1.274.889 1.752 1.334s.796 1.038 1.274 1.779v-.445c0-.296 0-.444.159-.444h.478l1.115.592.478.445c.159.148.159.445.159.593v6.522c0 .742.159 1.483.478 1.927.319.593.637 1.038 1.274 1.186.637.297.956.297 1.274 0s.319-.741.319-1.482v-1.927-1.186c-.159-2.52-.796-4.447-2.071-6.374s-3.345-3.854-6.212-5.485c-2.389-1.334-4.141-1.63-5.575-1.037-1.274.593-2.071 1.927-2.389 4.15 0 .445-.159 1.334-.159 2.372s0 .741.159 1.482c.159 2.372.956 4.596 2.389 6.671 1.274 1.927 3.186 3.557 5.734 4.892 1.274.593 2.23 1.037 3.026 1.334s1.434.296 1.752.296.796-.148 1.274-.148c.159 0 .319-.148.478-.148s.159 0 .478.148l1.593.889.478.445c.159.148.159.445.159.593s0 .296-.159.445c-2.071 1.334-5.097.889-9.079-1.186-3.186-1.927-5.734-4.003-7.486-6.671zm9.079-1.334c.478-.445.637-1.186.637-2.52 0-1.186-.159-2.223-.637-3.113-.319-.889-1.115-1.482-1.911-1.927-1.752-.889-2.549-.148-2.549 2.372 0 1.186.159 2.223.637 3.113s1.115 1.63 1.911 2.075c.956.297 1.593.297 1.911 0z" class="E"/><path opacity=".95" d="M120.734 195.223c-.159 0-.318 0-.318-.148l-4.141-2.223c-.319-.149-.478-.593-.319-1.038.159-.296.637-.445 1.115-.296l4.141 2.223c.319.148.478.593.319 1.038-.319.296-.637.444-.797.444zm-8.282-4.447c-.159 0-.319 0-.478-.148l-4.141-2.223c-.319-.149-.478-.593-.319-1.038.159-.296.637-.445 1.115-.296l4.141 2.223c.319.148.478.593.319 1.038-.159.296-.478.444-.637.444zm-8.283-4.447c-.159 0-.318 0-.318-.148l-4.142-2.223c-.319-.149-.478-.593-.319-1.038.159-.296.637-.445 1.115-.296l4.141 2.223c.319.148.478.593.319 1.038-.319.296-.637.444-.797.444zm-8.282-4.447c-.159 0-.319 0-.319-.148l-4.141-2.223c-.319-.149-.478-.593-.319-1.038.159-.296.637-.445 1.115-.296l4.141 2.223c.319.148.478.593.319 1.038-.319.296-.478.444-.796.444zm-8.283-4.447c-.159 0-.319 0-.319-.148l-4.141-2.223c-.319-.149-.478-.593-.319-1.038.159-.296.637-.445 1.115-.296l4.141 2.223c.319.148.478.593.319 1.038-.319.296-.478.444-.796.444z" fill="#a4a4a5"/><g class="C"><path d="M73.746 424.985v-10.228H48.899l-8.601-4.595c-1.911-1.038-5.416-.889-7.646.296l-7.964 4.299H-.16v10.525c0 .741.319 1.334 1.274 1.927l32.015 17.195c1.911 1.038 5.416.889 7.645-.297l30.9-16.602c1.593-.741 2.23-1.778 2.071-2.52z"/><path d="M36.953 409.273c-1.434 0-2.867.296-4.141 1.037l-7.964 4.299H0v10.525c0 .741.319 1.334 1.274 1.927l32.015 17.195c.956.444 2.23.741 3.504.741v-35.724h.159z"/></g><g fill="#0984c9"><path d="M2.867 414.609H0v10.525c0 .741.319 1.334 1.274 1.927l1.434.741v-13.193h.159zm30.9 29.943c1.752.741 4.141.593 6.053 0v-12.007h-6.053v12.007z"/></g><path d="M33.29 433.731L1.274 416.536c-1.911-1.037-1.752-2.964.478-4.15l31.06-16.603c2.23-1.185 5.734-1.334 7.645-.296l32.015 17.195c1.911 1.038 1.752 2.965-.478 4.151l-30.9 16.602c-2.389 1.334-5.734 1.334-7.805.296z" fill="url(#a)"/><path d="M71.995 414.906l-30.9 16.602c-2.23 1.186-5.734 1.334-7.645.296L1.274 414.609c-.478-.296-.796-.445-.956-.741-.637 1.038-.319 2.075.956 2.816l32.015 17.195c1.911 1.038 5.416.89 7.645-.296l30.9-16.602c1.752-.89 2.23-2.224 1.593-3.261-.319.296-.796.741-1.434 1.186z" class="B"/><path d="M61.96 427.654c0 .741-.637 1.63-1.274 2.075s-1.274 0-1.274-.741.637-1.631 1.274-2.076c.796-.296 1.274 0 1.274.742z" class="L"/><path d="M66.26 425.43c0 .741-.637 1.631-1.274 2.075s-1.274 0-1.274-.741.637-1.63 1.274-2.075c.637-.297 1.274 0 1.274.741z" fill="#4e0c82"/><path d="M70.401 423.207c0 .741-.637 1.63-1.274 2.075s-1.274 0-1.274-.741.637-1.631 1.274-2.076c.637-.296 1.274 0 1.274.742z" class="L"/><path d="M35.201 423.058l-14.972-8.004c-.956-.445-.796-1.334.319-1.927l14.495-7.708c1.115-.593 2.708-.593 3.663-.149l14.972 8.005c.956.445.796 1.334-.319 1.927l-14.495 7.708c-1.115.593-2.708.741-3.663.148z" class="C"/><path d="M36.634 416.388l-2.071-1.186c-.159 0-.159-.148 0-.296l2.071-1.038a.31.31 0 0 1 .478 0l2.071 1.186c.159 0 .159.148 0 .296l-2.071 1.038h-.478z" class="L"/><path d="M20.228 415.054c.159 0 .159 0 .319-.148l14.495-7.709c1.115-.593 2.708-.593 3.663-.148l14.972 8.005c.796-.593.956-1.334 0-1.779l-14.972-8.005c-.956-.444-2.548-.444-3.663.149l-14.495 7.708c-1.115.593-1.274 1.482-.319 1.927z" fill="#396caa"/><g class="E"><path d="M171.704 120.218c0 .592 0 1.185-.159 1.63l-.478 1.334c-.159.445-.478.741-.797 1.038s-.637.593-.955.741l-4.301 2.372c-.159 0-.159-.148-.318-.148.159-.149.318-.445.477-.742s.319-.741.478-1.186v-.148c.16-.444.16-1.037.16-1.63s0-1.186-.16-1.779l-.478-1.779c-.159-.593-.477-1.186-.796-1.779l-.956-1.779c-.318-.592-.796-1.185-1.115-1.63-.477-.593-.796-1.038-1.274-1.482l-1.433-1.335c-.478-.444-1.115-.741-1.593-1.037s-1.115-.593-1.593-.741h-.159c-.478-.149-.956-.297-1.274-.297h-1.275c-.478.148-.796.148-1.115.445l5.894-3.261c.318-.148.796-.297 1.115-.445.478 0 .796-.148 1.274 0 .478 0 .956.148 1.433.297s1.115.444 1.593.741 1.115.593 1.593 1.037l1.434 1.334c.477.445.955 1.038 1.274 1.483.478.593.796 1.037 1.115 1.63l.955 1.779c.319.593.478 1.186.797 1.779l.478 1.779c.159.593.159 1.186.159 1.779z"/><path d="M179.031 147.493c0 .444-.16.741-.319 1.037l-.478.89c-.159.296-.477.444-.637.593l-5.734 3.112.478-.444c.159-.297.319-.445.478-.89.159-.296.159-.741.159-1.037v-1.334c0-.149 0-.445-.159-.593 0-.297-.159-.593-.159-.741l-1.115-2.817c-.478-.889-.797-1.779-1.434-2.668l-1.593-2.668-1.752-2.52c-.637-.741-1.274-1.631-2.07-2.224a14.36 14.36 0 0 0-2.23-2.075l-2.39-1.779c-.796-.593-1.592-1.037-2.389-1.482l-2.389-1.186-2.23-.741c-.796-.148-1.433-.297-2.23-.297h-1.274c-.319 0-.478 0-.796.149l-1.753.444c-.159 0-.318.148-.477.148l5.256-2.816c.318-.148.637-.445 1.115-.593.318-.148.796-.296 1.274-.445.159 0 .478-.148.637-.148.637-.148 1.274-.148 2.071-.148.637 0 1.433.148 2.23.296s1.593.445 2.389.742 1.593.593 2.389 1.185l.956.445c.159 0 .159.148.318.148.319.297.797.445 1.115.742l2.39 1.778c.796.593 1.433 1.334 2.229 2.076l2.071 2.223c.637.741 1.274 1.631 1.752 2.52.637.89 1.115 1.779 1.593 2.668l1.274 2.669c.478.889.797 1.778 1.115 2.816.159.445.319 1.038.319 1.482v1.483z"/></g><path d="M165.811 123.479c0 .593 0 1.185-.16 1.63l-.478 1.334c-.159.445-.477.741-.796 1.038s-.637.593-.956.741-.796.297-1.115.445-.796.148-1.274 0c-.478 0-.956-.148-1.433-.297s-1.115-.444-1.593-.741-1.115-.593-1.593-1.037l-1.433-1.335a10.52 10.52 0 0 1-1.275-1.482c-.478-.593-.796-1.038-1.115-1.63l-.955-1.779c-.319-.593-.478-1.186-.797-1.779l-.478-1.779c-.159-.593-.159-1.186-.159-1.779s0-1.186.159-1.63l.478-1.334c.16-.445.478-.742.797-1.038s.637-.593.955-.741.797-.297 1.115-.445c.478-.148.797-.148 1.275 0 .477 0 .955.148 1.433.297s1.115.444 1.593.741 1.115.593 1.593 1.037l1.433 1.335c.478.444.956 1.037 1.274 1.482.478.593.797 1.037 1.115 1.63l.956 1.779c.319.593.478 1.186.796 1.779l.478 1.779c0 .593.16 1.186.16 1.779zm2.548 29.35c.478.296.796.445 1.274.445.319.148.797.148 1.115.148s.637-.148.956-.297.478-.296.796-.593c.16-.296.319-.444.478-.889.159-.296.159-.741.159-1.038v-1.334c0-.444-.159-.889-.318-1.482l-1.115-2.817c-.478-.889-.796-1.778-1.434-2.668l-1.592-2.668-1.752-2.52c-.638-.741-1.275-1.63-2.071-2.223-.637-.742-1.434-1.483-2.23-2.076l-2.389-1.778c-.797-.593-1.593-1.038-2.389-1.483s-1.593-.741-2.39-1.037-1.592-.593-2.389-.742-1.433-.296-2.23-.296c-.637 0-1.433 0-2.07.148l-1.752.445c-.638.296-1.115.593-1.593.889s-.956.741-1.434 1.186-.796 1.038-1.115 1.631c-.159.296-.318.741-.318 1.037v1.186c0 .445.159.89.318 1.334l.478 1.334c.159.445.478.89.796 1.335s.638.889.956 1.185c.319.445.637.742 1.115 1.038.319.296.797.593 1.274.889l2.708 1.483 2.708 1.482 2.708 1.482 2.707 1.483 2.708 1.482 2.708 1.482 2.708 1.483 1.911 1.334z" class="I"/><path d="M181.42 266.227l-48.102-25.199c-2.708-1.483-2.23-3.854.796-5.485s13.061-1.631 15.769-.296l45.235 23.569c3.982 2.223 0 5.336-3.344 6.818-3.186 1.779-7.646 1.927-10.354.593z" class="H Q"/><path d="M182.854 267.413l-53.041-28.461c-3.026-1.63-5.415-5.929-5.415-9.783v-32.315c0-3.706 2.389-5.485 5.415-3.854l53.041 28.461c3.026 1.63 5.415 5.929 5.415 9.783v32.315c0 3.706-2.389 5.485-5.415 3.854z" class="F"/><g class="C"><path d="M183.491 241.917l-52.244-28.016c-2.389-1.482-3.982-4.299-3.982-7.263v-8.45c0-.741.797-1.186 1.434-.741 0 0 .159 0 .159.148l52.244 28.165c2.867 1.482 3.982 4.298 3.982 7.263v8.301c.159.593-.796 1.038-1.593.593.159.148 0 0 0 0z"/><path d="M183.491 263.263l-52.244-28.016c-2.389-1.483-3.982-4.299-3.982-7.264v-8.449c0-.741.797-1.186 1.434-.741 0 0 .159 0 .159.148l52.244 28.164c2.867 1.483 3.982 4.299 3.982 7.264v8.301c.159.593-.796 1.037-1.593.593h0z"/></g><g class="M"><path d="M184.447 241.324l-52.244-28.164c-2.389-1.482-3.982-4.299-3.982-7.264v-8.449-.296c-.478 0-.956.444-.956.889v8.449c0 2.965 1.434 5.781 3.982 7.264l52.244 28.016h.159c.637.296 1.275 0 1.593-.593-.318.296-.478.296-.796.148zm0 21.346l-52.244-28.165c-2.389-1.482-3.982-4.298-3.982-7.263v-8.449-.297c-.478 0-.956.445-.956.89v8.449c0 2.964 1.434 5.781 3.982 7.263l52.244 28.016h.159c.637.297 1.275 0 1.593-.593-.318.297-.478.297-.796.149z"/></g><path d="M185.402 220.275l-53.04-28.461c-1.274-.593-2.23-.741-3.185-.445-.16 0-2.708 1.186-2.708 1.335.955-.445 2.07-.297 3.345.296l53.04 28.461c3.026 1.63 5.416 5.929 5.416 9.783v32.315c0 2.372-.956 3.854-2.39 4.299.16 0 .319 0 .478-.148 0 0 2.708-1.334 2.867-1.334 1.115-.742 1.752-2.076 1.752-4.003v-32.315c-.159-3.705-2.548-8.152-5.575-9.783z" fill="#3f92d1"/><path d="M185.403 220.275l-53.041-28.461c-1.274-.593-2.23-.741-3.185-.445-.16 0-2.708 1.186-2.708 1.335.955-.445 2.07-.297 3.345.296l53.04 28.461 2.549-1.186z" class="P"/><path d="M183.013 221.461L129.973 193c-1.274-.593-2.389-.741-3.345-.445.796-.148 1.752 0 2.708.593l53.04 28.461c3.026 1.631 5.416 5.929 5.416 9.784v32.314c0 2.224-.797 3.706-2.23 4.299 1.752-.296 2.867-1.927 2.867-4.447v-32.315c.159-3.854-2.39-8.153-5.416-9.783z" class="B"/><g class="M"><path d="M170.589 248.588c0 1.927 1.434 4.298 3.345 5.336 1.752 1.038 3.345.148 3.345-1.779s-1.433-4.299-3.345-5.336-3.345-.297-3.345 1.779zm-8.601-4.596c0 1.927 1.434 4.299 3.345 5.337 1.752 1.037 3.345.148 3.345-1.779s-1.433-4.299-3.345-5.336c-1.752-1.038-3.345-.297-3.345 1.778zm-8.442-4.595c0 1.927 1.434 4.299 3.345 5.337 1.752 1.037 3.345.148 3.345-1.779s-1.433-4.299-3.345-5.337-3.345-.296-3.345 1.779zm-8.442-4.595c0 1.927 1.434 4.299 3.345 5.336 1.752 1.038 3.345.148 3.345-1.779s-1.433-4.298-3.345-5.336-3.345-.296-3.345 1.779zm-8.601-4.744c0 1.928 1.434 4.299 3.345 5.337 1.752 1.038 3.345.148 3.345-1.779s-1.433-4.299-3.345-5.336c-1.911-.89-3.345-.149-3.345 1.778z"/></g><g class="F"><path d="M169.474 248.588c0 1.927 1.434 4.298 3.345 5.336 1.752 1.038 3.345.148 3.345-1.779s-1.434-4.299-3.345-5.336c-1.752-.89-3.345-.149-3.345 1.779zm-8.442-4.596c0 1.927 1.434 4.299 3.345 5.337 1.752 1.037 3.345.148 3.345-1.779s-1.434-4.299-3.345-5.337c-1.911-.889-3.345-.148-3.345 1.779z"/><use xlink:href="#f"/><path d="M143.989 234.802c0 1.927 1.433 4.299 3.345 5.336 1.752 1.038 3.345.148 3.345-1.779s-1.434-4.298-3.345-5.336c-1.912-.889-3.345-.148-3.345 1.779zm-8.442-4.595c0 1.927 1.434 4.298 3.345 5.336 1.752 1.038 3.345.148 3.345-1.779s-1.433-4.299-3.345-5.336-3.345-.148-3.345 1.779z"/></g><g class="M"><path d="M170.589 226.649c0 1.927 1.434 4.299 3.345 5.336 1.752 1.038 3.345.149 3.345-1.778s-1.433-4.299-3.345-5.337c-1.911-.889-3.345-.148-3.345 1.779zm-8.601-4.595c0 1.927 1.434 4.299 3.345 5.336 1.752 1.038 3.345.148 3.345-1.779s-1.433-4.298-3.345-5.336c-1.752-.889-3.345-.148-3.345 1.779zm-8.442-4.595c0 1.927 1.434 4.298 3.345 5.336s3.345.148 3.345-1.779-1.433-4.299-3.345-5.336c-1.911-.89-3.345-.148-3.345 1.779zm-8.442-4.596c0 1.927 1.434 4.299 3.345 5.337 1.752 1.037 3.345.148 3.345-1.779s-1.433-4.299-3.345-5.337c-1.911-.889-3.345-.148-3.345 1.779zm-8.601-4.595c0 1.927 1.434 4.299 3.345 5.336 1.752 1.038 3.345.149 3.345-1.778s-1.433-4.299-3.345-5.337c-1.911-.889-3.345-.148-3.345 1.779z"/></g><g class="F"><path d="M169.474 226.797c0 1.927 1.434 4.299 3.345 5.337 1.752 1.037 3.345.148 3.345-1.779s-1.434-4.299-3.345-5.337c-1.752-1.037-3.345-.296-3.345 1.779zm-8.442-4.595c0 1.927 1.434 4.299 3.345 5.336 1.752 1.038 3.345.149 3.345-1.778s-1.434-4.299-3.345-5.337-3.345-.296-3.345 1.779zm-8.442-4.595c0 1.927 1.434 4.299 3.345 5.336 1.752 1.038 3.345.148 3.345-1.779s-1.433-4.298-3.345-5.336-3.345-.297-3.345 1.779zm-8.601-4.744c0 1.927 1.433 4.299 3.345 5.337 1.752 1.037 3.345.148 3.345-1.779s-1.434-4.299-3.345-5.337c-1.912-.889-3.345-.148-3.345 1.779zm-8.442-4.595c0 1.927 1.434 4.299 3.345 5.336 1.752 1.038 3.345.149 3.345-1.778s-1.433-4.299-3.345-5.337c-1.911-.889-3.345-.148-3.345 1.779z"/></g><path d="M205.153 538.532l-37.112-19.863c-3.823-2.075-3.345-5.633 1.115-8.153 4.46-2.372 19.273-2.372 23.096-.296l32.971 17.64c5.893 3.261 0 7.708-4.938 10.079-4.46 2.52-11.15 2.669-15.132.593z" class="H Q"/><path d="M219.648 496.73l-53.678-18.677v37.058c-.159 1.186.478 2.372 2.071 3.261l36.316 19.567c3.185 1.631 8.601 1.483 12.264-.445 1.912-1.037 2.867-2.371 3.027-3.557V496.73z" fill="#9acff9"/><path d="M204.357 500.733l-36.316-19.567c-3.186-1.631-2.708-4.595.956-6.522s9.079-2.224 12.264-.445l36.316 19.567c3.186 1.63 2.708 4.595-.956 6.522-3.504 1.927-9.078 2.224-12.264.445z" class="G"/><path d="M216.621 499.843c-3.663 1.927-9.079 2.224-12.264.445l-36.316-19.567c-1.275-.741-2.071-1.63-2.071-2.668-.159 1.186.478 2.372 2.071 3.113l36.316 19.567c3.185 1.63 8.601 1.482 12.264-.445 2.071-1.186 3.186-2.668 3.027-4.002-.16 1.334-1.115 2.52-3.027 3.557z" class="B"/><g class="C"><path d="M196.393 451.371c-10.194-5.485-22.777 1.334-22.777 12.303v15.417c0 1.482 2.23 2.668 4.938 2.668s4.938-1.186 4.938-2.668V465.75c0-4.596 5.415-7.56 9.716-5.189 4.937 2.669 8.123 7.56 8.123 12.897v20.456c0 1.482 2.23 2.668 4.938 2.668s4.937-1.186 4.937-2.668v-18.381c.16-9.932-5.574-19.122-14.813-24.162z"/><path d="M186.04 455.966c-4.46 0-8.123 3.41-8.123 7.56v16.009 1.631c0 .148 2.867-.148 2.867-.296v-1.631-16.009c0-3.41 2.389-6.374 5.734-7.264-.16.149-.319 0-.478 0zm7.167 51.437c0-2.964-2.23-6.374-4.937-7.856s-4.938-.297-4.938 2.668c0 1.927.956 4.151 2.549 5.929v9.191l4.937 2.668v-9.19c1.434-.297 2.389-1.483 2.389-3.41z"/></g><path d="M186.677 516.89v-9.19c-1.434-1.631-2.549-4.003-2.549-5.93 0-1.334.478-2.371 1.275-2.816-1.275.296-2.071 1.334-2.071 3.113 0 1.927.956 4.15 2.549 5.929v9.191l4.937 2.668v-.741l-4.141-2.224z" class="M"/><path d="M102.417 336.638l-54.314-28.312c-3.026-1.631-2.548-4.447.796-6.226 3.504-1.779 14.813-1.927 17.839-.297l51.129 26.682c4.619 2.52 0 5.93-3.823 7.708-3.345 1.928-8.601 2.076-11.628.445z" class="H Q"/><path d="M101.462 336.342l-49.059-26.534c-3.345-1.779-6.212-6.819-6.212-10.969v-59.59c0-4.299 2.708-6.226 6.212-4.299l49.059 26.534c3.345 1.779 6.212 6.819 6.212 10.969v59.59c0 4.151-2.708 6.226-6.212 4.299z" class="I"/><path d="M102.258 333.081l-48.102-26.09c-2.708-1.63-4.46-4.891-4.46-8.152v-57.96c0-.741.956-1.334 1.593-.889.159 0 .159.148.159.148l48.103 26.089c3.344 1.779 4.459 4.892 4.459 8.153v57.811c.16.89-.796 1.334-1.752.89h0z" class="E"/><path d="M103.532 332.339c-.159 0-.159 0 0 0l-48.261-26.237c-2.708-1.63-4.46-4.892-4.46-8.153V239.99v-.297c-.478 0-.956.445-.956 1.038v57.959c0 3.262 1.752 6.523 4.46 8.153l48.103 26.089s.159 0 .159.149c.637.296 1.433 0 1.752-.593-.319 0-.637 0-.797-.149z" class="M"/><path d="M104.488 260.15L55.43 233.616c-1.274-.741-2.548-.889-3.663-.445-.159 0-3.026 1.483-3.186 1.483 1.115-.445 2.389-.445 3.823.444l49.059 26.534c3.345 1.779 6.212 6.819 6.212 10.969v59.442c0 2.668-1.115 4.447-2.708 4.892.159 0 .318 0 .478-.149 0 0 3.185-1.482 3.185-1.63 1.115-.741 1.912-2.372 1.912-4.447v-59.59c.159-4.299-2.708-9.19-6.053-10.969z" fill="url(#b)"/><path d="M104.488 260.15L55.43 233.616c-1.274-.741-2.548-.889-3.663-.445-.159 0-3.026 1.483-3.186 1.483 1.115-.445 2.389-.445 3.823.444l49.059 26.534 3.026-1.482z" fill="url(#c)"/><path d="M101.78 261.336l-49.058-26.534c-1.434-.741-2.708-.89-3.663-.445.956-.148 1.911 0 3.026.593l49.058 26.534c3.345 1.779 6.212 6.819 6.212 10.969v59.59c0 2.52-.955 4.151-2.389 4.743 1.911-.296 3.186-2.075 3.186-5.039v-59.59c-.16-4.003-2.867-9.043-6.372-10.821z" class="B"/><g class="I"><path d="M77.57 300.914h-.319c-.637-.148-.956-.593-.796-1.186 1.274-5.188 1.911-10.969 1.911-16.898v-.445c0-.593.478-1.038 1.115-1.038s1.115.445 1.115 1.038v.445c0 6.225-.637 12.006-1.911 17.343-.159.445-.637.741-1.115.741zm-7.805 6.819h-.319c-.637-.149-.956-.741-.796-1.186 2.23-8.449 3.186-20.308 3.186-27.572 0-1.778.637-3.261 1.752-4.15.478-.297 1.115-.297 1.593.148a1.08 1.08 0 0 1-.159 1.482c-.637.445-.956 1.483-.956 2.669 0 7.411-.956 19.418-3.345 28.016 0 .296-.478.593-.956.593zm15.45-21.346c-.637 0-1.115-.445-1.115-1.038 0-3.261-2.549-7.263-5.575-8.894-.478-.296-.637-.889-.319-1.334s.956-.593 1.434-.296c3.663 2.075 6.69 6.67 6.69 10.673 0 .444-.478.889-1.115.889zm-4.301 28.757h-.319c-.637-.148-.956-.593-.796-1.186 1.593-6.225 3.026-14.23 3.823-20.456 0-.593.637-.889 1.274-.889s.956.593.956 1.186c-.796 6.225-2.23 14.378-3.823 20.604-.159.445-.637.741-1.115.741zm12.902 1.927h-.319c-.637-.148-.956-.741-.796-1.185 2.071-7.116 3.026-15.12 3.026-23.718v-.445c0-10.079-7.805-22.531-17.202-27.719-4.46-2.372-8.442-2.817-11.468-1.186s-4.619 5.04-4.619 9.783c0 7.56-.796 14.527-2.389 21.049-.159.593-.796.89-1.274.742-.637-.149-.956-.593-.796-1.186 1.593-6.374 2.23-13.341 2.23-20.605 0-5.484 2.071-9.487 5.734-11.414s8.601-1.63 13.698 1.186c10.035 5.485 18.317 18.678 18.317 29.35v.445c0 8.746-1.115 16.899-3.186 24.162 0 .445-.478.741-.956.741zm-29.785-15.564h-.319c-.637-.148-.956-.741-.796-1.186l2.071-9.487c.159-.593.637-.889 1.274-.889.637.148.956.593.956 1.186-.478 3.409-1.274 6.67-2.071 9.783-.159.296-.637.593-1.115.593zm2.548-12.452c-.159 0-.159 0 0 0-.637 0-1.115-.593-1.115-1.186.478-3.854.637-8.004.637-12.155 0-2.52.637-4.595 1.752-6.077.319-.445.956-.593 1.433-.297s.637.89.319 1.334c-.956 1.186-1.434 2.965-1.434 4.892 0 4.299-.319 8.449-.637 12.303 0 .742-.478 1.186-.956 1.186zm22.937-6.819c-.478 0-.796-.296-.956-.592-2.071-4.892-5.893-9.191-9.875-11.266-2.23-1.186-4.46-1.631-6.212-1.186-.637.148-1.115-.148-1.274-.741s.159-1.038.796-1.186c2.389-.593 5.097 0 7.805 1.482 4.46 2.372 8.442 6.967 10.831 12.304.159.444 0 1.037-.637 1.334-.319-.148-.478-.149-.478-.149zm-2.868 34.835h-.319c-.637-.148-.796-.741-.637-1.334l.319-.741c2.708-7.708 4.141-16.454 4.141-26.089v-.445c0-.593.478-1.037 1.115-1.037s1.115.444 1.115 1.037v.445c0 9.783-1.433 18.826-4.301 26.682l-.319.741c-.159.445-.637.741-1.115.741z"/></g><path d="M251.982 254.22v33.056l5.256-2.816v-33.204l-5.256 2.964z" class="C"/><path d="M251.982 254.22v33.057l-31.538-17.047v-33.205l31.538 17.195z" class="F"/><path d="M220.444 237.025l31.538 17.195 5.256-2.964-31.537-17.195-5.257 2.964z" class="C"/><g class="B"><path opacity=".7" d="M220.444 237.025l31.538 17.195 5.256-2.964-5.575 1.334-31.219-15.565z"/><path d="M223.471 246.661l12.901 18.677 12.902-4.892c-.478-.593-.956-1.037-1.593-1.334l-22.617-12.155c-.638-.296-1.115-.296-1.593-.296z"/><path d="M249.274 260.594l-12.901 6.819-3.664-5.929-9.238 3.557 8.601-4.595-8.601-13.785c-.637.148-.956.741-.956 1.63v14.23c0 1.483 1.115 3.262 2.549 4.003l22.617 12.155c1.434.741 2.549.148 2.549-1.334v-14.231c0-.741-.319-1.778-.956-2.52zm0 18.233l-9.238-13.341.637-.296 8.601 13.637z"/></g><path opacity=".3" d="M60.686 492.876c6.69 3.558 16.565 4.447 24.848 2.668l7.645 4.151 5.893-1.186 3.981 2.224.16 4.595 2.23 1.186 5.415.444 4.301 2.224-.319 2.372 4.938 2.668h12.424l4.46-2.372-39.98-21.494c4.779-4.595 3.345-10.524-3.823-14.527-8.92-4.743-23.414-4.743-32.175 0-8.92 4.447-8.92 12.304 0 17.047zm5.575-14.527c2.549-1.334 6.69-1.334 9.079 0 2.549 1.335 2.549 3.558 0 4.892s-6.69 1.334-9.079 0c-2.548-1.334-2.548-3.557 0-4.892z" fill="#000"/><use xlink:href="#g" class="E"/><use xlink:href="#g" class="C"/><use xlink:href="#h" class="E"/><use xlink:href="#h" class="F"/><path d="M61.96 484.575c-3.345-1.779-5.416-4.15-5.416-6.522s1.911-4.744 5.416-6.522c3.982-2.076 9.238-3.261 14.813-3.261s10.831 1.185 14.813 3.261c3.345 1.778 5.416 4.15 5.416 6.522s-1.911 4.743-5.416 6.522c-3.982 2.076-9.238 3.261-14.813 3.261s-10.831-1.185-14.813-3.261zm.478-12.451c-3.186 1.63-4.938 3.854-4.938 5.929s1.752 4.151 4.938 5.929c3.823 2.076 8.92 3.113 14.335 3.113s10.672-1.186 14.335-3.113c3.186-1.63 4.938-3.854 4.938-5.929s-1.752-4.151-4.938-5.929c-3.823-2.076-8.92-3.113-14.335-3.113s-10.672 1.037-14.335 3.113z" class="C"/><g fill="#000"><path opacity=".1" d="M68.491 489.467v2.668c5.416 1.186 11.468 1.038 16.884-.148v-2.668c-5.256 1.186-11.309 1.186-16.884.148zm24.688 4.002v2.668l5.893-1.185v-2.669l-5.893 1.186zm9.876.89v2.668l.318 4.595v-2.668l-.318-4.595zm2.389 5.781v2.668l5.575.445v-2.669l-5.575-.444zm26.759 7.56h-12.424v2.668h12.424V507.7z"/><path opacity=".15" d="M136.822 505.328v2.668l-4.619 2.52V507.7l2.07-1.038v1.186l1.115-.593v-1.186l1.434-.741z"/></g><path d="M135.388 506.069l-1.115.593v1.186l1.115-.593v-1.186z" class="E"/><path opacity=".3" d="M135.388 506.069l-1.115.593v1.186l1.115-.593v-1.186z" class="B"/><path d="M135.388 506.069v1.186l-41.094-21.939 1.115-.593 39.979 21.346z" class="C"/><path opacity=".15" d="M95.409 484.723v1.038l-1.115-.445 1.115-.593z" fill="#000"/><path d="M331.144 503.401l-35.042 18.826v-37.652l35.042-18.825v37.651z" fill="#1e93e2"/><path d="M296.102 484.575l-35.041-18.825 35.041-18.826 35.042 18.826-35.042 18.825z" class="L"/><path d="M296.102 522.227l-35.041-18.826V465.75l35.041 18.825v37.652z" class="C"/><path d="M343.09 533.641c.478 2.223 1.434 4.891 2.23 9.486s-.478 4.744 3.186 16.306c2.07 6.967 1.752 9.635-3.186 15.565-5.415 6.226-10.99 5.04-14.654-1.927-3.185-5.93-2.867-8.746-2.867-14.824s-.159-8.004-.478-12.748c-.318-4.299.16-7.263-.159-10.524l15.928-1.334z" fill="#2b454e"/><g class="N"><path d="M344.842 550.391c-.955-5.929-1.274-12.155-1.592-16.158-.797-9.042 1.274-26.83-.16-40.467l-26.918-2.224c.956 5.337 8.282 29.202 10.99 43.581 0 0 1.115 19.567 2.549 28.164.159 1.038 1.593 1.779 2.707 1.334 3.664-1.482 8.761-1.63 12.265-.741 1.274.297 2.708-.445 2.549-1.63 0-2.965-1.753-7.412-2.39-11.859zm-77.41-63.74c.956 18.529 1.274 32.611.956 40.616-.159 4.891-.956 8.152-2.389 11.562s-3.982 8.301-5.894 10.376c0 0-6.69 6.671-5.415 7.264s14.972 1.482 20.388 0c5.415-1.335 7.486-5.633 9.556-13.341s3.982-19.123 3.982-19.123-.159-.296-.477-1.334c-.638-2.223 1.911-13.637 2.707-19.27l-23.414-16.75z"/></g><path d="M293.395 535.419c-.159 1.927-1.752 4.151-2.23 7.116s-.797 6.077-.797 10.376l.16 4.892h-1.434l-.159-8.746c0-2.668-1.434-5.04-2.867-5.337 0 0 .637-8.152 7.327-8.301z" class="K"/><path d="M288.457 522.968c.797 2.223 2.867 5.04 4.142 7.115.637 1.186 1.274 2.816 1.274 3.854s-.319 2.52-1.912 3.854l-3.344 2.965c-2.868 2.372-3.982 4.595-5.894 10.228-1.115 3.409-2.867 6.374-6.053 8.005-2.548 1.334-9.238 3.409-17.68 3.112-7.008-.296-9.556-3.112-7.008-5.484 2.708-2.372 7.168-6.671 7.964-7.264 0 0 4.141 0 7.327 1.334 3.823 1.631 5.097 3.706 9.238 1.927 3.664-1.63 5.734-7.559 6.053-17.195.478-10.376 5.893-12.451 5.893-12.451z" fill="#2b454e"/><path d="M324.295 360.949c.478 2.371.956 4.595 1.912 5.781 5.575 7.115 14.016 15.861 12.583 29.202-3.664 32.315.478 63.592 2.867 63.592.319 2.816 3.982 9.042 3.504 26.237-.318 13.045-1.433 32.908-1.433 32.908s-12.265 4.595-21.025 1.63c-3.664-12.303-9.398-41.801-12.902-55.884-3.823-14.971-6.371-32.907-6.371-32.907l-7.646 28.016s2.071 10.08.956 19.715c-.956 8.746-7.009 34.686-7.009 34.686s-14.494 2.965-22.14-1.927l-1.911-52.771c.319-19.27 1.752-73.672 7.646-87.161.477-1.038-2.071-9.042-2.071-9.042 7.168 5.336 43.324 4.15 53.04-2.075z" class="E"/><g class="I"><path d="M343.887 513.777c-3.823 3.261-17.999 4.299-22.618 2.075l1.752 6.968s4.46 1.927 11.15 1.334 9.397-3.41 9.397-3.41l.319-6.967zm-53.2-4.298c-3.982 1.334-19.113.444-23.573-2.076l.318 5.781s5.894 2.52 12.583 3.113 9.557-1.186 9.557-1.186l1.115-5.632z"/></g><path d="M239.08 320.926c-3.982-2.817-7.008-4.892-11.627-11.711-1.115-1.779-3.345-3.409-4.46-4.299-2.071-1.778-3.345-3.854-3.823-4.891-.478-.89-3.026.148-2.389 3.261.319 2.372 1.911 4.595 2.548 5.929-1.433 0-3.504-.148-6.53 0s-8.76-.148-7.646 2.965c.319.741.797 1.334.797 2.075 0 .297-.159.741-.159 1.038-.319 1.334.318 2.668 1.433 3.557.319.149.478.297.637.593.319.593 0 1.186.16 1.779s.477 1.186.955 1.779c.797.741.956.445 1.752 1.186.478.444.637 1.482 1.752 2.223.797.445 2.867.593 4.938.593 1.911 0 3.345.593 6.053.593 2.23 0 4.3 1.038 7.964 4.595 8.282 7.264 9.238 9.784 16.724 15.268.797.593 1.434 1.038 2.071 1.483 7.008 4.447 9.716 1.037 15.291-8.005 6.849-11.117 10.353-17.491 10.353-17.491l10.99-30.24c-6.689.741-14.653 7.856-20.547 15.861-2.867 3.706-14.494 20.308-14.494 20.308l-12.743-8.449z" class="N"/><g class="O"><path d="M215.507 310.994c.318.148.637.148.796.296.319.149.478.297.796.445h-.159c1.274-.148 2.708-.148 3.982.593.319.148.637.445.797.593.159.296.318.593.318 1.038 0 .148 0 .296-.159.593-.159.148-.319.296-.478.296-.319.148-.637.148-.956.148l-1.911.445c-.637.148-1.274.148-2.071.148-1.274-.148-2.707-.296-3.822-.741.637.148 1.274.148 1.911.296.637 0 1.274.149 1.911.149s1.275 0 1.912-.149l1.911-.444c.319 0 .637-.148.956-.148s.318-.149.478-.445c0-.445-.478-1.038-.956-1.334-1.115-.593-2.389-.741-3.664-.741l-.637-.593-.955-.445z"/><path d="M220.126 314.848c.477-.148 1.274 0 1.592.445a1.51 1.51 0 0 1 0 1.63c-.637.89-1.433 1.779-2.548 2.224-.637.148-1.115.148-1.752.148h-1.752c-1.115 0-2.23-.148-3.345-.296h3.345c1.115 0 2.23.148 3.345-.149.477-.148.955-.444 1.274-.889.478-.297.796-.741 1.115-1.186s.478-.889.159-1.334c-.159-.445-.796-.741-1.433-.593z"/><path d="M219.648 318.702c.478-.148 1.115-.296 1.593 0 .318.148.478.297.478.593v.741c-.16.593-.637.89-.956 1.186s-.796.741-1.274.889c-.637.149-1.115 0-1.593.149-.478 0-.956.148-1.434.148l-3.026.445c.956-.297 1.911-.593 3.026-.742.478-.148.956-.148 1.593-.296.478 0 1.115 0 1.434-.148.478-.149.796-.445 1.115-.741s.796-.742.796-1.038v-.593c0-.148-.159-.445-.318-.445-.319-.148-.956-.148-1.434-.148z"/><path d="M219.967 321.963c.159 0 .318.148.477.445a.43.43 0 0 1 0 .593l-.477 1.186c-.16.148-.16.296-.319.444l-.478.445c-.318.148-.796.445-1.115.445l.956-.741c.159-.149.318-.297.318-.445.16-.148.16-.297.319-.445.159-.296.319-.741.478-1.037s.159-.742-.159-.89zm2.07-8.004c-.319 1.185.478 4.298 2.548 5.781 2.23 1.482 3.823 1.482 3.823 1.482s-2.071.148-3.982-.741-2.548-1.927-2.548-1.927l-.16.741c-.318-.445-.478-.741-1.593-.593 0 0 1.115-.889 1.434-1.63.319-.593.956-1.631-.637-2.372 0 0 .478 0 .956-.297.318 0 .159-.444.159-.444z"/></g><use xlink:href="#i" class="J"/><use xlink:href="#i" class="I"/><g class="J"><path opacity=".35" d="M251.504 328.634c3.823 2.075 7.327 6.67 7.964 9.338.159-3.409-1.911-8.449-6.69-11.265l-1.274 1.927zm-6.849 16.009c.637-.297 1.274-.741 1.752-1.038a13.78 13.78 0 0 0 2.867-3.113c1.274-2.223 1.912-4.891 1.434-7.411 0-.149.159-.149.159 0 .637 2.668.319 5.633-1.274 8.004-.797 1.186-1.752 2.224-3.027 3.113l-1.592.89c-.16-.149-.319-.297-.319-.445-.159 0-.159 0 0 0z"/></g><path d="M309.482 286.832l15.132 5.336c2.548 1.038 12.424 8.005 8.76 25.348-1.274 5.781-2.867 13.934-4.3 21.939-1.115 6.225 2.707 18.084 5.734 36.91 0 0-13.221 12.303-39.024 9.19-19.751-2.371-23.892-12.303-23.892-12.303 0-18.085 6.212-8.153 1.752-36.317 0 0-2.23-3.261-2.23-10.525 0-7.708 3.982-14.527 9.875-23.273 5.735-8.301 10.831-13.044 10.831-13.044l17.362-3.261z" fill="#fafafa"/><path d="M274.6 270.081c-.637-2.075-3.186-2.223-3.664-4.891s1.115-4.596 3.505-5.781 2.867-3.41 2.389-8.005 3.026-7.263 7.008-7.856c2.071-.297 4.301-.149 5.734-1.483.637-.593.956-1.334 1.274-2.075 1.912-3.261 5.575-4.743 10.354-4.743 1.911 0 4.459.296 6.212 1.185 2.389.89 3.663 1.631 6.052 3.706 2.708-.444 7.646.149 10.194 2.372 1.911 1.482 3.823 3.113 4.46 6.671.478 2.668.159 4.298 1.433 5.781 2.549 2.964 5.735 2.964 7.168 5.484 2.071 3.558-3.026 6.671-.478 11.118 2.23 3.706.637 8.004-3.822 9.635-2.23.741-4.142-.297-7.327.889-3.186 1.038-3.345 3.41-7.487 4.892-3.344 1.186-6.211-1.038-8.919-1.334-3.664-.445-2.549.741-6.212-1.482-1.274-.742-2.071-2.076-3.345-2.817-3.982-2.223-5.256-1.037-10.194.593-1.274.445-5.416 1.482-8.283-1.482-1.433-1.483-2.548-4.151-2.548-6.967-.796 2.52-7.008 2.52-7.646-1.483 1.593 1.631 4.779.297 4.142-1.927z" class="K"/><path d="M314.42 284.312c0-2.224.478-8.153.478-8.153.955 2.075 5.096 2.224 7.167-.445 2.549-3.409 2.549-7.263.797-9.783-1.912-2.668-6.531-2.817-8.602 1.334-3.026.593-4.141-3.854-1.752-7.856 0-9.487-13.857-6.374-16.724-14.824-4.938.593-9.398 4.299-11.309 7.857-1.115 2.075-1.274 3.409-.956 7.708.16 1.63-1.115 3.557-1.433 5.781-1.593 10.08 1.593 14.23 5.097 16.157 1.911 1.038 4.3 1.779 8.919 1.927 0 0 0 1.927-.159 3.113-.159 1.334-.159 1.779-1.911 2.076-.478 0-1.115.148-1.115.148s-7.486 6.522 2.389 8.153c14.813 2.52 20.707-5.93 21.344-8.005-2.39-.296-2.39-1.482-2.23-5.188z" class="N"/><path d="M300.403 273.194l-5.416 1.334c.319 1.483 1.912 2.372 3.345 1.927 1.593-.444 2.549-1.927 2.071-3.261z" fill="#b0494c"/><path d="M300.085 274.232c-1.434-.148-2.868.741-3.186 2.075.478.148.956.148 1.593 0 1.115-.296 1.911-1.037 2.07-2.075h-.477z" fill="#ff9090"/><g class="K"><path d="M286.227 257.778l3.982-1.482c-.478-1.038-1.593-1.631-2.708-1.186a2.17 2.17 0 0 0-1.274 2.668zm19.591 1.186l-3.822-1.927c.477-1.038 1.911-1.482 2.867-.889s1.433 1.927.955 2.816z"/></g><path d="M296.102 284.164c6.849-.297 14.654-2.669 17.202-6.078 0 0-.955 3.558-3.822 5.04-6.372 3.409-13.38 3.113-13.38 3.113v-2.075z" class="O"/><g class="K"><path d="M303.27 262.521c.956 1.631-.797 3.262-2.549 2.372-.318-.148-.477-.296-.637-.593-.955-1.63.797-3.261 2.549-2.371.159.148.478.296.637.592zm-13.22-.889c.955 1.631-.797 3.261-2.549 2.372-.318-.148-.478-.297-.637-.593-.956-1.631.796-3.261 2.548-2.372.319.148.478.445.638.593z"/></g><path d="M288.138 269.34l5.894 2.224 1.592-10.97-7.486 8.746z" class="O"/><path d="M318.083 276.011c.792 0 1.434-.598 1.434-1.334s-.642-1.334-1.434-1.334-1.433.597-1.433 1.334.642 1.334 1.433 1.334z" fill="#ececec"/><g class="E"><path d="M295.784 289.204c-.637.296-5.416 1.63-8.123 2.668-7.487 5.336-13.38 13.489-15.291 16.898-2.708 4.892-4.142 9.043-4.301 16.899-.159 6.819-.956 27.275-2.548 38.541.796 2.668 11.946 5.781 11.946 5.781.477-10.228-2.549-42.098-.319-52.92 2.867-12.896 15.132-24.606 17.999-26.385l.637-1.482zm18.636-.742v2.076c-6.85 16.602-5.416 24.162-4.62 34.983 2.071 25.941 5.416 48.472 5.416 48.472s19.432.148 26.441-8.597c0 0-6.212-13.193-8.602-26.386-1.433-7.856 2.549-24.014 1.115-35.428-.637-4.743-2.548-9.487-6.371-10.673l-5.893-1.63-7.486-2.817z"/></g><path d="M339.745 390.743c3.027.89 7.009-2.816 8.124-4.002s-.319-4.15-.956-6.67 0-6.671-3.345-5.485-10.194 9.487-3.823 16.157z" class="O"/><path d="M324.454 293.947c10.035 1.927 10.991 1.63 15.769 10.524 5.575 10.229 18.158 38.245 20.229 42.099 1.911 3.854 3.823 6.819-1.434 12.896l-20.706 23.124c-1.752 1.928.159 7.709 6.53 6.967 0 0-4.778 4.003-7.486 3.558-2.23-.445-7.964-3.558-11.309-10.08-2.07-4.002-.318-7.263 2.867-11.71 3.823-5.337 13.061-19.715 13.061-19.715l-18.636-36.762c-.159-.148-6.211-13.786 1.115-20.901z" class="N"/><use xlink:href="#j" class="J"/><use xlink:href="#j" class="I"/><path opacity=".35" d="M344.205 361.245l-2.867-2.372-2.389-2.668c-.159-.148-.318-.445-.318-.593l-.478.741c0 .148.159.297.159.297.637.889 1.434 1.779 2.389 2.668.797.889 1.752 1.63 2.867 2.372s2.23 1.482 3.504 1.927c.319.148.319-.297.16-.445l-3.027-1.927z" class="J"/><path d="M186.358 52.03l-13.857-7.115c-2.39-1.186-2.071-3.409.637-4.892s11.627-1.482 13.857-.148l11.468 5.781c3.505 1.927 0 4.595-2.867 6.078-2.707 1.334-6.849 1.482-9.238.297z" class="C H"/><path d="M184.765 37.948c-6.53-3.558-11.786-11.859-11.786-18.826 0-2.52.796-4.595 1.911-5.929-3.504.297-5.893 2.965-5.893 7.708 0 6.967 5.256 15.416 11.786 18.826 4.142 2.224 7.646 1.927 9.716-.296-1.592.148-3.504-.297-5.734-1.482z" class="D"/><path d="M183.81 38.392c-6.531-3.558-11.787-11.859-11.787-18.826s5.256-9.783 11.787-6.226 11.786 11.859 11.786 18.826-5.256 9.783-11.786 6.226z" class="C"/><path d="M196.234 35.724c0-.889-.16-1.779-.16-2.668l4.779-.593c-.478-2.223-1.275-4.447-2.23-6.67l-5.416-1.482a30.93 30.93 0 0 0-3.345-5.336l1.275-5.04c-1.593-1.927-3.345-3.558-5.257-5.04l-2.867 3.558c-.796-.593-1.592-1.038-2.389-1.482s-1.593-.741-2.389-1.038l-2.867-6.967c-1.912-.445-3.504-.593-5.256-.445l1.274 6.522c-1.274.296-2.389.889-3.345 1.779l-5.416-4.299c-.955 1.186-1.592 2.668-2.229 4.447l4.778 5.633c-.159.741-.159 1.63-.159 2.372 0 .889.159 1.779.159 2.668l-4.778.593c.477 2.224 1.274 4.447 2.229 6.671l5.416 1.482c.956 1.927 2.071 3.706 3.345 5.336l-1.274 5.04c1.592 1.927 3.344 3.558 5.256 5.04l2.867-3.558c.796.593 1.593 1.038 2.389 1.482s1.593.741 2.389 1.038l2.867 6.671c1.912.445 3.505.593 5.257.445l-1.275-6.522c1.275-.297 2.39-.889 3.345-1.779l5.416 4.299c.955-1.186 1.593-2.668 2.23-4.447l-4.779-5.633c.16-.445.16-1.334.16-2.075zm-15.451 4.002c-6.53-3.558-11.786-11.859-11.786-18.826s5.256-9.783 11.786-6.226 11.787 11.859 11.787 18.826-5.256 9.783-11.787 6.226z" class="F"/><path d="M182.854 7.115L179.987.593l-4.619 2.372 2.867 6.671 4.619-2.52z" class="D"/><g class="G"><path d="M178.235 9.635c.796.296 1.593.593 2.389 1.038l2.389 1.482 2.867-3.558-.796-.445c-.796-.445-1.593-.741-2.389-1.038l-4.46 2.52zm1.752-9.042c-1.911-.445-3.504-.593-5.256-.445l-4.619 2.372c1.593-.148 3.345 0 5.256.445l4.619-2.372z"/><path d="M195.756 11.266c-1.593-1.927-3.345-3.558-5.256-5.04l-4.62 2.372c1.912 1.482 3.505 3.261 5.257 5.04l4.619-2.372z"/></g><g class="D"><path d="M191.137 13.786l-1.275 5.04 4.619-2.372 1.275-5.188-4.619 2.52z"/><path d="M189.862 18.826c1.275 1.631 2.39 3.558 3.345 5.336l4.619-2.372c-.955-1.927-2.07-3.706-3.345-5.336l-4.619 2.372z"/></g><path d="M193.207 24.162l5.416 1.631 4.619-2.52-5.416-1.482-4.619 2.372z" class="G"/><g class="D"><path d="M198.623 25.793c.955 2.224 1.592 4.447 2.229 6.67l4.62-2.372c-.478-2.224-1.275-4.447-2.23-6.671l-4.619 2.372zM171.545 8.894l-.318-1.927-3.982-2.965-4.62 2.372 5.416 4.299c1.115-.741 2.23-1.334 3.504-1.779zm29.307 34.835c-.477 1.779-1.274 3.113-2.229 4.447l4.619-2.372c.955-1.186 1.592-2.668 2.23-4.447l-4.62 2.372zm-.318-8.005c.159-.741.159-1.631.159-2.372v-.741l-4.778.593c.159.889.159 1.779.159 2.668s-.159 1.63-.159 2.372l4.619-2.52z"/></g><path d="M196.074 38.096l4.779 5.633 4.459-2.372-4.778-5.633-4.46 2.372z" class="G"/><path d="M193.207 43.877c-.955.889-2.07 1.482-3.345 1.779l1.275 6.522 4.619-2.372-.956-4.595-1.593-1.334z" class="D"/><path d="M165.174 19.567l-4.619 2.52 4.779-.593c-.16-.593-.16-1.186-.16-1.927z" class="G"/><path d="M178.235 42.395l-2.867 3.558 4.619-2.372-1.752-1.186z" class="D"/><g class="B"><path d="M170.908 9.19c-.16 0-.478.148-.637.148.318 0 .477 0 .637-.148zm-6.212 12.452l-3.982.445v.148l3.982-.445v-.148zm26.281-7.56l-1.274 5.04c1.274 1.631 2.389 3.558 3.345 5.337l5.416 1.482c.955 2.075 1.592 4.299 2.07 6.522l.478-.148c-.478-2.224-1.274-4.447-2.23-6.671l-5.415-1.482c-.956-1.927-2.071-3.706-3.345-5.336l1.274-5.04c-1.593-1.927-3.345-3.558-5.256-5.04l-.16.593c1.912 1.334 3.505 2.965 5.097 4.743zm-10.034 25.644c-6.531-3.558-11.787-11.859-11.787-18.826 0-3.113.956-5.336 2.708-6.522-1.912 1.186-3.186 3.558-3.186 6.819 0 6.967 5.256 15.416 11.787 18.826 3.345 1.779 6.212 1.927 8.442.741-.159 0-.319.148-.478.148-2.071.593-4.778.297-7.486-1.186z"/><path d="M190.659 45.359c.796-.296 1.433-.593 2.07-1.186l-.159-.148c-.478.593-1.115 1.038-1.911 1.334zm-22.618-34.538c-.16 0 0-.148.159-.296l-5.256-4.151c-.16.148-.319.445 0 .445l5.097 4.002zm21.662 35.131l1.274 6.226c-.159 0 .159 0 .478 0l-1.274-6.374c-.319 0-.637 0-.478.148zm6.849-10.376c0-.741 0-1.631-.159-2.372h-.478c.159.889.159 1.779.159 2.668s-.159 1.63-.159 2.372l4.779 5.633c-.478 1.482-.956 2.668-1.753 3.706v.296c.956-1.186 1.593-2.668 2.23-4.447l-4.778-5.633c0-.445.159-1.334.159-2.224zM175.209 3.113l2.867 6.671c.796.296 1.592.593 2.389 1.038l2.389 1.482.159-.445-2.07-1.334c-.797-.445-1.593-.741-2.39-1.038l-2.867-6.522c-1.911-.445-3.504-.593-5.256-.445v.296c1.434-.148 3.186 0 4.779.296zm2.548 39.578l-2.389 2.965.318.297 2.389-2.965-.318-.297z"/></g><path d="M184.288 20.753c-1.434-.741-2.549-.889-3.504-.297l-2.867 1.631c.955-.593 2.229-.593 3.822.148 2.708 1.482 5.097 5.188 5.097 8.153 0 1.482-.637 2.52-1.593 3.113 0 0 .16 0 .319-.148l2.389-1.334c.797-.445 1.434-1.482 1.434-2.965 0-3.261-2.23-6.819-5.097-8.301z" class="P"/><path d="M181.898 22.087c-2.708-1.482-5.097-.296-5.097 2.668s2.23 6.522 5.097 8.153c2.708 1.482 5.097.297 5.097-2.668-.159-2.965-2.389-6.671-5.097-8.153z" class="F"/><path d="M181.898 22.087c-1.433-.741-2.707-.89-3.663-.297.956-.296 2.071-.148 3.185.445 2.708 1.482 5.097 5.188 5.097 8.153 0 1.482-.477 2.52-1.433 2.965 1.115-.445 1.752-1.482 1.752-3.113 0-2.965-2.23-6.671-4.938-8.153z" class="B"/><path d="M19.273 61.962l46.51 25.051c.956.445 1.593 1.63 1.593 4.002v52.92c0-.297-.796.889-1.593 1.334l-6.53 3.558c-.956.444-2.389.444-3.345 0L9.238 123.775c-.956-.445-1.593-1.631-1.593-2.668V68.188c0-1.038.796-2.224 1.593-2.668l6.53-3.558c1.115-.445 2.548-.445 3.504 0z" class="J"/><path d="M55.748 148.827c.956.444 2.549.444 3.345 0l6.531-3.558c.956-.445 1.593-1.631 1.593-1.334V91.016c0-1.779-.159-2.372-.478-2.965l-9.875 5.336c.319.445.478 1.038.478.148v52.92c.159 2.372-.637 2.816-1.593 2.372z" fill="#2672ab"/><path d="M7.646 67.891c.159-.741.796-1.038 1.593-.593l46.51 25.051c.478.296.796.741 1.115 1.186l9.875-5.336c-.319-.445-.637-.889-1.115-1.038l-46.351-25.2c-.956-.445-2.389-.445-3.345 0l-6.531 3.558c-.956.445-1.593 1.482-1.752 2.372z" class="C"/><use xlink:href="#k" class="B"/><use xlink:href="#k" class="C"/><path d="M9.238 67.298l46.51 25.051c.956.445 1.593 1.631 1.593 2.668v17.195l14.813 14.675c.956.89.319 2.224-.956 2.372l-13.857-.89v19.716c0 1.037-.796 1.334-1.593.889l-46.51-25.2c-.956-.444-1.593-1.63-1.593-2.668V68.188c0-1.038.637-1.482 1.593-.889z" class="B"/><path d="M27.237 123.034h-.478c-1.274-.148-2.23-.889-2.708-1.927l-5.734-11.266c-.796-1.63 0-3.706 1.752-4.447s3.982 0 4.778 1.631l3.345 6.67 16.406-17.788c1.274-1.334 3.504-1.482 5.097-.297 1.433 1.186 1.593 3.261.319 4.743l-20.069 21.494c-.796.741-1.752 1.186-2.708 1.186z" fill="#4ad3af"/><path d="M215.825 392.373l-47.307-47.583c-4.459-4.447-9.397-4.447-11.149-.148l-4.619 10.377c-1.752 4.298.318 11.414 4.778 15.861l47.306 47.583c4.46 4.447 9.398 4.447 11.15.148l4.619-10.377c1.752-4.298-.478-11.414-4.778-15.861zm-24.37-13.637c-1.593-.889-2.867-2.817-2.867-4.595s1.274-2.372 2.867-1.483 2.867 2.817 2.867 4.596c0 1.63-1.274 2.371-2.867 1.482z" class="E"/><g class="I"><path d="M215.824 392.374l-47.306-47.583c-3.026-2.965-6.212-4.002-8.601-2.965 2.23-.444 5.097.593 7.645 3.262l47.307 47.583c4.46 4.447 6.53 11.562 4.778 15.861l-4.619 10.376c-.637 1.334-1.434 2.372-2.549 2.816 1.593-.296 2.868-1.334 3.505-3.113l4.619-10.376c1.752-4.299-.478-11.414-4.779-15.861zm-55.588-30.833l3.663-.148-3.504-4.595 1.593-1.334 2.867 5.188 1.115-4.447 2.23 2.224-2.071 3.409 4.142 1.927-.16 2.816-4.141-2.964 1.433 5.336-2.229-.445-.638-5.188-3.185 1.334-1.115-3.113zm10.353 10.525l3.663-.148-3.504-4.595 1.593-1.334 2.867 5.188 1.115-4.447 2.23 2.223-2.071 3.41 4.142 1.927-.16 2.816-4.141-2.965 1.433 5.337-2.229-.445-.638-5.188-3.185 1.334-1.115-3.113zm10.513 10.525l3.663-.149-3.504-4.595 1.593-1.334 2.867 5.188 1.115-4.447 2.23 2.224-2.071 3.409 4.141 1.927-.159 2.817-4.141-2.965 1.433 5.336-2.23-.444-.637-5.189-3.185 1.335-1.115-3.113zm10.353 10.524l3.663-.148-3.504-4.595 1.593-1.334 2.867 5.188 1.115-4.447 2.23 2.223-2.071 3.41 4.141 1.927-.159 2.816-4.141-2.965 1.433 5.337-2.23-.445-.637-5.188-3.185 1.334-1.115-3.113zm10.512 10.525l3.664-.148-3.504-4.596 1.592-1.334 2.867 5.188 1.115-4.447 2.23 2.224-2.07 3.409 4.141 1.927-.159 2.817-4.142-2.965 1.434 5.336-2.071-.444-.637-5.188-3.185 1.334-1.275-3.113z"/></g></g><defs><linearGradient id="A" x1="60.093" y1="410.878" x2="395.078" y2="410.878" xlink:href="#l"><stop stop-color="#b7bee9"/><stop offset=".177" stop-color="#bac1eb"/><stop offset=".33" stop-color="#c5cbef"/><stop offset=".434" stop-color="#d1d6f5"/><stop offset=".462" stop-color="#dbe0fa"/><stop offset=".5" stop-color="#e5e9ff"/><stop offset=".525" stop-color="#d1d6f6"/><stop offset=".561" stop-color="#afb6e5"/></linearGradient><linearGradient id="B" x1="217.149" y1="271.138" x2="164.741" y2="416.506" xlink:href="#l"><stop stop-color="#afb6e5"/><stop offset=".145" stop-color="#b6bce8"/><stop offset=".349" stop-color="#c8cdf1"/><stop offset=".581" stop-color="#e5e9ff"/><stop offset=".855" stop-color="#f5f6ff"/><stop offset="1" stop-color="#fff"/></linearGradient><radialGradient id="C" cx="0" cy="0" r="1" gradientTransform="translate(178.323 383.695) scale(90.157 83.9041)" xlink:href="#l"><stop stop-color="#fff"/><stop offset="1"/></radialGradient><linearGradient id="D" x1="117.205" y1="48.56" x2="225.179" y2="406.708" xlink:href="#l"><stop stop-color="#e0daef"/><stop offset=".192" stop-color="#e1dbf0"/><stop offset=".283" stop-color="#e2dcf0"/><stop offset=".409" stop-color="#dfd8ef"/><stop offset=".909" stop-color="#dfd8ef"/><stop offset="1" stop-color="#e0daef"/></linearGradient><linearGradient id="E" x1="117.085" y1="48.607" x2="225.055" y2="406.746" xlink:href="#l"><stop stop-color="#dfd9ef"/><stop offset=".192" stop-color="#e1dbf1"/><stop offset=".283" stop-color="#e4def1"/><stop offset=".409" stop-color="#dcd7ee"/><stop offset=".909" stop-color="#dcd7ee"/><stop offset="1" stop-color="#dfd9ef"/></linearGradient><linearGradient id="F" x1="116.965" y1="48.653" x2="224.932" y2="406.782" xlink:href="#l"><stop stop-color="#ded9f0"/><stop offset=".192" stop-color="#e2dcf1"/><stop offset=".283" stop-color="#e5dff1"/><stop offset=".409" stop-color="#dad5ee"/><stop offset=".909" stop-color="#dad5ee"/><stop offset="1" stop-color="#ded9f0"/></linearGradient><linearGradient id="G" x1="116.844" y1="48.7" x2="224.809" y2="406.819" xlink:href="#l"><stop stop-color="#ddd8f0"/><stop offset=".192" stop-color="#e2ddf2"/><stop offset=".283" stop-color="#e7e1f2"/><stop offset=".409" stop-color="#d7d3ed"/><stop offset=".909" stop-color="#d7d3ed"/><stop offset="1" stop-color="#ddd8f0"/></linearGradient><linearGradient id="H" x1="116.724" y1="48.747" x2="224.686" y2="406.857" xlink:href="#l"><stop stop-color="#dcd8f0"/><stop offset=".192" stop-color="#e2def3"/><stop offset=".283" stop-color="#e8e3f3"/><stop offset=".409" stop-color="#d5d1ed"/><stop offset=".909" stop-color="#d5d1ed"/><stop offset="1" stop-color="#dcd8f0"/></linearGradient><linearGradient id="I" x1="116.603" y1="48.794" x2="224.562" y2="406.894" xlink:href="#l"><stop stop-color="#dbd8f0"/><stop offset=".192" stop-color="#e2def4"/><stop offset=".283" stop-color="#eae5f4"/><stop offset=".393" stop-color="#d6d3ed"/><stop offset=".409" stop-color="#d3d0ec"/><stop offset=".909" stop-color="#d3d0ec"/><stop offset="1" stop-color="#dbd8f0"/></linearGradient><linearGradient id="J" x1="116.483" y1="48.841" x2="224.439" y2="406.931" xlink:href="#l"><stop stop-color="#dad7f0"/><stop offset=".192" stop-color="#e2dff4"/><stop offset=".283" stop-color="#ebe6f4"/><stop offset=".378" stop-color="#d7d5ee"/><stop offset=".409" stop-color="#d0ceec"/><stop offset=".909" stop-color="#d0ceec"/><stop offset="1" stop-color="#dad7f0"/></linearGradient><linearGradient id="K" x1="116.363" y1="48.888" x2="224.316" y2="406.968" xlink:href="#l"><stop stop-color="#d9d7f1"/><stop offset=".192" stop-color="#e3e0f5"/><stop offset=".283" stop-color="#ece8f5"/><stop offset=".37" stop-color="#d8d6ee"/><stop offset=".409" stop-color="#cecceb"/><stop offset=".909" stop-color="#cecceb"/><stop offset=".999" stop-color="#d9d7f1"/></linearGradient><linearGradient id="L" x1="116.242" y1="48.935" x2="224.192" y2="407.006" xlink:href="#l"><stop stop-color="#d8d7f1"/><stop offset=".192" stop-color="#e3e0f6"/><stop offset=".277" stop-color="#ede9f6"/><stop offset=".283" stop-color="#eeeaf6"/><stop offset=".361" stop-color="#dad8f0"/><stop offset=".409" stop-color="#cccbeb"/><stop offset=".909" stop-color="#cccbeb"/><stop offset=".993" stop-color="#d7d6f0"/><stop offset="1" stop-color="#d8d7f1"/></linearGradient><linearGradient id="M" x1="116.122" y1="48.982" x2="224.069" y2="407.043" xlink:href="#l"><stop stop-color="#d7d6f1"/><stop offset=".192" stop-color="#e3e1f7"/><stop offset=".272" stop-color="#edeaf7"/><stop offset=".283" stop-color="#efecf7"/><stop offset=".354" stop-color="#dbdaf0"/><stop offset=".409" stop-color="#c9c9ea"/><stop offset=".909" stop-color="#c9c9ea"/><stop offset=".984" stop-color="#d4d3ef"/><stop offset="1" stop-color="#d7d6f1"/></linearGradient><linearGradient id="N" x1="116.002" y1="49.029" x2="223.946" y2="407.08" xlink:href="#l"><stop stop-color="#d7d6f1"/><stop offset=".192" stop-color="#e3e2f7"/><stop offset=".263" stop-color="#edeaf7"/><stop offset=".283" stop-color="#f1edf7"/><stop offset=".348" stop-color="#dddbf1"/><stop offset=".409" stop-color="#c7c7ea"/><stop offset=".909" stop-color="#c7c7ea"/><stop offset=".976" stop-color="#d2d1ef"/><stop offset="1" stop-color="#d7d6f1"/></linearGradient><linearGradient id="O" x1="115.881" y1="49.075" x2="223.822" y2="407.117" xlink:href="#l"><stop stop-color="#d6d5f1"/><stop offset=".192" stop-color="#e3e3f8"/><stop offset=".259" stop-color="#edebf8"/><stop offset=".283" stop-color="#f2eff8"/><stop offset=".343" stop-color="#deddf2"/><stop offset=".409" stop-color="#c4c5e9"/><stop offset=".909" stop-color="#c4c5e9"/><stop offset=".97" stop-color="#cfcfee"/><stop offset="1" stop-color="#d6d5f1"/></linearGradient><linearGradient id="P" x1="115.761" y1="49.122" x2="223.699" y2="407.154" xlink:href="#l"><stop stop-color="#d5d5f1"/><stop offset=".192" stop-color="#e3e3f9"/><stop offset=".253" stop-color="#edebf9"/><stop offset=".283" stop-color="#f4f1f9"/><stop offset=".339" stop-color="#e0dff3"/><stop offset=".409" stop-color="#c2c4e9"/><stop offset=".909" stop-color="#c2c4e9"/><stop offset=".968" stop-color="#cdceee"/><stop offset="1" stop-color="#d5d5f1"/></linearGradient><linearGradient id="Q" x1="115.64" y1="49.169" x2="223.576" y2="407.191" xlink:href="#l"><stop stop-color="#d4d5f2"/><stop offset=".192" stop-color="#e4e4fa"/><stop offset=".253" stop-color="#eeedfa"/><stop offset=".283" stop-color="#f5f3fa"/><stop offset=".336" stop-color="#e1e1f3"/><stop offset=".409" stop-color="#c0c2e8"/><stop offset=".909" stop-color="#c0c2e8"/><stop offset=".966" stop-color="#cbcced"/><stop offset="1" stop-color="#d4d5f2"/></linearGradient><linearGradient id="R" x1="115.52" y1="49.216" x2="223.452" y2="407.228" xlink:href="#l"><stop stop-color="#d3d4f2"/><stop offset=".192" stop-color="#e4e5fa"/><stop offset=".25" stop-color="#eeedfa"/><stop offset=".283" stop-color="#f6f4fa"/><stop offset=".333" stop-color="#e2e2f4"/><stop offset=".409" stop-color="#bdc0e8"/><stop offset=".909" stop-color="#bdc0e8"/><stop offset=".962" stop-color="#c8caed"/><stop offset="1" stop-color="#d3d4f2"/></linearGradient><linearGradient id="S" x1="115.4" y1="49.263" x2="223.329" y2="407.266" xlink:href="#l"><stop stop-color="#d2d4f2"/><stop offset=".192" stop-color="#e4e5fb"/><stop offset=".246" stop-color="#eeeefb"/><stop offset=".283" stop-color="#f8f6fb"/><stop offset=".33" stop-color="#e4e4f5"/><stop offset=".409" stop-color="#bbbfe7"/><stop offset=".909" stop-color="#bbbfe7"/><stop offset=".96" stop-color="#c6c9ec"/><stop offset="1" stop-color="#d2d4f2"/></linearGradient><linearGradient id="T" x1="115.279" y1="49.31" x2="223.206" y2="407.303" xlink:href="#l"><stop stop-color="#d1d4f2"/><stop offset=".192" stop-color="#e4e6fc"/><stop offset=".244" stop-color="#eeeffc"/><stop offset=".283" stop-color="#f9f8fc"/><stop offset=".328" stop-color="#e5e6f6"/><stop offset=".409" stop-color="#b9bde7"/><stop offset=".909" stop-color="#b9bde7"/><stop offset=".958" stop-color="#c4c7ec"/><stop offset="1" stop-color="#d1d4f2"/></linearGradient><linearGradient id="U" x1="115.159" y1="49.357" x2="223.082" y2="407.34" xlink:href="#l"><stop stop-color="#d0d3f2"/><stop offset=".192" stop-color="#e4e7fd"/><stop offset=".24" stop-color="#eeeffd"/><stop offset=".283" stop-color="#fbfafd"/><stop offset=".325" stop-color="#e7e8f6"/><stop offset=".409" stop-color="#b6bbe6"/><stop offset=".909" stop-color="#b6bbe6"/><stop offset=".955" stop-color="#c1c5eb"/><stop offset="1" stop-color="#d0d3f2"/></linearGradient><linearGradient id="V" x1="115.039" y1="49.404" x2="222.959" y2="407.377" xlink:href="#l"><stop stop-color="#cfd3f3"/><stop offset=".192" stop-color="#e5e8fd"/><stop offset=".24" stop-color="#eff0fd"/><stop offset=".283" stop-color="#fcfbfd"/><stop offset=".324" stop-color="#e8e9f7"/><stop offset=".407" stop-color="#b6bbe7"/><stop offset=".409" stop-color="#b4b9e6"/><stop offset=".909" stop-color="#b4b9e6"/><stop offset=".954" stop-color="#bfc3eb"/><stop offset="1" stop-color="#cfd3f3"/></linearGradient><linearGradient id="W" x1="114.918" y1="49.451" x2="222.836" y2="407.414" xlink:href="#l"><stop stop-color="#ced2f3"/><stop offset=".192" stop-color="#e5e8fe"/><stop offset=".237" stop-color="#eff0fe"/><stop offset=".283" stop-color="#fefdfe"/><stop offset=".321" stop-color="#eaebf8"/><stop offset=".4" stop-color="#b8bee7"/><stop offset=".409" stop-color="#b1b8e5"/><stop offset=".909" stop-color="#b1b8e5"/><stop offset=".951" stop-color="#bcc2ea"/><stop offset="1" stop-color="#ced2f3"/></linearGradient><linearGradient id="X" x1="114.798" y1="49.497" x2="222.712" y2="407.451" xlink:href="#l"><stop stop-color="#cdd2f3"/><stop offset=".192" stop-color="#e5e9ff"/><stop offset=".236" stop-color="#eff2ff"/><stop offset=".283" stop-color="#fff"/><stop offset=".32" stop-color="#ebedf9"/><stop offset=".396" stop-color="#b9bfe8"/><stop offset=".409" stop-color="#afb6e5"/><stop offset=".909" stop-color="#afb6e5"/><stop offset=".95" stop-color="#bac0ea"/><stop offset="1" stop-color="#cdd2f3"/></linearGradient><linearGradient id="Y" x1="-80.443" y1="323.191" x2="344.194" y2="136.467" xlink:href="#l"><stop stop-color="#afb6e5"/><stop offset=".145" stop-color="#b6bce8"/><stop offset=".349" stop-color="#c8cdf1"/><stop offset=".581" stop-color="#e5e9ff"/><stop offset=".855" stop-color="#f5f6ff"/><stop offset="1" stop-color="#fff"/></linearGradient><linearGradient id="Z" x1="264.556" y1="219.127" x2="204.176" y2="184.37" xlink:href="#l"><stop stop-color="#afb6e5"/><stop offset=".145" stop-color="#b6bce8"/><stop offset=".349" stop-color="#c8cdf1"/><stop offset=".581" stop-color="#e5e9ff"/><stop offset=".855" stop-color="#f5f6ff"/><stop offset="1" stop-color="#fff"/></linearGradient><linearGradient id="a" x1="0" y1="414.659" x2="73.824" y2="414.659" xlink:href="#l"><stop stop-color="#e9f6ff"/><stop offset="1" stop-color="#d4ecff"/></linearGradient><linearGradient id="b" x1="48.632" y1="284.846" x2="110.624" y2="284.846" xlink:href="#l"><stop stop-color="#cdd2f3"/><stop offset=".192" stop-color="#e5e9ff"/><stop offset=".236" stop-color="#eff2ff"/><stop offset=".283" stop-color="#fff"/><stop offset=".32" stop-color="#ebedf9"/><stop offset=".396" stop-color="#b9bfe8"/><stop offset=".409" stop-color="#afb6e5"/><stop offset=".909" stop-color="#afb6e5"/><stop offset=".95" stop-color="#bac0ea"/><stop offset="1" stop-color="#cdd2f3"/></linearGradient><linearGradient id="c" x1="80.767" y1="251.207" x2="106.238" y2="278.576" xlink:href="#l"><stop stop-color="#afb6e5"/><stop offset=".145" stop-color="#b6bce8"/><stop offset=".349" stop-color="#c8cdf1"/><stop offset=".581" stop-color="#e5e9ff"/><stop offset=".855" stop-color="#f5f6ff"/><stop offset="1" stop-color="#fff"/></linearGradient><clipPath id="d"><path d="M0 0h363v579H0z" class="B"/></clipPath><path id="e" d="M58.934 403.492l12.424-6.671s7.486-28.609 4.46-54.402c-4.141-36.169-29.785-49.806-39.501-46.693s-12.583 13.637 3.504 35.279c9.557 12.749 21.184 39.134 19.114 72.487z"/><path id="f" d="M152.59 239.397c0 1.927 1.434 4.299 3.345 5.336 1.752 1.038 3.345.149 3.345-1.778s-1.433-4.299-3.345-5.337c-1.911-.889-3.345-.148-3.345 1.779z"/><path id="g" d="M53.996 478.053v2.668c0 3.113 2.23 6.226 6.69 8.746 6.69 3.558 16.565 4.447 24.848 2.668l7.645 4.151 5.893-1.186 3.981 2.223.16 4.596 2.23 1.186 5.415.444 3.982 2.076v2.519l4.938 2.669h12.424l4.46-2.372v-2.668l-39.98-18.826c1.911-1.779 2.708-3.854 2.708-5.781v-2.668c-.637-2.669-2.867-4.003-6.69-5.93-8.92-4.743-23.414-4.743-32.175 0-3.823 1.631-6.212 2.669-6.531 5.485zm12.265-3.113c2.549-1.334 6.69-1.334 9.079 0 2.549 1.334 2.549 3.558 0 4.892s-6.69 1.334-9.079 0c-2.548-1.334-2.548-3.558 0-4.892z"/><path id="h" d="M60.686 486.65c6.69 3.558 16.565 4.448 24.848 2.669l7.645 4.15 5.893-1.186 3.981 2.224.16 4.595 2.23 1.186 5.415.445 4.301 2.223-.319 2.372 4.938 2.668h12.424l4.46-2.372-39.98-21.493c4.779-4.596 3.345-10.525-3.823-14.527-8.92-4.744-23.414-4.744-32.175 0-8.92 4.595-8.92 12.303 0 17.046zm5.575-14.526c2.549-1.334 6.69-1.334 9.079 0 2.549 1.334 2.549 3.557 0 4.891s-6.69 1.334-9.079 0c-2.548-1.334-2.548-3.409 0-4.891z"/><path id="i" d="M287.66 291.872c-9.556 1.63-12.901 1.63-22.777 16.454l-13.379 20.159-7.009-4.002c1.275 1.186 3.823 7.56 2.071 11.414s-5.575 5.485-5.575 5.485 3.982 3.854 7.805 6.522 5.893 3.113 8.123 2.52c2.389-.593 4.619-2.965 10.194-9.19 5.734-6.375 12.583-15.861 12.583-15.861l7.964-33.501z"/><path id="j" d="M323.977 293.354c-2.389 2.224-6.212 10.673-.956 22.828l18.477 35.28-6.053 9.042s4.301 5.188 7.964 7.56 7.008 1.482 7.008 1.482 7.805-8.005 10.513-11.562 3.185-4.595-.319-12.452c-3.345-7.56-18.954-41.802-21.343-45.359-2.39-3.41-5.416-5.781-15.291-6.819z"/><path id="k" d="M71.995 128.963l9.238-4.891c.796-.445 1.115-1.483.319-2.224l-14.176-15.12-9.875 5.337 14.813 14.675c.637.741.319 1.779-.319 2.223z"/><linearGradient id="l" gradientUnits="userSpaceOnUse"/></defs></svg>