<svg xmlns="http://www.w3.org/2000/svg" xmlns:xlink="http://www.w3.org/1999/xlink" width="334" height="575" fill="none" xmlns:v="https://vecta.io/nano"><style><![CDATA[.B{fill:#fff}.C{fill:#2196f3}.D{fill:#72b5e8}.E{fill:#673ab7}.F{fill:#a8cff0}.G{fill:#d1ebff}.H{opacity:.2}.I{fill:#bdaae8}.J{fill:#d268cc}.K{fill:#1a2e35}.L{fill:#001a46}.M{fill:#afb6e5}.N{fill:#d4ecff}.O{fill:#92b4d1}.P{fill:#ffbea7}.Q{fill:#ff9a79}.R{fill:#4f9fdb}]]></style><g clipPath="url(#d)"><use xlink:href="#e" class="J"/><use xlink:href="#e" fill="#6aefcf"/><path d="M58.915 386.719c-.586-.147-.879-.442-.733-.883 6.302-33.122-5.276-70.514-19.492-85.971a.9.9 0 0 1 0-1.177.89.89 0 0 1 1.172 0c14.509 15.751 26.38 53.731 19.932 87.442-.147.442-.44.736-.879.589z" class="B"/><path d="M25.354 417.486c-1.759.883-6.302-3.092-7.474-3.975-2.198-1.619-3.81-3.827-4.983-6.33-1.319-2.944-1.466-5.888-.879-8.98.293-1.619.879-3.091 1.319-4.71l1.612-4.564c.44-1.472 1.026-3.091.879-4.563-.293-3.239-2.931-5.594-5.422-7.655-2.638-2.208-5.423-5.153-5.276-8.98.147-2.944 1.759-5.594 3.81-7.802 1.905-2.208 4.25-4.122 6.009-6.477 1.319-1.767 2.345-3.681 2.198-5.889 0-1.325-.586-2.649-1.026-3.827-1.172-2.503-2.931-4.858-3.664-7.655-.733-2.65-.44-6.036 1.612-7.802 1.759-1.472 4.25-1.619 6.595-1.325 2.052.294 4.104 1.325 6.009 2.503 5.862 3.68 8.94 11.04 15.242 13.984 2.345 1.178 5.129 1.473 7.621 2.356s5.129 2.208 6.155 4.71c2.052 4.858-2.491 10.452-1.172 15.457 1.172 4.564 5.422 6.478 7.621 10.452 1.026 1.767 1.172 3.828.879 5.889-.44 3.386-1.026 5.888-2.931 9.716-1.466 3.091-5.716 8.979-5.716 8.979l-29.018 16.488z" fill="#4ad3af"/><g class="K"><path d="M41.915 408.8c-.44 0-.733-.441-.733-.883 2.785-29.883-9.673-63.594-19.345-73.752a.71.71 0 0 1 0-1.03c.293-.295.733-.295 1.026 0 9.966 10.304 22.57 44.604 19.785 74.929a.69.69 0 0 1-.733.736z"/><path d="M38.984 371.998h-.147c-9.38-3.386-21.251-4.563-21.397-4.563-.44 0-.733-.442-.733-.884s.44-.736.879-.736c.146 0 12.164 1.178 21.837 4.711.44.147.586.589.44 1.03-.293.295-.586.442-.879.442z"/></g><path d="M116.072 95.097L96.58 84.351c-3.224-1.914-2.785-5.152.879-7.361 3.811-2.208 16.268-2.208 19.492-.294l15.975 8.685c4.983 2.944 0 7.066-4.104 9.127-3.81 2.208-9.526 2.503-12.75.589z" class="C H"/><path d="M113.874 73.752c-9.087-5.3-16.414-17.96-16.414-28.559 0-3.828 1.026-6.919 2.784-8.833-4.983.294-8.354 4.564-8.354 11.63 0 10.452 7.328 23.259 16.415 28.559 5.715 3.239 10.698 2.797 13.629-.589-2.345.294-5.129-.442-8.06-2.208z" class="D"/><path d="M112.555 74.488c-9.087-5.299-16.415-17.959-16.415-28.559 0-10.452 7.328-14.721 16.415-9.421 9.086 5.447 16.414 18.107 16.414 28.559s-7.328 14.721-16.414 9.421z" class="C"/><path d="M129.848 70.366c0-1.325-.146-2.65-.293-3.975l6.595-.883a67.05 67.05 0 0 0-3.078-10.157l-7.621-2.355c-1.319-2.797-2.931-5.594-4.689-8.244l1.758-7.655c-2.198-2.797-4.689-5.447-7.327-7.655l-3.811 5.447c-1.026-.883-2.198-1.619-3.371-2.208s-2.198-1.178-3.37-1.619l-4.104-10.01c-2.638-.736-4.983-.883-7.328-.736l1.759 9.716a10 10 0 0 0-4.69 2.65l-7.621-6.477c-1.319 1.767-2.345 3.975-3.078 6.624l6.595 8.538c-.147 1.178-.293 2.355-.293 3.68s.147 2.65.293 3.975l-6.595.883a67.03 67.03 0 0 0 3.078 10.158l7.621 2.355c1.319 2.797 2.931 5.594 4.69 8.096l-1.759 7.655c2.198 2.797 4.69 5.447 7.328 7.655l4.104-5.3c1.025.883 2.198 1.619 3.37 2.208s2.199 1.178 3.371 1.619l4.104 10.01c2.638.736 4.983.883 7.327.736l-1.905-9.716c1.759-.442 3.371-1.325 4.69-2.65l7.621 6.477c1.319-1.766 2.345-3.975 3.078-6.624l-6.595-8.538c0-1.178.146-2.355.146-3.68zm-21.544 6.183C99.218 71.249 91.89 58.589 91.89 47.99c0-10.452 7.328-14.721 16.414-9.421s16.415 17.96 16.415 28.559-7.328 14.721-16.415 9.421z" class="F"/><path d="M111.089 27.234l-4.104-10.01-6.301 3.68 3.957 10.01 6.448-3.68z" class="D"/><g class="G"><path d="M104.641 30.914c1.026.442 2.198.883 3.37 1.619 1.173.589 2.199 1.472 3.371 2.208l4.104-5.3-1.026-.589-3.371-1.619-6.448 3.68zm2.344-13.691c-2.638-.736-4.983-.883-7.327-.736l-6.302 3.68a21.75 21.75 0 0 1 7.327.736l6.302-3.68zm22.13 16.341c-2.198-2.797-4.69-5.447-7.328-7.655l-6.301 3.68c2.638 2.208 4.982 4.858 7.327 7.655l6.302-3.68z"/></g><g class="D"><path d="M122.667 37.244l-1.759 7.655 6.302-3.68 1.905-7.655-6.448 3.68z"/><path d="M120.908 44.899c1.759 2.503 3.371 5.3 4.69 8.244l6.302-3.68c-1.319-2.797-2.931-5.594-4.69-8.244l-6.302 3.68z"/></g><path d="M125.598 53.142l7.621 2.208 6.302-3.68-7.475-2.208-6.448 3.68z" class="G"/><g class="D"><path d="M133.219 55.351a67.08 67.08 0 0 1 3.078 10.157l6.302-3.68a67.01 67.01 0 0 0-3.078-10.157l-6.302 3.68zm-38.105-25.32l-.586-2.797-5.422-4.563-6.302 3.68 7.621 6.477c1.319-1.472 2.931-2.355 4.69-2.797z"/><path d="M136.15 82.584c-.733 2.65-1.759 4.858-3.078 6.624l6.302-3.68c1.319-1.767 2.345-3.975 3.078-6.624l-6.302 3.68zm-.293-12.218l.293-3.68v-1.178l-6.595.883.293 3.975c0 1.325-.147 2.502-.293 3.68l6.302-3.68z"/></g><path d="M129.555 74.046l6.595 8.538 6.448-3.68-6.741-8.538-6.302 3.68z" class="G"/><path d="M125.598 82.731c-1.319 1.325-2.931 2.208-4.69 2.65l1.759 9.716 6.302-3.68-1.319-6.919-2.052-1.767z" class="D"/><path d="M86.321 46.076l-6.448 3.828 6.595-.883c0-.883-.147-1.914-.147-2.944z" class="G"/><path d="M104.641 80.523l-4.104 5.3 6.449-3.68c-.733-.442-1.466-1.03-2.345-1.619z" class="D"/><g class="B"><path d="M94.382 30.472c-.293 0-.586.147-.879.294.293-.147.586-.294.879-.294zm-8.647 18.696l-5.569.736v.294l5.422-.736c.147 0 .147-.147.147-.294zm36.639-11.482l-1.759 7.655a50.01 50.01 0 0 1 4.69 8.244l7.621 2.355c1.319 3.239 2.198 6.477 2.931 9.716l.733-.147a67.01 67.01 0 0 0-3.078-10.157l-7.621-2.355c-1.319-2.797-2.931-5.594-4.69-8.244l1.759-7.655c-2.198-2.797-4.69-5.447-7.328-7.655l-.293.883c2.638 2.208 4.836 4.711 7.035 7.36zm-14.07 38.715c-9.086-5.299-16.414-17.96-16.414-28.559 0-4.563 1.466-7.949 3.81-9.863-2.784 1.767-4.397 5.3-4.397 10.305 0 10.452 7.328 23.259 16.414 28.559 4.543 2.65 8.794 2.944 11.725 1.178-.293 0-.44.147-.733.147-2.785 1.031-6.449.589-10.406-1.767zm13.777 8.686c1.025-.442 2.051-1.03 2.931-1.619l-.293-.294c-.733.736-1.613 1.472-2.638 1.914zM90.278 32.828c-.293 0 0-.147.293-.442l-7.328-6.183c-.146.294-.44.589 0 .589l7.035 6.036zm30.484 52.995l1.758 9.421c-.146 0 .147 0 .587 0l-1.759-9.716c-.44.147-.879.147-.586.294zm9.379-15.457c0-1.178-.146-2.503-.293-3.68h-.733l.293 3.975c0 1.325-.146 2.503-.293 3.68l6.595 8.538a20.54 20.54 0 0 1-2.491 5.741v.589c1.319-1.767 2.345-3.975 3.078-6.624l-6.596-8.538a14.85 14.85 0 0 0 .44-3.68zM100.39 21.198l4.104 10.01c1.026.442 2.198.883 3.371 1.619 1.172.589 2.198 1.472 3.371 2.208l.146-.589c-.879-.736-1.905-1.325-2.931-1.914l-3.371-1.619-4.103-10.01c-2.638-.736-4.983-.883-7.328-.736l.147.442c1.905 0 4.397 0 6.594.589zm3.518 59.767l-3.371 4.416.44.442 3.517-4.416c-.293-.147-.44-.294-.586-.442z"/></g><path d="M113.141 47.696c-1.905-1.178-3.664-1.178-4.983-.589l-3.957 2.355c1.319-1.03 3.224-1.03 5.276.294 3.957 2.208 7.035 7.802 7.035 12.218 0 2.355-.88 3.828-2.199 4.563.147 0 .147-.147.293-.147l3.371-2.061c1.173-.736 1.905-2.355 1.905-4.563.293-4.269-2.784-9.716-6.741-12.071z" class="R"/><path d="M109.624 49.904c-3.957-2.208-7.035-.442-7.035 3.975s3.224 10.01 7.035 12.218c3.957 2.208 7.034.442 7.034-3.975 0-4.563-3.077-10.01-7.034-12.218z" class="F"/><path d="M109.623 49.904c-2.051-1.178-3.81-1.178-5.129-.442 1.172-.442 2.784-.294 4.543.736 3.957 2.208 7.035 7.802 7.035 12.218 0 2.208-.733 3.68-2.052 4.563 1.466-.589 2.491-2.208 2.491-4.711.147-4.711-2.931-10.157-6.888-12.366z" class="B"/><g opacity=".5"><path opacity=".024" d="M194.479 514.203l-140.84-80.966c-9.819-5.741-8.647-15.751 2.785-22.375l47.63-27.381c11.432-6.625 28.725-7.361 38.545-1.62l140.839 80.966c9.82 5.741 8.647 15.751-2.784 22.375l-47.631 27.381c-11.431 6.625-28.725 7.361-38.544 1.62z" fill="#a7adda"/><path opacity=".048" d="M194.479 513.761L54.226 433.385c-9.819-5.741-8.647-15.604 2.785-22.229l47.044-27.086c11.285-6.625 28.432-7.214 38.251-1.62l140.107 80.524c9.82 5.741 8.647 15.604-2.784 22.228l-46.898 27.087c-11.431 6.477-28.432 7.213-38.251 1.472z" fill="#9ea5cf"/><path opacity=".071" d="M194.479 513.319L55.105 433.237c-9.673-5.594-8.5-15.457 2.785-21.934l46.165-26.645c11.285-6.477 28.139-7.213 37.958-1.619l139.375 80.082c9.672 5.594 8.5 15.457-2.785 21.934L232.29 511.7c-11.138 6.624-28.138 7.36-37.811 1.619z" fill="#969cc4"/><path opacity=".095" d="M194.333 513.025l-138.642-79.64c-9.673-5.594-8.354-15.31 2.638-21.787l45.726-26.351c11.138-6.477 27.992-7.213 37.518-1.619l138.641 79.64c9.673 5.594 8.354 15.31-2.638 21.787l-45.725 26.203c-10.992 6.625-27.846 7.214-37.518 1.767z" fill="#8e93b9"/><path opacity=".119" d="M194.333 512.583L56.424 433.385c-9.526-5.594-8.354-15.163 2.638-21.64l44.992-25.909c10.992-6.33 27.699-7.066 37.225-1.619l137.909 79.198c9.526 5.594 8.354 15.163-2.638 21.64l-44.992 25.909c-10.992 6.33-27.699 7.066-37.225 1.619z" fill="#858bae"/><path opacity=".143" d="M194.333 512.142L57.157 433.237c-9.526-5.446-8.207-15.015 2.638-21.345l44.26-25.467c10.845-6.33 27.405-7.066 36.931-1.472l137.176 78.757c9.527 5.446 8.208 15.015-2.638 21.345l-44.259 25.467c-10.992 6.33-27.406 7.066-36.932 1.62z" fill="#7d82a4"/><path opacity=".167" d="M194.333 511.7L57.89 433.385c-9.38-5.447-8.207-14.869 2.638-21.199l43.673-25.025c10.845-6.33 27.113-6.919 36.492-1.472l136.444 78.315c9.379 5.447 8.207 14.868-2.638 21.198l-43.674 25.026c-10.698 6.183-27.113 6.919-36.492 1.472z" fill="#757999"/><path opacity=".191" d="M194.333 511.258L58.622 433.237c-9.233-5.446-8.06-14.721 2.638-21.051l42.941-24.584c10.699-6.182 26.966-6.918 36.199-1.472l135.711 77.874c9.233 5.447 8.06 14.721-2.638 21.051l-42.941 24.584c-10.699 6.33-26.966 6.919-36.199 1.619z" fill="#6c718e"/><path opacity=".214" d="M194.333 510.817L59.355 433.385c-9.233-5.3-8.06-14.574 2.638-20.757l42.355-24.289c10.552-6.183 26.673-6.772 35.906-1.473l134.977 77.433c9.233 5.299 8.061 14.573-2.638 20.756l-42.354 24.29c-10.699 6.182-26.673 6.771-35.906 1.472z" fill="#646883"/><path opacity=".238" d="M194.333 510.375L60.088 433.237c-9.086-5.299-7.914-14.573 2.492-20.609l41.622-23.848c10.552-6.035 26.38-6.771 35.467-1.472l134.244 77.138c9.087 5.299 7.914 14.574-2.491 20.609l-41.622 23.848c-10.552 6.036-26.38 6.772-35.466 1.472z" fill="#5c5f78"/><path opacity=".262" d="M194.333 509.934L60.821 433.237c-9.086-5.299-7.914-14.426 2.491-20.462l40.889-23.406c10.405-6.036 26.233-6.624 35.173-1.472l133.512 76.696c9.087 5.3 7.914 14.427-2.491 20.462l-40.889 23.406c-10.405 6.036-26.233 6.772-35.173 1.473z" fill="#53576d"/><path opacity=".286" d="M194.186 509.492L61.407 433.237c-8.94-5.152-7.767-14.279 2.491-20.167l40.303-23.112c10.259-6.036 25.94-6.624 34.88-1.472L271.86 464.74c8.94 5.153 7.768 14.28-2.491 20.168l-40.303 23.112c-10.259 6.035-25.94 6.624-34.88 1.472z" fill="#4b4e62"/><path opacity=".31" d="M194.186 509.05L62.14 433.237c-8.793-5.152-7.767-14.132 2.492-20.02l39.57-22.67c10.259-5.889 25.647-6.625 34.441-1.472l132.046 75.812c8.793 5.153 7.768 14.133-2.491 20.021l-39.57 22.67c-10.113 6.036-25.501 6.625-34.441 1.472z" fill="#434557"/><path opacity=".333" d="M194.186 508.609L62.872 433.237c-8.793-5.005-7.621-13.984 2.491-19.873l38.837-22.228c10.112-5.889 25.354-6.478 34.147-1.473l131.314 75.519c8.793 5.005 7.621 13.985-2.491 19.873l-38.838 22.229c-10.112 5.741-25.354 6.477-34.147 1.325z" fill="#3a3d4c"/><path opacity=".357" d="M194.186 508.167l-130.581-74.93c-8.647-5.005-7.621-13.837 2.491-19.578l38.251-21.935c9.965-5.741 25.207-6.477 33.854-1.472l130.581 74.93c8.647 5.005 7.621 13.838-2.492 19.579l-38.251 21.934c-10.112 5.888-25.207 6.477-33.854 1.472z" fill="#323441"/><path opacity=".381" d="M194.186 507.725L64.338 433.237c-8.647-5.005-7.474-13.69 2.345-19.431l37.518-21.493c9.966-5.741 24.914-6.33 33.415-1.325l129.848 74.488c8.647 5.005 7.474 13.691-2.345 19.432l-37.518 21.493c-9.819 5.741-24.915 6.33-33.415 1.324z" fill="#2a2b37"/><path opacity=".405" d="M194.186 507.284L65.071 433.237c-8.5-4.858-7.474-13.543 2.345-19.284l36.786-21.051c9.819-5.741 24.621-6.33 33.121-1.325l129.116 74.046c8.5 4.858 7.474 13.544-2.345 19.285l-36.785 21.051c-9.82 5.741-24.622 6.33-33.122 1.325z" fill="#21232c"/><path opacity=".429" d="M194.186 506.842L65.803 433.237c-8.354-4.858-7.328-13.396 2.345-18.99l36.2-20.609c9.672-5.594 24.328-6.183 32.828-1.325l128.383 73.605c8.353 4.858 7.327 13.396-2.345 18.99l-36.2 20.609c-9.819 5.594-24.474 6.33-32.828 1.325z" fill="#191a21"/><path opacity=".452" d="M194.039 506.548L66.39 433.385c-8.354-4.858-7.328-13.249 2.345-18.843l35.467-20.315c9.673-5.594 24.182-6.183 32.389-1.325l127.65 73.163c8.353 4.858 7.327 13.249-2.345 18.843l-35.467 20.315c-9.526 5.447-24.035 6.035-32.389 1.325z" fill="#111116"/><path opacity=".476" d="M194.04 506.106L67.123 433.237c-8.207-4.71-7.181-13.101 2.345-18.695l34.734-19.874c9.526-5.446 23.889-6.182 32.096-1.324l126.917 72.868c8.207 4.711 7.181 13.102-2.345 18.696l-34.734 19.873c-9.379 5.447-23.742 6.036-32.095 1.325z" fill="#08090b"/><path opacity=".5" d="M194.04 505.664L67.855 433.237c-8.207-4.71-7.181-12.954 2.345-18.401l34.148-19.431c9.379-5.447 23.595-6.036 31.802-1.325l126.185 72.427c8.207 4.71 7.181 12.954-2.345 18.401l-34.148 19.432c-9.379 5.446-23.595 6.035-31.802 1.324z" fill="#000"/></g><path d="M272.886 386.572h-1.905c-1.026-1.178-2.345-2.355-3.957-3.386L136.15 308.109c-8.647-5.005-23.889-4.416-34.001 1.473l-38.544 22.081c-2.638 1.619-4.69 3.386-6.009 5.152h-2.198v88.326c.293 2.944 2.198 5.741 5.862 7.802l130.874 75.077c8.647 5.005 23.889 4.416 34.001-1.472l38.544-22.082c4.837-2.797 7.475-6.182 8.207-9.568h.147v-88.326h-.147z" fill="url(#A)"/><path d="M192.134 421.019L61.26 345.942c-8.647-5.005-7.621-13.837 2.492-19.726l38.544-22.081c10.112-5.889 25.207-6.477 34.001-1.472l130.874 75.076c8.646 5.006 7.621 13.838-2.492 19.726l-38.544 22.082c-10.112 5.888-25.354 6.477-34.001 1.472z" fill="url(#B)"/><path d="M264.533 395.993l-38.544 22.082c-10.113 5.888-25.208 6.477-34.001 1.472L61.114 344.47c-3.517-2.061-5.423-4.711-5.716-7.508-.586 3.681 1.319 7.214 5.716 9.716l130.874 75.077c8.647 5.005 23.888 4.416 34.001-1.472l38.544-22.081c6.009-3.534 8.793-8.097 8.207-12.219-.44 3.68-3.224 7.213-8.207 10.01z" fill="url(#C)"/><g class="H"><path opacity=".048" d="M97.899 327.247l9.673-8.686c.146-.147 11.431-10.304 11.578-10.304 2.638-1.473 5.715-2.356 8.94-2.797 1.319-.148 2.784-.295 4.25-.295 3.957 0 7.914 1.031 10.845 2.65l57.743 32.68 2.931 1.62 60.82 34.299c2.638 1.473 4.69 3.828 5.569 6.183.44 1.178.733 2.356.733 3.681.147 4.416-2.638 8.538-7.328 11.335l-11.431 5.594c-.293.147-20.957 10.157-21.25 10.01-3.664 2.061-8.501 2.944-13.044 2.944-3.957 0-7.914-1.03-10.845-2.797l-48.07-28.411-7.035-4.122-55.105-32.681c-2.638-1.472-4.69-3.827-5.716-6.33-.44-1.177-.586-2.208-.733-3.533 0-4.122 2.785-8.243 7.474-11.04z" fill="#abb2e2"/><path opacity=".095" d="M98.046 327.541l9.526-8.391c.293-.147 11.138-9.863 11.578-9.863 2.638-1.325 5.715-2.208 8.793-2.65 1.319-.147 2.785-.147 4.104-.147 3.81 0 7.914 1.178 10.552 2.797l57.01 32.239 2.931 1.619 59.941 33.858c2.491 1.472 4.69 3.681 5.569 6.036.44 1.178.733 2.355.879 3.533.147 4.269-2.491 8.391-7.181 11.188l-11.285 5.594c-.439.294-20.517 9.863-20.957 9.568-3.371 1.914-8.5 2.65-12.897 2.65-3.81 0-7.914-1.178-10.552-2.797l-47.484-28.117-6.888-4.122-54.372-32.091c-2.492-1.472-4.836-3.828-5.716-6.183-.44-1.031-.733-2.208-.733-3.386-.147-4.416 2.492-8.538 7.181-11.335z" fill="#a7addf"/><path opacity=".143" d="M98.192 327.983l9.526-8.244c.44-.295 10.992-9.569 11.432-9.421 2.638-1.325 5.569-2.061 8.646-2.356 1.173-.147 2.785 0 4.104 0 3.517 0 7.914 1.325 10.405 2.797l56.131 31.797 2.931 1.62 59.062 33.416c2.345 1.325 4.69 3.68 5.569 5.889.44 1.177.733 2.208.88 3.533.293 4.269-2.199 8.243-7.035 11.04l-11.138 5.447c-.733.442-20.225 9.569-20.811 9.127-3.224 1.914-8.5 2.208-12.604 2.208-3.517 0-7.914-1.325-10.405-2.797l-46.605-27.97-6.888-3.974-53.639-31.65c-2.345-1.325-4.836-3.828-5.716-6.036-.44-1.03-.733-2.208-.879-3.238-.147-4.417 2.345-8.539 7.035-11.188z" fill="#a3a9dc"/><path opacity=".191" d="M98.339 328.277l9.379-7.949c.586-.295 10.699-9.127 11.432-9.127 2.638-1.178 5.569-1.767 8.5-2.208 1.172-.148 2.784 0 3.957 0 3.371 0 7.767 1.472 10.259 2.944l55.398 31.355 2.784 1.62 58.329 32.975c2.199 1.324 4.69 3.68 5.569 5.741.44 1.03.88 2.208.88 3.386.293 4.121-2.052 8.096-6.742 10.893l-10.992 5.447c-1.025.589-19.785 9.127-20.664 8.685-3.078 1.767-8.5 1.767-12.457 1.767-3.371 0-7.768-1.472-10.259-2.944l-46.165-27.234-6.741-3.975-52.907-31.208c-2.198-1.325-4.836-3.828-5.716-5.889a11.73 11.73 0 0 1-.879-3.238c-.147-4.269 2.345-8.244 7.035-11.041z" fill="#9fa4d8"/><path opacity=".238" d="M98.485 328.719l9.38-7.802c.733-.442 10.552-8.686 11.431-8.686 2.638-1.177 5.569-1.619 8.354-1.914 1.026-.147 2.784.148 3.957.148 3.224 0 7.767 1.619 9.966 2.944l54.665 30.914 2.784 1.619 57.45 32.386c2.052 1.178 4.69 3.68 5.569 5.594.44 1.031.88 2.061 1.026 3.239.44 3.974-1.905 7.949-6.595 10.746l-10.698 5.3c-1.173.736-19.346 8.832-20.372 8.243-2.931 1.62-8.5 1.325-12.164 1.325-3.224 0-7.767-1.619-10.112-2.944l-45.579-26.792-6.595-3.975-52.174-30.767c-2.198-1.177-4.836-3.827-5.716-5.741-.44-1.03-.879-2.061-.879-3.091-.733-4.122 1.612-8.097 6.302-10.746z" fill="#9ba0d5"/><path opacity=".286" d="M98.632 329.013l9.379-7.508c.88-.441 10.259-8.391 11.432-8.391 2.638-1.03 5.422-1.472 8.353-1.766 1.026-.147 2.785.147 3.811.147 2.931 0 7.767 1.767 9.819 3.091l53.786 30.473 2.784 1.619 56.571 32.092c1.905 1.177 4.69 3.68 5.569 5.447.44 1.03.879 2.06 1.026 3.238.586 3.975-1.759 7.802-6.302 10.599l-10.552 5.3c-1.466.883-18.906 8.538-20.225 7.802-2.638 1.619-8.647 1.03-12.017 1.03-2.931 0-7.768-1.766-9.82-3.091l-44.992-26.498-6.595-3.827-51.588-30.325c-2.052-1.178-4.836-3.681-5.569-5.594-.44-1.031-.879-1.914-1.026-2.945-.733-4.269 1.466-8.096 6.155-10.893z" fill="#979bd2"/><path opacity=".333" d="M98.778 329.455l9.233-7.361c1.026-.589 10.113-7.949 11.285-7.949 2.638-1.031 5.423-.883 8.207-1.472.879-.147 2.785.294 3.811.294 2.784 0 7.62 1.914 9.672 3.092l53.053 30.03 2.638 1.473 55.838 31.502c1.759 1.031 4.69 3.681 5.569 5.3.44 1.03 1.026 2.061 1.173 3.091.586 3.828-1.613 7.802-6.156 10.452l-10.405 5.152c-1.759 1.031-18.613 8.097-20.078 7.214-2.492 1.472-8.647.589-11.871.589-2.785 0-7.768-1.914-9.673-3.092l-44.26-26.056-6.448-3.827-50.855-29.884c-1.905-1.03-4.836-3.68-5.569-5.447-.44-1.03-.879-1.913-1.026-2.944-1.026-3.533 1.172-7.507 5.862-10.157z" fill="#9397cf"/><path opacity=".381" d="M98.778 329.749l9.233-7.066c1.173-.736 9.966-7.655 11.285-7.508 2.638-.883 5.423-.588 8.061-1.177.879-.147 2.784.441 3.663.441 2.638 0 7.621 2.061 9.527 3.239l52.173 29.589 2.638 1.472 54.959 31.061c1.758 1.031 4.689 3.533 5.569 5.153.439 1.03 1.026 1.913 1.172 2.944.733 3.827-1.465 7.655-6.009 10.305l-10.258 5.152c-1.906 1.178-18.173 7.802-19.932 6.772-2.345 1.324-8.647.147-11.578.147-2.638 0-7.621-2.208-9.526-3.239l-43.674-25.762-6.301-3.68-50.122-29.442c-1.759-1.03-4.836-3.68-5.569-5.299-.44-.883-.879-1.914-1.172-2.797-.733-3.68 1.319-7.655 5.862-10.305z" fill="#8f92cc"/><path opacity=".429" d="M98.925 330.191l9.086-6.919c1.319-.736 9.673-7.213 11.285-7.213 2.638-.884 5.423-.295 7.914-1.031.733-.147 2.785.442 3.664.442 2.345 0 7.621 2.208 9.233 3.238l51.441 29.148 2.638 1.472 54.079 30.619c1.612.884 4.836 3.533 5.569 4.858.586 1.031 1.026 1.914 1.319 2.945.733 3.68-1.172 7.507-5.716 10.157l-10.112 5.005c-2.198 1.325-17.733 7.508-19.638 6.33-2.199 1.325-8.647-.147-11.432-.147-2.345 0-7.621-2.355-9.379-3.239l-43.088-25.172-6.302-3.681-49.389-28.853c-1.612-.883-4.836-3.68-5.569-5.152-.44-.883-1.026-1.767-1.172-2.797-1.026-3.533 1.026-7.361 5.569-10.01z" fill="#8b8ec9"/><path opacity=".476" d="M99.071 330.485l9.087-6.624c1.465-.883 9.526-6.772 11.285-6.772 2.491-.736 5.422-.147 7.914-.736.732-.147 2.784.589 3.517.589 2.198 0 7.474 2.355 9.086 3.386l50.562 28.558 2.638 1.472 53.346 30.178c1.466.884 4.836 3.533 5.423 4.711.586.883 1.172 1.767 1.319 2.797.879 3.533-1.026 7.361-5.569 10.01l-9.966 5.005c-2.492 1.473-17.44 7.066-19.492 5.889-2.052 1.177-8.647-.589-11.138-.589-2.199 0-7.621-2.503-9.233-3.386l-42.501-24.878-6.156-3.68-48.656-28.412c-1.466-.883-4.983-3.68-5.569-4.858-.44-.883-1.026-1.766-1.319-2.65-1.026-3.533.879-7.36 5.423-10.01z" fill="#8789c6"/><path opacity=".524" d="M99.218 330.927l8.94-6.33c1.612-.884 9.233-6.477 11.138-6.33 2.491-.736 5.276.147 7.767-.589.587-.147 2.785.589 3.518.589 2.052 0 7.474 2.502 8.94 3.386l49.829 28.264 2.491 1.472 52.467 29.736c1.319.736 4.836 3.533 5.422 4.564.587.883 1.173 1.766 1.466 2.649 1.026 3.533-.879 7.214-5.423 9.863l-9.819 4.858c-2.638 1.62-17 6.772-19.345 5.447-1.759 1.031-8.647-1.03-10.992-1.03-2.052 0-7.621-2.65-8.94-3.386l-41.768-24.437-6.155-3.533-47.924-27.97c-1.319-.736-4.983-3.68-5.569-4.71-.44-.884-1.026-1.62-1.319-2.503-1.026-3.68.733-7.36 5.276-10.01z" fill="#8385c2"/><path opacity=".571" d="M99.365 331.221l8.939-6.183c1.759-1.03 9.087-6.035 11.139-6.035 2.491-.589 5.276.441 7.621-.295.586-.147 2.784.736 3.37.736 1.759 0 7.475 2.65 8.794 3.386l48.949 27.823 2.492 1.472 51.587 29.295c1.173.736 4.983 3.385 5.423 4.416.733.736 1.172 1.619 1.465 2.65 1.026 3.385-.732 7.066-5.129 9.715l-9.673 4.858c-2.931 1.767-16.561 6.478-19.052 4.858-1.612.884-8.647-1.472-10.699-1.472-1.758 0-7.474-2.797-8.793-3.533l-41.182-23.995-6.009-3.533-47.191-27.528c-1.172-.736-5.276-3.533-5.569-4.564-.733-.736-1.172-1.619-1.466-2.502-1.319-3.239.586-6.919 4.983-9.569z" fill="#7f80bf"/><path opacity=".619" d="M99.511 331.663l8.94-5.889c1.905-1.177 8.793-5.741 11.138-5.594 2.492-.441 5.276.589 7.475-.147.586-.147 2.784.883 3.224.883 1.612 0 7.474 2.797 8.5 3.533l48.217 27.381 2.491 1.325 50.708 28.853c1.026.589 5.13 3.386 5.423 4.269.733.736 1.172 1.62 1.612 2.503 1.173 3.386-.586 6.919-4.983 9.569l-9.526 4.71c-3.224 1.914-16.121 6.036-18.906 4.417-1.465.883-8.646-1.767-10.552-1.767-1.612 0-7.474-2.944-8.646-3.533l-40.596-23.553-5.862-3.386-46.605-27.087c-1.026-.589-5.276-3.386-5.569-4.416-.733-.736-1.172-1.619-1.466-2.355-1.172-3.533.586-7.214 4.983-9.716z" fill="#7b7cbc"/><path opacity=".667" d="M99.658 331.957l8.793-5.741c2.052-1.178 8.647-5.299 11.138-5.152 2.492-.442 5.13-.442 7.328.147.44 0 2.785.883 3.224.883 1.466 0 7.328 2.944 8.354 3.533l47.484 26.94 2.345 1.325 49.975 28.411c.88.589 5.13 3.239 5.423 4.122.733.736 1.319 1.619 1.612 2.355 1.319 3.239-.44 6.772-4.69 9.422l-9.379 4.71c-3.371 2.061-15.828 5.741-18.759 3.975-1.319.736-8.647-2.208-10.259-2.208-1.466 0-7.475-3.092-8.501-3.68l-40.009-23.26-5.862-3.385-45.872-26.645c-.88-.589-5.276-3.386-5.569-4.269-.733-.736-1.172-1.472-1.612-2.356-1.319-2.797.44-6.477 4.836-9.127z" fill="#7777b9"/><path opacity=".714" d="M99.658 332.399l8.793-5.447c2.198-1.325 8.354-4.858 11.138-4.858 2.492-.294 5.13-.294 7.328.295.44 0 2.784 1.03 3.078 1.03 1.172 0 7.327 3.092 8.207 3.68l46.604 26.498 2.345 1.325 49.096 27.97c.733.441 5.13 3.238 5.423 3.974.733.736 1.319 1.473 1.612 2.356 1.319 3.091-.293 6.771-4.543 9.274l-9.233 4.563c-3.664 2.209-15.389 5.447-18.613 3.534-1.026.588-8.647-2.65-10.112-2.65-1.173 0-7.474-3.239-8.207-3.68l-39.277-22.818-5.716-3.239-45.139-26.203c-.733-.441-5.276-3.386-5.569-4.122-.733-.736-1.319-1.472-1.612-2.208-1.466-3.091.147-6.772 4.397-9.274z" fill="#7373b6"/><path opacity=".762" d="M99.804 332.693l8.647-5.299c2.345-1.325 8.207-4.564 10.992-4.417 2.491-.294 4.983-.147 7.181.589.293 0 2.638 1.031 3.078 1.031 1.025 0 7.327 3.238 8.06 3.68l45.872 26.056 2.345 1.325 48.217 27.528c.586.442 5.129 3.239 5.422 3.828.733.736 1.319 1.472 1.759 2.208 1.465 3.091 0 6.624-4.397 9.127l-9.086 4.563c-3.957 2.208-14.949 5.005-18.32 3.092-.879.588-8.646-2.945-9.819-2.945-1.026 0-7.328-3.385-8.06-3.827l-38.838-22.376-5.569-3.239-44.406-25.614c-.733-.442-5.423-3.386-5.569-3.975-.733-.588-1.319-1.324-1.612-2.061-1.612-3.091-.147-6.771 4.104-9.274z" fill="#6f6eb3"/><path opacity=".81" d="M99.951 333.135l8.646-5.005c2.492-1.472 8.061-4.122 10.992-3.975 2.492-.147 4.983 0 7.035.883.293 0 2.638 1.178 2.931 1.178.733 0 7.181 3.386 7.767 3.827l44.993 25.615 2.198 1.325 47.484 27.086c.586.295 5.276 3.239 5.423 3.681.879.588 1.465 1.324 1.758 2.208 1.613 2.944.147 6.477-4.103 8.979l-8.94 4.417c-4.104 2.355-14.509 4.71-18.173 2.65-.733.441-8.647-3.386-9.673-3.386-.732 0-7.327-3.533-7.914-3.828l-38.104-21.934-5.569-3.239-43.674-25.172c-.586-.295-5.422-3.239-5.569-3.828-.733-.589-1.319-1.325-1.759-2.061-1.466-3.386 0-6.919 4.25-9.421z" fill="#6b6ab0"/><path opacity=".857" d="M100.097 333.429l8.647-4.858c2.638-1.472 7.768-3.827 10.992-3.68 2.491-.147 4.983.295 6.888 1.031.147 0 2.638 1.325 2.931 1.325.586 0 7.181 3.533 7.621 3.827l44.26 25.173 2.198 1.325 46.458 26.645c.44.294 5.276 3.091 5.423 3.533.879.588 1.465 1.325 1.905 2.061 1.612 2.797.293 6.33-3.957 8.832l-8.793 4.416c-4.397 2.503-14.216 4.417-18.027 2.061-.586.295-8.793-3.827-9.379-3.827s-7.328-3.68-7.768-3.975l-37.518-21.492-5.422-3.092-42.941-24.731c-.44-.294-5.423-3.238-5.569-3.68-.733-.589-1.319-1.178-1.759-1.914-1.759-2.944-.44-6.477 3.81-8.98z" fill="#6765ac"/><path opacity=".905" d="M100.244 333.871l8.5-4.563c2.785-1.62 7.621-3.386 10.992-3.239 2.491 0 4.836.442 6.741 1.325.147 0 2.638 1.325 2.785 1.325.44 0 7.181 3.68 7.474 3.974l43.381 24.732 2.198 1.177 45.725 26.056c.294.147 5.276 3.092 5.423 3.386.879.589 1.465 1.178 1.905 1.914 1.759 2.797.44 6.183-3.81 8.685l-8.647 4.269c-4.69 2.65-13.776 3.975-17.733 1.62-.293.147-8.794-4.27-9.233-4.27s-7.328-3.827-7.621-3.974l-36.786-21.198-5.276-3.092-42.208-24.142c-.293-.147-5.422-3.239-5.569-3.533-.879-.589-1.465-1.178-1.905-1.914-1.905-2.65-.586-6.035 3.664-8.538z" fill="#6361a9"/><path opacity=".952" d="M100.39 334.165l8.501-4.416c2.931-1.766 7.327-2.944 10.845-2.797 2.491 0 4.836.589 6.741 1.472 0 0 2.638 1.472 2.785 1.472s7.181 3.828 7.181 3.975l42.648 24.289 2.198 1.178 44.993 25.615c.146.147 5.276 3.091 5.422 3.238.88.589 1.612 1.178 2.052 1.914 1.905 2.65.586 6.035-3.517 8.538l-8.501 4.269c-4.982 2.797-13.336 3.68-17.586 1.178-.147.147-8.794-4.564-8.94-4.564s-7.181-3.974-7.328-3.974l-36.199-20.757-5.276-2.944-41.622-23.848c-.146-.147-5.569-3.239-5.569-3.386-.879-.589-1.466-1.177-1.905-1.766-2.345-2.797-1.172-6.183 3.077-8.686z" fill="#5f5ca6"/><path d="M202.393 403.648l-51.588-29.442-51.587-29.442c-4.397-2.649-3.957-7.066 1.319-10.157l8.354-4.122c5.129-2.944 12.896-3.386 17.44-.736l51.587 29.442 51.588 29.442c4.396 2.65 3.957 7.066-1.319 10.157l-8.354 4.122c-5.276 2.944-13.043 3.386-17.44.736z" fill="#5b58a3" class="H"/></g><path d="M206.79 396.877l-91.158-52.848c-10.258-5.889-18.612-21.935-18.612-35.772V64.625c0-7.066-5.716-8.538-2.198-11.041.147-.147 13.923-6.33 14.07-6.33 3.664-1.472 7.767-2.061 12.604.736l91.157 52.849c10.259 5.888 18.613 21.934 18.613 35.771v243.779c0 7.361-2.345 12.513-6.156 14.868-.293.148-15.681 7.361-15.828 7.361-3.37 1.03 2.052-3.092-2.491-5.741z" fill="#e1daef"/><path d="M206.79 396.877l-91.158-52.848c-10.258-5.889-18.612-21.935-18.612-35.772V64.625c0-7.066-5.716-8.538-2.198-11.041.147-.147 13.629-6.183 13.776-6.33 3.664-1.472 7.767-2.061 12.604.736l91.157 52.849c10.259 5.888 18.613 21.934 18.613 35.771v243.779c0 7.361-2.345 12.513-6.156 14.868-.293.148-15.388 7.214-15.681 7.361-3.224 1.03 2.198-3.092-2.345-5.741z" fill="url(#D)"/><path d="M206.79 396.876l-91.158-52.848c-10.258-5.888-18.612-21.934-18.612-35.772V64.625c0-7.066-5.716-8.538-2.198-11.041.147-.147 13.484-6.183 13.629-6.183 3.664-1.472 7.768-2.061 12.604.736l91.158 52.849c10.258 5.888 18.612 21.934 18.612 35.771v243.779c0 7.361-2.345 12.513-6.155 14.868-.293.148-15.242 7.066-15.389 7.214-3.37 1.03 2.052-3.092-2.491-5.742z" fill="url(#E)"/><path d="M206.79 396.877l-91.158-52.848c-10.258-5.889-18.612-21.935-18.612-35.772V64.625c0-7.066-5.716-8.538-2.198-11.041.147-.147 13.191-6.036 13.337-6.036 3.664-1.472 7.768-2.061 12.604.736l91.157 52.848c10.259 5.888 18.613 21.934 18.613 35.772v243.779c0 7.36-2.345 12.513-6.155 14.868-.293.147-14.949 7.066-15.242 7.066-3.224 1.03 2.198-3.091-2.345-5.741z" fill="url(#F)"/><path d="M206.79 396.877l-91.158-52.848c-10.258-5.889-18.612-21.935-18.612-35.772V64.625c0-7.066-5.716-8.538-2.198-11.041.147-.147 13.043-6.036 13.191-6.036 3.663-1.472 7.767-2.061 12.603.736l91.158 52.848c10.259 5.888 18.612 21.934 18.612 35.772v243.779c0 7.36-2.344 12.513-6.155 14.868-.293.147-14.802 6.919-14.949 7.066-3.37 1.03 2.052-3.091-2.491-5.741z" fill="url(#G)"/><path d="M206.79 396.877l-91.158-52.849c-10.258-5.888-18.612-21.934-18.612-35.771V64.625c0-7.066-5.716-8.538-2.198-11.041.147-.147 12.751-5.888 12.897-5.888 3.664-1.472 7.768-2.061 12.604.736l91.158 52.848c10.259 5.889 18.612 21.934 18.612 35.772v243.779c0 7.36-2.345 12.513-6.155 14.868-.293.147-14.509 6.919-14.802 6.919-3.224 1.03 2.198-3.092-2.345-5.741z" fill="url(#H)"/><path d="M206.79 396.877l-91.158-52.849c-10.258-5.888-18.612-21.934-18.612-35.771V64.625c0-7.066-5.716-8.538-2.198-11.041.147-.147 12.603-5.741 12.751-5.888 3.664-1.472 7.767-2.061 12.604.736l91.157 52.848c10.259 5.889 18.613 21.934 18.613 35.772v243.779c0 7.36-2.345 12.513-6.156 14.868-.293.147-14.215 6.772-14.509 6.919-3.37 1.03 2.052-3.092-2.491-5.741z" fill="url(#I)"/><path d="M206.79 396.877l-91.158-52.848c-10.258-5.889-18.612-21.935-18.612-35.772V64.625c0-7.066-5.716-8.538-2.198-11.041.147-.147 12.311-5.741 12.457-5.741 3.664-1.472 7.767-2.061 12.604.736l91.157 52.701c10.259 5.889 18.613 21.934 18.613 35.772v243.779c0 7.36-2.345 12.513-6.156 14.868-.293.147-14.069 6.772-14.362 6.772-3.224 1.177 2.198-2.944-2.345-5.594z" fill="url(#J)"/><path d="M206.79 396.877l-91.158-52.848c-10.258-5.889-18.612-21.935-18.612-35.772V64.625c0-7.066-5.716-8.538-2.198-11.041.147-.147 12.165-5.594 12.311-5.741 3.664-1.472 7.768-2.061 12.604.736l91.158 52.848c10.258 5.889 18.612 21.935 18.612 35.772v243.779c0 7.361-2.345 12.513-6.155 14.868-.293.147-13.776 6.625-14.07 6.772-3.37 1.03 2.052-3.091-2.491-5.741z" fill="url(#K)"/><path d="M206.79 396.877l-91.158-52.848c-10.258-5.889-18.612-21.935-18.612-35.772V64.625c0-7.066-5.716-8.538-2.198-11.041.147-.147 11.871-5.594 12.017-5.594 3.664-1.472 7.768-2.061 12.604.736l91.157 52.849c10.259 5.888 18.613 21.934 18.613 35.772v243.778c0 7.361-2.345 12.513-6.155 14.869-.294.147-13.63 6.477-13.923 6.624-3.224 1.03 2.198-3.091-2.345-5.741z" fill="url(#L)"/><path d="M206.79 396.877l-91.158-52.848c-10.258-5.889-18.612-21.935-18.612-35.772V64.625c0-7.066-5.716-8.538-2.198-11.041.147-.147 11.725-5.447 11.871-5.447 3.663-1.472 7.767-2.061 12.603.736l91.011 52.701c10.259 5.888 18.613 21.934 18.613 35.772v243.778c0 7.361-2.345 12.513-6.156 14.868-.293.148-13.336 6.478-13.629 6.478-3.224 1.177 2.198-2.945-2.345-5.594z" fill="url(#M)"/><path d="M206.79 396.877l-91.158-52.848c-10.258-5.889-18.612-21.935-18.612-35.772V64.625c0-7.066-5.716-8.538-2.198-11.041.147-.147 11.432-5.447 11.578-5.447 3.664-1.472 7.768-2.061 12.604.736l91.158 52.848c10.259 5.888 18.612 21.934 18.612 35.772v243.779c0 7.36-2.345 12.512-6.155 14.868-.293.147-13.19 6.33-13.483 6.477-3.224 1.03 2.198-3.091-2.345-5.741z" fill="url(#N)"/><path d="M206.79 396.877l-91.158-52.848c-10.258-5.889-18.612-21.935-18.612-35.772V64.625c0-7.066-5.716-8.538-2.198-11.041.147-.147 11.138-5.3 11.432-5.3 3.664-1.472 7.767-2.061 12.604.736l91.157 52.848c10.259 5.888 18.613 21.934 18.613 35.772v243.632c0 7.36-2.345 12.512-6.156 14.868-.293.147-12.896 6.33-13.19 6.33-3.37 1.177 2.052-2.944-2.491-5.594z" fill="url(#O)"/><path d="M206.79 396.877l-91.158-52.848c-10.258-5.889-18.612-21.935-18.612-35.772V64.625c0-7.066-5.716-8.538-2.198-11.041.147-.147 10.992-5.152 11.138-5.3 3.664-1.472 7.767-2.061 12.604.736l91.157 52.848c10.259 5.888 18.613 21.934 18.613 35.772v243.632c0 7.36-2.345 12.512-6.156 14.868l-12.897 6.33c-3.37 1.177 2.052-2.944-2.491-5.594z" fill="url(#P)"/><path d="M206.79 396.877l-91.158-52.848c-10.258-5.889-18.612-21.935-18.612-35.772V64.625c0-7.066-5.716-8.538-2.198-11.041.147-.147 10.698-5.152 10.846-5.152 3.664-1.472 7.767-2.061 12.603.736l91.158 52.848c10.259 5.889 18.612 21.935 18.612 35.772v243.779c0 7.36-2.344 12.513-6.155 14.868l-12.75 6.183c-3.224 1.03 2.198-3.091-2.345-5.741z" fill="url(#Q)"/><path d="M206.79 396.877l-91.158-52.848c-10.258-5.889-18.612-21.935-18.612-35.772V64.625c0-7.066-5.716-8.538-2.198-11.041.147-.147 10.552-5.005 10.698-5.152 3.664-1.472 7.768-2.061 12.604.736l91.157 52.848c10.259 5.889 18.613 21.935 18.613 35.772v243.779c0 7.36-2.345 12.513-6.155 14.868l-12.458 6.183c-3.37 1.03 2.052-3.091-2.491-5.741z" fill="url(#R)"/><path d="M206.79 396.877l-91.158-52.848c-10.258-5.889-18.612-21.935-18.612-35.772V64.625c0-7.066-5.716-8.538-2.198-11.041.147-.147 10.258-5.005 10.406-5.005 3.664-1.472 7.767-2.061 12.604.736l91.157 52.849c10.259 5.888 18.613 21.934 18.613 35.771v243.779c0 7.361-2.345 12.513-6.155 14.868l-12.311 6.036c-3.224 1.03 2.198-3.091-2.345-5.741z" fill="url(#S)"/><path d="M206.79 396.877l-91.158-52.848c-10.258-5.889-18.612-21.935-18.612-35.772V64.625c0-7.066-5.716-8.538-2.198-11.041.147-.147 10.112-4.858 10.258-5.005 3.664-1.472 7.768-2.061 12.604.736l91.158 52.849c10.259 5.888 18.612 21.934 18.612 35.771v243.779c0 7.361-2.345 12.513-6.155 14.868l-12.018 5.889c-3.37 1.177 2.052-2.944-2.491-5.594z" fill="url(#T)"/><path d="M206.79 396.877l-91.158-52.848c-10.258-5.889-18.612-21.935-18.612-35.772V64.625c0-7.066-5.716-8.538-2.198-11.041.147-.147 9.82-4.858 9.966-4.858 3.664-1.472 7.768-2.061 12.604.736l91.158 52.848c10.259 5.888 18.612 21.934 18.612 35.772v243.778c0 7.361-2.345 12.513-6.155 14.869l-11.871 5.888c-3.224 1.03 2.198-3.091-2.345-5.741z" fill="url(#U)"/><path d="M206.79 396.877l-91.158-52.848c-10.258-5.889-18.612-21.935-18.612-35.772V64.625c0-7.066-5.716-8.538-2.198-11.041.147-.147 9.673-4.711 9.82-4.711 3.664-1.472 7.767-2.061 12.604.736l91.157 52.848c10.259 5.888 18.613 21.934 18.613 35.772v243.779c0 7.36-2.345 12.512-6.156 14.868l-11.578 5.741c-3.37 1.03 2.052-3.091-2.491-5.741z" fill="url(#V)"/><path d="M206.79 396.877l-91.158-52.848c-10.258-5.889-18.612-21.935-18.612-35.772V64.625c0-7.066-5.716-8.538-2.198-11.041.147-.147 9.379-4.564 9.526-4.711 3.664-1.472 7.767-2.061 12.603.736l91.158 52.848c10.259 5.888 18.612 21.934 18.612 35.772v243.779c0 7.36-2.344 12.512-6.155 14.868l-11.431 5.741c-3.224 1.03 2.198-3.091-2.345-5.741z" fill="url(#W)"/><path d="M206.79 396.877l-91.158-52.848c-10.258-5.889-18.612-21.935-18.612-35.772V64.625c0-7.066-5.716-8.538-2.198-11.041.147-.147 9.234-4.563 9.379-4.563 3.664-1.472 7.768-2.061 12.604.736l91.157 52.848c10.259 5.889 18.613 21.934 18.613 35.772v243.779c0 7.36-2.345 12.513-6.155 14.868l-11.139 5.594c-3.37 1.03 2.052-3.091-2.491-5.741z" fill="url(#X)"/><path d="M198.143 400.998l-91.157-52.848c-10.259-5.888-18.613-21.934-18.613-35.772V68.747c0-13.838 8.354-20.02 18.613-14.132l91.157 52.848c10.259 5.888 18.613 21.934 18.613 35.772v243.779c0 13.69-8.354 20.02-18.613 13.984z" class="B"/><path d="M205.471 401.44c-2.052 0-4.25-.736-6.448-2.061l-91.158-52.848c-9.819-5.594-17.733-20.904-17.733-34.153V68.747c0-8.832 3.664-14.574 9.38-14.574 2.052 0 4.251.736 6.449 2.061l91.157 52.848c9.82 5.594 17.734 20.904 17.734 34.153v243.779c0 8.685-3.664 14.426-9.38 14.426z" fill="url(#Y)"/><path d="M94.528 315.617V72.722c0-10.158 6.156-14.721 13.63-10.305l88.666 51.376c7.474 4.416 13.63 16.046 13.63 26.203v242.749c0 10.157-6.156 14.72-13.63 10.304l-88.666-51.376c-7.474-4.269-13.63-16.046-13.63-26.056z" class="M"/><path d="M109.184 65.067c-7.035-4.122-12.897-.883-12.897 7.361v245.545c0 8.244 5.716 18.107 12.897 22.229l86.614 50.199c7.035 4.121 12.897.883 12.897-7.361V137.641c0-8.244-5.715-18.107-12.897-22.229l-86.614-50.345z" fill="#d1e4f3"/><path d="M223.79 223.317c-2.638 1.472-4.689-.147-4.689-3.533v-19.873c0-3.533 2.051-7.508 4.689-9.127 2.638-1.473 4.69.147 4.69 3.533v19.873c0 3.533-2.198 7.508-4.69 9.127z" fill="url(#Z)"/><path d="M137.176 347.562c0 .147 1.319 1.177 3.371 2.502v-.589l-3.371-1.913z" fill="#e6e7e8"/><path d="M187.005 200.647l-74.157-43.722v17.077l74.157 42.985v-16.34z" class="B"/><path d="M187.005 214.779l-73.131-42.397v-14.721l-1.026-.588v17.076l74.157 42.985v-2.355z" class="M"/><path d="M187.005 245.987l-74.157-43.721v17.076l74.157 42.985v-16.34z" class="B"/><path d="M182.022 286.322l-74.157-43.721v17.076l74.157 42.986v-16.341z" fill="#c2b8d8"/><path d="M182.022 282.936l-74.157-43.721v17.077l74.157 42.985v-16.341z" class="E"/><path d="M187.005 259.972l-73.131-42.396v-14.721l-1.026-.589v17.076l74.157 42.985v-2.355z" class="M"/><path d="M187.005 332.252l-74.157-43.722v17.077l74.157 42.985v-16.34z" class="B"/><path d="M187.005 346.384l-73.131-42.397v-14.721l-1.026-.736v17.077l74.157 42.985v-2.208z" class="M"/><path d="M112.848 150.595c0 .736 0 .589 0 0h0zm39.57 18.99l-39.57-22.817v3.827l39.57 22.818c0 .883 0-1.325 0-3.828zm13.629 53.437l-53.199-30.914v3.828l53.199 30.914c0 .736 0-1.472 0-3.828zm-53.199-27.233c0 .736 0 .736 0 0h0z" class="E"/><path opacity=".95" d="M111.089 148.534c-.146 0-.293 0-.293-.147l-3.81-2.208c-.294-.147-.44-.589-.294-1.031.147-.294.587-.441 1.026-.294l3.664 2.355c.293.148.44.589.293 1.031-.146.147-.439.294-.586.294zm-7.621-4.416c-.146 0-.293 0-.439-.147l-3.811-2.208c-.293-.148-.44-.589-.293-1.031.147-.294.586-.441 1.026-.294l3.81 2.208c.293.147.44.589.293 1.03-.146.295-.439.442-.586.442zm-7.621-4.416c-.147 0-.293 0-.293-.148l-3.81-2.208c-.293-.147-.44-.589-.293-1.03.147-.295.586-.442 1.026-.295l3.811 2.209c.293.147.44.588.293 1.03-.293.294-.586.442-.733.442zm-7.621-4.269c-.147 0-.293 0-.293-.148l-3.81-2.208c-.293-.147-.44-.589-.293-1.03.147-.295.586-.442 1.026-.295l3.811 2.209c.293.147.44.588.293 1.03-.293.294-.44.442-.733.442zm-7.621-4.417c-.147 0-.293 0-.293-.147l-3.81-2.208c-.293-.147-.44-.589-.293-1.031.147-.294.586-.441 1.026-.294l3.81 2.208c.293.147.44.589.293 1.031-.293.294-.44.441-.733.441z" fill="#a4a4a5"/><path d="M56.131 171.646c-1.612-2.649-2.638-5.594-2.931-8.685v-1.619-2.503c.147-1.766.586-3.091 1.466-4.122.733-1.03 1.905-1.472 3.224-1.619 1.319 0 3.078.442 4.983 1.619 6.302 3.68 9.673 9.716 9.966 15.457v1.619 1.914c0 1.472-.44 2.356-1.172 2.797s-1.612.295-2.638-.294c-.733-.442-1.465-1.031-1.905-1.62-.586-.588-.879-1.324-1.172-1.766-.293.442-.733.589-1.172.736s-1.319-.147-2.198-.736c-1.319-.736-2.345-1.914-3.224-3.533-.733-1.619-1.172-3.386-1.172-5.3s.44-3.238 1.172-3.974 1.759-.589 3.078.147c.586.442 1.173.883 1.612 1.325s.733 1.03 1.172 1.766v-.441c0-.295 0-.442.147-.442h.44l1.026.589.44.442c.147.147.147.441.147.588v6.478c0 .736.147 1.472.44 1.913.293.589.586 1.031 1.172 1.178.586.294.879.294 1.172 0s.293-.736.293-1.472v-1.914-1.177c-.147-2.503-.733-4.417-1.905-6.33s-3.078-3.828-5.716-5.447c-2.198-1.325-3.81-1.62-5.129-1.031-1.172.589-1.905 1.914-2.198 4.122 0 .442-.147 1.325-.147 2.356s0 .736.147 1.472c.147 2.355.879 4.563 2.198 6.624 1.172 1.914 2.931 3.533 5.276 4.858 1.172.589 2.052 1.03 2.785 1.325a4.09 4.09 0 0 0 1.612.294c.293 0 .733-.147 1.172-.147.147 0 .293-.147.44-.147s.147 0 .44.147l1.466.883.44.442c.147.147.147.442.147.589s0 .294-.147.441c-1.905 1.325-4.69.884-8.354-1.177-2.931-1.914-5.276-3.975-6.888-6.625zm8.354-1.325c.44-.441.586-1.177.586-2.502 0-1.178-.147-2.208-.586-3.092-.293-.883-1.026-1.472-1.759-1.913-1.612-.884-2.345-.147-2.345 2.355 0 1.178.147 2.208.586 3.091s1.026 1.62 1.759 2.061c.879.295 1.466.295 1.759 0z" class="E"/><path opacity=".95" d="M111.089 193.875c-.146 0-.293 0-.293-.147l-3.81-2.209c-.294-.147-.44-.588-.294-1.03.147-.294.587-.442 1.026-.294l3.811 2.208c.293.147.439.589.293 1.03-.293.295-.586.442-.733.442zm-7.621-4.417c-.146 0-.293.001-.439-.147l-3.811-2.208c-.293-.147-.44-.589-.293-1.03.147-.295.586-.442 1.026-.295l3.81 2.208c.293.148.44.589.293 1.031-.146.294-.439.441-.586.441zm-7.621-4.416c-.147 0-.293 0-.293-.147l-3.81-2.208c-.293-.147-.44-.589-.293-1.031.147-.294.586-.441 1.026-.294l3.811 2.208c.293.147.44.589.293 1.031-.293.294-.586.441-.733.441zm-7.621-4.416c-.147 0-.293 0-.293-.147l-3.81-2.208c-.293-.148-.44-.589-.293-1.031.146-.294.586-.442 1.026-.294l3.811 2.208c.293.147.44.589.293 1.03-.293.295-.44.442-.733.442zm-7.621-4.416c-.147 0-.293 0-.293-.148l-3.81-2.208c-.293-.147-.44-.589-.293-1.03.147-.295.586-.442 1.026-.295l3.81 2.209c.293.147.44.588.293 1.03-.293.294-.44.442-.733.442z" fill="#a4a4a5"/><g class="E"><path d="M63.312 92.448c0 .589 0 1.178-.147 1.619l-.44 1.325c-.147.442-.44.736-.733 1.03s-.586.589-.879.736l-3.957 2.355c-.147 0-.147-.147-.293-.147.147-.147.293-.442.44-.736s.293-.736.44-1.178v-.147c.147-.442.147-1.03.147-1.619s0-1.178-.147-1.766l-.44-1.767c-.146-.589-.44-1.178-.733-1.767l-.879-1.767c-.293-.589-.733-1.178-1.026-1.619-.44-.589-.733-1.03-1.172-1.472l-1.319-1.325c-.44-.442-1.026-.736-1.466-1.03s-1.026-.589-1.465-.736h-.147c-.44-.147-.879-.294-1.172-.294h-1.172c-.44.147-.733.147-1.026.442l5.423-3.239c.293-.147.733-.294 1.026-.442.44 0 .733-.147 1.172 0 .44 0 .879.147 1.319.294a6.83 6.83 0 0 1 1.466.736c.44.294 1.026.589 1.465 1.03l1.319 1.325c.44.442.879 1.031 1.172 1.472.44.589.733 1.03 1.026 1.619l.879 1.766c.293.589.44 1.178.733 1.767l.44 1.767c0 .589.147 1.178.147 1.766z"/><path d="M69.907 119.534c0 .442-.147.736-.293 1.03l-.44.884c-.147.294-.44.441-.586.589l-5.276 3.091.44-.442c.146-.294.293-.441.44-.883.147-.294.147-.736.147-1.03v-1.325c0-.148 0-.442-.147-.589 0-.295-.147-.589-.147-.736l-1.026-2.797c-.44-.883-.733-1.767-1.319-2.65l-1.466-2.65-1.612-2.502c-.586-.736-1.172-1.62-1.905-2.208a13.62 13.62 0 0 0-2.052-2.061l-2.198-1.767c-.733-.589-1.466-1.03-2.198-1.472s-1.466-.883-2.198-1.178l-2.052-.736c-.733-.147-1.319-.294-2.052-.294h-1.172c-.293 0-.44 0-.733.147l-1.612.442c-.146 0-.293.147-.44.147l4.836-2.797c.293-.147.586-.442 1.026-.589.293-.147.733-.294 1.172-.442.147 0 .44-.147.586-.147.586-.147 1.172-.147 1.905-.147.586 0 1.319.147 2.052.294s1.465.442 2.198.736 1.465.589 2.198 1.178l.879.442c.146 0 .146.147.293.147.293.294.733.442 1.026.736l2.198 1.767c.733.588 1.319 1.325 2.052 2.061l1.905 2.208a14.6 14.6 0 0 1 1.612 2.502c.586.884 1.026 1.767 1.466 2.65l1.172 2.65c.44.883.733 1.766 1.026 2.797.146.441.293 1.03.293 1.472v1.472z"/></g><path d="M57.743 95.686c0 .589 0 1.178-.147 1.619l-.44 1.325c-.147.442-.44.736-.733 1.03s-.586.589-.879.736-.733.294-1.026.441-.733.148-1.172 0-.879-.147-1.319-.294-1.026-.442-1.465-.736-1.026-.589-1.466-1.031l-1.319-1.325c-.44-.442-.879-1.03-1.172-1.472-.44-.589-.733-1.03-1.026-1.619l-.879-1.767c-.293-.589-.44-1.178-.733-1.767l-.44-1.766c-.147-.589-.147-1.178-.147-1.767s0-1.178.147-1.619l.44-1.325c.147-.442.44-.736.733-1.03s.586-.589.879-.736.733-.294 1.026-.442a1.61 1.61 0 0 1 1.172 0c.44 0 .879.147 1.319.294s1.026.442 1.466.736 1.026.589 1.465 1.031l1.319 1.325c.44.442.879 1.031 1.172 1.472.44.589.733 1.031 1.026 1.619l.879 1.767c.293.589.44 1.178.733 1.766l.44 1.767c.147.442.147 1.178.147 1.766zm2.345 29c.44.295.733.442 1.172.442.293.147.733.147 1.026.147s.586-.147.879-.294.44-.295.733-.589c.147-.294.293-.442.44-.883.147-.295.147-.736.147-1.031v-1.325c0-.441-.147-.883-.293-1.472l-1.026-2.797c-.44-.883-.733-1.766-1.319-2.649l-1.465-2.65-1.612-2.503c-.586-.736-1.172-1.619-1.905-2.208-.586-.736-1.319-1.472-2.052-2.061l-2.198-1.766c-.733-.589-1.465-1.031-2.198-1.472s-1.466-.737-2.198-1.031-1.466-.589-2.198-.736-1.319-.294-2.052-.294c-.586 0-1.319 0-1.905.147l-1.612.441c-.586.295-1.026.589-1.465.884s-.879.736-1.319 1.177-.733 1.031-1.026 1.62c0 .736 0 1.03-.147 1.472v1.177c0 .442.147.884.293 1.325l.44 1.325c.147.442.44.883.733 1.325s.586.883.879 1.178a3.43 3.43 0 0 0 1.026 1.03c.293.295.733.589 1.172.883l2.491 1.473 2.491 1.472 2.491 1.472 2.491 1.472 2.492 1.472 2.491 1.472 2.492 1.472 1.612.883z" class="I"/><g class="C"><path d="M67.855 422.049v-10.157H44.993l-7.914-4.563c-1.759-1.031-4.983-.884-7.035.294l-7.328 4.269H-.146v10.452c0 .736.293 1.325 1.172 1.914l29.458 17.076c1.759 1.03 4.983.883 7.035-.294l28.432-16.488c1.465-.736 2.052-1.766 1.905-2.503z"/><path d="M34.001 406.445c-1.319 0-2.638.295-3.811 1.031l-7.328 4.269H0v10.452c0 .736.293 1.325 1.172 1.913l29.458 17.077c.879.441 2.052.736 3.224.736v-35.478h.147z"/></g><g fill="#0984c9"><path d="M2.638 411.745H0v10.452c0 .736.293 1.325 1.172 1.913l1.319.736v-13.101h.147zm28.432 29.736c1.612.736 3.81.589 5.569 0v-11.924H31.07v11.924z"/></g><path d="M30.631 430.735L1.173 413.659c-1.759-1.031-1.612-2.945.44-4.122l28.578-16.488c2.052-1.177 5.276-1.325 7.035-.294l29.458 17.076c1.759 1.031 1.612 2.944-.44 4.122L37.812 430.44c-2.198 1.325-5.276 1.325-7.181.295z" fill="url(#a)"/><path d="M66.243 412.039l-28.432 16.488c-2.052 1.177-5.276 1.325-7.035.294L1.172 411.745c-.44-.295-.733-.442-.879-.736-.586 1.03-.293 2.061.879 2.797l29.458 17.076c1.759 1.031 4.983.883 7.035-.294L66.097 414.1c1.612-.883 2.052-2.208 1.466-3.238-.293.294-.733.736-1.319 1.177z" class="B"/><path d="M57.01 424.699c0 .736-.586 1.619-1.172 2.061s-1.172 0-1.172-.736.586-1.619 1.172-2.061c.733-.294 1.172 0 1.172.736z" class="N"/><path d="M60.967 422.491c0 .736-.586 1.619-1.172 2.061s-1.172 0-1.172-.736.586-1.619 1.172-2.061c.586-.294 1.172 0 1.172.736z" fill="#4e0c82"/><path d="M64.778 420.283c0 .736-.586 1.619-1.172 2.061s-1.172 0-1.172-.736.586-1.619 1.172-2.061c.586-.295 1.172 0 1.172.736z" class="N"/><path d="M32.389 420.136l-13.776-7.95c-.879-.441-.733-1.324.293-1.913l13.336-7.655c1.026-.589 2.492-.589 3.371-.147l13.776 7.949c.879.441.733 1.325-.293 1.914l-13.337 7.654c-1.026.589-2.491.737-3.371.148z" class="C"/><path d="M33.708 413.511l-1.905-1.177c-.146 0-.146-.148 0-.295l1.905-1.03a.27.27 0 0 1 .44 0l1.905 1.177c.147 0 .147.148 0 .295l-1.905 1.03h-.44z" class="N"/><path d="M18.613 412.186c.147 0 .147 0 .293-.147l13.336-7.655c1.026-.589 2.492-.589 3.371-.147l13.776 7.949c.733-.588.879-1.325 0-1.766l-13.776-7.949c-.879-.442-2.345-.442-3.371.147l-13.336 7.655c-1.026.589-1.172 1.472-.293 1.913z" fill="#396caa"/><g class="E"><path d="M157.987 119.387c0 .589 0 1.177-.147 1.619l-.439 1.325c-.147.442-.44.736-.733 1.03s-.586.589-.88.736l-3.957 2.356c-.146 0-.146-.147-.293-.147.147-.148.293-.442.44-.736s.293-.736.44-1.178v-.147c.146-.442.146-1.031.146-1.62s0-1.177-.146-1.766l-.44-1.767c-.147-.588-.44-1.177-.733-1.766l-.879-1.767c-.293-.589-.733-1.177-1.026-1.619-.44-.589-.733-1.03-1.172-1.472l-1.319-1.325c-.44-.442-1.026-.736-1.466-1.03a6.8 6.8 0 0 0-1.466-.736h-.146c-.44-.148-.879-.295-1.173-.295h-1.172c-.44.147-.733.147-1.026.442l5.423-3.239c.293-.147.732-.294 1.026-.441.439 0 .732-.148 1.172 0 .44 0 .879.147 1.319.294s1.026.442 1.466.736 1.025.589 1.465 1.03l1.319 1.325c.44.442.879 1.031 1.173 1.472.439.589.732 1.031 1.025 1.62l.88 1.766c.293.589.439 1.178.733 1.767l.439 1.766c.147.589.147 1.178.147 1.767z"/><path d="M164.728 146.473c0 .442-.146.736-.293 1.031l-.439.883c-.147.294-.44.442-.587.589l-5.276 3.091.44-.441c.147-.295.293-.442.44-.884.146-.294.146-.736.146-1.03v-1.325c0-.147 0-.442-.146-.589 0-.294-.147-.589-.147-.736l-1.026-2.797c-.439-.883-.733-1.766-1.319-2.65l-1.465-2.649-1.612-2.503c-.587-.736-1.173-1.619-1.906-2.208a13.64 13.64 0 0 0-2.051-2.061l-2.199-1.767c-.733-.588-1.465-1.03-2.198-1.472s-1.466-.883-2.198-1.177l-2.052-.736c-.733-.148-1.319-.295-2.052-.295h-1.172c-.293 0-.44 0-.733.147l-1.612.442c-.147 0-.293.147-.44.147l4.836-2.797c.294-.147.587-.441 1.026-.589.293-.147.733-.294 1.173-.441.146 0 .439-.147.586-.147.586-.148 1.172-.148 1.905-.148.586 0 1.319.148 2.052.295s1.465.441 2.198.736 1.466.589 2.199 1.177l.879.442c.146 0 .146.147.293.147.293.295.733.442 1.026.736l2.198 1.767c.733.589 1.319 1.325 2.052 2.061l1.905 2.208a14.54 14.54 0 0 1 1.612 2.503c.587.883 1.026 1.766 1.466 2.649l1.172 2.65c.44.883.733 1.767 1.026 2.797.147.442.293 1.03.293 1.472v1.472z"/></g><path d="M152.564 122.625c0 .589 0 1.178-.146 1.62l-.44 1.325c-.146.441-.44.736-.733 1.03s-.586.589-.879.736-.733.294-1.026.442-.733.147-1.172 0c-.44 0-.88-.148-1.319-.295a6.8 6.8 0 0 1-1.466-.736c-.44-.294-1.026-.589-1.465-1.03l-1.319-1.325c-.44-.442-.88-1.031-1.173-1.472-.44-.589-.733-1.031-1.026-1.62l-.879-1.766c-.293-.589-.44-1.178-.733-1.767l-.44-1.766c-.146-.589-.146-1.178-.146-1.767s0-1.177.146-1.619l.44-1.325c.147-.441.44-.736.733-1.03s.586-.589.879-.736.733-.295 1.026-.442c.44-.147.733-.147 1.173 0 .439 0 .879.147 1.319.295s1.025.441 1.465.736 1.026.588 1.466 1.03l1.319 1.325c.439.442.879 1.03 1.172 1.472.44.589.733 1.03 1.026 1.619l.879 1.767c.293.589.44 1.177.733 1.766l.44 1.767c0 .589.146 1.178.146 1.766zm2.345 29.148c.44.294.733.441 1.173.441.293.148.732.148 1.026.148s.586-.148.879-.295.44-.294.733-.589c.146-.294.293-.441.439-.883.147-.294.147-.736.147-1.03v-1.325c0-.442-.147-.883-.293-1.472l-1.026-2.797c-.44-.884-.733-1.767-1.319-2.65l-1.466-2.65-1.612-2.502c-.586-.736-1.172-1.62-1.905-2.209a13.55 13.55 0 0 0-2.052-2.06l-2.198-1.767c-.733-.589-1.466-1.03-2.198-1.472s-1.466-.736-2.199-1.031-1.465-.588-2.198-.736-1.319-.294-2.052-.294c-.586 0-1.319 0-1.905.147l-1.612.442c-.586.294-1.026.589-1.466.883s-.879.736-1.319 1.178-.733 1.03-1.026 1.619c-.146.295-.293.736-.293 1.031v1.177c0 .442.147.883.293 1.325l.44 1.325c.147.442.44.883.733 1.325s.586.883.879 1.178c.293.441.586.736 1.026 1.03.293.294.733.589 1.172.883l2.492 1.472 2.491 1.472 2.492 1.473 2.491 1.472 2.492 1.472 2.491 1.472 2.492 1.472 1.758 1.325z" class="I"/><path d="M88.373 262.916l-44.26-25.026c-2.491-1.472-2.052-3.827.733-5.446s12.018-1.62 14.509-.295l41.622 23.407c3.663 2.208 0 5.299-3.078 6.771-2.931 1.767-7.181 1.914-9.526.589z" class="H O"/><path d="M89.692 264.094l-48.803-28.265c-2.785-1.619-4.983-5.888-4.983-9.715v-32.092c0-3.68 2.198-5.447 4.983-3.827l48.803 28.264c2.784 1.619 4.983 5.888 4.983 9.716v32.091c0 3.828-2.198 5.447-4.983 3.828z" class="F"/><g class="C"><path d="M90.278 238.921l-48.07-27.823c-2.198-1.472-3.664-4.269-3.664-7.213v-8.391c0-.736.733-1.178 1.319-.736 0 0 .147 0 .147.147l48.07 27.97c2.638 1.472 3.664 4.269 3.664 7.213v8.244c.147.442-.733 1.03-1.466.589z"/><path d="M90.278 259.972l-48.07-27.823c-2.198-1.472-3.664-4.269-3.664-7.213v-8.391c0-.736.733-1.178 1.319-.736 0 0 .147 0 .147.147l48.07 27.97c2.638 1.472 3.664 4.269 3.664 7.213v8.244c.147.589-.733 1.03-1.466.589 0 .147 0 .147 0 0z"/></g><g class="L"><path d="M91.157 238.332c0-.147 0-.147 0 0l-48.07-27.97c-2.198-1.472-3.664-4.269-3.664-7.213v-8.391-.294a.95.95 0 0 0-.879.883v8.391c0 2.944 1.319 5.741 3.664 7.213l48.07 27.823h.147c.586.294 1.172 0 1.466-.589-.293.147-.44.147-.733.147zm0 21.051l-48.07-27.97c-2.198-1.472-3.664-4.269-3.664-7.213v-8.391-.294a.95.95 0 0 0-.879.883v8.391c0 2.944 1.319 5.741 3.664 7.213l48.07 27.823h.147c.586.294 1.172 0 1.466-.589-.293.294-.44.294-.733.147z"/></g><path d="M92.037 217.428l-48.803-28.264c-1.172-.589-2.052-.736-2.931-.442-.147 0-2.491 1.178-2.491 1.325.879-.441 1.905-.294 3.078.295l48.803 28.264c2.785 1.619 4.983 5.888 4.983 9.716v32.091c0 2.356-.879 3.828-2.198 4.269.147 0 .293 0 .44-.147 0 0 2.491-1.325 2.638-1.325 1.026-.736 1.612-2.061 1.612-3.974v-32.092c-.147-3.827-2.345-8.096-5.13-9.716z" fill="#3f92d1"/><path d="M92.037 217.428l-48.803-28.264c-1.172-.589-2.052-.736-2.931-.442-.147 0-2.491 1.178-2.491 1.325.879-.441 1.905-.294 3.078.295l48.803 28.264 2.345-1.178z" class="R"/><path d="M89.838 218.459l-48.803-28.264c-1.172-.589-2.198-.736-3.078-.442.733-.147 1.612 0 2.491.589l48.803 28.264c2.785 1.619 4.983 5.888 4.983 9.716v32.091c0 2.209-.733 3.681-2.052 4.27 1.612-.295 2.638-1.914 2.638-4.417v-32.091c.147-3.681-2.198-8.097-4.983-9.716z" class="B"/><g class="L"><use xlink:href="#f"/><use xlink:href="#g"/><use xlink:href="#h"/><path d="M54.812 231.708c0 1.913 1.319 4.269 3.078 5.299 1.612 1.031 3.078.147 3.078-1.766s-1.319-4.269-3.078-5.3c-1.612-1.03-3.078-.147-3.078 1.767zm-7.768-4.564c0 1.914 1.319 4.269 3.078 5.3 1.612 1.03 3.078.147 3.078-1.767s-1.319-4.269-3.078-5.299-3.078-.148-3.078 1.766z"/></g><g class="F"><path d="M77.381 245.398c0 1.914 1.319 4.269 3.078 5.3 1.612 1.03 3.078.147 3.078-1.767s-1.319-4.269-3.078-5.299c-1.612-.884-3.078-.148-3.078 1.766zm-7.767-4.563c0 1.913 1.319 4.269 3.078 5.299 1.612 1.031 3.078.147 3.078-1.766s-1.319-4.269-3.078-5.3c-1.759-.883-3.078-.147-3.078 1.767zm-7.914-4.564c0 1.914 1.319 4.269 3.078 5.3 1.612 1.03 3.078.147 3.078-1.767s-1.319-4.269-3.078-5.3c-1.612-.883-3.078-.147-3.078 1.767zm-7.768-4.563c0 1.913 1.319 4.269 3.078 5.299 1.612 1.031 3.078.147 3.078-1.766s-1.319-4.27-3.078-5.3c-1.759-.883-3.078-.147-3.078 1.767zm-7.767-4.564c0 1.914 1.319 4.269 3.078 5.3 1.612 1.03 3.078.147 3.078-1.767s-1.319-4.269-3.078-5.299c-1.759-.884-3.078-.148-3.078 1.766z"/></g><g class="L"><path d="M78.407 223.611c0 1.914 1.319 4.269 3.078 5.299 1.612 1.031 3.078.148 3.078-1.766s-1.319-4.269-3.078-5.3c-1.759-.883-3.078-.147-3.078 1.767zm-7.914-4.564c0 1.914 1.319 4.27 3.078 5.3 1.612 1.03 3.078.147 3.078-1.767s-1.319-4.269-3.078-5.299c-1.612-.883-3.078-.147-3.078 1.766zm-7.767-4.563c0 1.914 1.319 4.269 3.078 5.3 1.612 1.03 3.078.147 3.078-1.767s-1.319-4.269-3.078-5.299c-1.759-.884-3.078-.148-3.078 1.766zm-7.914-4.563c0 1.913 1.319 4.269 3.078 5.299 1.612 1.031 3.078.147 3.078-1.766s-1.319-4.27-3.078-5.3c-1.612-.883-3.078-.147-3.078 1.767zm-7.768-4.564c0 1.914 1.319 4.269 3.078 5.3 1.612 1.03 3.078.147 3.078-1.767s-1.319-4.269-3.078-5.299c-1.759-.884-3.078-.148-3.078 1.766z"/></g><g class="F"><use xlink:href="#i"/><path d="M69.614 219.195c0 1.913 1.319 4.269 3.078 5.299 1.612 1.031 3.078.147 3.078-1.766s-1.319-4.269-3.078-5.3-3.078-.147-3.078 1.767zm-7.914-4.564c0 1.914 1.319 4.269 3.078 5.3 1.612 1.03 3.078.147 3.078-1.767s-1.319-4.269-3.078-5.299c-1.612-1.031-3.078-.147-3.078 1.766zm-7.768-4.563c0 1.913 1.319 4.269 3.078 5.299 1.612 1.031 3.078.148 3.078-1.766s-1.319-4.269-3.078-5.3-3.078-.147-3.078 1.767zm-7.767-4.564c0 1.914 1.319 4.269 3.078 5.3 1.612 1.03 3.078.147 3.078-1.767s-1.319-4.269-3.078-5.299-3.078-.147-3.078 1.766z"/></g><path d="M289.007 226.703l-34.147-19.726c-3.517-2.061-3.078-5.594 1.026-8.097 4.103-2.355 17.733-2.355 21.25-.294l30.337 17.518c5.423 3.238 0 7.654-4.543 10.01-4.103 2.502-10.405 2.65-13.923.589z" class="H O"/><path d="M314.215 196.377c0-5.888-4.104-13.101-9.38-16.193-1.319-.736-2.638-1.177-3.81-1.325v-.294c0-11.482-8.061-25.467-18.026-31.356-5.57-3.238-10.406-2.797-13.923-.441l-5.716 3.238c-3.224-1.766-6.155-1.619-8.207-.294l-7.768 4.711c2.052-.884 4.837-.589 7.914 1.177.587.442 1.319.884 1.906 1.325 2.345-6.919 9.086-9.127 17.147-4.416 9.966 5.741 18.026 19.726 18.026 31.356v.294c1.173.147 2.492.442 3.811 1.325 5.129 2.944 9.379 10.157 9.379 16.193 0 2.502-.733 4.416-2.052 5.447l7.621-4.564c1.905-.883 3.078-2.944 3.078-6.183z" class="D"/><g class="B"><path d="M296.775 185.19c-1.319-.737-2.638-1.178-3.811-1.325v-.295c0-11.482-8.06-25.467-18.026-31.355-4.836-2.797-9.086-3.092-12.311-1.472 3.078-1.325 7.182-.737 11.725 1.766 9.966 5.741 18.026 19.726 18.026 31.356v.294c1.173.147 2.492.442 3.811 1.325 5.129 2.944 9.379 10.157 9.379 16.193 0 2.944-1.026 5.152-2.784 6.036 2.051-.736 3.517-2.945 3.517-6.33-.147-6.036-4.25-13.249-9.526-16.193zM255.3 155.748l1.905 1.324c0-.147.147-.441.293-.588-.44-.295-.879-.736-1.465-.884-3.225-1.913-6.156-2.061-8.208-1.03 1.906-.736 4.544-.442 7.475 1.178z"/></g><path d="M296.189 185.484c-1.319-.736-2.638-1.178-3.811-1.325v-.295c0-11.482-8.06-25.467-18.026-31.355-8.061-4.711-14.802-2.503-17.147 4.416-.586-.441-1.173-.883-1.905-1.325-6.595-3.827-11.871-.736-11.871 6.772s5.276 16.782 11.871 20.609c.879.442 39.277 22.818 40.889 23.701 5.129 2.944 9.379.589 9.379-5.3-.146-5.741-4.25-12.954-9.379-15.898z" class="G"/><path d="M300.292 205.21c-.586 0-1.465-.147-2.638-.883l-40.889-23.701c-5.569-3.239-10.405-11.482-10.405-17.959 0-1.62.293-5.447 3.517-5.447 1.173 0 2.492.441 3.811 1.177.439.295 1.026.589 1.612 1.031l3.371 2.502 1.319-3.974c.732-2.208 2.491-4.858 6.155-4.858 1.905 0 4.25.736 6.595 2.061 8.94 5.152 16.561 18.401 16.561 28.706v.147 2.797l2.784.147c.733 0 1.612.294 2.492.883 4.25 2.503 7.767 8.686 7.767 13.544 0 1.324-.293 2.355-.733 2.944-.146.589-.439.883-1.319.883z" class="C"/><g fill="#2672ab"><path d="M259.696 161.194l1.319-3.974c.44-1.178 1.026-2.356 1.906-3.239-1.613.883-2.492 2.503-2.932 3.975l-.879 2.797.586.441zm41.622 43.28c-.586 0-1.465-.147-2.638-.883l-40.889-23.701c-5.569-3.239-10.405-11.482-10.405-17.96 0-1.03.146-3.091 1.172-4.416-2.052.883-2.198 3.828-2.198 5.152 0 6.478 4.836 14.721 10.405 17.96.587.294 40.889 23.701 40.889 23.701 1.319.736 2.199.883 2.638.883.733 0 1.173-.294 1.319-.589l.147-.147h-.44z"/></g><path d="M188.764 534.812l-34.148-19.726c-3.517-2.061-3.078-5.594 1.026-8.097 4.104-2.355 17.733-2.355 21.251-.294l30.337 17.518c5.422 3.238 0 7.655-4.544 10.01-4.103 2.503-10.259 2.65-13.922.589z" class="H O"/><path d="M202.1 493.299l-49.389-18.549v36.803c-.147 1.177.439 2.355 1.905 3.238l33.415 19.432c2.931 1.619 7.914 1.472 11.284-.442 1.759-1.03 2.638-2.355 2.785-3.533v-36.949z" class="F"/><path d="M188.031 497.273l-33.415-19.431c-2.931-1.619-2.491-4.564.879-6.477s8.354-2.209 11.285-.442l33.415 19.432c2.931 1.619 2.491 4.563-.879 6.477-3.225 1.914-8.354 2.208-11.285.441z" class="G"/><path d="M199.315 496.39c-3.37 1.914-8.353 2.208-11.284.442L154.616 477.4c-1.172-.736-1.905-1.619-1.905-2.65-.147 1.178.439 2.356 1.905 3.092l33.415 19.431c2.931 1.62 7.914 1.473 11.284-.441 1.906-1.178 2.932-2.65 2.785-3.975-.147 1.325-1.026 2.503-2.785 3.533z" class="B"/><g class="C"><path d="M180.703 448.253c-9.38-5.447-20.957 1.325-20.957 12.218v15.31c0 1.472 2.051 2.65 4.543 2.65s4.543-1.178 4.543-2.65v-13.249c0-4.563 4.983-7.508 8.94-5.152 4.543 2.65 7.474 7.507 7.474 12.807v20.315c0 1.472 2.052 2.65 4.543 2.65s4.544-1.178 4.544-2.65v-18.254c.146-9.863-5.13-18.99-13.63-23.995z"/><path d="M171.177 452.816c-4.104 0-7.474 3.386-7.474 7.508v15.899 1.619c0 .147 2.638-.147 2.638-.295v-1.619-15.899c0-3.385 2.198-6.33 5.276-7.213-.147.147-.294 0-.44 0zm6.595 51.082c0-2.944-2.052-6.33-4.543-7.802s-4.543-.295-4.543 2.65c0 1.913.879 4.121 2.344 5.888v9.127l4.544 2.65v-9.127c1.319-.295 2.198-1.472 2.198-3.386z"/></g><path d="M171.763 513.319v-9.127c-1.319-1.619-2.345-3.974-2.345-5.888 0-1.325.44-2.356 1.173-2.797-1.173.294-1.905 1.325-1.905 3.091 0 1.914.879 4.122 2.344 5.889v9.127l4.544 2.649v-.736l-3.811-2.208z" class="L"/><path d="M161.064 394.08l-49.975-28.264c-2.785-1.62-2.345-4.417.733-6.183 3.224-1.767 13.629-1.914 16.414-.295l47.044 26.498c4.25 2.503 0 5.888-3.517 7.655-3.224 2.061-7.914 2.208-10.699.589z" class="H O"/><path d="M160.185 393.785l-45.139-26.35c-3.078-1.767-5.716-6.772-5.716-10.894v-59.178c0-4.269 2.492-6.183 5.716-4.269l45.139 26.351c3.078 1.766 5.716 6.771 5.716 10.893v59.178c0 4.122-2.638 6.036-5.716 4.269z" class="I"/><path d="M160.918 390.547l-44.26-25.909c-2.491-1.619-4.104-4.858-4.104-8.097v-57.706c0-.736.88-1.325 1.466-.883.147 0 .147.147.147.147l44.259 25.909c3.078 1.767 4.104 4.858 4.104 8.097v57.411c.146.883-.733 1.472-1.612 1.031z" class="E"/><path d="M161.944 389.811s-.147 0 0 0l-44.407-26.057c-2.491-1.619-4.103-4.857-4.103-8.096v-57.559-.294c-.44 0-.88.441-.88 1.03v57.559c0 3.239 1.613 6.477 4.104 8.097l44.26 25.908s.146 0 .146.148c.587.294 1.319 0 1.612-.589-.293 0-.586 0-.732-.147z" class="L"/><path d="M162.823 317.972l-45.139-26.35c-1.172-.736-2.345-.883-3.371-.442-.146 0-2.784 1.472-2.931 1.472 1.026-.441 2.198-.441 3.517.442l45.14 26.351c3.077 1.766 5.715 6.771 5.715 10.893v59.178c0 2.65-1.026 4.416-2.491 4.858.146 0 .293 0 .439-.147 0 0 2.932-1.472 2.932-1.619 1.025-.736 1.758-2.356 1.758-4.417v-59.178c.147-4.269-2.345-9.127-5.569-11.041z" fill="url(#b)"/><path d="M162.823 317.972l-45.139-26.35c-1.172-.736-2.345-.883-3.371-.442-.146 0-2.784 1.472-2.931 1.472 1.026-.441 2.198-.441 3.517.442l45.14 26.35 2.784-1.472z" fill="url(#c)"/><path d="M160.478 319.297l-45.139-26.35c-1.319-.736-2.491-.883-3.371-.442.88-.147 1.759 0 2.785.589l44.992 26.351c3.078 1.766 5.716 6.771 5.716 10.893v59.178c0 2.503-.879 4.122-2.198 4.711 1.758-.294 2.931-2.061 2.931-5.005v-59.178c0-4.122-2.638-8.98-5.716-10.747z" class="B"/><g class="I"><path d="M138.055 358.602h-.293c-.586-.147-.879-.589-.733-1.177 1.173-5.153 1.759-10.894 1.759-16.782v-.589c0-.589.44-1.031 1.026-1.031s1.026.442 1.026 1.031v.442c0 6.182-.586 11.923-1.759 17.223-.146.589-.586.883-1.026.883zm-7.034 6.772h-.294c-.586-.147-.879-.736-.732-1.178 2.051-8.391 2.931-20.168 2.931-27.381 0-1.766.586-3.238 1.612-4.122a1.12 1.12 0 0 1 1.465.148c.294.441.293 1.03-.146 1.472-.586.441-.879 1.472-.879 2.649 0 7.361-.88 19.285-3.078 27.823 0 .294-.44.589-.879.589zm14.215-21.198a1 1 0 0 1-1.025-1.031c0-3.238-2.345-7.213-5.13-8.832-.44-.295-.586-.884-.293-1.325s.879-.589 1.319-.295c3.371 2.061 6.155 6.625 6.155 10.599 0 .442-.439.884-1.026.884zm-4.103 28.558h-.293c-.587-.147-.88-.589-.733-1.177 1.465-6.183 2.784-14.133 3.517-20.315 0-.589.586-.884 1.173-.884s.879.589.879 1.178c-.733 6.183-2.052 14.279-3.517 20.462-.147.442-.587.736-1.026.736zm12.017 1.914h-.293c-.586-.147-.879-.736-.733-1.178 1.906-7.066 2.785-15.015 2.785-23.553v-.442c0-10.01-7.181-22.376-15.828-27.528-4.104-2.355-7.767-2.797-10.552-1.178s-4.25 5.006-4.25 9.716c0 7.508-.733 14.427-2.198 20.904-.147.589-.733.883-1.173.736-.586-.147-.879-.589-.733-1.178 1.466-6.33 2.052-13.249 2.052-20.462 0-5.446 1.905-9.421 5.276-11.335s7.914-1.619 12.604 1.178c9.233 5.447 16.854 18.548 16.854 29.147v.442c0 8.685-1.026 16.782-2.931 23.995-.147.442-.44.736-.88.736zm-27.406-15.457h-.293c-.586-.147-.879-.736-.733-1.178l1.906-9.421c.146-.589.586-.883 1.172-.883.586.147.88.588.88 1.177-.44 3.386-1.173 6.625-1.906 9.716-.146.295-.586.589-1.026.589zm2.199-12.365c-.586 0-1.026-.589-1.026-1.178.44-3.828.586-7.95.586-12.071 0-2.503.586-4.564 1.612-6.036.293-.442.88-.589 1.319-.294s.587.883.293 1.324c-.879 1.178-1.319 2.945-1.319 4.858 0 4.269-.293 8.391-.586 12.219 0 .736-.439 1.178-.879 1.178zm21.104-6.772c-.44 0-.733-.295-.88-.589-1.905-4.858-5.422-9.127-9.086-11.188-2.052-1.178-4.104-1.619-5.716-1.178-.586.148-1.026-.147-1.172-.736s.146-1.03.733-1.177c2.198-.589 4.689 0 7.181 1.472 4.103 2.355 7.767 6.919 9.966 12.218a1.09 1.09 0 0 1-.587 1.325c-.146-.147-.293-.147-.439-.147z"/><path d="M146.555 374.648h-.293c-.586-.147-.732-.736-.586-1.325l.293-.736c2.492-7.655 3.811-16.34 3.811-25.909v-.441c0-.589.439-1.031 1.026-1.031a1 1 0 0 1 1.025 1.031v.441c0 9.716-1.319 18.696-3.957 26.498l-.293.736c-.293.442-.586.736-1.026.736z"/></g><path d="M231.851 252.464v32.828l4.836-2.797V249.52l-4.836 2.944z" class="C"/><path d="M231.851 252.464v32.828l-29.018-16.929v-32.975l29.018 17.076z" class="F"/><path d="M202.833 235.388l29.018 17.076 4.836-2.944-29.018-17.076-4.836 2.944z" class="C"/><g class="B"><path opacity=".7" d="M202.833 235.388l29.018 17.076 4.836-2.944-5.129 1.325-28.725-15.457z"/><path d="M205.617 244.956l11.871 18.549 11.871-4.858c-.439-.589-.879-1.031-1.465-1.325l-20.811-12.071c-.586-.295-1.026-.295-1.466-.295z"/><path d="M229.359 258.794l-11.871 6.772-3.37-5.889-8.501 3.533 7.914-4.563-7.914-13.691c-.586.148-.879.736-.879 1.62v14.132c0 1.472 1.026 3.238 2.345 3.975l20.811 12.071c1.319.736 2.345.147 2.345-1.325v-14.132a4.33 4.33 0 0 0-.88-2.503zm0 18.107l-8.5-13.249.586-.294 7.914 13.543z"/></g><path opacity=".3" d="M55.838 489.471c6.155 3.533 15.242 4.417 22.863 2.65l7.035 4.122 5.423-1.178 3.664 2.208.147 4.564 2.052 1.178 4.983.441 3.957 2.208-.293 2.356 4.543 2.649h11.431l4.104-2.355-36.786-21.345c4.397-4.564 3.078-10.452-3.517-14.427-8.207-4.71-21.544-4.71-29.604 0-8.207 4.417-8.207 12.219 0 16.929zm5.129-14.426c2.345-1.325 6.155-1.325 8.354 0 2.345 1.325 2.345 3.533 0 4.858s-6.155 1.325-8.354 0c-2.345-1.325-2.345-3.533 0-4.858z" fill="#000"/><use xlink:href="#j" class="E"/><use xlink:href="#j" class="C"/><use xlink:href="#k" class="E"/><use xlink:href="#k" class="F"/><path d="M57.01 481.228c-3.078-1.767-4.983-4.122-4.983-6.478s1.759-4.71 4.983-6.477c3.664-2.061 8.5-3.238 13.63-3.238s9.966 1.177 13.63 3.238c3.078 1.767 4.983 4.122 4.983 6.477s-1.759 4.711-4.983 6.478c-3.664 2.061-8.5 3.238-13.63 3.238s-9.966-1.177-13.63-3.238zm.44-12.366c-2.931 1.619-4.543 3.827-4.543 5.888s1.612 4.122 4.543 5.889c3.517 2.061 8.207 3.091 13.19 3.091s9.819-1.178 13.19-3.091c2.931-1.62 4.543-3.828 4.543-5.889s-1.612-4.121-4.543-5.888c-3.517-2.061-8.207-3.091-13.19-3.091s-9.819 1.03-13.19 3.091z" class="C"/><g fill="#000"><path opacity=".1" d="M63.019 486.086v2.649c4.983 1.178 10.552 1.031 15.535-.147v-2.65c-4.836 1.178-10.405 1.178-15.535.148zm22.716 3.974v2.65l5.423-1.178v-2.649l-5.423 1.177zm9.087.883v2.65l.293 4.564v-2.65l-.293-4.564zm2.198 5.742v2.649l5.129.442v-2.65l-5.129-.441zm24.621 7.507H110.21v2.65h11.431v-2.65z"/><path opacity=".15" d="M125.891 501.837v2.65l-4.25 2.502v-2.797l1.905-1.03v1.177l1.026-.588v-1.178l1.319-.736z"/></g><path d="M124.572 502.573l-1.026.589v1.178l1.026-.589v-1.178z" class="E"/><path opacity=".3" d="M124.572 502.573l-1.026.589v1.178l1.026-.589v-1.178z" class="B"/><path d="M124.572 502.573v1.178l-37.811-21.787 1.026-.589 36.785 21.198z" class="C"/><path opacity=".15" d="M87.787 481.375v1.03l-1.026-.441 1.026-.589z" fill="#000"/><path d="M304.689 499.923l-32.242 18.696v-37.391l32.242-18.696v37.391z" fill="#1e93e2"/><path d="M272.447 481.228l-32.242-18.696 32.242-18.696 32.242 18.696-32.242 18.696z" class="N"/><path d="M272.447 518.619l-32.242-18.696v-37.391l32.242 18.696v37.391z" class="C"/><path d="M315.68 529.954c.44 2.208 1.319 4.858 2.052 9.421s-.439 4.711 2.931 16.193c1.906 6.919 1.612 9.569-2.931 15.457-4.983 6.183-10.112 5.006-13.483-1.913-2.931-5.889-2.638-8.686-2.638-14.721s-.146-7.95-.44-12.66c-.293-4.269.147-7.214-.146-10.452l14.655-1.325z" fill="#2b454e"/><g class="P"><path d="M317.293 546.589c-.88-5.889-1.173-12.072-1.466-16.046-.733-8.98 1.172-26.645-.147-40.188l-24.767-2.209c.879 5.3 7.62 29.001 10.112 43.28 0 0 1.026 19.432 2.345 27.97.146 1.03 1.465 1.766 2.491 1.325 3.371-1.472 8.061-1.62 11.285-.736 1.172.294 2.491-.442 2.345-1.62 0-2.944-1.612-7.36-2.198-11.776zm-71.226-63.3c.879 18.401 1.172 32.386.879 40.335-.146 4.858-.879 8.096-2.198 11.482s-3.664 8.244-5.423 10.305c0 0-6.155 6.624-4.983 7.213s13.777 1.472 18.759 0c4.983-1.325 6.889-5.594 8.794-13.249s3.664-18.99 3.664-18.99-.147-.294-.44-1.325c-.586-2.208 1.759-13.543 2.491-19.137l-21.543-16.634z"/></g><path d="M269.955 531.72c-.146 1.914-1.612 4.122-2.051 7.066s-.733 6.036-.733 10.305l.146 4.858h-1.319l-.146-8.685c0-2.65-1.319-5.005-2.638-5.3 0 0 .586-8.096 6.741-8.244z" class="K"/><path d="M265.412 519.355c.733 2.208 2.638 5.005 3.811 7.066.586 1.178 1.172 2.797 1.172 3.827s-.293 2.503-1.759 3.828l-3.077 2.944c-2.638 2.355-3.664 4.563-5.423 10.157-1.026 3.386-2.638 6.33-5.569 7.95-2.345 1.325-8.5 3.386-16.268 3.091-6.448-.294-8.793-3.091-6.448-5.447 2.491-2.355 6.595-6.624 7.328-7.213 0 0 3.81 0 6.741 1.325 3.518 1.619 4.69 3.68 8.5 1.914 3.371-1.62 5.276-7.508 5.57-17.077.439-10.304 5.422-12.365 5.422-12.365z" fill="#2b454e"/><path d="M298.387 358.455c.44 2.355.879 4.563 1.759 5.741 5.129 7.066 12.897 15.752 11.578 29-3.371 32.092.439 63.153 2.638 63.153.293 2.797 3.663 8.98 3.224 26.056-.293 12.955-1.319 32.681-1.319 32.681s-11.285 4.563-19.345 1.619c-3.371-12.218-8.647-41.513-11.872-55.498-3.517-14.868-5.862-32.68-5.862-32.68l-7.034 27.822s1.905 10.01.879 19.579c-.879 8.685-6.449 34.447-6.449 34.447s-13.336 2.944-20.371-1.914l-1.758-52.406c.293-19.137 1.612-73.163 7.034-86.559.44-1.031-1.905-8.98-1.905-8.98 6.595 5.299 39.863 4.122 48.803-2.061z" class="E"/><g class="I"><path d="M316.413 510.228c-3.517 3.238-16.56 4.269-20.81 2.061l1.612 6.919s4.103 1.913 10.259 1.324 8.646-3.385 8.646-3.385l.293-6.919zm-48.949-4.269c-3.664 1.325-17.587.441-21.69-2.061l.293 5.741s5.422 2.503 11.578 3.092 8.793-1.178 8.793-1.178l1.026-5.594z"/></g><path d="M219.98 318.708c-3.664-2.797-6.449-4.858-10.699-11.629-1.026-1.767-3.077-3.386-4.103-4.269-1.905-1.767-3.078-3.828-3.518-4.858-.439-.883-2.784.147-2.198 3.238.293 2.356 1.759 4.564 2.345 5.889-1.319 0-3.224-.147-6.009 0s-8.06-.147-7.034 2.944c.293.736.732 1.325.732 2.061 0 .294-.146.736-.146 1.03-.293 1.325.293 2.65 1.319 3.533a1.15 1.15 0 0 1 .586.589c.293.589 0 1.178.147 1.767s.439 1.177.879 1.766c.733.736.879.442 1.612 1.178.44.442.586 1.472 1.612 2.208.733.442 2.638.589 4.543.589 1.759 0 3.078.589 5.569.589 2.052 0 3.957 1.03 7.328 4.563 7.621 7.213 8.5 9.716 15.389 15.163.732.589 1.319 1.03 1.905 1.472 6.448 4.416 8.94 1.03 14.069-7.949 6.302-11.041 9.526-17.371 9.526-17.371l10.113-30.031c-6.156.736-13.484 7.802-18.906 15.752-2.638 3.68-13.337 20.167-13.337 20.167-3.664-2.65-8.06-5.594-11.724-8.391z" class="P"/><g class="Q"><path d="M198.29 308.845c.293.147.587.147.733.295.293.147.44.294.733.441h-.147c1.173-.147 2.492-.147 3.664.589.293.147.586.442.733.589.147.294.293.589.293 1.03 0 .148 0 .295-.146.589-.147.147-.294.295-.44.295-.293.147-.586.147-.879.147l-1.759.441c-.586.148-1.173.148-1.905.148-1.173-.148-2.492-.295-3.518-.736.587.147 1.173.147 1.759.294.586 0 1.172.147 1.759.147s1.172 0 1.758-.147l1.759-.442c.293 0 .586-.147.879-.147s.293-.147.44-.441c0-.442-.44-1.031-.879-1.325-1.026-.589-2.199-.736-3.371-.736l-.586-.589-.88-.442z"/><path d="M202.54 312.673c.439-.148 1.172 0 1.465.441s.293 1.178 0 1.62c-.586.883-1.319 1.766-2.345 2.208-.586.147-1.026.147-1.612.147h-1.612c-1.026 0-2.052-.147-3.078-.295h3.078c1.026 0 2.052.148 3.078-.147.439-.147.879-.441 1.172-.883.44-.294.733-.736 1.026-1.178s.44-.883.147-1.325c-.147-.441-.733-.736-1.319-.588z"/><path d="M202.1 316.5c.44-.147 1.026-.294 1.466 0 .293.147.439.294.439.589v.736c-.146.589-.586.883-.879 1.178s-.733.736-1.173.883c-.586.147-1.025 0-1.465.147-.44 0-.88.147-1.319.147l-2.785.442c.88-.294 1.759-.589 2.785-.736.439-.147.879-.147 1.465-.295.44 0 1.026 0 1.319-.147.44-.147.733-.441 1.026-.736s.733-.736.733-1.03v-.589c0-.147-.146-.442-.293-.442-.293-.147-.879-.147-1.319-.147z"/><path d="M202.393 319.739c.147 0 .293.147.44.441.146.148.146.442 0 .589l-.44 1.178c-.147.147-.147.294-.293.442l-.44.441c-.293.147-.733.442-1.026.442l.88-.736c.146-.147.293-.295.293-.442.146-.147.146-.294.293-.442.146-.294.293-.736.44-1.03s.146-.736-.147-.883zm1.905-7.95c-.293 1.178.44 4.269 2.345 5.742 2.052 1.472 3.517 1.472 3.517 1.472s-1.905.147-3.663-.736-2.345-1.914-2.345-1.914l-.147.736c-.293-.442-.44-.736-1.465-.589 0 0 1.025-.883 1.319-1.619.293-.589.879-1.619-.587-2.356 0 0 .44 0 .88-.294.293 0 .146-.442.146-.442z"/></g><use xlink:href="#l" class="J"/><use xlink:href="#l" class="I"/><g class="J"><path opacity=".35" d="M231.411 326.363c3.517 2.061 6.742 6.625 7.328 9.274.146-3.385-1.759-8.391-6.155-11.188l-1.173 1.914zm-6.302 15.899c.586-.294 1.173-.736 1.612-1.03 1.026-.884 1.906-1.914 2.638-3.092 1.173-2.208 1.759-4.858 1.319-7.36 0-.148.147-.148.147 0 .586 2.649.293 5.594-1.173 7.949-.732 1.178-1.612 2.208-2.784 3.091l-1.466.884c-.146-.148-.293-.295-.293-.442-.146 0-.146 0 0 0z"/></g><path d="M284.757 284.85l13.923 5.3c2.345 1.03 11.431 7.949 8.061 25.173-1.173 5.741-2.638 13.837-3.957 21.787-1.026 6.182 2.491 17.959 5.276 36.655 0 0-12.164 12.218-35.907 9.127-18.172-2.356-21.983-12.219-21.983-12.219 0-17.959 5.716-8.096 1.612-36.066 0 0-2.052-3.239-2.052-10.452 0-7.655 3.664-14.426 9.087-23.112 5.276-8.243 9.966-12.954 9.966-12.954l15.974-3.239z" fill="#fafafa"/><path d="M252.662 268.216c-.587-2.061-2.932-2.209-3.371-4.858s1.026-4.564 3.224-5.742 2.638-3.385 2.198-7.949 2.785-7.213 6.449-7.802c1.905-.294 3.957-.147 5.276-1.472.586-.589.879-1.325 1.172-2.061 1.759-3.239 5.13-4.711 9.526-4.711 1.759 0 4.104.295 5.716 1.178 2.198.883 3.371 1.619 5.569 3.68 2.492-.441 7.035.147 9.38 2.356 1.758 1.472 3.517 3.091 4.103 6.624.44 2.65.147 4.269 1.319 5.741 2.345 2.944 5.276 2.944 6.595 5.447 1.905 3.533-2.784 6.624-.439 11.041 2.051 3.68.586 7.949-3.518 9.568-2.052.736-3.81-.294-6.741.883-2.931 1.031-3.078 3.386-6.888 4.858-3.078 1.178-5.716-1.03-8.208-1.324-3.37-.442-2.344.736-5.715-1.473-1.173-.736-1.905-2.061-3.078-2.797-3.664-2.208-4.836-1.03-9.379.589-1.173.442-4.983 1.472-7.621-1.472-1.319-1.472-2.345-4.122-2.345-6.919-.733 2.503-6.449 2.503-7.035-1.472 1.466 1.62 4.397.295 3.811-1.913z" class="K"/><path d="M289.3 282.348c0-2.208.44-8.097.44-8.097.879 2.061 4.69 2.208 6.595-.441 2.345-3.386 2.345-7.214.733-9.716-1.759-2.65-6.009-2.797-7.914 1.325-2.785.588-3.811-3.828-1.612-7.802 0-9.422-12.751-6.33-15.389-14.721-4.543.588-8.646 4.269-10.405 7.802-1.026 2.061-1.172 3.386-.879 7.655.146 1.619-1.026 3.533-1.319 5.741-1.466 10.01 1.465 14.132 4.689 16.046 1.759 1.03 3.957 1.766 8.208 1.913 0 0 0 1.914-.147 3.092-.147 1.325-.147 1.766-1.759 2.061-.439 0-1.026.147-1.026.147s-6.888 6.477 2.199 8.096c13.629 2.503 19.052-5.888 19.638-7.949-2.198-.294-2.198-1.472-2.052-5.152z" class="P"/><path d="M276.404 271.307l-4.983 1.325c.293 1.472 1.758 2.355 3.077 1.914 1.466-.442 2.345-1.914 1.906-3.239z" fill="#b0494c"/><path d="M276.111 272.337c-1.319-.147-2.638.736-2.932 2.061.44.147.88.147 1.466 0 1.026-.294 1.759-1.03 1.905-2.061h-.439z" fill="#ff9090"/><g class="K"><path d="M263.36 255.997l3.664-1.472c-.44-1.03-1.466-1.619-2.491-1.178s-1.466 1.62-1.173 2.65zm18.026 1.178l-3.517-1.914c.44-1.03 1.759-1.472 2.638-.883s1.319 1.914.879 2.797z"/></g><path d="M272.447 282.2c6.301-.294 13.483-2.649 15.828-6.035 0 0-.88 3.533-3.518 5.005-5.862 3.386-12.31 3.091-12.31 3.091V282.2z" class="Q"/><g class="K"><path d="M279.042 260.708c.879 1.619-.733 3.239-2.345 2.355-.293-.147-.44-.294-.587-.589-.879-1.619.733-3.238 2.345-2.355.147.147.44.295.587.589zm-12.164-.883c.879 1.619-.733 3.238-2.345 2.355-.293-.147-.44-.294-.587-.589-.879-1.619.733-3.238 2.345-2.355.293.147.44.441.587.589z"/></g><path d="M265.119 267.48l5.422 2.208 1.466-10.894-6.888 8.686z" class="Q"/><path d="M292.671 274.104a1.32 1.32 0 1 0 0-2.65c-.728 0-1.319.593-1.319 1.325s.591 1.325 1.319 1.325z" fill="#ececec"/><g class="E"><path d="M272.154 287.206c-.587.294-4.983 1.619-7.475 2.649-6.888 5.3-12.31 13.396-14.069 16.782-2.491 4.858-3.81 8.98-3.957 16.782-.147 6.772-.879 27.087-2.345 38.275.733 2.649 10.992 5.741 10.992 5.741.439-10.158-2.345-41.808-.293-52.554 2.638-12.807 13.922-24.437 16.561-26.203l.586-1.472zm17.147-.737v2.061c-6.302 16.488-4.983 23.996-4.25 34.742 1.905 25.761 4.982 48.137 4.982 48.137s17.88.148 24.329-8.538c0 0-5.716-13.101-7.914-26.203-1.319-7.802 2.345-23.848 1.026-35.183-.587-4.711-2.345-9.422-5.863-10.599l-5.422-1.62-6.888-2.797z"/></g><path d="M312.603 388.044c2.784.883 6.448-2.797 7.474-3.975s-.293-4.121-.879-6.624 0-6.624-3.078-5.447-9.379 9.422-3.517 16.046z" class="Q"/><path d="M298.533 291.916c9.233 1.914 10.113 1.62 14.509 10.452 5.13 10.158 16.708 37.98 18.613 41.808 1.759 3.827 3.517 6.771-1.319 12.807l-19.052 22.965c-1.612 1.913.146 7.654 6.008 6.918 0 0-4.396 3.975-6.888 3.533-2.051-.441-7.327-3.533-10.405-10.01-1.905-3.975-.293-7.213 2.638-11.629 3.517-5.3 12.017-19.579 12.017-19.579l-17.147-36.508c-.146-.147-5.715-13.691 1.026-20.757z" class="P"/><use xlink:href="#m" class="J"/><use xlink:href="#m" class="I"/><path opacity=".35" d="M316.706 358.749l-2.638-2.355-2.198-2.65c-.147-.147-.293-.441-.293-.589l-.44.736c0 .148.147.295.147.295.586.883 1.319 1.766 2.198 2.65.733.883 1.612 1.619 2.638 2.355s2.052 1.472 3.224 1.914c.293.147.293-.295.147-.442l-2.785-1.914z" class="J"/><path d="M171.47 51.671l-12.75-7.066c-2.199-1.178-1.905-3.386.586-4.858s10.699-1.472 12.75-.147l10.552 5.741c3.225 1.914 0 4.564-2.638 6.036-2.491 1.325-6.302 1.472-8.5.294z" class="C H"/><path d="M170.005 37.686c-6.009-3.533-10.846-11.777-10.846-18.696 0-2.502.733-4.563 1.759-5.888-3.224.294-5.422 2.944-5.422 7.655 0 6.919 4.836 15.31 10.845 18.696 3.81 2.208 7.034 1.914 8.94-.294-1.466.147-3.225-.294-5.276-1.472z" class="D"/><path d="M169.125 38.127c-6.009-3.533-10.845-11.777-10.845-18.696s4.836-9.716 10.845-6.183 10.845 11.777 10.845 18.696-4.836 9.716-10.845 6.183z" class="C"/><path d="M180.557 35.478c0-.883-.147-1.767-.147-2.65l4.397-.589c-.44-2.208-1.173-4.416-2.052-6.624l-4.983-1.472c-.879-1.914-1.905-3.68-3.078-5.299l1.173-5.005c-1.466-1.914-3.078-3.533-4.837-5.005l-2.638 3.533c-.732-.589-1.465-1.03-2.198-1.472s-1.465-.736-2.198-1.031l-2.638-6.919c-1.759-.442-3.224-.589-4.837-.442l1.173 6.477c-1.173.294-2.198.883-3.078 1.766l-4.983-4.269c-.879 1.178-1.465 2.65-2.051 4.416l4.396 5.594c-.146.736-.146 1.619-.146 2.355 0 .883.146 1.767.146 2.65l-4.396.589c.439 2.208 1.172 4.416 2.051 6.624l4.983 1.472c.88 1.914 1.905 3.68 3.078 5.3l-1.173 5.005c1.466 1.914 3.078 3.533 4.837 5.005l2.638-3.533c.733.589 1.465 1.031 2.198 1.472s1.466.736 2.198 1.03l2.638 6.624c1.759.442 3.225.589 4.837.442l-1.173-6.477a6.51 6.51 0 0 0 3.078-1.767l4.983 4.269c.879-1.178 1.465-2.65 2.052-4.416l-4.397-5.594c.147-.442.147-1.325.147-2.061zm-14.216 3.975c-6.009-3.533-10.845-11.777-10.845-18.696s4.836-9.716 10.845-6.183 10.845 11.777 10.845 18.696-4.837 9.716-10.845 6.183z" class="F"/><path d="M168.246 7.066L165.608.589l-4.25 2.355 2.638 6.624 4.25-2.503z" class="D"/><g class="G"><path d="M163.996 9.569c.733.294 1.465.589 2.198 1.03l2.199 1.472 2.638-3.533-.733-.442c-.733-.442-1.466-.736-2.199-1.03l-4.103 2.503zm1.612-8.98c-1.759-.442-3.224-.589-4.836-.442l-4.251 2.355c1.466-.147 3.078 0 4.837.442l4.25-2.355z"/><path d="M180.117 11.188c-1.466-1.914-3.078-3.533-4.837-5.005l-4.25 2.355c1.759 1.472 3.225 3.239 4.837 5.005l4.25-2.355z"/></g><g class="D"><path d="M175.867 13.691l-1.173 5.005 4.25-2.355 1.173-5.152-4.25 2.502z"/><path d="M174.694 18.696c1.173 1.619 2.199 3.533 3.078 5.3l4.25-2.355c-.879-1.914-1.905-3.68-3.078-5.3l-4.25 2.355z"/></g><path d="M177.772 23.995l4.983 1.619 4.25-2.503-4.983-1.472-4.25 2.355z" class="G"/><g class="D"><path d="M182.755 25.614c.879 2.208 1.465 4.416 2.052 6.624l4.25-2.355c-.44-2.208-1.173-4.416-2.052-6.625l-4.25 2.355zM157.84 8.833l-.293-1.914-3.664-2.944-4.25 2.355 4.983 4.269c1.026-.736 2.052-1.325 3.224-1.766zm26.967 34.594c-.44 1.766-1.173 3.091-2.052 4.416l4.25-2.355c.879-1.178 1.466-2.65 2.052-4.416l-4.25 2.355zm-.293-7.949c.146-.736.146-1.619.146-2.355v-.736l-4.397.589c.147.883.147 1.767.147 2.65s-.147 1.619-.147 2.355l4.251-2.503z"/></g><path d="M180.41 37.833l4.397 5.594 4.103-2.355-4.397-5.594-4.103 2.355z" class="G"/><path d="M177.772 43.574c-.879.883-1.905 1.472-3.078 1.767l1.173 6.477 4.25-2.355-.879-4.563-1.466-1.325z" class="D"/><path d="M151.978 19.432l-4.25 2.503 4.397-.589c-.147-.589-.147-1.178-.147-1.914z" class="G"/><path d="M163.996 42.102l-2.638 3.533 4.25-2.355-1.612-1.178z" class="D"/><g class="B"><path d="M157.254 9.127c-.146 0-.439.147-.586.147.293 0 .44 0 .586-.147zm-5.715 12.366l-3.664.442v.147l3.664-.442v-.147zm24.181-7.508l-1.172 5.005c1.172 1.619 2.198 3.533 3.078 5.299l4.982 1.472c.88 2.061 1.466 4.269 1.906 6.477l.439-.147c-.439-2.208-1.172-4.416-2.051-6.625l-4.983-1.472a31.34 31.34 0 0 0-3.078-5.3l1.172-5.005c-1.465-1.914-3.077-3.533-4.836-5.005l-.146.589c1.758 1.325 3.224 2.944 4.689 4.711zm-9.233 25.467c-6.008-3.533-10.845-11.777-10.845-18.696 0-3.091.88-5.3 2.492-6.477-1.759 1.178-2.931 3.533-2.931 6.772 0 6.919 4.836 15.31 10.845 18.696 3.077 1.767 5.715 1.914 7.767.736-.146 0-.293.147-.439.147-1.906.589-4.397.294-6.889-1.178z"/><path d="M175.427 45.046c.733-.294 1.319-.589 1.905-1.178l-.146-.147c-.44.589-1.026 1.03-1.759 1.325zm-20.811-34.3c-.146 0 0-.147.147-.294l-4.836-4.122c-.147.147-.294.442 0 .442l4.689 3.975zm19.932 34.889l1.172 6.183c-.146 0 .147 0 .44 0l-1.173-6.33c-.293 0-.586 0-.439.147zm6.302-10.305c0-.736 0-1.619-.147-2.355h-.44c.147.883.147 1.767.147 2.65s-.147 1.619-.147 2.355l4.397 5.594c-.44 1.472-.879 2.65-1.612 3.68v.294c.879-1.178 1.466-2.65 2.052-4.416l-4.397-5.594c0-.442.147-1.325.147-2.208zM161.211 3.092l2.638 6.624c.733.294 1.466.589 2.199 1.03l2.198 1.472.147-.442-1.906-1.325c-.732-.442-1.465-.736-2.198-1.03l-2.638-6.477c-1.759-.442-3.224-.589-4.836-.442v.294c1.319-.147 2.931 0 4.396.294zm2.345 39.305l-2.198 2.944.293.294 2.198-2.944-.293-.294z"/></g><path d="M169.565 20.609c-1.319-.736-2.345-.883-3.224-.294l-2.638 1.619c.879-.589 2.051-.589 3.517.147 2.491 1.472 4.69 5.152 4.69 8.097 0 1.472-.586 2.503-1.466 3.091 0 0 .147 0 .293-.147l2.199-1.325c.732-.442 1.319-1.472 1.319-2.944 0-3.239-2.052-6.772-4.69-8.244z" class="R"/><path d="M167.367 21.934c-2.492-1.472-4.69-.294-4.69 2.65s2.052 6.477 4.69 8.096c2.491 1.472 4.689.294 4.689-2.65-.146-2.944-2.198-6.624-4.689-8.096z" class="F"/><path d="M167.367 21.934c-1.319-.736-2.492-.883-3.371-.294.879-.294 1.905-.147 2.931.442 2.491 1.472 4.69 5.152 4.69 8.097 0 1.472-.44 2.502-1.319 2.944 1.026-.442 1.612-1.472 1.612-3.091 0-2.944-2.052-6.624-4.543-8.096z" class="B"/></g><defs><linearGradient id="A" x1="55.292" y1="408.039" x2="363.515" y2="408.039" xlink:href="#n"><stop stop-color="#b7bee9"/><stop offset=".177" stop-color="#bac1eb"/><stop offset=".33" stop-color="#c5cbef"/><stop offset=".434" stop-color="#d1d6f5"/><stop offset=".462" stop-color="#dbe0fa"/><stop offset=".5" stop-color="#e5e9ff"/><stop offset=".525" stop-color="#d1d6f6"/><stop offset=".561" stop-color="#afb6e5"/></linearGradient><linearGradient id="B" x1="199.8" y1="269.265" x2="144.672" y2="410.941" xlink:href="#n"><stop stop-color="#afb6e5"/><stop offset=".145" stop-color="#b6bce8"/><stop offset=".349" stop-color="#c8cdf1"/><stop offset=".581" stop-color="#e5e9ff"/><stop offset=".855" stop-color="#f5f6ff"/><stop offset="1" stop-color="#fff"/></linearGradient><radialGradient id="C" cx="0" cy="0" r="1" gradientTransform="translate(164.077 381.044) scale(82.9544 83.3245)" xlink:href="#n"><stop stop-color="#fff"/><stop offset="1"/></radialGradient><linearGradient id="D" x1="107.842" y1="48.224" x2="222.006" y2="399.078" xlink:href="#n"><stop stop-color="#e0daef"/><stop offset=".192" stop-color="#e1dbf0"/><stop offset=".283" stop-color="#e2dcf0"/><stop offset=".409" stop-color="#dfd8ef"/><stop offset=".909" stop-color="#dfd8ef"/><stop offset="1" stop-color="#e0daef"/></linearGradient><linearGradient id="E" x1="107.731" y1="48.271" x2="221.892" y2="399.115" xlink:href="#n"><stop stop-color="#dfd9ef"/><stop offset=".192" stop-color="#e1dbf1"/><stop offset=".283" stop-color="#e4def1"/><stop offset=".409" stop-color="#dcd7ee"/><stop offset=".909" stop-color="#dcd7ee"/><stop offset="1" stop-color="#dfd9ef"/></linearGradient><linearGradient id="F" x1="107.621" y1="48.318" x2="221.778" y2="399.152" xlink:href="#n"><stop stop-color="#ded9f0"/><stop offset=".192" stop-color="#e2dcf1"/><stop offset=".283" stop-color="#e5dff1"/><stop offset=".409" stop-color="#dad5ee"/><stop offset=".909" stop-color="#dad5ee"/><stop offset="1" stop-color="#ded9f0"/></linearGradient><linearGradient id="G" x1="107.51" y1="48.364" x2="221.664" y2="399.189" xlink:href="#n"><stop stop-color="#ddd8f0"/><stop offset=".192" stop-color="#e2ddf2"/><stop offset=".283" stop-color="#e7e1f2"/><stop offset=".409" stop-color="#d7d3ed"/><stop offset=".909" stop-color="#d7d3ed"/><stop offset="1" stop-color="#ddd8f0"/></linearGradient><linearGradient id="H" x1="107.399" y1="48.411" x2="221.55" y2="399.226" xlink:href="#n"><stop stop-color="#dcd8f0"/><stop offset=".192" stop-color="#e2def3"/><stop offset=".283" stop-color="#e8e3f3"/><stop offset=".409" stop-color="#d5d1ed"/><stop offset=".909" stop-color="#d5d1ed"/><stop offset="1" stop-color="#dcd8f0"/></linearGradient><linearGradient id="I" x1="107.288" y1="48.457" x2="221.436" y2="399.263" xlink:href="#n"><stop stop-color="#dbd8f0"/><stop offset=".192" stop-color="#e2def4"/><stop offset=".283" stop-color="#eae5f4"/><stop offset=".393" stop-color="#d6d3ed"/><stop offset=".409" stop-color="#d3d0ec"/><stop offset=".909" stop-color="#d3d0ec"/><stop offset="1" stop-color="#dbd8f0"/></linearGradient><linearGradient id="J" x1="107.177" y1="48.504" x2="221.323" y2="399.3" xlink:href="#n"><stop stop-color="#dad7f0"/><stop offset=".192" stop-color="#e2dff4"/><stop offset=".283" stop-color="#ebe6f4"/><stop offset=".378" stop-color="#d7d5ee"/><stop offset=".409" stop-color="#d0ceec"/><stop offset=".909" stop-color="#d0ceec"/><stop offset="1" stop-color="#dad7f0"/></linearGradient><linearGradient id="K" x1="107.067" y1="48.55" x2="221.209" y2="399.337" xlink:href="#n"><stop stop-color="#d9d7f1"/><stop offset=".192" stop-color="#e3e0f5"/><stop offset=".283" stop-color="#ece8f5"/><stop offset=".37" stop-color="#d8d6ee"/><stop offset=".409" stop-color="#cecceb"/><stop offset=".909" stop-color="#cecceb"/><stop offset=".999" stop-color="#d9d7f1"/></linearGradient><linearGradient id="L" x1="106.956" y1="48.597" x2="221.095" y2="399.374" xlink:href="#n"><stop stop-color="#d8d7f1"/><stop offset=".192" stop-color="#e3e0f6"/><stop offset=".277" stop-color="#ede9f6"/><stop offset=".283" stop-color="#eeeaf6"/><stop offset=".361" stop-color="#dad8f0"/><stop offset=".409" stop-color="#cccbeb"/><stop offset=".909" stop-color="#cccbeb"/><stop offset=".993" stop-color="#d7d6f0"/><stop offset="1" stop-color="#d8d7f1"/></linearGradient><linearGradient id="M" x1="106.845" y1="48.644" x2="220.981" y2="399.411" xlink:href="#n"><stop stop-color="#d7d6f1"/><stop offset=".192" stop-color="#e3e1f7"/><stop offset=".272" stop-color="#edeaf7"/><stop offset=".283" stop-color="#efecf7"/><stop offset=".354" stop-color="#dbdaf0"/><stop offset=".409" stop-color="#c9c9ea"/><stop offset=".909" stop-color="#c9c9ea"/><stop offset=".984" stop-color="#d4d3ef"/><stop offset="1" stop-color="#d7d6f1"/></linearGradient><linearGradient id="N" x1="106.734" y1="48.69" x2="220.867" y2="399.448" xlink:href="#n"><stop stop-color="#d7d6f1"/><stop offset=".192" stop-color="#e3e2f7"/><stop offset=".263" stop-color="#edeaf7"/><stop offset=".283" stop-color="#f1edf7"/><stop offset=".348" stop-color="#dddbf1"/><stop offset=".409" stop-color="#c7c7ea"/><stop offset=".909" stop-color="#c7c7ea"/><stop offset=".976" stop-color="#d2d1ef"/><stop offset="1" stop-color="#d7d6f1"/></linearGradient><linearGradient id="O" x1="106.624" y1="48.737" x2="220.753" y2="399.485" xlink:href="#n"><stop stop-color="#d6d5f1"/><stop offset=".192" stop-color="#e3e3f8"/><stop offset=".259" stop-color="#edebf8"/><stop offset=".283" stop-color="#f2eff8"/><stop offset=".343" stop-color="#deddf2"/><stop offset=".409" stop-color="#c4c5e9"/><stop offset=".909" stop-color="#c4c5e9"/><stop offset=".97" stop-color="#cfcfee"/><stop offset="1" stop-color="#d6d5f1"/></linearGradient><linearGradient id="P" x1="106.513" y1="48.783" x2="220.639" y2="399.522" xlink:href="#n"><stop stop-color="#d5d5f1"/><stop offset=".192" stop-color="#e3e3f9"/><stop offset=".253" stop-color="#edebf9"/><stop offset=".283" stop-color="#f4f1f9"/><stop offset=".339" stop-color="#e0dff3"/><stop offset=".409" stop-color="#c2c4e9"/><stop offset=".909" stop-color="#c2c4e9"/><stop offset=".968" stop-color="#cdceee"/><stop offset="1" stop-color="#d5d5f1"/></linearGradient><linearGradient id="Q" x1="106.402" y1="48.83" x2="220.526" y2="399.559" xlink:href="#n"><stop stop-color="#d4d5f2"/><stop offset=".192" stop-color="#e4e4fa"/><stop offset=".253" stop-color="#eeedfa"/><stop offset=".283" stop-color="#f5f3fa"/><stop offset=".336" stop-color="#e1e1f3"/><stop offset=".409" stop-color="#c0c2e8"/><stop offset=".909" stop-color="#c0c2e8"/><stop offset=".966" stop-color="#cbcced"/><stop offset="1" stop-color="#d4d5f2"/></linearGradient><linearGradient id="R" x1="106.291" y1="48.876" x2="220.412" y2="399.596" xlink:href="#n"><stop stop-color="#d3d4f2"/><stop offset=".192" stop-color="#e4e5fa"/><stop offset=".25" stop-color="#eeedfa"/><stop offset=".283" stop-color="#f6f4fa"/><stop offset=".333" stop-color="#e2e2f4"/><stop offset=".409" stop-color="#bdc0e8"/><stop offset=".909" stop-color="#bdc0e8"/><stop offset=".962" stop-color="#c8caed"/><stop offset="1" stop-color="#d3d4f2"/></linearGradient><linearGradient id="S" x1="106.18" y1="48.923" x2="220.298" y2="399.633" xlink:href="#n"><stop stop-color="#d2d4f2"/><stop offset=".192" stop-color="#e4e5fb"/><stop offset=".246" stop-color="#eeeefb"/><stop offset=".283" stop-color="#f8f6fb"/><stop offset=".33" stop-color="#e4e4f5"/><stop offset=".409" stop-color="#bbbfe7"/><stop offset=".909" stop-color="#bbbfe7"/><stop offset=".96" stop-color="#c6c9ec"/><stop offset="1" stop-color="#d2d4f2"/></linearGradient><linearGradient id="T" x1="106.07" y1="48.97" x2="220.184" y2="399.67" xlink:href="#n"><stop stop-color="#d1d4f2"/><stop offset=".192" stop-color="#e4e6fc"/><stop offset=".244" stop-color="#eeeffc"/><stop offset=".283" stop-color="#f9f8fc"/><stop offset=".328" stop-color="#e5e6f6"/><stop offset=".409" stop-color="#b9bde7"/><stop offset=".909" stop-color="#b9bde7"/><stop offset=".958" stop-color="#c4c7ec"/><stop offset="1" stop-color="#d1d4f2"/></linearGradient><linearGradient id="U" x1="105.959" y1="49.016" x2="220.07" y2="399.707" xlink:href="#n"><stop stop-color="#d0d3f2"/><stop offset=".192" stop-color="#e4e7fd"/><stop offset=".24" stop-color="#eeeffd"/><stop offset=".283" stop-color="#fbfafd"/><stop offset=".325" stop-color="#e7e8f6"/><stop offset=".409" stop-color="#b6bbe6"/><stop offset=".909" stop-color="#b6bbe6"/><stop offset=".955" stop-color="#c1c5eb"/><stop offset="1" stop-color="#d0d3f2"/></linearGradient><linearGradient id="V" x1="105.848" y1="49.063" x2="219.956" y2="399.744" xlink:href="#n"><stop stop-color="#cfd3f3"/><stop offset=".192" stop-color="#e5e8fd"/><stop offset=".24" stop-color="#eff0fd"/><stop offset=".283" stop-color="#fcfbfd"/><stop offset=".324" stop-color="#e8e9f7"/><stop offset=".407" stop-color="#b6bbe7"/><stop offset=".409" stop-color="#b4b9e6"/><stop offset=".909" stop-color="#b4b9e6"/><stop offset=".954" stop-color="#bfc3eb"/><stop offset="1" stop-color="#cfd3f3"/></linearGradient><linearGradient id="W" x1="105.737" y1="49.109" x2="219.842" y2="399.781" xlink:href="#n"><stop stop-color="#ced2f3"/><stop offset=".192" stop-color="#e5e8fe"/><stop offset=".237" stop-color="#eff0fe"/><stop offset=".283" stop-color="#fefdfe"/><stop offset=".321" stop-color="#eaebf8"/><stop offset=".4" stop-color="#b8bee7"/><stop offset=".409" stop-color="#b1b8e5"/><stop offset=".909" stop-color="#b1b8e5"/><stop offset=".951" stop-color="#bcc2ea"/><stop offset="1" stop-color="#ced2f3"/></linearGradient><linearGradient id="X" x1="105.627" y1="49.156" x2="219.728" y2="399.819" xlink:href="#n"><stop stop-color="#cdd2f3"/><stop offset=".192" stop-color="#e5e9ff"/><stop offset=".236" stop-color="#eff2ff"/><stop offset=".283" stop-color="#fff"/><stop offset=".32" stop-color="#ebedf9"/><stop offset=".396" stop-color="#b9bfe8"/><stop offset=".409" stop-color="#afb6e5"/><stop offset=".909" stop-color="#afb6e5"/><stop offset=".95" stop-color="#bac0ea"/><stop offset="1" stop-color="#cdd2f3"/></linearGradient><linearGradient id="Y" x1="-74.016" y1="320.959" x2="325.87" y2="158.04" xlink:href="#n"><stop stop-color="#afb6e5"/><stop offset=".145" stop-color="#b6bce8"/><stop offset=".349" stop-color="#c8cdf1"/><stop offset=".581" stop-color="#e5e9ff"/><stop offset=".855" stop-color="#f5f6ff"/><stop offset="1" stop-color="#fff"/></linearGradient><linearGradient id="Z" x1="243.42" y1="217.613" x2="185.835" y2="186.901" xlink:href="#n"><stop stop-color="#afb6e5"/><stop offset=".145" stop-color="#b6bce8"/><stop offset=".349" stop-color="#c8cdf1"/><stop offset=".581" stop-color="#e5e9ff"/><stop offset=".855" stop-color="#f5f6ff"/><stop offset="1" stop-color="#fff"/></linearGradient><linearGradient id="a" x1=".001" y1="411.794" x2="67.927" y2="411.794" xlink:href="#n"><stop stop-color="#e9f6ff"/><stop offset="1" stop-color="#d4ecff"/></linearGradient><linearGradient id="b" x1="111.493" y1="342.636" x2="168.532" y2="342.636" xlink:href="#n"><stop stop-color="#cdd2f3"/><stop offset=".192" stop-color="#e5e9ff"/><stop offset=".236" stop-color="#eff2ff"/><stop offset=".283" stop-color="#fff"/><stop offset=".32" stop-color="#ebedf9"/><stop offset=".396" stop-color="#b9bfe8"/><stop offset=".409" stop-color="#afb6e5"/><stop offset=".909" stop-color="#afb6e5"/><stop offset=".95" stop-color="#bac0ea"/><stop offset="1" stop-color="#cdd2f3"/></linearGradient><linearGradient id="c" x1="141.061" y1="309.23" x2="166.421" y2="334.477" xlink:href="#n"><stop stop-color="#afb6e5"/><stop offset=".145" stop-color="#b6bce8"/><stop offset=".349" stop-color="#c8cdf1"/><stop offset=".581" stop-color="#e5e9ff"/><stop offset=".855" stop-color="#f5f6ff"/><stop offset="1" stop-color="#fff"/></linearGradient><clipPath id="d"><path d="M0 0h334v575H0z" class="B"/></clipPath><path id="e" d="M54.226 400.704l11.431-6.624s6.888-28.412 4.104-54.026c-3.81-35.919-27.406-49.463-36.346-46.371s-11.578 13.543 3.224 35.036c8.793 12.66 19.492 38.863 17.587 71.985z"/><path id="f" d="M78.407 245.398c0 1.914 1.319 4.269 3.078 5.3 1.612 1.03 3.078.147 3.078-1.767s-1.319-4.269-3.078-5.299c-1.759-.884-3.078-.148-3.078 1.766z"/><path id="g" d="M70.493 240.835c0 1.913 1.319 4.269 3.078 5.299 1.612 1.031 3.078.147 3.078-1.766s-1.319-4.269-3.078-5.3c-1.612-1.03-3.078-.147-3.078 1.767z"/><path id="h" d="M62.726 236.271c0 1.914 1.319 4.269 3.078 5.3 1.612 1.03 3.078.147 3.078-1.767s-1.319-4.269-3.078-5.299-3.078-.148-3.078 1.766z"/><path id="i" d="M77.381 223.758c0 1.914 1.319 4.269 3.078 5.3 1.612 1.03 3.078.147 3.078-1.767s-1.319-4.269-3.078-5.299c-1.612-1.031-3.078-.147-3.078 1.766z"/><path id="j" d="M49.682 474.75v2.65c0 3.092 2.052 6.183 6.155 8.686 6.155 3.533 15.242 4.416 22.863 2.649l7.035 4.122 5.423-1.177 3.664 2.208.147 4.563 2.052 1.178 4.983.441 3.664 2.061v2.503l4.543 2.65h11.431l4.104-2.356v-2.649l-36.786-18.696c1.759-1.767 2.492-3.827 2.492-5.741v-2.65c-.586-2.65-2.638-3.975-6.155-5.888-8.207-4.711-21.544-4.711-29.604 0-3.517 1.619-5.716 2.649-6.009 5.446zm11.285-3.091c2.345-1.325 6.155-1.325 8.354 0 2.345 1.325 2.345 3.533 0 4.858s-6.155 1.325-8.354 0c-2.345-1.325-2.345-3.533 0-4.858z"/><path id="k" d="M55.838 483.289c6.155 3.533 15.242 4.416 22.863 2.649l7.035 4.122 5.423-1.177 3.664 2.208.147 4.563 2.052 1.178 4.983.441 3.957 2.209-.293 2.355 4.543 2.65h11.431l4.104-2.356-36.786-21.345c4.397-4.563 3.078-10.452-3.517-14.427-8.207-4.71-21.544-4.71-29.604 0-8.207 4.564-8.207 12.219 0 16.93zm5.129-14.427c2.345-1.325 6.155-1.325 8.354 0 2.345 1.325 2.345 3.533 0 4.858s-6.155 1.325-8.354 0c-2.345-1.325-2.345-3.386 0-4.858z"/><path id="l" d="M264.679 289.855c-8.793 1.62-11.871 1.62-20.957 16.341l-12.311 20.02-6.448-3.975c1.172 1.178 3.517 7.508 1.905 11.335s-5.129 5.447-5.129 5.447 3.663 3.828 7.181 6.477 5.422 3.092 7.474 2.503c2.198-.589 4.25-2.944 9.38-9.127 5.276-6.33 11.577-15.751 11.577-15.751l7.328-33.27z"/><path id="m" d="M298.094 291.327c-2.198 2.209-5.716 10.599-.879 22.671l17 35.036-5.569 8.979s3.957 5.153 7.328 7.508 6.448 1.472 6.448 1.472 7.181-7.949 9.673-11.482 2.931-4.564-.293-12.366c-3.078-7.508-17.44-41.513-19.639-45.046-2.198-3.386-4.983-5.741-14.069-6.772z"/><linearGradient id="n" gradientUnits="userSpaceOnUse"/></defs></svg>