<svg width="490" height="394" viewBox="0 0 490 394" fill="none" xmlns="http://www.w3.org/2000/svg">
<g clipPath="url(#clip0)">
<path d="M2.17492 318.222L131.056 392.626C134.032 394.343 138.725 394.343 141.701 392.626L384.354 252.517C387.33 250.8 387.33 248.053 384.354 246.336L255.473 171.931C252.497 170.214 247.804 170.214 244.828 171.931L2.17492 312.155C-0.686562 313.872 -0.686562 316.619 2.17492 318.222Z" fill="#D4E2EE"/>
<path d="M477.41 318.222C494.235 327.952 494.235 343.634 477.41 353.249C460.584 362.979 433.457 362.979 416.632 353.249C399.806 343.519 399.806 327.837 416.632 318.222C433.457 308.492 460.699 308.492 477.41 318.222Z" fill="#D4E2EE"/>
<path d="M372.336 326.349C397.288 340.772 397.288 364.124 372.336 378.547C347.384 392.97 306.98 392.97 282.028 378.547C257.075 364.124 257.075 340.772 282.028 326.349C306.98 311.926 347.498 311.926 372.336 326.349Z" fill="#D4E3EE"/>
<path d="M10.7594 292.581C8.92807 293.955 9.15699 296.015 11.3317 297.274L131.285 366.528C133.689 367.901 137.58 367.901 139.984 366.528L369.36 234.088C371.535 232.829 371.764 230.768 369.818 229.395C371.993 230.883 373.71 233.973 373.71 236.606V242.329C373.71 245.077 371.764 248.511 369.36 249.884L140.098 382.439C137.695 383.812 133.803 383.812 131.399 382.439L11.4462 313.071C9.04253 311.697 7.09672 308.263 7.09672 305.516V299.793C6.98226 297.16 8.69915 294.184 10.7594 292.581Z" fill="url(#paint0_linear)"/>
<path d="M11.3315 297.274L131.285 366.528C133.688 367.901 137.58 367.901 139.984 366.528L369.36 234.088C371.764 232.714 371.764 230.425 369.36 229.051L249.407 159.798C247.003 158.424 243.112 158.424 240.708 159.798L11.3315 292.238C8.9279 293.611 8.9279 295.901 11.3315 297.274ZM222.28 177.655C224.34 176.51 226.515 177.197 228.575 178.342L337.655 241.299C339.715 242.444 339.715 244.39 337.655 245.649L159.098 348.785C157.038 349.93 153.719 349.93 151.659 348.785L42.5789 285.827C40.5187 284.683 40.5187 282.737 42.5789 281.478L222.28 177.655Z" fill="url(#paint1_linear)"/>
<path d="M369.933 229.395C372.107 230.883 373.824 233.973 373.824 236.606V242.329C373.824 245.077 371.878 248.511 369.475 249.884L140.098 382.439C138.839 383.126 137.351 383.469 135.749 383.469V367.558C137.351 367.558 138.954 367.214 140.098 366.528L369.475 234.088C371.649 232.829 371.878 230.768 369.933 229.395Z" fill="url(#paint2_linear)"/>
<path d="M297.938 201.235C296.335 200.32 296.335 198.832 297.938 197.801C299.54 196.886 302.173 196.886 303.775 197.801C305.378 198.717 305.378 200.205 303.775 201.235C302.173 202.151 299.54 202.151 297.938 201.235Z" fill="#673AB7"/>
<path d="M75.8866 327.952C72.1094 325.777 72.1094 322.228 75.8866 319.939C79.6637 317.764 85.8445 317.764 89.6217 319.939C93.3988 322.114 93.3988 325.662 89.6217 327.952C85.8445 330.127 79.6637 330.127 75.8866 327.952Z" stroke="#E7E7E7" stroke-miterlimit="10"/>
<path d="M300.799 212.453L278.25 199.404C276.877 198.602 276.877 197.458 278.136 196.657C279.395 195.97 281.57 195.97 282.829 196.771L305.377 209.82C306.751 210.622 306.751 211.766 305.492 212.568C304.347 213.254 302.172 213.254 300.799 212.453Z" fill="#673AB7"/>
<path d="M222.28 177.655C224.34 176.51 226.515 177.197 228.575 178.342L337.655 241.299C339.715 242.444 339.715 244.39 337.655 245.649L159.098 348.785C157.038 349.93 153.719 349.93 151.659 348.785L42.5789 285.827C40.5186 284.683 40.5186 282.737 42.5789 281.478L222.28 177.655Z" fill="#00DFBF"/>
<path d="M222.28 177.655C224.34 176.51 226.515 177.197 228.575 178.342L337.655 241.299C339.715 242.444 339.715 244.39 337.655 245.649L159.098 348.785C157.038 349.93 153.719 349.93 151.659 348.785L42.5789 285.827C40.5186 284.683 40.5186 282.737 42.5789 281.478L222.28 177.655Z" fill="#D4ECFF"/>
<path d="M73.9403 272.091L81.4946 267.741C81.4946 267.741 85.1573 247.709 82.4103 230.425C78.6331 206.157 62.0366 197.801 56.0847 200.205C50.1328 202.609 48.6448 209.82 59.5184 223.786C65.9282 232.142 74.0548 249.541 73.9403 272.091Z" fill="#00DFBF"/>
<path d="M73.9403 272.091L81.4946 267.741C81.4946 267.741 85.1573 247.709 82.4103 230.425C78.6331 206.157 62.0366 197.801 56.0847 200.205C50.1328 202.609 48.6448 209.82 59.5184 223.786C65.9282 232.142 74.0548 249.541 73.9403 272.091Z" fill="#4AD3AF"/>
<path d="M76.6871 262.476C76.5727 262.476 76.5727 262.476 76.6871 262.476C76.3438 262.476 76.1148 262.132 76.1148 261.903C79.2052 239.239 70.163 214.399 59.8616 204.326C59.6327 204.097 59.6327 203.754 59.8616 203.525C60.0905 203.296 60.4339 203.296 60.6628 203.525C71.0786 213.712 80.3498 239.01 77.2594 262.018C77.145 262.247 76.9161 262.476 76.6871 262.476Z" fill="white"/>
<path d="M52.88 284.225C51.7354 284.912 49.2173 283.423 48.3017 282.737C46.6992 281.706 45.3257 280.104 44.5245 278.387C43.4944 276.326 43.2654 274.152 43.6088 271.977C43.7233 270.832 44.0667 269.687 44.41 268.543C44.7534 267.398 45.0968 266.368 45.3257 265.223C45.6691 264.078 46.0125 263.048 45.7835 261.903C45.4402 259.614 43.4944 258.012 41.663 256.638C39.6027 255.15 37.5425 253.089 37.5425 250.342C37.5425 248.282 38.6871 246.221 39.9461 244.619C41.2052 243.016 42.8076 241.528 43.9522 239.697C44.7534 238.437 45.4402 236.949 45.3257 235.461C45.2112 234.546 44.8679 233.63 44.41 232.829C43.4944 230.997 42.1209 229.394 41.5486 227.448C40.8618 225.503 40.9763 223.099 42.4642 221.84C43.7233 220.695 45.5546 220.58 47.1571 220.695C48.645 220.809 50.2475 221.496 51.5065 222.183C55.856 224.587 58.3741 229.738 62.9524 231.569C64.7838 232.256 66.7296 232.485 68.5609 232.943C70.3923 233.401 72.3381 234.431 73.1393 236.148C74.8562 239.582 71.6513 243.703 72.9104 247.252C73.9405 250.457 77.0309 251.601 78.7478 254.463C79.549 255.722 79.6635 257.21 79.549 258.584C79.3201 261.102 78.9767 262.819 77.8321 265.566C76.802 267.856 73.9405 271.862 73.9405 271.862C73.8261 272.091 52.9945 284.11 52.88 284.225Z" fill="#00DFBF"/>
<path d="M52.88 284.225C51.7354 284.912 49.2173 283.423 48.3017 282.737C46.6992 281.706 45.3257 280.104 44.5245 278.387C43.4944 276.326 43.2654 274.152 43.6088 271.977C43.7233 270.832 44.0667 269.687 44.41 268.543C44.7534 267.398 45.0968 266.368 45.3257 265.223C45.6691 264.078 46.0125 263.048 45.7835 261.903C45.4402 259.614 43.4944 258.012 41.663 256.638C39.6027 255.15 37.5425 253.089 37.5425 250.342C37.5425 248.282 38.6871 246.221 39.9461 244.619C41.2052 243.016 42.8076 241.528 43.9522 239.697C44.7534 238.437 45.4402 236.949 45.3257 235.461C45.2112 234.546 44.8679 233.63 44.41 232.829C43.4944 230.997 42.1209 229.394 41.5486 227.448C40.8618 225.503 40.9763 223.099 42.4642 221.84C43.7233 220.695 45.5546 220.58 47.1571 220.695C48.645 220.809 50.2475 221.496 51.5065 222.183C55.856 224.587 58.3741 229.738 62.9524 231.569C64.7838 232.256 66.7296 232.485 68.5609 232.943C70.3923 233.401 72.3381 234.431 73.1393 236.148C74.8562 239.582 71.6513 243.703 72.9104 247.252C73.9405 250.457 77.0309 251.601 78.7478 254.463C79.549 255.722 79.6635 257.21 79.549 258.584C79.3201 261.102 78.9767 262.819 77.8321 265.566C76.802 267.856 73.9405 271.862 73.9405 271.862C73.8261 272.091 52.9945 284.11 52.88 284.225Z" fill="#6AEFCF"/>
<path d="M65.1272 277.7C64.7838 277.7 64.5549 277.471 64.5549 277.128C65.4706 255.608 55.2837 231.913 47.9583 225.045C47.7294 224.816 47.7294 224.472 47.9583 224.243C48.1872 224.015 48.5306 224.015 48.7595 224.243C56.3138 231.226 66.6152 255.379 65.6995 277.128C65.6995 277.471 65.4706 277.7 65.1272 277.7Z" fill="white"/>
<path d="M61.9222 252.288H61.8077C54.9401 250.113 46.3557 249.77 46.2412 249.77C45.8979 249.77 45.6689 249.541 45.6689 249.198C45.6689 248.854 45.8979 248.625 46.2412 248.625C46.3557 248.625 55.0546 248.969 62.1511 251.144C62.38 251.258 62.6089 251.487 62.4944 251.83C62.38 252.174 62.1511 252.288 61.9222 252.288Z" fill="white"/>
<path d="M145.821 77.0373L131.857 68.91C131.284 68.5666 130.827 68.4521 130.483 68.5666C130.14 68.6811 128.995 69.3679 128.766 69.5968C128.423 69.7113 128.423 70.2836 128.881 71.0849L132.314 78.182L129.796 80.4713C128.652 81.5015 128.766 83.1041 130.14 83.7909L144.104 91.9182L145.821 90.8879V77.0373Z" fill="#00DFBF"/>
<path d="M145.821 77.0373L131.857 68.91C131.284 68.5666 130.827 68.4521 130.483 68.5666C130.14 68.6811 128.995 69.3679 128.766 69.5968C128.423 69.7113 128.423 70.2836 128.881 71.0849L132.314 78.182L129.796 80.4713C128.652 81.5015 128.766 83.1041 130.14 83.7909L144.104 91.9182L145.821 90.8879V77.0373Z" fill="#673AB7"/>
<path d="M130.14 69.9402C128.766 69.1389 128.194 69.7113 128.881 71.0849L132.315 78.1819L129.797 80.4713C128.652 81.5015 128.766 83.1041 130.14 83.7909L144.104 91.9181V78.0675L130.14 69.9402Z" fill="#BDAAE8"/>
<path d="M145.821 121.565C144.905 121.565 144.218 120.879 144.218 119.963V73.4888C144.218 72.573 144.905 71.8862 145.821 71.8862C146.736 71.8862 147.423 72.573 147.423 73.4888V119.963C147.423 120.879 146.736 121.565 145.821 121.565Z" fill="#E1E1E1"/>
<path d="M79.5493 285.141V282.279H80.2361C81.0373 280.562 82.6397 278.959 84.9289 277.7C92.1398 273.579 103.929 273.579 111.14 277.7C113.429 279.074 115.032 280.676 115.833 282.279H116.52V285.141C116.634 287.888 114.803 290.75 111.14 292.81C103.929 296.931 92.1398 296.931 84.9289 292.81C81.2662 290.635 79.5493 287.888 79.5493 285.141Z" fill="#673AB7"/>
<path d="M111.14 274.61C103.929 270.489 92.1396 270.489 84.9287 274.61C77.7178 278.73 77.7178 285.599 84.9287 289.719C92.1396 293.84 103.929 293.84 111.14 289.719C118.351 285.599 118.351 278.845 111.14 274.61Z" fill="url(#paint3_linear)"/>
<path d="M102.784 138.392V281.02C102.784 281.707 102.326 282.394 101.411 282.966C99.5794 283.996 96.489 283.996 94.6577 282.966C93.742 282.394 93.2842 281.707 93.2842 281.02V138.392H102.784Z" fill="#BDAAE8"/>
<path d="M93.2842 150.411V159.683L102.784 165.178V155.906L93.2842 150.411Z" fill="#673AB7"/>
<path d="M133.917 132.898L151.544 143.086C151.429 143.2 151.315 143.314 151.201 143.429L120.411 161.286C120.182 161.4 119.953 161.286 119.953 161.057V138.85C119.953 134.958 120.869 130.723 122.586 126.373L133.917 132.898Z" fill="url(#paint4_linear)"/>
<path d="M151.658 118.36V143.2L122.471 126.373C122.471 126.259 122.586 126.259 122.586 126.144C125.676 118.36 130.941 111.721 136.664 108.402C139.068 107.028 141.243 106.341 143.303 106.341C148.453 106.227 151.658 110.92 151.658 118.36Z" fill="url(#paint5_linear)"/>
<path d="M183.364 170.901V168.726H183.135V169.07C183.02 168.498 182.791 167.811 182.562 167.238C181.418 164.491 178.9 161.858 175.237 159.798L154.291 147.664C153.375 147.206 152.002 147.206 151.201 147.664L119.266 166.094C118.923 165.75 118.58 165.521 118.236 164.949V167.238C118.236 167.582 118.465 167.925 118.923 168.154L139.755 180.173C145.363 183.378 152.689 184.981 159.671 184.867C165.737 184.752 171.689 183.493 176.267 180.86C181.074 178.227 183.364 174.564 183.364 170.901Z" fill="#673AB7"/>
<path d="M182.563 167.238C181.418 164.491 178.9 161.858 175.237 159.798L154.291 147.664C153.375 147.206 152.002 147.206 151.201 147.664L119.267 166.094L139.755 177.884C145.363 181.089 152.689 182.692 159.671 182.577C165.737 182.463 171.689 181.204 176.267 178.571C180.502 176.167 182.791 172.962 183.249 169.757C183.135 168.955 182.906 168.04 182.563 167.238Z" fill="url(#paint6_linear)"/>
<path d="M183.249 169.871C183.135 168.955 182.906 168.154 182.562 167.238C181.418 164.491 178.9 161.858 175.237 159.798L154.291 147.664C153.375 147.206 152.002 147.206 151.201 147.664L119.266 166.094L118.923 165.865C118.007 165.407 118.007 164.606 118.923 164.033L151.201 145.375C152.116 144.917 153.49 144.917 154.291 145.375L175.123 157.394C178.9 159.569 181.303 162.202 182.448 164.835C182.791 165.75 183.135 166.666 183.135 167.582C183.364 168.498 183.364 169.184 183.249 169.871Z" fill="#673AB7"/>
<path d="M119.61 163.804L151.887 145.146L151.201 143.429L120.297 161.286L119.61 163.804Z" fill="#375A64"/>
<path d="M148.797 116.872C148.797 116.414 148.453 115.842 147.996 115.499L108.736 92.8338C108.278 92.6049 107.592 92.6049 107.248 92.8338L106.332 93.2917C105.875 93.5206 105.531 94.093 105.531 94.6653V124.77C105.531 125.228 105.875 125.801 106.332 126.144L145.592 148.809C146.05 149.038 146.737 149.038 147.08 148.809L147.996 148.351C148.453 148.122 148.797 147.55 148.797 146.977V116.872Z" fill="#673AB7"/>
<path opacity="0.35" d="M148.568 116.071L146.393 117.33L105.76 93.864C105.875 93.6351 106.104 93.4062 106.333 93.2917L107.248 92.8338C107.706 92.6049 108.393 92.6049 108.736 92.8338L147.996 115.499C148.225 115.613 148.454 115.842 148.568 116.071Z" fill="black"/>
<path d="M146.393 117.33L145.935 117.559C146.164 117.673 146.393 117.902 146.393 118.246V148.351C146.393 148.58 146.279 148.809 146.164 148.809C146.05 148.809 145.935 148.923 145.821 148.809C145.706 148.809 145.706 148.809 145.706 148.694L106.447 126.03C105.989 125.801 105.646 125.228 105.646 124.656V94.6653C105.646 94.4364 105.76 94.093 105.874 93.864L146.393 117.33Z" fill="#BDAAE8"/>
<path opacity="0.2" d="M146.393 117.33L128.194 124.084C126.935 124.542 125.447 124.084 124.646 122.939L121.67 118.475L105.646 93.864L121.212 118.704L105.531 124.77C105.531 124.999 105.646 125.343 105.76 125.572L121.212 118.818L124.646 124.198C125.447 125.457 127.05 125.915 128.309 125.343L130.712 124.313L146.164 148.923C146.279 148.809 146.393 148.694 146.393 148.465V148.008L130.827 124.427L146.393 117.33Z" fill="black"/>
<path d="M139.525 122.138C139.525 121.68 139.182 121.108 138.724 120.764L99.4646 98.0994C99.0068 97.8705 98.32 97.8705 97.9767 98.0994L97.061 98.5573C96.6031 98.7862 96.2598 99.3586 96.2598 99.9309V130.036C96.2598 130.494 96.6031 131.066 97.061 131.41L136.32 154.074C136.778 154.303 137.465 154.303 137.808 154.074L138.724 153.617C139.182 153.388 139.525 152.815 139.525 152.243V122.138Z" fill="#673AB7"/>
<path opacity="0.35" d="M139.297 121.451L137.122 122.71L96.4888 99.2441C96.6032 99.0152 96.8321 98.7863 97.0611 98.6718L97.9767 98.2139C98.4346 97.985 99.1213 97.985 99.4647 98.2139L138.724 120.879C138.953 120.993 139.068 121.222 139.297 121.451Z" fill="black"/>
<path d="M137.122 122.71L136.664 122.939C136.893 123.054 137.122 123.282 137.122 123.626V153.731C137.122 153.96 137.007 154.189 136.893 154.189C136.778 154.189 136.664 154.189 136.549 154.189C136.435 154.189 136.435 154.189 136.435 154.074L97.1752 131.41C96.7174 131.181 96.374 130.608 96.374 130.036V100.045C96.374 99.8165 96.4885 99.4731 96.6029 99.2441L137.122 122.71Z" fill="#BDAAE8"/>
<path opacity="0.2" d="M137.122 122.71L118.923 129.464C117.663 129.922 116.175 129.464 115.374 128.319L112.398 123.855L96.374 99.1296L111.94 123.969L96.374 130.036C96.374 130.265 96.4885 130.608 96.6029 130.837L112.055 124.084L115.489 129.464C116.29 130.723 117.892 131.181 119.151 130.608L121.555 129.578L137.007 154.189C137.122 154.074 137.236 153.96 137.236 153.731V153.273L121.67 129.693L137.122 122.71Z" fill="black"/>
<path d="M130.14 127.518C130.14 127.06 129.797 126.487 129.339 126.144L90.0792 103.479C89.6213 103.25 88.9346 103.25 88.5912 103.479L87.6755 103.937C87.3321 104.281 86.9888 104.853 86.9888 105.311V135.416C86.9888 135.874 87.3321 136.446 87.79 136.79L127.05 159.454C127.507 159.683 128.194 159.683 128.537 159.454L129.453 158.996C129.911 158.768 130.254 158.195 130.254 157.623L130.14 127.518Z" fill="#673AB7"/>
<path opacity="0.35" d="M129.911 126.716L127.736 127.976L87.2178 104.51C87.3322 104.281 87.5612 104.052 87.7901 103.937L88.7057 103.479C89.1636 103.25 89.8503 103.25 90.1937 103.479L129.453 126.144C129.682 126.259 129.797 126.487 129.911 126.716Z" fill="black"/>
<path d="M127.736 127.976L127.278 128.204C127.507 128.319 127.736 128.548 127.736 128.891V158.996C127.736 159.225 127.622 159.454 127.507 159.454C127.393 159.454 127.278 159.569 127.164 159.454C127.164 159.454 127.05 159.454 127.05 159.34L87.79 136.675C87.3321 136.446 86.9888 135.874 86.9888 135.301V105.311C86.9888 105.082 87.1032 104.738 87.2177 104.51L127.736 127.976Z" fill="#BDAAE8"/>
<path opacity="0.2" d="M127.736 127.976L109.537 134.729C108.278 135.187 106.79 134.729 105.989 133.584L103.013 129.12L86.9888 104.51L102.555 129.349L86.9888 135.416C86.9888 135.645 87.1032 135.988 87.2177 136.217L102.67 129.464L106.103 134.844C106.905 136.103 108.507 136.561 109.766 135.988L112.17 134.958L127.622 159.569C127.736 159.454 127.851 159.34 127.851 159.111V158.653L112.17 134.844L127.736 127.976Z" fill="black"/>
<path d="M147.538 105.425C144.447 103.823 140.212 104.052 135.748 106.685C130.712 109.661 126.019 114.926 122.815 120.993C122.013 122.367 121.441 123.855 120.754 125.343C118.923 129.807 118.007 134.386 118.007 138.736V164.148C117.435 164.148 116.863 164.033 116.405 163.804L60.5487 131.524C59.633 131.066 58.9463 129.807 58.9463 128.777V104.624C58.9463 92.605 66.844 78.2964 76.6875 72.573C81.3803 69.9403 85.5008 69.7113 88.7057 71.4283L147.538 105.425Z" fill="white"/>
<path d="M120.869 125.343C119.037 129.807 118.122 134.386 118.122 138.736V164.148C117.893 164.148 117.778 164.148 117.549 164.033C117.549 162.545 117.549 154.418 117.549 138.736C117.549 120.077 131.971 108.173 135.863 106.685C130.827 109.661 126.134 114.926 122.929 120.993C122.128 122.481 121.441 123.969 120.869 125.343Z" fill="#2B454E"/>
<path d="M120.297 161.286C120.068 161.4 119.839 161.286 119.839 161.057V138.85C119.839 134.958 120.754 130.723 122.471 126.373C122.471 126.259 122.586 126.259 122.586 126.144C123.272 124.542 123.959 123.053 124.76 121.565C127.851 115.727 132.2 111.034 136.779 108.402C139.182 107.028 141.357 106.341 143.417 106.341C144.676 106.341 145.821 106.685 146.851 107.142C149.941 108.745 151.773 112.751 151.773 118.36V142.628C151.773 142.971 151.544 143.314 151.315 143.429L152.002 145.146L152.116 145.031C152.345 144.917 152.574 144.688 152.803 144.459C153.261 143.887 153.604 143.085 153.604 142.513V118.36C153.604 111.95 151.315 107.371 147.652 105.54C144.562 103.937 140.441 104.166 135.863 106.799C130.827 109.775 126.134 115.041 122.929 121.108C122.128 122.481 121.556 123.969 120.869 125.457C119.152 129.922 118.007 134.5 118.007 138.85V164.262C118.122 164.262 118.236 164.262 118.236 164.262C118.694 164.262 119.152 164.148 119.495 163.919L120.297 161.286Z" fill="url(#paint7_linear)"/>
<path d="M486.452 261.904H407.704L414.571 331.5C415.029 335.965 418.119 340.314 424.071 343.748C436.776 351.074 457.379 351.074 470.084 343.748C476.036 340.314 479.126 335.965 479.584 331.5L486.452 261.904Z" fill="#2B454E"/>
<path d="M419.15 276.67C434.602 285.598 459.554 285.598 474.891 276.67C490.343 267.741 490.343 253.318 474.891 244.504C459.439 235.576 434.487 235.576 419.15 244.504C403.812 253.433 403.812 267.856 419.15 276.67Z" fill="#375A64"/>
<path d="M447.078 280.104C437.12 280.104 427.734 277.929 420.752 273.923C414.342 270.26 410.794 265.452 410.794 260.644C410.794 255.722 414.342 251.029 420.752 247.366C427.734 243.36 437.005 241.185 447.078 241.185C457.035 241.185 466.421 243.36 473.403 247.366C479.813 251.029 483.361 255.837 483.361 260.644C483.361 265.567 479.813 270.26 473.403 273.923C466.421 277.929 457.035 280.104 447.078 280.104Z" fill="#2B454E"/>
<path opacity="0.1" d="M474.205 265.223C472.259 263.735 468.711 265.109 467.337 263.048C466.879 262.361 466.765 261.56 466.192 260.988C464.361 259.5 461.614 263.621 459.668 262.133C458.982 261.675 458.753 260.53 457.951 260.187C457.379 259.958 456.692 260.187 456.12 260.187C454.747 260.187 453.716 258.927 453.144 257.668C452.572 256.409 452.228 255.035 451.313 254.005C450.626 253.318 449.71 252.746 448.68 252.746C446.162 252.517 444.216 254.578 442.499 256.409C442.27 256.753 441.927 256.981 441.698 257.325C441.24 257.897 440.668 258.47 439.981 258.813C439.638 258.927 439.18 259.042 438.837 258.927C438.379 258.813 438.15 258.355 437.921 258.012C437.234 256.524 437.349 254.12 435.746 253.776C435.288 253.662 434.831 253.776 434.487 253.433C434.144 253.204 434.144 252.746 433.915 252.403C433.572 251.945 433.114 251.83 432.541 251.83C429.222 251.601 426.246 253.776 423.728 255.951C422.355 255.035 422.24 252.975 422.698 251.487C424.071 247.481 428.192 245.306 432.084 243.818C433.915 243.131 435.746 242.558 437.692 241.986C431.282 242.902 425.445 244.848 420.638 247.595C414.228 251.258 410.68 256.066 410.68 260.873C410.68 265.795 414.228 270.489 420.638 274.152C427.62 278.158 436.891 280.333 446.963 280.333C456.921 280.333 466.307 278.158 473.289 274.152C473.403 274.037 473.518 274.037 473.747 273.923C474.09 273.121 474.433 272.32 474.777 271.404C475.578 269.115 475.921 266.482 474.205 265.223Z" fill="black"/>
<path d="M428.535 338.597C426.818 337.91 425.102 337.109 423.499 336.193C422.927 335.85 422.355 335.507 421.782 335.163C420.867 334.591 420.065 332.759 419.951 331.157L416.059 284.339C415.945 282.737 416.632 282.164 417.662 282.851C418.348 283.309 418.921 283.652 419.608 284.11C421.553 285.255 423.614 286.171 425.788 287.087C427.276 287.659 428.535 289.261 428.65 290.864L430.939 336.766C431.168 338.254 430.023 339.17 428.535 338.597Z" fill="#1A2E35"/>
<path d="M453.144 293.268L452.343 338.826C452.343 340.429 450.969 341.802 449.482 341.917C447.879 342.031 446.277 342.031 444.674 341.917C443.072 341.802 441.813 340.429 441.813 338.826L441.126 293.268C441.126 291.665 442.385 290.521 443.987 290.635C446.162 290.75 448.337 290.75 450.512 290.635C451.885 290.521 453.144 291.665 453.144 293.268Z" fill="#1A2E35"/>
<path d="M478.096 284.339L474.205 331.157C474.09 332.759 473.289 334.591 472.373 335.163C471.801 335.507 471.229 335.85 470.656 336.193C469.054 337.109 467.452 337.91 465.62 338.597C464.132 339.17 462.988 338.254 463.102 336.651L465.391 290.75C465.506 289.147 466.765 287.544 468.253 286.972C470.428 286.171 472.488 285.141 474.434 284.11C475.12 283.652 475.807 283.309 476.494 282.851C477.524 282.164 478.211 282.737 478.096 284.339Z" fill="#1A2E35"/>
<path d="M413.083 267.284C414.8 269.687 417.319 271.977 420.752 273.923C427.734 277.929 437.005 280.104 447.078 280.104C457.036 280.104 466.422 277.929 473.404 273.923C475.578 272.664 477.524 271.29 479.012 269.802C478.898 269.115 478.669 268.428 478.325 267.856C477.639 266.597 476.265 265.567 474.777 265.452C473.976 265.452 473.06 265.681 472.259 265.567C471.458 265.567 470.428 265.109 470.313 264.307C470.199 263.964 470.313 263.506 470.199 263.163C469.97 262.133 468.711 261.789 467.795 261.904C466.765 262.133 465.964 262.705 464.934 262.934C463.903 263.163 462.644 262.934 462.301 262.018C462.072 261.56 462.187 260.988 461.958 260.53C461.385 259.614 459.783 259.843 459.211 258.813C458.753 258.126 459.325 257.21 459.439 256.295C459.668 254.921 458.638 253.547 457.379 252.861C456.12 252.174 454.632 252.059 453.259 251.945C451.771 251.83 450.054 251.716 448.795 252.632C447.421 253.547 446.963 255.264 446.391 256.753C445.704 258.241 444.56 259.729 442.957 259.729C442.843 258.355 442.042 257.096 440.783 256.638C440.096 256.295 439.295 256.295 438.493 256.066C436.204 255.379 433.915 253.433 431.626 254.12C430.596 254.349 429.795 255.035 429.108 255.722C427.849 256.867 426.59 258.012 425.331 259.042C424.415 259.843 423.614 260.644 423.27 261.675C423.156 262.133 423.156 262.59 422.813 263.048C422.126 264.193 420.638 263.735 419.493 263.735C417.776 263.735 416.632 263.964 415.258 264.994C414.228 265.681 413.541 266.368 413.083 267.284Z" fill="#BDAAE8"/>
<path opacity="0.1" d="M473.403 273.923C475.578 272.664 477.524 271.29 479.012 269.802C479.012 269.573 478.897 269.344 478.783 269.115C476.15 271.29 472.373 272.206 469.054 271.404C467.909 271.176 466.765 270.603 465.62 270.718C464.475 270.832 463.102 271.633 463.102 272.778C463.102 272.893 463.102 273.122 462.987 273.236C462.873 273.35 462.644 273.465 462.53 273.465C459.554 274.152 456.12 272.32 453.487 273.923C452.572 274.495 451.77 275.411 450.74 275.754C449.596 276.098 448.337 275.754 447.192 275.296C446.849 275.182 446.505 275.067 446.276 274.839C445.819 274.381 445.819 273.579 445.475 273.122C445.246 272.664 444.674 272.435 444.216 272.206C442.614 271.404 440.897 270.603 439.065 270.832C436.891 271.061 435.174 272.893 434.258 274.953C430.023 273.465 426.933 268.543 422.583 269.001C422.24 267.627 423.842 266.597 425.216 266.139C426.589 265.681 428.306 265.109 428.306 263.621C428.306 263.048 428.077 262.476 428.077 261.904C428.192 261.102 428.993 260.301 428.764 259.5C428.65 259.156 428.306 258.927 428.077 258.584C427.62 258.012 427.62 257.439 427.62 256.753C426.704 257.554 425.903 258.241 424.987 259.042C424.071 259.843 423.27 260.644 422.927 261.675C422.812 262.133 422.812 262.59 422.469 263.048C421.782 264.193 420.294 263.735 419.15 263.735C417.433 263.735 416.288 263.964 414.915 264.994C414.113 265.681 413.427 266.368 412.969 267.284C414.686 269.687 417.204 271.977 420.638 273.923C427.62 277.929 436.891 280.104 446.963 280.104C457.036 280.104 466.421 277.929 473.403 273.923Z" fill="black"/>
<path d="M416.173 184.523C416.173 184.065 415.83 183.493 415.487 183.264L378.402 161.858C377.944 161.629 377.372 161.629 376.914 161.858L376.113 162.316C375.769 162.545 375.426 163.117 375.426 163.575V191.963C375.426 192.421 375.769 192.994 376.113 193.222L413.197 214.628C413.541 214.857 414.227 214.857 414.685 214.628L415.487 214.17C415.83 213.941 416.173 213.369 416.173 212.911V184.523Z" fill="#2196F3"/>
<path opacity="0.4" d="M415.945 183.836L413.884 184.981L375.541 162.888C375.655 162.659 375.884 162.43 375.998 162.316L376.8 161.858C377.143 161.629 377.83 161.629 378.288 161.858L415.372 183.264C415.601 183.378 415.83 183.607 415.945 183.836Z" fill="white"/>
<path opacity="0.2" d="M416.173 184.523V212.911C416.173 213.369 415.83 213.941 415.487 214.17L414.686 214.628C414.571 214.628 414.571 214.742 414.457 214.742C414.342 214.742 414.228 214.742 414.113 214.857C413.884 214.857 413.77 214.857 413.541 214.857H413.426H413.312C413.426 214.857 413.541 214.857 413.655 214.857C413.77 214.742 413.884 214.628 413.884 214.399V186.011C413.884 185.667 413.77 185.439 413.541 185.439L413.884 185.21L415.945 184.065C416.059 184.065 416.173 184.294 416.173 184.523Z" fill="black"/>
<path opacity="0.2" d="M413.884 184.981L396.715 191.391C395.456 191.849 394.083 191.391 393.396 190.246L390.649 186.011L375.426 162.774L390.077 186.24L375.312 191.963C375.312 192.192 375.426 192.421 375.54 192.65L390.077 186.24L393.282 191.391C393.968 192.536 395.456 192.993 396.83 192.421L399.119 191.391L413.655 214.628C413.77 214.513 413.884 214.399 413.884 214.17V213.712L399.119 191.391L413.884 184.981Z" fill="black"/>
<path d="M382.179 130.494L365.125 99.8162C365.125 99.8162 346.239 76.2358 353.564 66.3915C363.637 65.4757 372.564 67.1928 381.034 83.5617C390.535 101.762 394.998 114.926 399.92 126.831C401.294 130.15 401.179 146.29 400.836 158.538C400.607 166.551 401.065 175.251 401.065 175.251L394.655 171.588C393.167 170.787 391.565 170.329 389.848 170.214H388.245C388.245 170.214 385.498 173.076 384.812 176.052C383.781 180.631 381.263 182.005 379.89 180.974C379.203 180.402 378.745 177.769 380.233 171.359C381.492 166.093 386.3 160.942 385.613 156.936L382.179 130.494Z" fill="#FFAAA8"/>
<path d="M353.679 66.2771C353.679 66.2771 360.088 64.789 364.896 66.5061C369.703 68.1086 373.137 70.0546 378.287 77.724C383.438 85.3933 394.884 112.293 394.884 112.293C394.884 112.293 393.511 119.734 376.571 122.367L359.745 95.2376L353.679 66.2771Z" fill="#BDAAE8"/>
<path d="M327.354 57.8065L330.673 79.2121L351.962 78.0674L348.872 53.1133L327.354 57.8065Z" fill="#FFAAA8"/>
<path d="M313.046 31.4788C313.046 31.4788 308.01 39.1481 308.582 39.9494C309.154 40.7507 312.931 41.4375 312.931 41.4375L313.046 31.4788Z" fill="#FF9090"/>
<path d="M327.124 10.1876C316.823 12.3625 313.962 16.8268 312.931 33.1958C311.901 50.2515 313.618 55.5171 315.907 57.9209C317.395 59.5235 325.751 59.7524 329.986 58.6077C335.251 57.1196 347.269 52.8843 352.878 44.2992C359.516 34.226 361.233 20.6042 354.137 14.9953C344.179 6.98251 331.245 9.27188 327.124 10.1876Z" fill="#FFAAA8"/>
<path d="M327.468 58.951C327.468 58.951 330.329 58.4931 332.847 57.5774C332.847 57.5774 331.359 59.6378 327.697 60.5536L327.468 58.951Z" fill="#FF9090"/>
<path d="M310.871 16.4834C311.672 17.2846 312.588 17.9715 313.504 18.5438C314.877 19.4595 316.365 20.2608 317.739 20.9476C319.112 21.6344 320.6 21.9778 321.859 22.8936C323.691 24.2672 323.92 25.9842 324.034 28.1591C324.034 29.5328 324.034 31.2498 324.034 33.1957C324.034 36.0575 325.865 38.1179 326.781 34.3404C326.781 34.3404 328.384 28.0447 333.763 28.8459C339.143 29.6472 339.486 35.5996 336.968 40.2928C335.48 43.1545 331.359 42.3532 331.359 42.3532C331.359 42.3532 330.444 50.2515 336.853 56.6618C336.853 56.6618 340.974 57.9209 349.33 56.0894C354.48 54.9447 359.402 49.3358 362.378 42.5821C368.788 28.2736 369.245 15.3387 360.089 11.4468C359.059 4.8076 353.908 1.83142 347.956 0.457799C339.028 -1.60263 330.787 3.66291 321.974 1.71695C320.6 1.37355 319.112 1.03014 317.739 0.572268C317.167 0.343331 316.594 0.228863 316.022 0.457799C315.335 0.801204 315.106 1.71695 315.221 2.40376C315.335 4.12079 316.365 5.72334 317.853 6.52462C317.624 6.41015 316.823 6.63909 316.594 6.63909C316.136 6.63909 315.564 6.63909 315.106 6.63909C314.191 6.63909 313.16 6.52462 312.245 6.41015C311.558 6.29568 310.871 6.29568 310.299 6.52462C308.811 6.98249 308.01 8.58505 308.01 10.1876C308.01 11.6757 308.811 13.1638 309.612 14.4229C309.956 14.9953 310.299 15.4532 310.642 15.911C310.642 16.2544 310.642 16.3689 310.871 16.4834Z" fill="#1A2E35"/>
<path d="M360.203 13.6217L366.384 9.95875C365.354 8.24172 363.179 7.66938 361.462 8.69959C359.86 9.72981 359.287 11.9047 360.203 13.6217Z" fill="#1A2E35"/>
<path d="M366.041 332.187C366.041 332.645 366.155 333.103 366.155 333.561C366.384 335.392 366.498 337.224 366.269 339.055C366.155 340.314 365.697 342.031 364.553 342.718C363.408 343.405 361.92 343.977 360.547 344.321C357.456 345.007 354.137 344.779 351.275 343.405C348.872 342.26 346.926 340.429 344.408 339.627C341.775 338.826 338.914 338.597 336.167 338.254C334.908 338.139 333.763 338.025 332.504 337.567C331.588 337.224 330.787 336.88 329.871 336.422C327.01 334.934 324.263 333.217 322.088 330.813C320.715 329.211 319.685 327.379 319.341 325.319C319.112 324.06 318.654 320.626 320.6 320.74C330.444 321.198 340.287 323.258 350.131 323.144C350.817 323.144 351.39 323.144 352.077 323.259C353.336 323.487 354.366 324.06 355.396 324.861C356.54 325.662 356.998 325.777 358.372 325.548C360.089 325.433 361.806 325.204 363.522 325.662C364.209 325.891 365.01 326.12 365.239 326.807C365.354 327.036 365.354 327.265 365.354 327.608C365.697 329.096 365.812 330.584 366.041 332.187Z" fill="#1A2E35"/>
<path d="M365.011 320.397L364.553 327.837C364.095 330.699 354.48 332.416 352.42 327.379L351.504 318.909L365.011 320.397Z" fill="#FFAAA8"/>
<path d="M328.269 349.815C328.269 349.815 329.414 353.707 330.1 357.027C330.558 359.66 331.245 364.238 330.329 366.184C329.299 368.13 325.637 369.389 320.028 369.16C316.365 369.046 310.642 371.45 306.636 373.51C302.516 375.685 294.16 376.372 289.925 375.8C284.889 375.113 279.738 372.022 279.052 369.962C278.25 367.901 279.395 365.726 291.413 360.919C291.528 360.919 308.01 355.882 313.847 349.701L328.269 349.815Z" fill="#1A2E35"/>
<path d="M328.384 345.008C328.384 345.008 328.269 348.327 328.269 350.159C328.269 351.99 325.98 354.737 320.257 354.394C316.251 354.165 313.504 353.02 313.733 349.701L313.847 344.893L328.384 345.008Z" fill="#FFAAA8"/>
<path d="M368.902 263.277C367.185 248.854 365.926 240.498 365.926 240.498C365.926 240.498 366.269 220.351 367.414 201.579C368.673 181.318 368.444 155.677 368.902 150.64C368.902 150.64 303.66 136.675 303.088 160.256C302.516 187.614 304.347 244.161 304.69 251.487C305.263 261.789 305.263 272.549 306.98 289.376C308.697 305.974 313.733 345.007 313.733 345.007C321.173 349.243 328.383 345.007 328.383 345.007C328.383 345.007 334.106 298.075 333.878 286.171C333.649 271.633 331.359 260.415 331.359 260.415L336.51 207.302C336.51 207.302 338.57 223.671 339.028 234.088C339.6 244.39 340.974 250.686 343.492 270.031C345.667 286.743 351.39 321.999 351.39 321.999C358.83 326.235 365.239 321.427 365.239 321.427C365.239 321.427 370.619 277.7 368.902 263.277Z" fill="#673AB7"/>
<path opacity="0.15" d="M361.348 182.691C361.348 182.691 356.769 190.132 343.149 195.626L339.372 208.447L338.914 230.997C338.341 223.786 337.54 215.773 336.625 207.417L338.112 194.253C337.998 194.138 353.221 189.56 361.348 182.691Z" fill="black"/>
<path d="M371.42 80.0134C368.787 70.7414 362.607 66.6206 355.853 66.1627C354.137 66.0482 350.588 66.1627 350.588 66.1627C351.046 70.1691 338.913 72.9163 329.413 70.627C326.552 71.4282 321.859 72.4584 319.455 73.2597C312.702 75.5491 304.461 84.0198 303.431 106.227C303.431 106.227 302.401 153.96 302.63 167.811C319.455 174.908 335.594 175.823 345.438 173.877C365.811 169.871 369.131 161.171 369.131 161.171C369.131 161.171 368.902 149.038 368.215 129.693C371.649 102.22 372.564 84.1342 371.42 80.0134Z" fill="white"/>
<path d="M228.804 67.1928C228.689 66.7349 228.918 66.277 229.262 66.0481L270.81 49.3357C271.268 49.1068 272.069 49.2213 272.756 49.4502L274.015 50.0225C274.587 50.2515 275.274 50.8238 275.389 51.2817L285.575 78.0673C285.69 78.5251 285.461 78.983 285.118 79.212L243.569 95.9243C243.111 96.1533 242.31 96.0388 241.623 95.8099L240.364 95.2375C239.792 95.0086 239.105 94.4362 238.991 93.9784L228.804 67.1928Z" fill="#2196F3"/>
<path opacity="0.4" d="M228.805 66.5059L232.01 67.7651L274.932 50.4804C274.703 50.2514 274.359 50.0225 274.016 49.908L272.757 49.3357C272.185 49.1068 271.269 48.9923 270.811 49.2212L229.263 65.9336C229.148 66.1625 228.919 66.277 228.805 66.5059Z" fill="white"/>
<path opacity="0.2" d="M228.804 67.1927L238.991 93.9783C239.105 94.4361 239.792 95.0085 240.364 95.2374L241.623 95.8098C241.738 95.8098 241.852 95.9242 241.967 95.9242C242.081 95.9242 242.196 96.0387 242.424 96.0387C242.653 96.0387 242.997 96.0387 243.226 96.0387C243.34 96.0387 243.34 96.0387 243.455 96.0387H243.569C243.455 96.0387 243.226 96.0387 243.111 96.0387C242.882 95.9242 242.768 95.8098 242.653 95.5808L232.352 68.5663C232.238 68.3374 232.352 68.1084 232.581 67.994L232.009 67.765L228.804 66.5059C228.804 66.7348 228.689 66.9637 228.804 67.1927Z" fill="black"/>
<path opacity="0.2" d="M232.009 67.8797L257.19 75.549C259.021 76.1214 260.624 75.778 261.196 74.8622L263.371 71.0848L275.16 50.4805L264.057 71.1992L285.69 78.0673C285.805 78.2963 285.805 78.5252 285.69 78.7542L264.057 71.3137L261.654 75.8924C261.081 76.9227 259.25 77.2661 257.419 76.5793L253.985 75.4346L242.997 95.9244C242.768 95.8099 242.653 95.6955 242.539 95.4665L242.425 95.0086L253.985 75.3201L232.009 67.8797Z" fill="black"/>
<path d="M299.54 88.9417C291.756 98.9004 280.997 112.751 274.931 121.107C270.581 116.872 254.557 101.762 252.84 99.3583C251.009 96.7255 251.123 93.0625 249.521 89.1706C248.262 85.9655 245.515 82.0736 244.714 80.471C243.34 77.4949 240.479 76.0068 240.479 80.3566C240.479 84.0195 242.196 88.2549 241.967 89.0562C241.852 89.3996 240.479 88.7127 238.876 87.2247C238.19 86.5378 237.617 85.851 237.045 85.0498L233.84 80.5855L231.551 74.7476C231.551 74.7476 230.635 74.8621 229.491 77.6093C226.171 85.5076 226.629 94.0928 232.924 100.961C236.702 105.082 242.997 110.691 249.635 118.589C256.16 126.487 268.521 140.223 273.786 143.2C278.479 145.947 284.317 141.597 290.955 134.843C300.341 125.457 314.763 109.66 314.763 109.66C314.763 109.66 325.522 91.46 319.227 73.2595C311.443 73.6029 309.498 76.2357 299.54 88.9417Z" fill="#FFAAA8"/>
<path d="M321.974 72.5728C321.974 72.5728 314.419 73.0306 309.612 75.5489C308.353 76.2357 304.576 80.2421 301.028 84.9353C294.16 94.2073 282.027 110.233 282.027 110.233C282.027 110.233 282.256 125.457 297.136 129.692C297.136 129.692 312.13 114.354 316.136 109.66C321.287 103.479 326.438 85.1643 321.974 72.5728Z" fill="#BDAAE8"/>
</g>
<defs>
<linearGradient id="paint0_linear" x1="7.01912" y1="306.432" x2="373.821" y2="306.432" gradientUnits="userSpaceOnUse">
<stop stop-color="#B7BEE9"/>
<stop offset="0.1771" stop-color="#BAC1EB"/>
<stop offset="0.3303" stop-color="#C5CBEF"/>
<stop offset="0.4343" stop-color="#D1D6F5"/>
<stop offset="0.462" stop-color="#DBE0FA"/>
<stop offset="0.5" stop-color="#E5E9FF"/>
<stop offset="0.5251" stop-color="#D1D6F6"/>
<stop offset="0.5606" stop-color="#AFB6E5"/>
<stop offset="1" stop-color="#AFB6E5"/>
</linearGradient>
<linearGradient id="paint1_linear" x1="9.58169" y1="263.166" x2="371.255" y2="263.166" gradientUnits="userSpaceOnUse">
<stop stop-color="#CED3F4"/>
<stop offset="0.0127482" stop-color="#D3D8F7"/>
<stop offset="0.0562747" stop-color="#E1E5FD"/>
<stop offset="0.0959596" stop-color="#E5E9FF"/>
<stop offset="0.4484" stop-color="#E8ECFF"/>
<stop offset="0.7192" stop-color="#F2F4FF"/>
<stop offset="0.9242" stop-color="white"/>
<stop offset="1" stop-color="#F5F7FF"/>
</linearGradient>
<linearGradient id="paint2_linear" x1="76.1983" y1="416.016" x2="309.705" y2="274.092" gradientUnits="userSpaceOnUse">
<stop stop-color="#CDD2F3"/>
<stop offset="0.1919" stop-color="#E5E9FF"/>
<stop offset="0.2361" stop-color="#EFF2FF"/>
<stop offset="0.2828" stop-color="white"/>
<stop offset="0.3201" stop-color="#EBEDF9"/>
<stop offset="0.3957" stop-color="#B9BFE8"/>
<stop offset="0.4091" stop-color="#AFB6E5"/>
<stop offset="0.9091" stop-color="#AFB6E5"/>
<stop offset="0.9503" stop-color="#BAC0EA"/>
<stop offset="1" stop-color="#CDD2F3"/>
</linearGradient>
<linearGradient id="paint3_linear" x1="79.5283" y1="282.221" x2="116.564" y2="282.221" gradientUnits="userSpaceOnUse">
<stop stop-color="#CED3F4"/>
<stop offset="0.0127482" stop-color="#D3D8F7"/>
<stop offset="0.0562747" stop-color="#E1E5FD"/>
<stop offset="0.0959596" stop-color="#E5E9FF"/>
<stop offset="0.4484" stop-color="#E8ECFF"/>
<stop offset="0.7192" stop-color="#F2F4FF"/>
<stop offset="0.9242" stop-color="white"/>
<stop offset="1" stop-color="#F5F7FF"/>
</linearGradient>
<linearGradient id="paint4_linear" x1="119.841" y1="143.822" x2="151.489" y2="143.822" gradientUnits="userSpaceOnUse">
<stop stop-color="#CED3F4"/>
<stop offset="0.0127482" stop-color="#D3D8F7"/>
<stop offset="0.0562747" stop-color="#E1E5FD"/>
<stop offset="0.0959596" stop-color="#E5E9FF"/>
<stop offset="0.4484" stop-color="#E8ECFF"/>
<stop offset="0.7192" stop-color="#F2F4FF"/>
<stop offset="0.9242" stop-color="white"/>
<stop offset="1" stop-color="#F5F7FF"/>
</linearGradient>
<linearGradient id="paint5_linear" x1="122.42" y1="124.734" x2="151.623" y2="124.734" gradientUnits="userSpaceOnUse">
<stop stop-color="#CED3F4"/>
<stop offset="0.0127482" stop-color="#D3D8F7"/>
<stop offset="0.0562747" stop-color="#E1E5FD"/>
<stop offset="0.0959596" stop-color="#E5E9FF"/>
<stop offset="0.4484" stop-color="#E8ECFF"/>
<stop offset="0.7192" stop-color="#F2F4FF"/>
<stop offset="0.9242" stop-color="white"/>
<stop offset="1" stop-color="#F5F7FF"/>
</linearGradient>
<linearGradient id="paint6_linear" x1="119.259" y1="165" x2="183.266" y2="165" gradientUnits="userSpaceOnUse">
<stop stop-color="#CED3F4"/>
<stop offset="0.0127482" stop-color="#D3D8F7"/>
<stop offset="0.0562747" stop-color="#E1E5FD"/>
<stop offset="0.0959596" stop-color="#E5E9FF"/>
<stop offset="0.4484" stop-color="#E8ECFF"/>
<stop offset="0.7192" stop-color="#F2F4FF"/>
<stop offset="0.9242" stop-color="white"/>
<stop offset="1" stop-color="#F5F7FF"/>
</linearGradient>
<linearGradient id="paint7_linear" x1="118.024" y1="134.311" x2="153.44" y2="134.311" gradientUnits="userSpaceOnUse">
<stop stop-color="#B7BEE9"/>
<stop offset="0.1771" stop-color="#BAC1EB"/>
<stop offset="0.3303" stop-color="#C5CBEF"/>
<stop offset="0.4343" stop-color="#D1D6F5"/>
<stop offset="0.462" stop-color="#DBE0FA"/>
<stop offset="0.5" stop-color="#E5E9FF"/>
<stop offset="0.5251" stop-color="#D1D6F6"/>
<stop offset="0.5606" stop-color="#AFB6E5"/>
<stop offset="1" stop-color="#AFB6E5"/>
</linearGradient>
<clipPath id="clip0">
<rect width="490" height="394" fill="white"/>
</clipPath>
</defs>
</svg>
